<?xml version="1.0" encoding="UTF-8" standalone="no"?>
<!-- Created with Inkscape (http://www.inkscape.org/) -->

<svg
   xmlns:dc="http://purl.org/dc/elements/1.1/"
   xmlns:cc="http://creativecommons.org/ns#"
   xmlns:rdf="http://www.w3.org/1999/02/22-rdf-syntax-ns#"
   xmlns:svg="http://www.w3.org/2000/svg"
   xmlns="http://www.w3.org/2000/svg"
   xmlns:sodipodi="http://sodipodi.sourceforge.net/DTD/sodipodi-0.dtd"
   xmlns:inkscape="http://www.inkscape.org/namespaces/inkscape"
   width="660.00073"
   height="314.60098"
   id="svg8595"
   version="1.1"
   inkscape:version="0.48.5 r10040"
   sodipodi:docname="keep_out_areas.svg">
  <defs
     id="defs8597" />
  <sodipodi:namedview
     id="base"
     pagecolor="#ffffff"
     bordercolor="#666666"
     borderopacity="1.0"
     inkscape:pageopacity="0.0"
     inkscape:pageshadow="2"
     inkscape:zoom="0.35"
     inkscape:cx="-196.52568"
     inkscape:cy="-9.7126057"
     inkscape:document-units="px"
     inkscape:current-layer="layer1"
     showgrid="false"
     fit-margin-top="5"
     fit-margin-left="5"
     fit-margin-right="5"
     fit-margin-bottom="5"
     inkscape:window-width="1280"
     inkscape:window-height="778"
     inkscape:window-x="0"
     inkscape:window-y="0"
     inkscape:window-maximized="1" />
  <metadata
     id="metadata8600">
    <rdf:RDF>
      <cc:Work
         rdf:about="">
        <dc:format>image/svg+xml</dc:format>
        <dc:type
           rdf:resource="http://purl.org/dc/dcmitype/StillImage" />
        <dc:title></dc:title>
      </cc:Work>
    </rdf:RDF>
  </metadata>
  <g
     inkscape:label="Layer 1"
     inkscape:groupmode="layer"
     id="layer1"
     transform="translate(35.617184,-208.04866)">
    <g
       id="g77656"
       transform="matrix(2.6516788,0,0,-2.6516788,-261.31324,1495.5994)">
      <path
         d="m 124.97,446.053 167.378,0 c 2.629,0 4.743,-2.11 4.743,-4.73 l 0,-27.393 c 0,-2.619 -2.114,-4.747 -4.743,-4.731 l -37.339,0 0,14.436 -24.852,0 -0.011,-14.436 -10.703,0 0,14.436 -24.747,0 0,-14.436 -69.726,0 c -2.629,0 -4.743,2.112 -4.743,4.731 l 0,27.393 c 0,2.62 2.114,4.73 4.743,4.73"
         style="fill:#345380;fill-opacity:1;fill-rule:nonzero;stroke:none"
         id="path75861"
         inkscape:connector-curvature="0" />
      <path
         inkscape:connector-curvature="0"
         id="path75865"
         style="fill:none;stroke:#000000;stroke-width:0.00971599;stroke-linecap:round;stroke-linejoin:round;stroke-miterlimit:4;stroke-opacity:1;stroke-dasharray:none"
         d="m 124.97099,446.0544 167.37732,0 c 2.62949,0 4.7443,-2.11218 4.7443,-4.7317 l 0,-27.39255 c 0,-2.62051 -2.11481,-4.74768 -4.7443,-4.7307 l -37.3396,0 0,14.43479 -24.85001,0 -0.012,-14.43479 -10.70222,0 0,14.43479 -24.74787,0 0,-14.43479 -69.72561,0 c -2.62949,0 -4.7443,2.11019 -4.7443,4.7307 l 0,27.39255 c 0,2.61952 2.11481,4.7317 4.7443,4.7317 z" />
      <path
         d="m 132.282,434.981 14.6523,0 0,12.6469 -14.6523,0 0,-12.6469 z"
         style="fill:#444444;fill-opacity:1;fill-rule:nonzero;stroke:none"
         id="path75867"
         inkscape:connector-curvature="0" />
      <path
         d="m 143.602,435 2.53672,0 0,12.6094 -2.53672,0 0,-12.6094 z"
         style="fill:#3b3b3b;fill-opacity:1;fill-rule:nonzero;stroke:none"
         id="path75869"
         inkscape:connector-curvature="0" />
      <path
         d="m 133.078,435 2.53672,0 0,12.6094 -2.53672,0 0,-12.6094 z"
         style="fill:#3b3b3b;fill-opacity:1;fill-rule:nonzero;stroke:none"
         id="path75871"
         inkscape:connector-curvature="0" />
      <path
         d="m 136.648,435 2.53672,0 0,12.6094 -2.53672,0 0,-12.6094 z"
         style="fill:#3b3b3b;fill-opacity:1;fill-rule:nonzero;stroke:none"
         id="path75873"
         inkscape:connector-curvature="0" />
      <path
         d="m 140.171,435 2.53711,0 0,12.6094 -2.53711,0 0,-12.6094 z"
         style="fill:#3b3b3b;fill-opacity:1;fill-rule:nonzero;stroke:none"
         id="path75875"
         inkscape:connector-curvature="0" />
      <path
         d="m 296.874,440.809 c 0,-2.743 -2.227,-4.964 -4.975,-4.964 -2.749,0 -4.977,2.221 -4.977,4.964 0,2.74 2.228,4.962 4.977,4.962 2.748,0 4.975,-2.222 4.975,-4.962"
         style="fill:#d4aa00;fill-opacity:1;fill-rule:nonzero;stroke:none"
         id="path75877"
         inkscape:connector-curvature="0" />
      <path
         d="m 296.624,440.797 c 0,-0.388 -0.317,-0.702 -0.704,-0.702 -0.388,0 -0.702,0.314 -0.702,0.702 0,0.387 0.314,0.7 0.702,0.7 0.387,0 0.704,-0.313 0.704,-0.7"
         style="fill:#ffffff;fill-opacity:1;fill-rule:nonzero;stroke:none"
         id="path75879"
         inkscape:connector-curvature="0" />
      <path
         d="m 295.438,443.613 c 0,-0.387 -0.315,-0.701 -0.704,-0.701 -0.387,0 -0.702,0.314 -0.702,0.701 0,0.386 0.315,0.703 0.702,0.703 0.389,0 0.704,-0.317 0.704,-0.703"
         style="fill:#ffffff;fill-opacity:1;fill-rule:nonzero;stroke:none"
         id="path75881"
         inkscape:connector-curvature="0" />
      <path
         d="m 292.615,444.82 c 0,-0.387 -0.317,-0.7 -0.704,-0.7 -0.388,0 -0.704,0.313 -0.704,0.7 0,0.387 0.316,0.701 0.704,0.701 0.387,0 0.704,-0.314 0.704,-0.701"
         style="fill:#ffffff;fill-opacity:1;fill-rule:nonzero;stroke:none"
         id="path75883"
         inkscape:connector-curvature="0" />
      <path
         d="m 289.789,443.613 c 0,-0.387 -0.314,-0.701 -0.701,-0.701 -0.39,0 -0.704,0.314 -0.704,0.701 0,0.386 0.314,0.703 0.704,0.703 0.387,0 0.701,-0.317 0.701,-0.703"
         style="fill:#ffffff;fill-opacity:1;fill-rule:nonzero;stroke:none"
         id="path75885"
         inkscape:connector-curvature="0" />
      <path
         d="m 288.63,440.821 c 0,-0.386 -0.314,-0.7 -0.702,-0.7 -0.39,0 -0.703,0.314 -0.703,0.7 0,0.389 0.313,0.702 0.703,0.702 0.388,0 0.702,-0.313 0.702,-0.702"
         style="fill:#ffffff;fill-opacity:1;fill-rule:nonzero;stroke:none"
         id="path75887"
         inkscape:connector-curvature="0" />
      <path
         d="m 289.789,437.98 c 0,-0.387 -0.314,-0.7 -0.701,-0.7 -0.39,0 -0.704,0.313 -0.704,0.7 0,0.386 0.314,0.702 0.704,0.702 0.387,0 0.701,-0.316 0.701,-0.702"
         style="fill:#ffffff;fill-opacity:1;fill-rule:nonzero;stroke:none"
         id="path75889"
         inkscape:connector-curvature="0" />
      <path
         d="m 292.615,436.823 c 0,-0.387 -0.317,-0.7 -0.704,-0.7 -0.388,0 -0.704,0.313 -0.704,0.7 0,0.386 0.316,0.702 0.704,0.702 0.387,0 0.704,-0.316 0.704,-0.702"
         style="fill:#ffffff;fill-opacity:1;fill-rule:nonzero;stroke:none"
         id="path75891"
         inkscape:connector-curvature="0" />
      <path
         d="m 295.438,438.006 c 0,-0.39 -0.315,-0.702 -0.704,-0.702 -0.387,0 -0.702,0.312 -0.702,0.702 0,0.387 0.315,0.699 0.702,0.699 0.389,0 0.704,-0.312 0.704,-0.699"
         style="fill:#ffffff;fill-opacity:1;fill-rule:nonzero;stroke:none"
         id="path75893"
         inkscape:connector-curvature="0" />
      <path
         d="m 294.715,440.809 c 0,-1.553 -1.261,-2.81 -2.816,-2.81 -1.556,0 -2.818,1.257 -2.818,2.81 0,1.553 1.262,2.811 2.818,2.811 1.555,0 2.816,-1.258 2.816,-2.811"
         style="fill:#ffffff;fill-opacity:1;fill-rule:nonzero;stroke:none"
         id="path75895"
         inkscape:connector-curvature="0" />
      <path
         d="m 130.498,440.809 c 0,-2.743 -2.228,-4.964 -4.976,-4.964 -2.749,0 -4.976,2.221 -4.976,4.964 0,2.74 2.227,4.962 4.976,4.962 2.748,0 4.976,-2.222 4.976,-4.962"
         style="fill:#d4aa00;fill-opacity:1;fill-rule:nonzero;stroke:none"
         id="path75897"
         inkscape:connector-curvature="0" />
      <path
         d="m 130.248,440.797 c 0,-0.388 -0.314,-0.702 -0.704,-0.702 -0.388,0 -0.702,0.314 -0.702,0.702 0,0.387 0.314,0.7 0.702,0.7 0.39,0 0.704,-0.313 0.704,-0.7"
         style="fill:#ffffff;fill-opacity:1;fill-rule:nonzero;stroke:none"
         id="path75899"
         inkscape:connector-curvature="0" />
      <path
         d="m 129.063,443.613 c 0,-0.387 -0.316,-0.701 -0.702,-0.701 -0.391,0 -0.705,0.314 -0.705,0.701 0,0.386 0.314,0.703 0.705,0.703 0.386,0 0.702,-0.317 0.702,-0.703"
         style="fill:#ffffff;fill-opacity:1;fill-rule:nonzero;stroke:none"
         id="path75901"
         inkscape:connector-curvature="0" />
      <path
         d="m 126.239,444.82 c 0,-0.387 -0.315,-0.7 -0.703,-0.7 -0.389,0 -0.702,0.313 -0.702,0.7 0,0.387 0.313,0.701 0.702,0.701 0.388,0 0.703,-0.314 0.703,-0.701"
         style="fill:#ffffff;fill-opacity:1;fill-rule:nonzero;stroke:none"
         id="path75903"
         inkscape:connector-curvature="0" />
      <path
         d="m 123.414,443.613 c 0,-0.387 -0.314,-0.701 -0.702,-0.701 -0.39,0 -0.703,0.314 -0.703,0.701 0,0.386 0.313,0.703 0.703,0.703 0.388,0 0.702,-0.317 0.702,-0.703"
         style="fill:#ffffff;fill-opacity:1;fill-rule:nonzero;stroke:none"
         id="path75905"
         inkscape:connector-curvature="0" />
      <path
         d="m 122.254,440.821 c 0,-0.386 -0.315,-0.7 -0.701,-0.7 -0.39,0 -0.705,0.314 -0.705,0.7 0,0.389 0.315,0.702 0.705,0.702 0.386,0 0.701,-0.313 0.701,-0.702"
         style="fill:#ffffff;fill-opacity:1;fill-rule:nonzero;stroke:none"
         id="path75907"
         inkscape:connector-curvature="0" />
      <path
         d="m 123.414,437.98 c 0,-0.387 -0.314,-0.7 -0.702,-0.7 -0.39,0 -0.703,0.313 -0.703,0.7 0,0.386 0.313,0.702 0.703,0.702 0.388,0 0.702,-0.316 0.702,-0.702"
         style="fill:#ffffff;fill-opacity:1;fill-rule:nonzero;stroke:none"
         id="path75909"
         inkscape:connector-curvature="0" />
      <path
         d="m 126.239,436.823 c 0,-0.387 -0.315,-0.7 -0.703,-0.7 -0.389,0 -0.702,0.313 -0.702,0.7 0,0.386 0.313,0.702 0.702,0.702 0.388,0 0.703,-0.316 0.703,-0.702"
         style="fill:#ffffff;fill-opacity:1;fill-rule:nonzero;stroke:none"
         id="path75911"
         inkscape:connector-curvature="0" />
      <path
         d="m 129.063,438.006 c 0,-0.39 -0.316,-0.702 -0.702,-0.702 -0.391,0 -0.705,0.312 -0.705,0.702 0,0.387 0.314,0.699 0.705,0.699 0.386,0 0.702,-0.312 0.702,-0.699"
         style="fill:#ffffff;fill-opacity:1;fill-rule:nonzero;stroke:none"
         id="path75913"
         inkscape:connector-curvature="0" />
      <path
         d="m 128.341,440.809 c 0,-1.553 -1.261,-2.81 -2.819,-2.81 -1.556,0 -2.817,1.257 -2.817,2.81 0,1.553 1.261,2.811 2.817,2.811 1.558,0 2.819,-1.258 2.819,-2.811"
         style="fill:#ffffff;fill-opacity:1;fill-rule:nonzero;stroke:none"
         id="path75915"
         inkscape:connector-curvature="0" />
      <path
         d="m 228.767,443.485 -0.372,0.051 -1.32,-3.021 -1.293,3.021 -0.359,-0.051 1.615,-3.767 0.068,0 1.661,3.767 z m 3.629,-3.696 -1.756,3.76 -0.104,0 -1.803,-3.76 0.369,-0.046 0.656,1.403 1.628,0 0.662,-1.403 0.348,0.046 z m -1.173,1.682 -1.311,0 0.655,1.39 0.656,-1.39 z m 1.468,-1.687 1.025,0 c 0.243,0.003 0.451,0.04 0.623,0.12 0.17,0.078 0.304,0.179 0.404,0.307 0.097,0.122 0.158,0.262 0.181,0.412 0.024,0.151 0.014,0.297 -0.028,0.443 -0.045,0.141 -0.125,0.27 -0.236,0.386 -0.114,0.116 -0.255,0.201 -0.427,0.255 0.146,0.079 0.258,0.188 0.331,0.327 0.071,0.137 0.106,0.292 0.108,0.465 -0.002,0.189 -0.034,0.348 -0.09,0.472 -0.061,0.125 -0.142,0.225 -0.243,0.3 -0.104,0.073 -0.223,0.127 -0.357,0.16 -0.137,0.032 -0.278,0.053 -0.424,0.062 -0.147,0.009 -0.296,0.011 -0.442,0.007 -0.152,-0.005 -0.293,-0.007 -0.425,-0.007 l 0,-3.709 z m 1.61,2.698 -0.005,0 c -0.002,-0.184 -0.044,-0.32 -0.127,-0.411 -0.087,-0.088 -0.194,-0.152 -0.319,-0.19 -0.127,-0.037 -0.265,-0.057 -0.412,-0.057 -0.142,0 -0.278,0 -0.4,0 l 0,1.336 c 0.132,0 0.273,0 0.422,0.003 0.146,0 0.283,-0.02 0.409,-0.054 0.125,-0.038 0.227,-0.104 0.309,-0.197 0.081,-0.098 0.123,-0.239 0.123,-0.43 z m -1.263,-0.983 c 0.093,0 0.198,0 0.309,0.005 0.11,0 0.222,-0.002 0.336,-0.007 0.111,-0.01 0.219,-0.023 0.325,-0.045 0.103,-0.023 0.194,-0.063 0.276,-0.117 0.081,-0.056 0.147,-0.13 0.194,-0.22 0.048,-0.091 0.07,-0.205 0.07,-0.343 0,-0.127 -0.025,-0.234 -0.077,-0.319 -0.052,-0.084 -0.121,-0.15 -0.203,-0.198 -0.084,-0.047 -0.182,-0.082 -0.288,-0.103 -0.109,-0.022 -0.217,-0.035 -0.33,-0.04 -0.114,-0.007 -0.225,-0.007 -0.329,-0.002 -0.109,0.002 -0.203,0.004 -0.283,0.004 l 0,1.385 z m 3.774,-0.56 0,0.291 -1.347,0 0,-0.298 1.347,0.007 z m 2.289,-1.155 0,0.299 -0.453,0 0,3.515 -0.879,-0.443 0.059,-0.331 0.47,0.262 0,-3.01 -0.492,0 0,-0.292 1.295,0 z m 3.269,1.837 c 0,0.181 -0.018,0.383 -0.056,0.607 -0.037,0.22 -0.102,0.431 -0.191,0.631 -0.093,0.195 -0.216,0.36 -0.366,0.496 -0.154,0.133 -0.343,0.201 -0.565,0.201 -0.152,0 -0.284,-0.03 -0.397,-0.091 -0.118,-0.061 -0.22,-0.144 -0.307,-0.246 -0.087,-0.106 -0.16,-0.223 -0.223,-0.353 -0.061,-0.134 -0.11,-0.271 -0.146,-0.409 -0.037,-0.143 -0.064,-0.284 -0.081,-0.425 -0.018,-0.144 -0.027,-0.273 -0.025,-0.389 -0.002,-0.183 0.017,-0.386 0.057,-0.608 0.038,-0.223 0.101,-0.433 0.193,-0.626 0.087,-0.198 0.208,-0.363 0.362,-0.495 0.15,-0.134 0.34,-0.198 0.567,-0.2 0.219,0.002 0.406,0.066 0.559,0.198 0.152,0.129 0.275,0.291 0.367,0.488 0.089,0.193 0.153,0.4 0.193,0.621 0.039,0.219 0.059,0.419 0.059,0.6 z m -0.354,0.022 c 0,-0.082 -0.007,-0.179 -0.017,-0.289 -0.011,-0.111 -0.028,-0.224 -0.054,-0.342 -0.027,-0.117 -0.063,-0.235 -0.104,-0.349 -0.045,-0.115 -0.096,-0.216 -0.155,-0.306 -0.064,-0.091 -0.136,-0.164 -0.215,-0.222 -0.08,-0.056 -0.176,-0.084 -0.279,-0.084 -0.108,0 -0.201,0.025 -0.281,0.081 -0.081,0.053 -0.151,0.127 -0.213,0.218 -0.061,0.087 -0.112,0.188 -0.155,0.303 -0.044,0.114 -0.079,0.229 -0.103,0.345 -0.026,0.115 -0.042,0.229 -0.054,0.338 -0.014,0.112 -0.021,0.207 -0.019,0.285 -0.002,0.081 0.003,0.178 0.015,0.289 0.009,0.11 0.029,0.224 0.056,0.342 0.026,0.115 0.059,0.232 0.1,0.35 0.039,0.115 0.092,0.217 0.152,0.31 0.062,0.088 0.133,0.164 0.218,0.22 0.081,0.057 0.176,0.084 0.284,0.087 0.103,-0.003 0.199,-0.03 0.279,-0.082 0.079,-0.056 0.151,-0.127 0.215,-0.217 0.059,-0.089 0.11,-0.193 0.155,-0.306 0.041,-0.115 0.077,-0.23 0.104,-0.347 0.026,-0.12 0.043,-0.233 0.054,-0.338 0.01,-0.112 0.017,-0.206 0.017,-0.286 z m 3.111,-0.022 c 0,0.181 -0.019,0.383 -0.057,0.607 -0.037,0.22 -0.101,0.431 -0.191,0.631 -0.092,0.195 -0.215,0.36 -0.366,0.496 -0.153,0.133 -0.343,0.201 -0.565,0.201 -0.151,0 -0.283,-0.03 -0.396,-0.091 -0.119,-0.061 -0.22,-0.144 -0.307,-0.246 -0.088,-0.106 -0.161,-0.223 -0.222,-0.353 -0.062,-0.134 -0.112,-0.271 -0.146,-0.409 -0.039,-0.143 -0.065,-0.284 -0.081,-0.425 -0.019,-0.144 -0.029,-0.273 -0.026,-0.389 -0.003,-0.183 0.016,-0.386 0.056,-0.608 0.038,-0.223 0.102,-0.433 0.194,-0.626 0.088,-0.198 0.208,-0.363 0.362,-0.495 0.151,-0.134 0.339,-0.198 0.566,-0.2 0.22,0.002 0.407,0.066 0.56,0.198 0.152,0.129 0.274,0.291 0.366,0.488 0.09,0.193 0.154,0.4 0.194,0.621 0.038,0.219 0.059,0.419 0.059,0.6 z m -0.355,0.022 c 0,-0.082 -0.007,-0.179 -0.015,-0.289 -0.012,-0.111 -0.029,-0.224 -0.055,-0.342 -0.028,-0.117 -0.064,-0.235 -0.104,-0.349 -0.045,-0.115 -0.097,-0.216 -0.155,-0.306 -0.065,-0.091 -0.136,-0.164 -0.215,-0.222 -0.082,-0.056 -0.176,-0.084 -0.28,-0.084 -0.108,0 -0.2,0.025 -0.281,0.081 -0.08,0.053 -0.151,0.127 -0.212,0.218 -0.061,0.087 -0.114,0.188 -0.156,0.303 -0.042,0.114 -0.078,0.229 -0.102,0.345 -0.026,0.115 -0.042,0.229 -0.054,0.338 -0.014,0.112 -0.021,0.207 -0.018,0.285 -0.003,0.081 0.001,0.178 0.013,0.289 0.01,0.11 0.029,0.224 0.058,0.342 0.025,0.115 0.058,0.232 0.098,0.35 0.041,0.115 0.091,0.217 0.154,0.31 0.061,0.088 0.132,0.164 0.217,0.22 0.08,0.057 0.175,0.084 0.283,0.087 0.104,-0.003 0.198,-0.03 0.28,-0.082 0.079,-0.056 0.15,-0.127 0.215,-0.217 0.058,-0.089 0.11,-0.193 0.155,-0.306 0.04,-0.115 0.076,-0.23 0.104,-0.347 0.026,-0.12 0.043,-0.233 0.055,-0.338 0.008,-0.112 0.015,-0.206 0.015,-0.286 z m 3.112,-0.022 c 0,0.181 -0.019,0.383 -0.056,0.607 -0.039,0.22 -0.103,0.431 -0.192,0.631 -0.093,0.195 -0.215,0.36 -0.366,0.496 -0.154,0.133 -0.342,0.201 -0.565,0.201 -0.151,0 -0.283,-0.03 -0.396,-0.091 -0.12,-0.061 -0.22,-0.144 -0.308,-0.246 -0.087,-0.106 -0.161,-0.223 -0.222,-0.353 -0.061,-0.134 -0.111,-0.271 -0.146,-0.409 -0.037,-0.143 -0.064,-0.284 -0.081,-0.425 -0.019,-0.144 -0.027,-0.273 -0.026,-0.389 -0.001,-0.183 0.017,-0.386 0.056,-0.608 0.039,-0.223 0.102,-0.433 0.195,-0.626 0.087,-0.198 0.207,-0.363 0.361,-0.495 0.151,-0.134 0.341,-0.198 0.567,-0.2 0.22,0.002 0.408,0.066 0.56,0.198 0.151,0.129 0.274,0.291 0.366,0.488 0.09,0.193 0.153,0.4 0.194,0.621 0.038,0.219 0.059,0.419 0.059,0.6 z m -0.354,0.022 c 0,-0.082 -0.007,-0.179 -0.017,-0.289 -0.012,-0.111 -0.027,-0.224 -0.054,-0.342 -0.029,-0.117 -0.064,-0.235 -0.104,-0.349 -0.044,-0.115 -0.098,-0.216 -0.156,-0.306 -0.064,-0.091 -0.135,-0.164 -0.215,-0.222 -0.08,-0.056 -0.174,-0.084 -0.279,-0.084 -0.109,0 -0.201,0.025 -0.28,0.081 -0.082,0.053 -0.153,0.127 -0.214,0.218 -0.061,0.087 -0.113,0.188 -0.156,0.303 -0.042,0.114 -0.076,0.229 -0.101,0.345 -0.026,0.115 -0.043,0.229 -0.055,0.338 -0.014,0.112 -0.02,0.207 -0.019,0.285 -0.001,0.081 0.002,0.178 0.016,0.289 0.009,0.11 0.027,0.224 0.056,0.342 0.027,0.115 0.059,0.232 0.1,0.35 0.039,0.115 0.091,0.217 0.152,0.31 0.061,0.088 0.132,0.164 0.218,0.22 0.08,0.057 0.174,0.084 0.283,0.087 0.105,-0.003 0.199,-0.03 0.279,-0.082 0.08,-0.056 0.151,-0.127 0.215,-0.217 0.058,-0.089 0.112,-0.193 0.156,-0.306 0.04,-0.115 0.075,-0.23 0.104,-0.347 0.027,-0.12 0.042,-0.233 0.054,-0.338 0.01,-0.112 0.017,-0.206 0.017,-0.286 z m 2.137,-0.704 0,0.291 -1.346,0 0,-0.298 1.346,0.007 z m 2.993,2.221 0,0.333 -2.644,0 -0.046,-0.338 1.187,0 0,-3.387 0.35,0.038 0,3.354"
         style="fill:#ffffff;fill-opacity:1;fill-rule:nonzero;stroke:none"
         id="path75917"
         inkscape:connector-curvature="0" />
      <path
         d="m 196.201,424.337 21.7,0 c 0.45,0 0.812,-0.286 0.812,-0.642 l 0,-18.224 c 0,-0.352 -0.362,-0.637 -0.812,-0.637 l -21.7,0 c -0.449,0 -0.813,0.285 -0.813,0.637 l 0,18.224 c 0,0.356 0.364,0.642 0.813,0.642"
         style="fill:#dddddd;fill-opacity:1;fill-rule:nonzero;stroke:none"
         id="path75919"
         inkscape:connector-curvature="0" />
      <path
         d="m 197.068,404.834 20.187,0 c -0.042,-0.718 -0.288,-1.232 -0.973,-1.303 l -18.244,0 c -0.786,0.136 -0.954,0.791 -0.97,1.303"
         style="fill:#e6e6e6;fill-opacity:1;fill-rule:nonzero;stroke:none"
         id="path75921"
         inkscape:connector-curvature="0" />
      <path
         d="m 194.58,403.738 c 0.517,0.432 0.982,0.878 0.823,1.549 0.271,-0.364 0.628,-0.469 1.062,-0.427 -0.23,-0.663 -0.765,-1.531 -1.672,-1.683 -0.213,-0.02 -0.394,0.262 -0.213,0.561"
         style="fill:#e6e6e6;fill-opacity:1;fill-rule:nonzero;stroke:none"
         id="path75923"
         inkscape:connector-curvature="0" />
      <path
         d="m 219.504,403.727 c -0.517,0.43 -0.981,0.878 -0.82,1.548 -0.273,-0.36 -0.63,-0.47 -1.065,-0.425 0.231,-0.662 0.765,-1.534 1.673,-1.685 0.212,-0.02 0.393,0.262 0.212,0.562"
         style="fill:#e6e6e6;fill-opacity:1;fill-rule:nonzero;stroke:none"
         id="path75925"
         inkscape:connector-curvature="0" />
      <path
         d="m 199.804,415.173 0.309,-6.696 c 0.011,-0.402 0.245,-0.524 0.482,-0.641 l 2.401,0 c 0.381,0.132 0.344,0.402 0.402,0.643 l 0.357,6.726 c 0.066,0.499 0.864,0.464 0.912,-0.032 l -0.363,-9.188 c -0.046,-0.296 -0.222,-0.506 -0.61,-0.573 l -3.79,0.027 c -0.383,0.093 -0.439,0.316 -0.547,0.516 l -0.527,9.158 c -0.048,0.44 0.808,0.527 0.974,0.06"
         style="fill:#808080;fill-opacity:1;fill-rule:nonzero;stroke:none"
         id="path75927"
         inkscape:connector-curvature="0" />
      <path
         d="m 210.323,415.173 0.311,-6.696 c 0.012,-0.402 0.243,-0.524 0.48,-0.641 l 2.402,0 c 0.38,0.132 0.345,0.402 0.403,0.643 l 0.358,6.726 c 0.063,0.499 0.864,0.464 0.912,-0.032 l -0.368,-9.188 c -0.041,-0.296 -0.218,-0.506 -0.605,-0.573 l -3.793,0.027 c -0.38,0.093 -0.436,0.316 -0.545,0.516 l -0.527,9.158 c -0.047,0.44 0.807,0.527 0.972,0.06"
         style="fill:#808080;fill-opacity:1;fill-rule:nonzero;stroke:none"
         id="path75929"
         inkscape:connector-curvature="0" />
      <path
         d="m 197.321,422.442 c 0.144,0.396 0.772,0.346 0.918,0 l 0.014,-2.238 c 0.261,-0.36 1.274,-0.37 1.555,0.007 l 0,2.231 c 0.147,0.348 0.732,0.401 0.911,0 l 0,-2.928 c -0.039,-0.184 -0.105,-0.285 -0.361,-0.299 l -2.641,0 c -0.34,0.04 -0.425,0.198 -0.396,0.398"
         style="fill:#cccccc;fill-opacity:1;fill-rule:nonzero;stroke:none"
         id="path75931"
         inkscape:connector-curvature="0" />
      <path
         d="m 213.126,422.442 c 0.144,0.396 0.77,0.346 0.919,0 l 0.013,-2.238 c 0.258,-0.36 1.275,-0.37 1.553,0.007 l 0,2.231 c 0.146,0.348 0.735,0.401 0.912,0 l 0,-2.928 c -0.038,-0.184 -0.107,-0.285 -0.361,-0.299 l -2.639,0 c -0.343,0.04 -0.425,0.198 -0.397,0.398"
         style="fill:#cccccc;fill-opacity:1;fill-rule:nonzero;stroke:none"
         id="path75933"
         inkscape:connector-curvature="0" />
      <path
         d="m 231.806,424.337 21.7,0 c 0.451,0 0.812,-0.286 0.812,-0.642 l 0,-18.224 c 0,-0.352 -0.361,-0.637 -0.812,-0.637 l -21.7,0 c -0.449,0 -0.812,0.285 -0.812,0.637 l 0,18.224 c 0,0.356 0.363,0.642 0.812,0.642"
         style="fill:#dddddd;fill-opacity:1;fill-rule:nonzero;stroke:none"
         id="path75935"
         inkscape:connector-curvature="0" />
      <path
         d="m 232.671,404.834 20.188,0 c -0.041,-0.718 -0.287,-1.232 -0.973,-1.303 l -18.241,0 c -0.788,0.136 -0.958,0.791 -0.974,1.303"
         style="fill:#e6e6e6;fill-opacity:1;fill-rule:nonzero;stroke:none"
         id="path75937"
         inkscape:connector-curvature="0" />
      <path
         d="m 230.212,403.722 c 0.516,0.431 0.98,0.878 0.82,1.548 0.274,-0.361 0.628,-0.469 1.065,-0.425 -0.232,-0.663 -0.767,-1.533 -1.672,-1.684 -0.213,-0.021 -0.397,0.262 -0.213,0.561"
         style="fill:#e6e6e6;fill-opacity:1;fill-rule:nonzero;stroke:none"
         id="path75939"
         inkscape:connector-curvature="0" />
      <path
         d="m 255.094,403.72 c -0.516,0.43 -0.981,0.878 -0.82,1.548 -0.275,-0.362 -0.629,-0.47 -1.065,-0.427 0.231,-0.662 0.766,-1.532 1.671,-1.683 0.214,-0.02 0.399,0.263 0.214,0.562"
         style="fill:#e6e6e6;fill-opacity:1;fill-rule:nonzero;stroke:none"
         id="path75941"
         inkscape:connector-curvature="0" />
      <path
         d="m 235.409,415.173 0.309,-6.696 c 0.012,-0.402 0.246,-0.524 0.48,-0.641 l 2.403,0 c 0.381,0.132 0.344,0.402 0.403,0.643 l 0.357,6.726 c 0.064,0.499 0.865,0.464 0.911,-0.032 l -0.366,-9.188 c -0.042,-0.296 -0.219,-0.506 -0.607,-0.573 l -3.788,0.027 c -0.383,0.093 -0.44,0.316 -0.548,0.516 l -0.527,9.158 c -0.047,0.44 0.809,0.527 0.973,0.06"
         style="fill:#808080;fill-opacity:1;fill-rule:nonzero;stroke:none"
         id="path75943"
         inkscape:connector-curvature="0" />
      <path
         d="m 245.928,415.173 0.31,-6.696 c 0.014,-0.402 0.246,-0.524 0.481,-0.641 l 2.401,0 c 0.382,0.132 0.347,0.402 0.403,0.643 l 0.358,6.726 c 0.065,0.499 0.864,0.464 0.91,-0.032 l -0.363,-9.188 c -0.044,-0.296 -0.219,-0.506 -0.607,-0.573 l -3.791,0.027 c -0.383,0.093 -0.437,0.316 -0.546,0.516 l -0.529,9.158 c -0.048,0.44 0.808,0.527 0.973,0.06"
         style="fill:#808080;fill-opacity:1;fill-rule:nonzero;stroke:none"
         id="path75945"
         inkscape:connector-curvature="0" />
      <path
         d="m 232.926,422.442 c 0.144,0.396 0.77,0.346 0.919,0 l 0.015,-2.238 c 0.259,-0.36 1.273,-0.37 1.554,0.007 l 0,2.231 c 0.143,0.348 0.732,0.401 0.909,0 l 0,-2.928 c -0.038,-0.184 -0.107,-0.285 -0.359,-0.299 l -2.641,0 c -0.341,0.04 -0.425,0.198 -0.397,0.398"
         style="fill:#cccccc;fill-opacity:1;fill-rule:nonzero;stroke:none"
         id="path75947"
         inkscape:connector-curvature="0" />
      <path
         d="m 248.73,422.442 c 0.144,0.396 0.772,0.346 0.918,0 l 0.015,-2.238 c 0.26,-0.36 1.273,-0.37 1.555,0.007 l 0,2.231 c 0.146,0.348 0.732,0.401 0.911,0 l 0,-2.928 c -0.038,-0.184 -0.106,-0.285 -0.362,-0.299 l -2.641,0 c -0.34,0.04 -0.422,0.198 -0.396,0.398"
         style="fill:#cccccc;fill-opacity:1;fill-rule:nonzero;stroke:none"
         id="path75949"
         inkscape:connector-curvature="0" />
      <path
         d="m 264.682,409.129 c 0.148,0.187 0.392,0.285 0.743,0.273 l 3.274,0 c 0.289,0.007 0.585,-0.054 0.731,-0.273 l 0,-2.449 c -0.412,-3.123 -4.363,-3.125 -4.748,0"
         style="fill:#2ca02c;fill-opacity:1;fill-rule:nonzero;stroke:none"
         id="path75951"
         inkscape:connector-curvature="0" />
      <path
         d="m 263.321,419.566 0.624,0 0.001,-2.637 1.655,0 0.008,2.637 2.571,0 0.021,-2.637 1.765,0 -0.023,2.637 0.707,0 0,-10.317 -7.329,0"
         style="fill:#383838;fill-opacity:1;fill-rule:nonzero;stroke:none"
         id="path75953"
         inkscape:connector-curvature="0" />
      <path
         d="m 284.525,409.961 7.20547,0 0,3.33594 -7.20547,0 0,-3.33594 z"
         style="fill:#bababa;fill-opacity:1;fill-rule:nonzero;stroke:none"
         id="path75955"
         inkscape:connector-curvature="0" />
      <path
         d="m 281.784,413.327 12.6828,0 0,5.48711 -12.6828,0 0,-5.48711 z"
         style="fill:#464646;fill-opacity:1;fill-rule:nonzero;stroke:none"
         id="path75957"
         inkscape:connector-curvature="0" />
      <path
         d="m 282.408,423.818 0.156,0 c 0.2,0 0.364,-0.163 0.364,-0.363 l 0,-4.278 c 0,-0.2 -0.164,-0.364 -0.364,-0.364 l -0.156,0 c -0.201,0 -0.363,0.164 -0.363,0.364 l 0,4.278 c 0,0.2 0.162,0.363 0.363,0.363"
         style="fill:#d4d4d4;fill-opacity:1;fill-rule:nonzero;stroke:none"
         id="path75959"
         inkscape:connector-curvature="0" />
      <path
         d="m 293.932,423.818 0.003,0 c 0.244,0 0.438,-0.195 0.438,-0.438 l 0,-4.128 c 0,-0.242 -0.194,-0.439 -0.438,-0.439 l -0.003,0 c -0.245,0 -0.441,0.197 -0.441,0.439 l 0,4.128 c 0,0.243 0.196,0.438 0.441,0.438"
         style="fill:#d4d4d4;fill-opacity:1;fill-rule:nonzero;stroke:none"
         id="path75961"
         inkscape:connector-curvature="0" />
      <path
         d="m 284.718,418.83 7.05625,0 0,2.24063 -7.05625,0 0,-2.24063 z"
         style="fill:#404040;fill-opacity:1;fill-rule:nonzero;stroke:none"
         id="path75963"
         inkscape:connector-curvature="0" />
      <path
         d="m 281.699,417.271 12.8133,0 0,1.58828 -12.8133,0 0,-1.58828 z"
         style="fill:#373737;fill-opacity:1;fill-rule:nonzero;stroke:none"
         id="path75965"
         inkscape:connector-curvature="0" />
      <path
         d="m 281.569,410.372 13.113,0 0,-7.084 c -0.198,-0.73 -0.432,-1.447 -1.825,-1.545 -3.186,-0.18 -6.318,-0.224 -9.341,0 -0.917,0.211 -1.898,0.519 -1.947,1.487"
         style="fill:#292929;fill-opacity:1;fill-rule:nonzero;stroke:none"
         id="path75967"
         inkscape:connector-curvature="0" />
      <path
         d="m 284.139,430.479 0.145,0 c 0.234,0 0.422,-0.189 0.422,-0.424 l 0,-11.752 c 0,-0.234 -0.188,-0.422 -0.422,-0.422 l -0.145,0 c -0.234,0 -0.423,0.188 -0.423,0.422 l 0,11.752 c 0,0.235 0.189,0.424 0.423,0.424"
         style="fill:#d4d4d4;fill-opacity:1;fill-rule:nonzero;stroke:none"
         id="path75969"
         inkscape:connector-curvature="0" />
      <path
         d="m 292.289,430.495 0.005,0 c 0.272,0 0.492,-0.22 0.492,-0.493 l 0,-11.615 c 0,-0.272 -0.22,-0.489 -0.492,-0.489 l -0.005,0 c -0.274,0 -0.493,0.217 -0.493,0.489 l 0,11.615 c 0,0.273 0.219,0.493 0.493,0.493"
         style="fill:#d4d4d4;fill-opacity:1;fill-rule:nonzero;stroke:none"
         id="path75971"
         inkscape:connector-curvature="0" />
      <path
         d="m 156.366,411.887 6.10625,0 0,4.2457 -6.10625,0 0,-4.2457 z"
         style="fill:#323232;fill-opacity:1;fill-rule:nonzero;stroke:none"
         id="path75973"
         inkscape:connector-curvature="0" />
      <path
         d="m 154.146,402.196 9.97539,0 0,4.97578 -9.97539,0 0,-4.97578 z"
         style="fill:#323232;fill-opacity:1;fill-rule:nonzero;stroke:none"
         id="path75975"
         inkscape:connector-curvature="0" />
      <path
         d="m 155.358,404.662 -0.022,2.531 0.407,-0.022 0,1.286 1.078,0 c 0.354,0.022 0.627,0.137 0.6,0.599 l -0.022,3.218 0.915,0.021 0,-3.838 c -0.069,-0.452 0.193,-0.643 0.505,-0.794 l 1.483,-0.02 c 0.39,0.048 0.475,0.403 0.503,0.814 l 0,3.817 0.761,0 0,-3.261 c 0.077,-0.216 0.068,-0.473 0.413,-0.556 l 1.716,0 0,-2.509 -7.607,-0.021 0,-1.265"
         style="fill:#b99b23;fill-opacity:1;fill-rule:nonzero;stroke:none"
         id="path75977"
         inkscape:connector-curvature="0" />
      <path
         d="m 151.836,428.132 14.597,0 c 0.471,0 0.849,-0.486 0.849,-1.091 l 0,-18.803 c 0,-0.603 -0.378,-1.091 -0.849,-1.091 l -2.785,0 0.015,1.31 -1.58,0 c -0.347,0 -0.486,0.309 -0.486,0.544 l 0,6.185 c 0,0.464 -0.834,0.518 -0.834,0.012 l 0,-6.741 c 0,-0.45 -0.236,-0.819 -0.588,-0.794 l -1.295,0 c -0.566,0.173 -0.566,0.515 -0.566,0.794 l 0,6.731 c 0,0.46 -0.882,0.56 -0.882,0 l 0,-6.192 c 0,-0.38 -0.271,-0.539 -0.574,-0.539 l -1.115,-0.002 0,-1.308 -3.907,0 c -0.473,0 -0.851,0.488 -0.851,1.091 l 0,18.803 c 0,0.605 0.378,1.091 0.851,1.091"
         style="fill:#e5e5e5;fill-opacity:1;fill-rule:nonzero;stroke:none"
         id="path75979"
         inkscape:connector-curvature="0" />
      <path
         d="m 152.457,427.238 13.288,0 c 0.43,0 0.776,-0.445 0.776,-0.993 l 0,-17.118 c 0,-0.552 -0.346,-1.423 -0.776,-1.423 l -2.019,0 0.015,1.621 -1.61,0 c -0.317,0 -0.444,0.279 -0.444,0.496 l 0,5.629 c 0,0.423 -1.102,0.473 -1.102,0.012 l 0,-6.137 c 0,-0.411 -0.217,-0.748 -0.535,-0.724 l -1.18,0 c -0.517,0.157 -0.517,0.468 -0.517,0.724 l 0,6.127 c 0,0.418 -1.017,0.511 -1.017,0 l 0,-5.638 c 0,-0.346 -0.247,-0.489 -0.523,-0.489 l -1.228,-0.003 0,-1.618 -3.128,0 c -0.43,0 -0.775,0.871 -0.775,1.423 l 0,17.118 c 0,0.548 0.345,0.993 0.775,0.993"
         style="fill:#dddddd;fill-opacity:1;fill-rule:nonzero;stroke:none"
         id="path75981"
         inkscape:connector-curvature="0" />
      <path
         d="m 135.154,411.887 6.10469,0 0,4.2457 -6.10469,0 0,-4.2457 z"
         style="fill:#323232;fill-opacity:1;fill-rule:nonzero;stroke:none"
         id="path75983"
         inkscape:connector-curvature="0" />
      <path
         d="m 132.931,402.196 9.97539,0 0,4.97578 -9.97539,0 0,-4.97578 z"
         style="fill:#323232;fill-opacity:1;fill-rule:nonzero;stroke:none"
         id="path75985"
         inkscape:connector-curvature="0" />
      <path
         d="m 134.143,404.662 -0.022,2.531 0.41,-0.022 0,1.286 1.074,0 c 0.355,0.022 0.629,0.137 0.602,0.599 l -0.024,3.218 0.915,0.021 0,-3.838 c -0.069,-0.452 0.194,-0.643 0.506,-0.794 l 1.483,-0.02 c 0.389,0.048 0.476,0.403 0.506,0.814 l 0,3.817 0.758,0 0,-3.261 c 0.076,-0.216 0.068,-0.473 0.414,-0.556 l 1.714,0 0,-2.509 -7.606,-0.021 0,-1.265"
         style="fill:#b99b23;fill-opacity:1;fill-rule:nonzero;stroke:none"
         id="path75987"
         inkscape:connector-curvature="0" />
      <path
         d="m 130.621,428.132 14.596,0 c 0.472,0 0.853,-0.486 0.853,-1.091 l 0,-18.803 c 0,-0.603 -0.381,-1.091 -0.853,-1.091 l -2.785,0 0.016,1.31 -1.58,0 c -0.347,0 -0.487,0.309 -0.487,0.544 l 0,6.185 c 0,0.464 -0.833,0.518 -0.833,0.012 l 0,-6.741 c 0,-0.45 -0.236,-0.819 -0.588,-0.794 l -1.295,0 c -0.567,0.173 -0.567,0.515 -0.567,0.794 l 0,6.731 c 0,0.46 -0.881,0.56 -0.881,0 l 0,-6.192 c 0,-0.38 -0.271,-0.539 -0.574,-0.539 l -1.112,-0.002 0,-1.308 -3.91,0 c -0.47,0 -0.851,0.488 -0.851,1.091 l 0,18.803 c 0,0.605 0.381,1.091 0.851,1.091"
         style="fill:#e5e5e5;fill-opacity:1;fill-rule:nonzero;stroke:none"
         id="path75989"
         inkscape:connector-curvature="0" />
      <path
         d="m 131.242,427.238 13.29,0 c 0.428,0 0.775,-0.445 0.775,-0.993 l 0,-17.118 c 0,-0.552 -0.347,-1.423 -0.775,-1.423 l -2.02,0 0.015,1.621 -1.612,0 c -0.316,0 -0.444,0.279 -0.442,0.496 l 0,5.629 c 0,0.423 -1.103,0.473 -1.103,0.012 l 0,-6.137 c 0,-0.411 -0.217,-0.748 -0.536,-0.724 l -1.179,0 c -0.514,0.157 -0.514,0.468 -0.514,0.724 l 0,6.127 c 0,0.418 -1.019,0.511 -1.019,0 l 0,-5.638 c 0,-0.346 -0.247,-0.489 -0.522,-0.489 l -1.23,-0.003 0,-1.618 -3.128,0 c -0.43,0 -0.774,0.871 -0.774,1.423 l 0,17.118 c 0,0.548 0.344,0.993 0.774,0.993"
         style="fill:#dddddd;fill-opacity:1;fill-rule:nonzero;stroke:none"
         id="path75991"
         inkscape:connector-curvature="0" />
      <path
         d="m 177.582,411.887 6.10625,0 0,4.2457 -6.10625,0 0,-4.2457 z"
         style="fill:#323232;fill-opacity:1;fill-rule:nonzero;stroke:none"
         id="path75993"
         inkscape:connector-curvature="0" />
      <path
         d="m 175.361,402.196 9.97539,0 0,4.97578 -9.97539,0 0,-4.97578 z"
         style="fill:#323232;fill-opacity:1;fill-rule:nonzero;stroke:none"
         id="path75995"
         inkscape:connector-curvature="0" />
      <path
         d="m 176.57,404.662 -0.02,2.531 0.408,-0.022 0,1.286 1.075,0 c 0.356,0.022 0.63,0.137 0.603,0.599 l -0.022,3.218 0.915,0.021 0,-3.838 c -0.069,-0.452 0.192,-0.643 0.505,-0.794 l 1.483,-0.02 c 0.39,0.048 0.475,0.403 0.504,0.814 l 0,3.817 0.761,0 0,-3.261 c 0.074,-0.216 0.068,-0.473 0.41,-0.556 l 1.717,0 0,-2.509 -7.607,-0.021 0,-1.265"
         style="fill:#b99b23;fill-opacity:1;fill-rule:nonzero;stroke:none"
         id="path75997"
         inkscape:connector-curvature="0" />
      <path
         d="m 173.051,428.132 14.597,0 c 0.469,0 0.849,-0.486 0.849,-1.091 l 0,-18.803 c 0,-0.603 -0.38,-1.091 -0.849,-1.091 l -2.785,0 0.015,1.31 -1.58,0 c -0.35,0 -0.486,0.309 -0.486,0.544 l 0,6.185 c 0,0.464 -0.834,0.518 -0.834,0.012 l 0,-6.741 c 0,-0.45 -0.235,-0.819 -0.589,-0.794 l -1.294,0 c -0.566,0.173 -0.566,0.515 -0.566,0.794 l 0,6.731 c 0,0.46 -0.881,0.56 -0.881,0 l 0,-6.192 c 0,-0.38 -0.274,-0.539 -0.574,-0.539 l -1.116,-0.002 0,-1.308 -3.907,0 c -0.472,0 -0.85,0.488 -0.85,1.091 l 0,18.803 c 0,0.605 0.378,1.091 0.85,1.091"
         style="fill:#e5e5e5;fill-opacity:1;fill-rule:nonzero;stroke:none"
         id="path75999"
         inkscape:connector-curvature="0" />
      <path
         d="m 173.672,427.238 13.288,0 c 0.429,0 0.774,-0.445 0.774,-0.993 l 0,-17.118 c 0,-0.552 -0.345,-1.423 -0.774,-1.423 l -2.02,0 0.016,1.621 -1.61,0 c -0.317,0 -0.444,0.279 -0.444,0.496 l 0,5.629 c 0,0.423 -1.103,0.473 -1.103,0.012 l 0,-6.137 c 0,-0.411 -0.215,-0.748 -0.534,-0.724 l -1.181,0 c -0.516,0.157 -0.516,0.468 -0.516,0.724 l 0,6.127 c 0,0.418 -1.018,0.511 -1.018,0 l 0,-5.638 c 0,-0.346 -0.248,-0.489 -0.521,-0.489 l -1.229,-0.003 0,-1.618 -3.128,0 c -0.43,0 -0.775,0.871 -0.775,1.423 l 0,17.118 c 0,0.548 0.345,0.993 0.775,0.993"
         style="fill:#dddddd;fill-opacity:1;fill-rule:nonzero;stroke:none"
         id="path76001"
         inkscape:connector-curvature="0" />
      <path
         d="m 272.749,409.129 c 0.15,0.187 0.392,0.285 0.744,0.273 l 3.274,0 c 0.288,0.007 0.583,-0.054 0.729,-0.273 l 0,-2.449 c -0.41,-3.123 -4.359,-3.125 -4.747,0"
         style="fill:#782121;fill-opacity:1;fill-rule:nonzero;stroke:none"
         id="path76003"
         inkscape:connector-curvature="0" />
      <path
         d="m 271.388,419.566 0.623,0 0.003,-2.637 1.653,0 0.012,2.637 2.568,0 0.021,-2.637 1.765,0 -0.024,2.637 0.709,0 0,-10.317 -7.33,0"
         style="fill:#383838;fill-opacity:1;fill-rule:nonzero;stroke:none"
         id="path76005"
         inkscape:connector-curvature="0" />
      <path
         d="m 181.923,434.648 35.516,0 0,12.6035 -35.516,0 0,-12.6035 z"
         style="fill:#444444;fill-opacity:1;fill-rule:nonzero;stroke:none"
         id="path76007"
         inkscape:connector-curvature="0" />
      <path
         d="m 182.482,434.646 2.53672,0 0,12.6094 -2.53672,0 0,-12.6094 z"
         style="fill:#3b3b3b;fill-opacity:1;fill-rule:nonzero;stroke:none"
         id="path76009"
         inkscape:connector-curvature="0" />
      <path
         d="m 186.478,434.646 2.53633,0 0,12.6094 -2.53633,0 0,-12.6094 z"
         style="fill:#3b3b3b;fill-opacity:1;fill-rule:nonzero;stroke:none"
         id="path76011"
         inkscape:connector-curvature="0" />
      <path
         d="m 190.475,434.646 2.53438,0 0,12.6094 -2.53438,0 0,-12.6094 z"
         style="fill:#3b3b3b;fill-opacity:1;fill-rule:nonzero;stroke:none"
         id="path76013"
         inkscape:connector-curvature="0" />
      <path
         d="m 194.47,434.646 2.53711,0 0,12.6094 -2.53711,0 0,-12.6094 z"
         style="fill:#3b3b3b;fill-opacity:1;fill-rule:nonzero;stroke:none"
         id="path76015"
         inkscape:connector-curvature="0" />
      <path
         d="m 198.466,434.646 2.53672,0 0,12.6094 -2.53672,0 0,-12.6094 z"
         style="fill:#3b3b3b;fill-opacity:1;fill-rule:nonzero;stroke:none"
         id="path76017"
         inkscape:connector-curvature="0" />
      <path
         d="m 202.464,434.646 2.53672,0 0,12.6094 -2.53672,0 0,-12.6094 z"
         style="fill:#3b3b3b;fill-opacity:1;fill-rule:nonzero;stroke:none"
         id="path76019"
         inkscape:connector-curvature="0" />
      <path
         d="m 206.46,434.646 2.53672,0 0,12.6094 -2.53672,0 0,-12.6094 z"
         style="fill:#3b3b3b;fill-opacity:1;fill-rule:nonzero;stroke:none"
         id="path76021"
         inkscape:connector-curvature="0" />
      <path
         d="m 210.456,434.646 2.53477,0 0,12.6094 -2.53477,0 0,-12.6094 z"
         style="fill:#3b3b3b;fill-opacity:1;fill-rule:nonzero;stroke:none"
         id="path76023"
         inkscape:connector-curvature="0" />
      <path
         d="m 214.451,434.646 2.53672,0 0,12.6094 -2.53672,0 0,-12.6094 z"
         style="fill:#3b3b3b;fill-opacity:1;fill-rule:nonzero;stroke:none"
         id="path76025"
         inkscape:connector-curvature="0" />
      <path
         d="m 126.036,418.896 0.005,-1.48 -0.534,-0.572 -1.481,-0.014 -0.612,0.561 0,1.507 0.622,0.567 1.449,0.013"
         style="fill:#444444;fill-opacity:1;fill-rule:nonzero;stroke:none"
         id="path76027"
         inkscape:connector-curvature="0" />
      <path
         inkscape:connector-curvature="0"
         id="path76031"
         style="fill:none;stroke:#000000;stroke-width:0.01190529;stroke-linecap:round;stroke-linejoin:round;stroke-miterlimit:4;stroke-opacity:1;stroke-dasharray:none"
         d="m 126.0354,418.89655 0.006,-1.48003 -0.53471,-0.57224 -1.47996,-0.013 -0.61182,0.56026 0,1.50799 0.61983,0.56425 1.45193,0.014 0.54872,-0.58122 z" />
      <path
         d="m 126.036,416.255 0.005,-1.48 -0.534,-0.571 -1.481,-0.017 -0.612,0.561 0,1.509 0.622,0.566 1.449,0.014"
         style="fill:#444444;fill-opacity:1;fill-rule:nonzero;stroke:none"
         id="path76033"
         inkscape:connector-curvature="0" />
      <path
         inkscape:connector-curvature="0"
         id="path76037"
         style="fill:none;stroke:#000000;stroke-width:0.01190529;stroke-linecap:round;stroke-linejoin:round;stroke-miterlimit:4;stroke-opacity:1;stroke-dasharray:none"
         d="m 126.0354,416.25606 0.006,-1.47903 -0.53471,-0.57424 -1.47996,-0.017 -0.61182,0.56226 0,1.50999 0.61983,0.56425 1.45193,0.014 0.54872,-0.58023 z" />
      <path
         d="m 126.036,413.603 0.005,-1.48 -0.534,-0.572 -1.481,-0.015 -0.612,0.561 0,1.508 0.622,0.568 1.449,0.012"
         style="fill:#444444;fill-opacity:1;fill-rule:nonzero;stroke:none"
         id="path76039"
         inkscape:connector-curvature="0" />
      <path
         inkscape:connector-curvature="0"
         id="path76043"
         style="fill:none;stroke:#000000;stroke-width:0.01190529;stroke-linecap:round;stroke-linejoin:round;stroke-miterlimit:4;stroke-opacity:1;stroke-dasharray:none"
         d="m 126.0354,413.60259 0.006,-1.47903 -0.53471,-0.57324 -1.47996,-0.014 -0.61182,0.56125 0,1.507 0.61983,0.56824 1.45193,0.012 0.54872,-0.58223 z" />
      <path
         d="m 124.378,417.782 0.69883,0 0,0.7418 -0.69883,0 0,-0.7418 z"
         style="fill:#ffcc00;fill-opacity:1;fill-rule:nonzero;stroke:none"
         id="path76045"
         inkscape:connector-curvature="0" />
      <path
         inkscape:connector-curvature="0"
         id="path76049"
         style="fill:none;stroke:#000000;stroke-width:0.01190529;stroke-linecap:round;stroke-linejoin:round;stroke-miterlimit:4;stroke-opacity:1;stroke-dasharray:none"
         d="m 125.07713,418.52404 0,-0.74201 -0.69893,0 0,0.74201 0.69893,0 z" />
      <path
         d="m 124.378,415.141 0.69883,0 0,0.7418 -0.69883,0 0,-0.7418 z"
         style="fill:#ffcc00;fill-opacity:1;fill-rule:nonzero;stroke:none"
         id="path76051"
         inkscape:connector-curvature="0" />
      <path
         inkscape:connector-curvature="0"
         id="path76055"
         style="fill:none;stroke:#000000;stroke-width:0.01190529;stroke-linecap:round;stroke-linejoin:round;stroke-miterlimit:4;stroke-opacity:1;stroke-dasharray:none"
         d="m 125.07713,415.88256 0,-0.74202 -0.69893,0 0,0.74202 0.69893,0 z" />
      <path
         d="m 124.378,412.488 0.69883,0 0,0.74492 -0.69883,0 0,-0.74492 z"
         style="fill:#ffcc00;fill-opacity:1;fill-rule:nonzero;stroke:none"
         id="path76057"
         inkscape:connector-curvature="0" />
      <path
         inkscape:connector-curvature="0"
         id="path76061"
         style="fill:none;stroke:#000000;stroke-width:0.01190529;stroke-linecap:round;stroke-linejoin:round;stroke-miterlimit:4;stroke-opacity:1;stroke-dasharray:none"
         d="m 125.07713,413.23208 0,-0.74401 -0.69893,0 0,0.74401 0.69893,0 z" />
      <path
         d="m 262.255,417.264 0.005,-1.199 -0.435,-0.464 -1.2,-0.015 -0.495,0.455 0,1.225 0.503,0.46 1.176,0.011"
         style="fill:#444444;fill-opacity:1;fill-rule:nonzero;stroke:none"
         id="path76063"
         inkscape:connector-curvature="0" />
      <path
         inkscape:connector-curvature="0"
         id="path76067"
         style="fill:none;stroke:#000000;stroke-width:0.00966284;stroke-linecap:round;stroke-linejoin:round;stroke-miterlimit:4;stroke-opacity:1;stroke-dasharray:none"
         d="m 262.25734,417.26372 0.003,-1.19941 -0.43357,-0.46438 -1.2006,-0.014 -0.49566,0.4554 0,1.22437 0.50267,0.45938 1.17656,0.012 0.4476,-0.47337 z" />
      <path
         d="m 260.911,416.359 0.56641,0 0,0.60547 -0.56641,0 0,-0.60547 z"
         style="fill:#ffcc00;fill-opacity:1;fill-rule:nonzero;stroke:none"
         id="path76069"
         inkscape:connector-curvature="0" />
      <path
         inkscape:connector-curvature="0"
         id="path76073"
         style="fill:none;stroke:#000000;stroke-width:0.00966284;stroke-linecap:round;stroke-linejoin:round;stroke-miterlimit:4;stroke-opacity:1;stroke-dasharray:none"
         d="m 261.4783,416.96512 0,-0.6062 -0.56575,0 0,0.6062 0.56575,0 z" />
      <path
         d="m 262.255,415.12 0.005,-1.199 -0.435,-0.465 -1.2,-0.014 -0.495,0.455 0,1.225 0.503,0.46 1.176,0.012"
         style="fill:#444444;fill-opacity:1;fill-rule:nonzero;stroke:none"
         id="path76075"
         inkscape:connector-curvature="0" />
      <path
         inkscape:connector-curvature="0"
         id="path76079"
         style="fill:none;stroke:#000000;stroke-width:0.00966284;stroke-linecap:round;stroke-linejoin:round;stroke-miterlimit:4;stroke-opacity:1;stroke-dasharray:none"
         d="m 262.25734,415.11957 0.003,-1.1984 -0.43357,-0.46538 -1.2006,-0.013 -0.49566,0.4544 0,1.22437 0.50267,0.46039 1.17656,0.011 0.4476,-0.47337 z" />
      <path
         d="m 260.911,414.215 0.56641,0 0,0.60547 -0.56641,0 0,-0.60547 z"
         style="fill:#ffcc00;fill-opacity:1;fill-rule:nonzero;stroke:none"
         id="path76081"
         inkscape:connector-curvature="0" />
      <path
         inkscape:connector-curvature="0"
         id="path76085"
         style="fill:none;stroke:#000000;stroke-width:0.00966284;stroke-linecap:round;stroke-linejoin:round;stroke-miterlimit:4;stroke-opacity:1;stroke-dasharray:none"
         d="m 261.4783,414.82097 0,-0.60619 -0.56575,0 0,0.60619 0.56575,0 z" />
      <path
         d="m 262.255,412.969 0.005,-1.202 -0.435,-0.465 -1.2,-0.011 -0.495,0.455 0,1.225 0.503,0.46 1.176,0.008"
         style="fill:#444444;fill-opacity:1;fill-rule:nonzero;stroke:none"
         id="path76087"
         inkscape:connector-curvature="0" />
      <path
         inkscape:connector-curvature="0"
         id="path76091"
         style="fill:none;stroke:#000000;stroke-width:0.00966284;stroke-linecap:round;stroke-linejoin:round;stroke-miterlimit:4;stroke-opacity:1;stroke-dasharray:none"
         d="m 262.25734,412.96943 0.003,-1.2034 -0.43357,-0.46238 -1.2006,-0.013 -0.49566,0.45539 0,1.22537 0.50267,0.45939 1.17656,0.01 0.4476,-0.47138 z" />
      <path
         d="m 260.911,412.064 0.56641,0 0,0.60312 -0.56641,0 0,-0.60312 z"
         style="fill:#ffcc00;fill-opacity:1;fill-rule:nonzero;stroke:none"
         id="path76093"
         inkscape:connector-curvature="0" />
      <path
         inkscape:connector-curvature="0"
         id="path76097"
         style="fill:none;stroke:#000000;stroke-width:0.00966284;stroke-linecap:round;stroke-linejoin:round;stroke-miterlimit:4;stroke-opacity:1;stroke-dasharray:none"
         d="m 261.4783,412.66783 0,-0.60319 -0.56575,0 0,0.60319 0.56575,0 z" />
      <path
         inkscape:connector-curvature="0"
         id="path76101"
         style="fill:none;stroke:#66ccff;stroke-width:0.33819985;stroke-linecap:round;stroke-linejoin:round;stroke-miterlimit:4;stroke-opacity:1;stroke-dasharray:none"
         d="m 207.73792,409.77668 0.21729,-27.41951" />
      <path
         d="m 207.743,409.115 c -0.373,-0.002 -0.678,0.296 -0.68,0.668 -0.006,0.374 0.297,0.68 0.67,0.682 0.373,0.005 0.681,-0.297 0.683,-0.67 0.002,-0.372 -0.298,-0.679 -0.673,-0.68"
         style="fill:#66ccff;fill-opacity:1;fill-rule:evenodd;stroke:none"
         id="path76103"
         inkscape:connector-curvature="0" />
      <path
         inkscape:connector-curvature="0"
         id="path76107"
         style="fill:none;stroke:#66ccff;stroke-width:0.16909876;stroke-linecap:butt;stroke-linejoin:miter;stroke-miterlimit:4;stroke-opacity:1;stroke-dasharray:none"
         d="m 207.74293,409.11419 c -0.37358,-9.4e-4 -0.67897,0.29693 -0.68091,0.66952 -0.005,0.37454 0.2977,0.67915 0.67129,0.68009 0.37255,0.006 0.67897,-0.29594 0.6819,-0.66851 0.002,-0.37259 -0.29772,-0.67817 -0.67228,-0.6811 z" />
      <path
         d="m 216.511,377.554 c 0,-4.832 -3.926,-8.75 -8.773,-8.75 -4.844,0 -8.773,3.918 -8.773,8.75 0,4.832 3.929,8.75 8.773,8.75 4.847,0 8.773,-3.918 8.773,-8.75"
         style="fill:#66ccff;fill-opacity:1;fill-rule:nonzero;stroke:none"
         id="path76109"
         inkscape:connector-curvature="0" />
      <path
         d="m 205.221,374.063 c 0.278,-0.328 0.627,-0.565 1.048,-0.712 0.42,-0.146 0.838,-0.217 1.254,-0.219 0.6,0.002 1.1,0.134 1.505,0.4 0.401,0.267 0.703,0.6 0.91,1.004 0.202,0.4 0.307,0.834 0.312,1.303 0.002,0.464 -0.094,0.9 -0.289,1.303 -0.196,0.401 -0.498,0.735 -0.906,1.003 -0.407,0.267 -0.915,0.399 -1.521,0.401 -0.296,-0.002 -0.569,-0.042 -0.814,-0.12 l 0,2.415 2.901,0 0.108,0.73 -3.789,0 0,-4.16 c 0.213,0.127 0.444,0.228 0.689,0.303 0.245,0.076 0.492,0.113 0.75,0.116 0.467,-0.003 0.857,-0.102 1.167,-0.294 0.307,-0.198 0.536,-0.443 0.69,-0.736 0.151,-0.296 0.224,-0.612 0.217,-0.949 -0.01,-0.341 -0.088,-0.66 -0.234,-0.952 -0.149,-0.297 -0.366,-0.542 -0.654,-0.735 -0.288,-0.198 -0.646,-0.294 -1.066,-0.292 -0.37,-0.002 -0.725,0.08 -1.068,0.249 -0.344,0.165 -0.639,0.382 -0.885,0.649"
         style="fill:#ffffff;fill-opacity:1;fill-rule:nonzero;stroke:none"
         id="path76111"
         inkscape:connector-curvature="0" />
      <path
         inkscape:connector-curvature="0"
         id="path76115"
         style="fill:none;stroke:#66ccff;stroke-width:0.33819985;stroke-linecap:round;stroke-linejoin:round;stroke-miterlimit:4;stroke-opacity:1;stroke-dasharray:none"
         d="m 242.37593,409.77668 0.21429,-27.41951" />
      <path
         d="m 242.38,409.115 c -0.374,-0.002 -0.681,0.296 -0.683,0.668 -0.001,0.374 0.299,0.68 0.673,0.682 0.373,0.005 0.678,-0.297 0.684,-0.67 0.001,-0.372 -0.3,-0.679 -0.674,-0.68"
         style="fill:#66ccff;fill-opacity:1;fill-rule:evenodd;stroke:none"
         id="path76117"
         inkscape:connector-curvature="0" />
      <path
         inkscape:connector-curvature="0"
         id="path76121"
         style="fill:none;stroke:#66ccff;stroke-width:0.16909876;stroke-linecap:butt;stroke-linejoin:miter;stroke-miterlimit:4;stroke-opacity:1;stroke-dasharray:none"
         d="m 242.37969,409.11461 c -0.37357,-0.003 -0.67996,0.29593 -0.6829,0.6695 -0.002,0.37457 0.29871,0.67817 0.67327,0.6811 0.37257,0.004 0.67798,-0.29694 0.6819,-0.66951 0.004,-0.37257 -0.29968,-0.68016 -0.67227,-0.68109 z" />
      <path
         d="m 251.148,377.554 c 0,-4.832 -3.929,-8.75 -8.772,-8.75 -4.846,0 -8.774,3.918 -8.774,8.75 0,4.832 3.928,8.75 8.774,8.75 4.843,0 8.772,-3.918 8.772,-8.75"
         style="fill:#66ccff;fill-opacity:1;fill-rule:nonzero;stroke:none"
         id="path76123"
         inkscape:connector-curvature="0" />
      <path
         d="m 245.218,376.718 -1.283,0 0,5.14 -0.204,-0.025 -4.195,-5.652 0,-0.169 3.607,0 0,-2.81 0.792,0.132 0,2.691 1.22,0 0.063,0.693 z m -2.075,0 -2.432,0 2.432,3.31"
         style="fill:#ffffff;fill-opacity:1;fill-rule:nonzero;stroke:none"
         id="path76125"
         inkscape:connector-curvature="0" />
      <path
         inkscape:connector-curvature="0"
         id="path76129"
         style="fill:none;stroke:#66ccff;stroke-width:0.33819985;stroke-linecap:round;stroke-linejoin:round;stroke-miterlimit:4;stroke-opacity:1;stroke-dasharray:none"
         d="m 267.22193,406.88054 0.21529,-27.41852" />
      <path
         d="m 267.225,406.219 c -0.373,-0.002 -0.68,0.297 -0.682,0.671 -0.002,0.373 0.298,0.677 0.672,0.681 0.374,0.003 0.679,-0.298 0.681,-0.67 0.005,-0.373 -0.297,-0.68 -0.671,-0.682"
         style="fill:#66ccff;fill-opacity:1;fill-rule:evenodd;stroke:none"
         id="path76131"
         inkscape:connector-curvature="0" />
      <path
         inkscape:connector-curvature="0"
         id="path76135"
         style="fill:none;stroke:#66ccff;stroke-width:0.16909876;stroke-linecap:butt;stroke-linejoin:miter;stroke-miterlimit:4;stroke-opacity:1;stroke-dasharray:none"
         d="m 267.22646,406.21916 c -0.37357,-0.003 -0.68096,0.29692 -0.68291,0.67149 -0.003,0.37257 0.29773,0.67618 0.67029,0.68107 0.37556,0.003 0.67999,-0.29989 0.68291,-0.67148 0.004,-0.37257 -0.2977,-0.67916 -0.67029,-0.68108 z" />
      <path
         d="m 275.994,377.554 c 0,-4.832 -3.929,-8.75 -8.773,-8.75 -4.847,0 -8.776,3.918 -8.776,8.75 0,4.832 3.929,8.75 8.776,8.75 4.844,0 8.773,-3.918 8.773,-8.75"
         style="fill:#66ccff;fill-opacity:1;fill-rule:nonzero;stroke:none"
         id="path76137"
         inkscape:connector-curvature="0" />
      <path
         d="m 264.774,374.124 c 0.125,-0.169 0.276,-0.316 0.456,-0.438 0.175,-0.123 0.364,-0.227 0.561,-0.311 0.2,-0.082 0.405,-0.144 0.618,-0.184 0.212,-0.038 0.422,-0.057 0.63,-0.059 0.496,0.002 0.924,0.095 1.283,0.281 0.359,0.185 0.645,0.423 0.862,0.716 0.212,0.289 0.355,0.612 0.426,0.967 0.065,0.354 0.06,0.701 -0.017,1.039 -0.082,0.337 -0.239,0.648 -0.468,0.929 -0.234,0.279 -0.546,0.487 -0.936,0.634 0.36,0.148 0.646,0.354 0.858,0.615 0.21,0.257 0.347,0.537 0.413,0.837 0.062,0.298 0.056,0.6 -0.019,0.909 -0.076,0.304 -0.215,0.581 -0.418,0.829 -0.203,0.248 -0.469,0.448 -0.798,0.605 -0.329,0.153 -0.71,0.23 -1.151,0.233 -0.391,-0.003 -0.775,-0.08 -1.143,-0.233 -0.374,-0.157 -0.695,-0.379 -0.966,-0.664 l 0.289,-0.645 c 0.23,0.237 0.5,0.431 0.808,0.58 0.306,0.145 0.632,0.218 0.977,0.22 0.318,-0.002 0.606,-0.07 0.857,-0.21 0.251,-0.139 0.447,-0.315 0.593,-0.53 0.143,-0.216 0.22,-0.45 0.234,-0.698 0.01,-0.253 -0.056,-0.489 -0.198,-0.708 -0.146,-0.219 -0.382,-0.409 -0.714,-0.568 -0.33,-0.159 -0.766,-0.25 -1.31,-0.272 l 0,-0.707 c 0.312,0 0.61,-0.022 0.893,-0.06 0.283,-0.042 0.531,-0.125 0.749,-0.252 0.212,-0.127 0.385,-0.306 0.514,-0.533 0.126,-0.228 0.19,-0.522 0.192,-0.887 -0.002,-0.28 -0.05,-0.525 -0.144,-0.73 -0.096,-0.211 -0.226,-0.384 -0.396,-0.526 -0.169,-0.144 -0.367,-0.252 -0.594,-0.323 -0.229,-0.075 -0.475,-0.11 -0.735,-0.108 -0.355,-0.002 -0.687,0.076 -1.001,0.233 -0.317,0.153 -0.582,0.368 -0.797,0.641"
         style="fill:#ffffff;fill-opacity:1;fill-rule:nonzero;stroke:none"
         id="path76139"
         inkscape:connector-curvature="0" />
      <path
         inkscape:connector-curvature="0"
         id="path76143"
         style="fill:none;stroke:#66ccff;stroke-width:0.33819985;stroke-linecap:round;stroke-linejoin:round;stroke-miterlimit:4;stroke-opacity:1;stroke-dasharray:none"
         d="m 159.78723,404.8073 0.21529,-27.41852" />
      <path
         d="m 159.792,404.146 c -0.373,-0.005 -0.68,0.297 -0.683,0.669 -0.002,0.372 0.298,0.678 0.671,0.681 0.375,0.002 0.681,-0.297 0.683,-0.67 0.005,-0.374 -0.298,-0.678 -0.671,-0.68"
         style="fill:#66ccff;fill-opacity:1;fill-rule:evenodd;stroke:none"
         id="path76145"
         inkscape:connector-curvature="0" />
      <path
         inkscape:connector-curvature="0"
         id="path76149"
         style="fill:none;stroke:#66ccff;stroke-width:0.16909876;stroke-linecap:butt;stroke-linejoin:miter;stroke-miterlimit:4;stroke-opacity:1;stroke-dasharray:none"
         d="m 159.7923,404.14599 c -0.37356,-0.004 -0.68096,0.29691 -0.68289,0.66851 -0.003,0.37258 0.29671,0.67915 0.67128,0.68108 0.37556,0.003 0.67997,-0.29692 0.68191,-0.66951 0.005,-0.37454 -0.29772,-0.67717 -0.6703,-0.68008 z" />
      <path
         d="m 168.561,377.554 c 0,-4.832 -3.929,-8.75 -8.774,-8.75 -4.847,0 -8.775,3.918 -8.775,8.75 0,4.832 3.928,8.75 8.775,8.75 4.845,0 8.774,-3.918 8.774,-8.75"
         style="fill:#66ccff;fill-opacity:1;fill-rule:nonzero;stroke:none"
         id="path76151"
         inkscape:connector-curvature="0" />
      <path
         d="m 162.505,381.571 -5.333,0 -0.083,-0.742 4.313,0 -3.151,-7.529 c 0.136,0.018 0.27,0.018 0.407,0 0.135,-0.015 0.268,-0.041 0.397,-0.073"
         style="fill:#ffffff;fill-opacity:1;fill-rule:nonzero;stroke:none"
         id="path76153"
         inkscape:connector-curvature="0" />
      <path
         inkscape:connector-curvature="0"
         id="path76157"
         style="fill:none;stroke:#66ccff;stroke-width:0.33819985;stroke-linecap:round;stroke-linejoin:round;stroke-miterlimit:4;stroke-opacity:1;stroke-dasharray:none"
         d="m 138.8304,404.56262 0.21729,-27.41552" />
      <path
         d="m 138.836,403.901 c -0.375,-0.003 -0.68,0.299 -0.681,0.67 -0.006,0.374 0.296,0.68 0.669,0.682 0.374,0.002 0.681,-0.296 0.683,-0.671 0.003,-0.373 -0.297,-0.677 -0.671,-0.681"
         style="fill:#66ccff;fill-opacity:1;fill-rule:evenodd;stroke:none"
         id="path76159"
         inkscape:connector-curvature="0" />
      <path
         inkscape:connector-curvature="0"
         id="path76163"
         style="fill:none;stroke:#66ccff;stroke-width:0.16909876;stroke-linecap:butt;stroke-linejoin:miter;stroke-miterlimit:4;stroke-opacity:1;stroke-dasharray:none"
         d="m 138.83631,403.9008 c -0.37457,-0.003 -0.67999,0.2989 -0.68192,0.67149 -0.006,0.37255 0.29672,0.67815 0.67028,0.68207 0.37358,0.002 0.68097,-0.29791 0.68292,-0.67248 0.003,-0.37258 -0.29772,-0.67717 -0.67128,-0.68108 z" />
      <path
         d="m 147.605,377.554 c 0,-4.832 -3.928,-8.75 -8.776,-8.75 -4.844,0 -8.773,3.918 -8.773,8.75 0,4.832 3.929,8.75 8.773,8.75 4.848,0 8.776,-3.918 8.776,-8.75"
         style="fill:#66ccff;fill-opacity:1;fill-rule:nonzero;stroke:none"
         id="path76165"
         inkscape:connector-curvature="0" />
      <path
         d="m 137.655,377.602 c -0.385,-0.161 -0.682,-0.382 -0.897,-0.663 -0.217,-0.284 -0.359,-0.594 -0.421,-0.927 -0.065,-0.335 -0.057,-0.673 0.029,-1.012 0.082,-0.339 0.234,-0.647 0.451,-0.925 0.215,-0.279 0.49,-0.507 0.831,-0.682 0.339,-0.174 0.737,-0.259 1.193,-0.261 0.449,0.002 0.841,0.087 1.182,0.261 0.338,0.175 0.616,0.401 0.833,0.677 0.215,0.273 0.364,0.582 0.449,0.925 0.08,0.342 0.092,0.682 0.036,1.017 -0.061,0.333 -0.197,0.644 -0.409,0.932 -0.213,0.287 -0.505,0.513 -0.879,0.681 0.342,0.197 0.605,0.435 0.789,0.716 0.182,0.278 0.294,0.57 0.336,0.875 0.037,0.301 0.011,0.604 -0.078,0.908 -0.095,0.301 -0.239,0.57 -0.437,0.806 -0.198,0.236 -0.449,0.426 -0.749,0.575 -0.3,0.147 -0.641,0.218 -1.022,0.221 -0.417,-0.003 -0.783,-0.077 -1.099,-0.228 -0.317,-0.153 -0.579,-0.354 -0.786,-0.599 -0.209,-0.249 -0.357,-0.523 -0.442,-0.824 -0.09,-0.302 -0.112,-0.607 -0.067,-0.914 0.043,-0.308 0.16,-0.598 0.355,-0.872 0.191,-0.276 0.457,-0.504 0.802,-0.687 z m 2.733,1.83 c -0.002,-0.345 -0.078,-0.632 -0.228,-0.857 -0.153,-0.229 -0.343,-0.397 -0.575,-0.507 -0.231,-0.114 -0.483,-0.17 -0.756,-0.168 -0.264,-0.002 -0.512,0.054 -0.741,0.168 -0.233,0.11 -0.425,0.275 -0.576,0.495 -0.154,0.218 -0.23,0.492 -0.227,0.819 -0.003,0.352 0.073,0.646 0.227,0.886 0.151,0.239 0.343,0.415 0.576,0.53 0.229,0.116 0.48,0.174 0.748,0.179 0.268,0.003 0.518,-0.052 0.749,-0.166 0.232,-0.117 0.422,-0.291 0.575,-0.519 0.15,-0.233 0.226,-0.519 0.228,-0.86 z m 0.18,-3.873 c -0.002,-0.377 -0.086,-0.689 -0.258,-0.934 -0.172,-0.246 -0.387,-0.432 -0.642,-0.555 -0.258,-0.125 -0.536,-0.186 -0.839,-0.186 -0.305,0 -0.583,0.059 -0.839,0.179 -0.254,0.12 -0.469,0.301 -0.639,0.544 -0.174,0.243 -0.259,0.544 -0.257,0.903 -0.002,0.39 0.083,0.713 0.257,0.967 0.17,0.255 0.385,0.445 0.639,0.575 0.256,0.125 0.534,0.189 0.839,0.192 0.303,-0.003 0.581,-0.067 0.839,-0.192 0.255,-0.13 0.47,-0.318 0.642,-0.568 0.172,-0.252 0.256,-0.56 0.258,-0.925"
         style="fill:#ffffff;fill-opacity:1;fill-rule:nonzero;stroke:none"
         id="path76167"
         inkscape:connector-curvature="0" />
      <path
         inkscape:connector-curvature="0"
         id="path76171"
         style="fill:none;stroke:#66ccff;stroke-width:0.33819985;stroke-linecap:round;stroke-linejoin:round;stroke-miterlimit:4;stroke-opacity:1;stroke-dasharray:none"
         d="m 140.13113,443.73749 -0.21429,32.24309" />
      <path
         d="m 140.127,444.4 c 0.375,0.002 0.68,-0.299 0.682,-0.672 0.003,-0.373 -0.3,-0.678 -0.673,-0.681 -0.373,-0.002 -0.678,0.299 -0.681,0.672 -0.002,0.372 0.298,0.678 0.672,0.681"
         style="fill:#66ccff;fill-opacity:1;fill-rule:evenodd;stroke:none"
         id="path76173"
         inkscape:connector-curvature="0" />
      <path
         inkscape:connector-curvature="0"
         id="path76177"
         style="fill:none;stroke:#66ccff;stroke-width:0.16909979;stroke-linecap:butt;stroke-linejoin:miter;stroke-miterlimit:4;stroke-opacity:1;stroke-dasharray:none"
         d="m 140.12617,444.39944 c 0.376,0.002 0.68041,-0.29906 0.6839,-0.67206 0.002,-0.37103 -0.30184,-0.67862 -0.67386,-0.6801 -0.37401,-0.002 -0.67842,0.29807 -0.68091,0.67109 -0.001,0.37302 0.29786,0.67859 0.67087,0.68107 z" />
      <path
         d="m 148.904,474.925 c 0,-4.831 -3.926,-8.749 -8.773,-8.749 -4.844,0 -8.773,3.918 -8.773,8.749 0,4.832 3.929,8.75 8.773,8.75 4.847,0 8.773,-3.918 8.773,-8.75"
         style="fill:#66ccff;fill-opacity:1;fill-rule:nonzero;stroke:none"
         id="path76179"
         inkscape:connector-curvature="0" />
      <path
         d="m 137.936,470.736 0,0.671 -1.032,0 0,7.863 -1.989,-0.992 0.132,-0.739 1.067,0.584 0,-6.728 -1.116,0 0,-0.659 2.938,0 z m 7.413,4.112 c -0.003,0.406 -0.045,0.857 -0.128,1.357 -0.085,0.497 -0.228,0.965 -0.436,1.409 -0.208,0.441 -0.485,0.813 -0.827,1.111 -0.345,0.3 -0.773,0.448 -1.283,0.452 -0.338,-0.004 -0.637,-0.072 -0.9,-0.206 -0.264,-0.136 -0.495,-0.319 -0.693,-0.549 -0.202,-0.231 -0.37,-0.494 -0.504,-0.79 -0.137,-0.294 -0.246,-0.597 -0.328,-0.914 -0.085,-0.314 -0.15,-0.632 -0.187,-0.949 -0.042,-0.321 -0.061,-0.61 -0.059,-0.874 -0.002,-0.406 0.04,-0.858 0.13,-1.357 0.085,-0.499 0.231,-0.968 0.436,-1.404 0.203,-0.44 0.478,-0.809 0.823,-1.105 0.343,-0.297 0.77,-0.445 1.282,-0.447 0.503,0.002 0.927,0.148 1.271,0.439 0.34,0.296 0.617,0.658 0.827,1.094 0.205,0.433 0.354,0.898 0.444,1.392 0.087,0.493 0.129,0.941 0.132,1.341 z m -0.803,0.047 c -0.002,-0.183 -0.014,-0.399 -0.037,-0.645 -0.024,-0.25 -0.067,-0.504 -0.125,-0.766 -0.063,-0.264 -0.14,-0.523 -0.234,-0.778 -0.097,-0.256 -0.216,-0.485 -0.353,-0.685 -0.142,-0.205 -0.302,-0.369 -0.487,-0.498 -0.183,-0.127 -0.396,-0.189 -0.635,-0.189 -0.241,0 -0.454,0.061 -0.635,0.184 -0.185,0.123 -0.345,0.284 -0.485,0.484 -0.141,0.198 -0.26,0.426 -0.353,0.68 -0.098,0.255 -0.173,0.513 -0.23,0.773 -0.057,0.258 -0.099,0.51 -0.126,0.76 -0.027,0.245 -0.042,0.457 -0.039,0.633 -0.003,0.182 0.009,0.397 0.035,0.646 0.021,0.245 0.064,0.499 0.126,0.763 0.059,0.261 0.134,0.523 0.227,0.784 0.092,0.257 0.207,0.488 0.349,0.693 0.136,0.203 0.302,0.37 0.492,0.497 0.185,0.128 0.398,0.191 0.639,0.191 0.239,0 0.452,-0.063 0.635,-0.186 0.185,-0.125 0.345,-0.286 0.487,-0.484 0.137,-0.199 0.256,-0.428 0.353,-0.682 0.094,-0.257 0.171,-0.514 0.234,-0.775 0.058,-0.263 0.101,-0.519 0.125,-0.759 0.023,-0.245 0.035,-0.457 0.037,-0.641"
         style="fill:#ffffff;fill-opacity:1;fill-rule:nonzero;stroke:none"
         id="path76181"
         inkscape:connector-curvature="0" />
      <path
         inkscape:connector-curvature="0"
         id="path76185"
         style="fill:none;stroke:#66ccff;stroke-width:0.33819985;stroke-linecap:round;stroke-linejoin:round;stroke-miterlimit:4;stroke-opacity:1;stroke-dasharray:none"
         d="m 288.91475,406.39518 27.73383,0.21472" />
      <path
         d="m 289.577,406.4 c 0.002,-0.371 -0.3,-0.675 -0.673,-0.68 -0.374,-0.002 -0.681,0.299 -0.683,0.671 -0.003,0.373 0.297,0.679 0.673,0.681 0.374,0.003 0.678,-0.297 0.683,-0.672"
         style="fill:#66ccff;fill-opacity:1;fill-rule:evenodd;stroke:none"
         id="path76187"
         inkscape:connector-curvature="0" />
      <path
         inkscape:connector-curvature="0"
         id="path76191"
         style="fill:none;stroke:#66ccff;stroke-width:0.16910033;stroke-linecap:butt;stroke-linejoin:miter;stroke-miterlimit:4;stroke-opacity:1;stroke-dasharray:none"
         d="m 289.57716,406.40035 c 0.002,-0.37261 -0.29978,-0.67622 -0.67336,-0.6811 -0.3726,-0.003 -0.68101,0.29897 -0.68192,0.67159 -0.003,0.3726 0.29678,0.67818 0.67236,0.68208 0.3736,0.002 0.67801,-0.298 0.68292,-0.67257 z" />
      <path
         d="m 332.128,406.396 c 0,-4.833 -3.929,-8.751 -8.774,-8.751 -4.844,0 -8.773,3.918 -8.773,8.751 0,4.831 3.929,8.75 8.773,8.75 4.845,0 8.774,-3.919 8.774,-8.75"
         style="fill:#66ccff;fill-opacity:1;fill-rule:nonzero;stroke:none"
         id="path76193"
         inkscape:connector-curvature="0" />
      <path
         d="m 324.866,402.129 0,0.669 -1.032,0 0,7.865 -1.989,-0.993 0.132,-0.739 1.066,0.585 0,-6.73 -1.115,0 0,-0.657"
         style="fill:#ffffff;fill-opacity:1;fill-rule:nonzero;stroke:none"
         id="path76195"
         inkscape:connector-curvature="0" />
      <path
         inkscape:connector-curvature="0"
         id="path76199"
         style="fill:none;stroke:#66ccff;stroke-width:0.33819985;stroke-linecap:round;stroke-linejoin:round;stroke-miterlimit:4;stroke-opacity:1;stroke-dasharray:none"
         d="m 180.84821,404.8073 0.21528,-27.41852" />
      <path
         d="m 180.853,404.146 c -0.373,-0.005 -0.68,0.297 -0.683,0.669 -0.002,0.372 0.299,0.678 0.673,0.681 0.374,0.002 0.678,-0.297 0.681,-0.67 0.005,-0.374 -0.297,-0.678 -0.671,-0.68"
         style="fill:#66ccff;fill-opacity:1;fill-rule:evenodd;stroke:none"
         id="path76201"
         inkscape:connector-curvature="0" />
      <path
         inkscape:connector-curvature="0"
         id="path76205"
         style="fill:none;stroke:#66ccff;stroke-width:0.16909876;stroke-linecap:butt;stroke-linejoin:miter;stroke-miterlimit:4;stroke-opacity:1;stroke-dasharray:none"
         d="m 180.85356,404.14624 c -0.37356,-0.005 -0.68096,0.29692 -0.68289,0.66851 -0.003,0.37258 0.29771,0.67817 0.67029,0.68108 0.37556,0.002 0.68096,-0.29691 0.68289,-0.66851 0.006,-0.37454 -0.29771,-0.67915 -0.67029,-0.68108 z" />
      <path
         d="m 189.621,377.554 c 0,-4.832 -3.927,-8.75 -8.773,-8.75 -4.846,0 -8.773,3.918 -8.773,8.75 0,4.832 3.927,8.75 8.773,8.75 4.846,0 8.773,-3.918 8.773,-8.75"
         style="fill:#66ccff;fill-opacity:1;fill-rule:nonzero;stroke:none"
         id="path76207"
         inkscape:connector-curvature="0" />
      <path
         d="m 181.711,381.858 c -0.426,-0.32 -0.841,-0.692 -1.247,-1.119 -0.409,-0.425 -0.775,-0.885 -1.099,-1.373 -0.324,-0.493 -0.585,-1.009 -0.785,-1.548 -0.202,-0.544 -0.302,-1.089 -0.3,-1.637 -0.002,-0.392 0.056,-0.77 0.168,-1.138 0.115,-0.368 0.278,-0.692 0.495,-0.973 0.212,-0.286 0.481,-0.513 0.807,-0.682 0.321,-0.169 0.7,-0.254 1.134,-0.256 0.548,0.002 1.011,0.132 1.39,0.393 0.372,0.262 0.656,0.592 0.845,0.988 0.187,0.393 0.281,0.817 0.285,1.276 0.003,0.458 -0.085,0.884 -0.262,1.28 -0.181,0.394 -0.453,0.724 -0.814,0.986 -0.367,0.262 -0.826,0.395 -1.373,0.397 -0.307,-0.002 -0.595,-0.064 -0.864,-0.187 -0.275,-0.125 -0.513,-0.292 -0.719,-0.497 0.272,0.731 0.664,1.397 1.174,1.996 0.51,0.599 1.073,1.128 1.691,1.592 l -0.526,0.502 z m 0.898,-6.026 c 0,-0.424 -0.09,-0.785 -0.264,-1.082 -0.178,-0.301 -0.397,-0.525 -0.66,-0.675 -0.264,-0.152 -0.549,-0.227 -0.851,-0.222 -0.307,0.002 -0.59,0.092 -0.85,0.268 -0.265,0.175 -0.484,0.446 -0.658,0.808 -0.18,0.362 -0.268,0.827 -0.265,1.393 -0.003,0.263 0.085,0.499 0.265,0.712 0.174,0.21 0.393,0.374 0.658,0.489 0.26,0.116 0.543,0.182 0.85,0.198 0.302,0.015 0.587,-0.04 0.851,-0.163 0.263,-0.122 0.482,-0.325 0.66,-0.602 0.174,-0.281 0.264,-0.655 0.264,-1.124"
         style="fill:#ffffff;fill-opacity:1;fill-rule:nonzero;stroke:none"
         id="path76209"
         inkscape:connector-curvature="0" />
      <path
         inkscape:connector-curvature="0"
         id="path76213"
         style="fill:none;stroke:#66ccff;stroke-width:0.33819985;stroke-linecap:round;stroke-linejoin:round;stroke-miterlimit:4;stroke-opacity:1;stroke-dasharray:none"
         d="m 123.81345,416.63156 -27.734835,0.21471" />
      <path
         d="m 123.149,416.638 c 0.002,0.371 0.309,0.673 0.683,0.668 0.373,-10e-4 0.675,-0.306 0.673,-0.681 -0.005,-0.373 -0.31,-0.671 -0.682,-0.669 -0.375,0.003 -0.677,0.31 -0.674,0.682"
         style="fill:#66ccff;fill-opacity:1;fill-rule:evenodd;stroke:none"
         id="path76215"
         inkscape:connector-curvature="0" />
      <path
         inkscape:connector-curvature="0"
         id="path76219"
         style="fill:none;stroke:#66ccff;stroke-width:0.16910033;stroke-linecap:butt;stroke-linejoin:miter;stroke-miterlimit:4;stroke-opacity:1;stroke-dasharray:none"
         d="m 123.14905,416.63753 c 0.003,0.37162 0.30931,0.67349 0.68289,0.66861 0.3726,-0.003 0.67628,-0.30652 0.67236,-0.6811 -0.004,-0.3716 -0.30929,-0.6715 -0.68189,-0.66861 -0.37559,0.002 -0.67627,0.3085 -0.67336,0.6811 z" />
      <path
         d="m 104.547,416.632 c 0,-4.834 -3.929,-8.752 -8.7736,-8.752 -4.8453,0 -8.7734,3.918 -8.7734,8.752 0,4.832 3.9281,8.75 8.7734,8.75 4.8446,0 8.7736,-3.918 8.7736,-8.75"
         style="fill:#66ccff;fill-opacity:1;fill-rule:nonzero;stroke:none"
         id="path76221"
         inkscape:connector-curvature="0" />
      <path
         d="m 94.8875,412.079 c 0.4227,0.325 0.841,0.697 1.2563,1.116 0.414,0.42 0.7847,0.871 1.1082,1.357 0.3234,0.485 0.5859,0.995 0.7867,1.531 0.1984,0.533 0.2976,1.084 0.3,1.65 -0.0024,0.405 -0.0567,0.791 -0.1633,1.163 -0.1082,0.368 -0.2691,0.696 -0.4836,0.981 -0.218,0.283 -0.4918,0.508 -0.8227,0.676 -0.3304,0.167 -0.7152,0.249 -1.155,0.251 -0.5528,-0.002 -1.0133,-0.133 -1.3797,-0.395 -0.368,-0.264 -0.6446,-0.589 -0.8262,-0.98 -0.1848,-0.391 -0.2789,-0.817 -0.2883,-1.279 -0.0094,-0.462 0.0754,-0.888 0.2574,-1.28 0.1793,-0.391 0.4512,-0.718 0.8172,-0.98 0.3618,-0.264 0.8149,-0.395 1.361,-0.394 0.2832,-10e-4 0.5644,0.054 0.8425,0.168 0.2747,0.111 0.52,0.261 0.7375,0.455 -0.1375,-0.354 -0.307,-0.691 -0.5152,-1.012 -0.2078,-0.325 -0.439,-0.636 -0.6894,-0.932 -0.2528,-0.301 -0.52,-0.584 -0.8032,-0.848 -0.2855,-0.268 -0.5714,-0.514 -0.8554,-0.734 l 0.5152,-0.514 z m 2.6359,5.533 c -0.0023,-0.271 -0.0871,-0.511 -0.257,-0.715 -0.173,-0.21 -0.3922,-0.371 -0.6543,-0.486 -0.2648,-0.115 -0.5461,-0.179 -0.8461,-0.186 -0.3,-0.01 -0.5812,0.049 -0.843,0.175 -0.2648,0.122 -0.4816,0.319 -0.6542,0.59 -0.1727,0.272 -0.2602,0.624 -0.2579,1.066 -0.0023,0.245 0.0352,0.487 0.1086,0.727 0.0711,0.238 0.175,0.455 0.3168,0.646 0.1367,0.191 0.3121,0.344 0.5219,0.459 0.2055,0.116 0.4488,0.172 0.7324,0.175 0.3567,-0.003 0.6567,-0.072 0.8973,-0.211 0.2391,-0.138 0.4285,-0.323 0.5648,-0.555 0.1348,-0.233 0.2293,-0.497 0.286,-0.788 0.0547,-0.298 0.0824,-0.596 0.0847,-0.897"
         style="fill:#ffffff;fill-opacity:1;fill-rule:nonzero;stroke:none"
         id="path76223"
         inkscape:connector-curvature="0" />
      <path
         inkscape:connector-curvature="0"
         id="path76227"
         style="fill:none;stroke:#66ccff;stroke-width:0.33819985;stroke-linecap:round;stroke-linejoin:round;stroke-miterlimit:4;stroke-opacity:1;stroke-dasharray:none"
         d="m 201.03202,442.76678 -0.21529,32.24409" />
      <path
         d="m 201.028,443.429 c 0.373,0.002 0.679,-0.299 0.681,-0.671 0.003,-0.372 -0.3,-0.676 -0.673,-0.681 -0.375,-0.003 -0.681,0.298 -0.683,0.671 -0.002,0.375 0.3,0.679 0.675,0.681"
         style="fill:#66ccff;fill-opacity:1;fill-rule:evenodd;stroke:none"
         id="path76229"
         inkscape:connector-curvature="0" />
      <path
         inkscape:connector-curvature="0"
         id="path76233"
         style="fill:none;stroke:#66ccff;stroke-width:0.16909979;stroke-linecap:butt;stroke-linejoin:miter;stroke-miterlimit:4;stroke-opacity:1;stroke-dasharray:none"
         d="m 201.02655,443.4295 c 0.37301,0.002 0.68043,-0.30104 0.68291,-0.67207 0.002,-0.37202 -0.29987,-0.67662 -0.67287,-0.68009 -0.375,-0.002 -0.6804,0.29806 -0.68289,0.67008 -0.003,0.375 0.29984,0.6796 0.67285,0.68208 z" />
      <path
         d="m 209.804,473.955 c 0,-4.832 -3.927,-8.75 -8.773,-8.75 -4.844,0 -8.772,3.918 -8.772,8.75 0,4.832 3.928,8.75 8.772,8.75 4.846,0 8.773,-3.918 8.773,-8.75"
         style="fill:#66ccff;fill-opacity:1;fill-rule:nonzero;stroke:none"
         id="path76235"
         inkscape:connector-curvature="0" />
      <path
         d="m 199.418,469.688 0,0.669 -1.033,0 0,7.864 -1.988,-0.991 0.132,-0.74 1.066,0.584 0,-6.728 -1.115,0 0,-0.658 2.938,0 z m 6.25,0 0,0.669 -1.032,0 0,7.864 -1.988,-0.991 0.132,-0.74 1.065,0.584 0,-6.728 -1.115,0 0,-0.658"
         style="fill:#ffffff;fill-opacity:1;fill-rule:nonzero;stroke:none"
         id="path76237"
         inkscape:connector-curvature="0" />
      <path
         inkscape:connector-curvature="0"
         id="path76241"
         style="fill:none;stroke:#66ccff;stroke-width:0.33819985;stroke-linecap:round;stroke-linejoin:round;stroke-miterlimit:4;stroke-opacity:1;stroke-dasharray:none"
         d="m 275.26462,406.62388 0.0871,-14.03932 13.67517,-10.48305" />
      <path
         d="m 275.269,405.963 c -0.375,-0.003 -0.68,0.298 -0.683,0.67 -0.002,0.372 0.3,0.68 0.674,0.682 0.373,0 0.68,-0.3 0.683,-0.671 0,-0.376 -0.3,-0.679 -0.674,-0.681"
         style="fill:#66ccff;fill-opacity:1;fill-rule:evenodd;stroke:none"
         id="path76243"
         inkscape:connector-curvature="0" />
      <path
         inkscape:connector-curvature="0"
         id="path76247"
         style="fill:none;stroke:#66ccff;stroke-width:0.16909926;stroke-linecap:butt;stroke-linejoin:miter;stroke-miterlimit:4;stroke-opacity:1;stroke-dasharray:none"
         d="m 275.26852,405.96205 c -0.37517,-0.002 -0.67958,0.2985 -0.68191,0.67167 -0.002,0.37318 0.2993,0.67778 0.67247,0.68109 0.37319,-6.6e-4 0.68157,-0.30048 0.68389,-0.67167 -6.4e-4,-0.37518 -0.30028,-0.67877 -0.67445,-0.68109 z" />
      <path
         d="m 303.389,377.554 c 0,-4.832 -3.929,-8.75 -8.773,-8.75 -4.845,0 -8.773,3.918 -8.773,8.75 0,4.832 3.928,8.75 8.773,8.75 4.844,0 8.773,-3.918 8.773,-8.75"
         style="fill:#66ccff;fill-opacity:1;fill-rule:nonzero;stroke:none"
         id="path76249"
         inkscape:connector-curvature="0" />
      <path
         d="m 297.311,374.027 -3.668,0 c 0.319,0.342 0.63,0.69 0.936,1.046 0.302,0.353 0.607,0.709 0.911,1.07 0.165,0.198 0.333,0.414 0.507,0.646 0.171,0.231 0.328,0.475 0.474,0.734 0.144,0.26 0.259,0.522 0.349,0.79 0.084,0.264 0.13,0.534 0.132,0.808 -0.002,0.365 -0.068,0.707 -0.198,1.027 -0.136,0.318 -0.317,0.593 -0.546,0.824 -0.234,0.232 -0.509,0.413 -0.822,0.549 -0.317,0.134 -0.656,0.202 -1.023,0.205 -0.274,-0.003 -0.541,-0.044 -0.799,-0.131 -0.262,-0.09 -0.502,-0.217 -0.725,-0.377 -0.224,-0.165 -0.418,-0.358 -0.575,-0.58 -0.161,-0.226 -0.275,-0.47 -0.346,-0.727 l 0.586,-0.336 c 0.118,0.365 0.294,0.656 0.521,0.872 0.227,0.212 0.478,0.364 0.75,0.448 0.272,0.082 0.545,0.103 0.826,0.067 0.28,-0.041 0.534,-0.136 0.761,-0.281 0.227,-0.151 0.414,-0.349 0.564,-0.599 0.146,-0.252 0.223,-0.543 0.223,-0.866 0,-0.259 -0.038,-0.503 -0.109,-0.736 -0.076,-0.235 -0.169,-0.462 -0.283,-0.68 -0.118,-0.22 -0.248,-0.432 -0.395,-0.634 -0.146,-0.205 -0.296,-0.403 -0.449,-0.592 -0.442,-0.552 -0.897,-1.085 -1.372,-1.598 -0.477,-0.516 -0.967,-1.021 -1.467,-1.522 l 0,-0.166 5.164,0"
         style="fill:#ffffff;fill-opacity:1;fill-rule:nonzero;stroke:none"
         id="path76251"
         inkscape:connector-curvature="0" />
      <path
         inkscape:connector-curvature="0"
         id="path76255"
         style="fill:none;stroke:#66ccff;stroke-width:0.33819985;stroke-linecap:round;stroke-linejoin:round;stroke-miterlimit:4;stroke-opacity:1;stroke-dasharray:none"
         d="m 261.23799,417.67617 -0.21429,50.57869" />
      <path
         d="m 261.235,418.338 c 0.374,0.002 0.678,-0.299 0.681,-0.672 0.002,-0.372 -0.3,-0.676 -0.673,-0.678 -0.376,-0.002 -0.681,0.299 -0.681,0.672 -0.002,0.374 0.3,0.678 0.673,0.678"
         style="fill:#66ccff;fill-opacity:1;fill-rule:evenodd;stroke:none"
         id="path76257"
         inkscape:connector-curvature="0" />
      <path
         inkscape:connector-curvature="0"
         id="path76261"
         style="fill:none;stroke:#66ccff;stroke-width:0.16909945;stroke-linecap:butt;stroke-linejoin:miter;stroke-miterlimit:4;stroke-opacity:1;stroke-dasharray:none"
         d="m 261.23544,418.33829 c 0.3729,0.003 0.67831,-0.29944 0.68089,-0.67135 0.002,-0.37292 -0.30124,-0.67553 -0.67414,-0.6781 -0.3759,-0.004 -0.68031,0.29844 -0.6799,0.67136 -0.004,0.3739 0.29923,0.6785 0.67315,0.67809 z" />
      <path
         d="m 270.013,473.955 c 0,-4.832 -3.927,-8.75 -8.775,-8.75 -4.845,0 -8.774,3.918 -8.774,8.75 0,4.832 3.929,8.75 8.774,8.75 4.848,0 8.775,-3.918 8.775,-8.75"
         style="fill:#66ccff;fill-opacity:1;fill-rule:nonzero;stroke:none"
         id="path76263"
         inkscape:connector-curvature="0" />
      <path
         d="m 259.031,469.688 0,0.669 -1.032,0 0,7.864 -1.99,-0.991 0.134,-0.74 1.065,0.584 0,-6.728 -1.115,0 0,-0.658 2.938,0 z m 7.436,0.741 -3.668,0 c 0.319,0.341 0.631,0.69 0.936,1.045 0.302,0.354 0.607,0.709 0.912,1.069 0.164,0.2 0.332,0.416 0.507,0.647 0.171,0.23 0.329,0.475 0.472,0.734 0.144,0.26 0.26,0.521 0.351,0.79 0.085,0.264 0.129,0.535 0.132,0.807 -0.003,0.365 -0.069,0.708 -0.198,1.028 -0.135,0.318 -0.317,0.594 -0.547,0.824 -0.234,0.232 -0.507,0.413 -0.821,0.55 -0.318,0.134 -0.657,0.202 -1.024,0.204 -0.274,-0.002 -0.54,-0.045 -0.798,-0.132 -0.262,-0.089 -0.503,-0.216 -0.725,-0.377 -0.225,-0.164 -0.417,-0.357 -0.576,-0.579 -0.161,-0.226 -0.275,-0.469 -0.346,-0.728 l 0.586,-0.334 c 0.119,0.364 0.294,0.655 0.523,0.871 0.227,0.212 0.477,0.363 0.748,0.447 0.272,0.083 0.546,0.105 0.826,0.068 0.28,-0.042 0.534,-0.136 0.761,-0.281 0.227,-0.152 0.414,-0.35 0.564,-0.598 0.148,-0.253 0.223,-0.543 0.223,-0.869 0,-0.256 -0.038,-0.5 -0.109,-0.734 -0.075,-0.235 -0.17,-0.461 -0.283,-0.681 -0.117,-0.219 -0.248,-0.43 -0.395,-0.633 -0.145,-0.205 -0.297,-0.403 -0.448,-0.592 -0.442,-0.552 -0.898,-1.084 -1.373,-1.597 -0.477,-0.516 -0.966,-1.023 -1.467,-1.523 l 0,-0.167 5.164,0"
         style="fill:#ffffff;fill-opacity:1;fill-rule:nonzero;stroke:none"
         id="path76265"
         inkscape:connector-curvature="0" />
    </g>
  </g>
</svg>
