<?xml version="1.0" encoding="UTF-8" standalone="no"?>
<!-- Created with Inkscape (http://www.inkscape.org/) -->

<svg
   xmlns:dc="http://purl.org/dc/elements/1.1/"
   xmlns:cc="http://creativecommons.org/ns#"
   xmlns:rdf="http://www.w3.org/1999/02/22-rdf-syntax-ns#"
   xmlns:svg="http://www.w3.org/2000/svg"
   xmlns="http://www.w3.org/2000/svg"
   xmlns:sodipodi="http://sodipodi.sourceforge.net/DTD/sodipodi-0.dtd"
   xmlns:inkscape="http://www.inkscape.org/namespaces/inkscape"
   width="660.05664"
   height="399.00922"
   id="svg8595"
   version="1.1"
   inkscape:version="0.48.5 r10040"
   sodipodi:docname="companion_panel.svg">
  <defs
     id="defs8597" />
  <sodipodi:namedview
     id="base"
     pagecolor="#ffffff"
     bordercolor="#666666"
     borderopacity="1.0"
     inkscape:pageopacity="0.0"
     inkscape:pageshadow="2"
     inkscape:zoom="0.35"
     inkscape:cx="-139.50392"
     inkscape:cy="242.5749"
     inkscape:document-units="px"
     inkscape:current-layer="layer1"
     showgrid="false"
     fit-margin-top="5"
     fit-margin-left="5"
     fit-margin-right="5"
     fit-margin-bottom="5"
     inkscape:window-width="1280"
     inkscape:window-height="778"
     inkscape:window-x="0"
     inkscape:window-y="0"
     inkscape:window-maximized="1" />
  <metadata
     id="metadata8600">
    <rdf:RDF>
      <cc:Work
         rdf:about="">
        <dc:format>image/svg+xml</dc:format>
        <dc:type
           rdf:resource="http://purl.org/dc/dcmitype/StillImage" />
        <dc:title></dc:title>
      </cc:Work>
    </rdf:RDF>
  </metadata>
  <g
     inkscape:label="Layer 1"
     inkscape:groupmode="layer"
     id="layer1"
     transform="translate(92.638943,-375.92786)">
    <g
       id="g98138"
       transform="matrix(4.1017808,0,0,-4.1017808,-622.75416,2433.8228)">
      <path
         d="m 149.784,499.216 135.309,0 c 2.122,0 3.834,-1.707 3.834,-3.828 l 0,-22.162 c 0,-2.119 -1.712,-3.841 -3.834,-3.828 l -30.187,0 0,11.679 -20.09,0 -0.01,-11.679 -8.651,0 0,11.679 -20.007,0 0,-11.679 -56.364,0 c -2.125,0 -3.834,1.709 -3.834,3.828 l 0,22.162 c 0,2.121 1.709,3.828 3.834,3.828"
         style="fill:#345380;fill-opacity:1;fill-rule:nonzero;stroke:none"
         id="path93546"
         inkscape:connector-curvature="0" />
      <path
         inkscape:connector-curvature="0"
         id="path93550"
         style="fill:none;stroke:#000000;stroke-width:0.00785751;stroke-linecap:round;stroke-linejoin:round;stroke-miterlimit:4;stroke-opacity:1;stroke-dasharray:none"
         d="m 149.78367,499.2153 135.30737,0 c 2.12195,0 3.83453,-1.70643 3.83453,-3.82747 l 0,-22.16155 c 0,-2.12004 -1.71258,-3.84145 -3.83453,-3.82747 l -30.18574,0 0,11.67823 -20.09047,0 -0.01,-11.67823 -8.65095,0 0,11.67823 -20.00639,0 0,-11.67823 -56.36381,0 c -2.12495,0 -3.83452,1.70743 -3.83452,3.82747 l 0,22.16155 c 0,2.12104 1.70957,3.82747 3.83452,3.82747 z" />
      <path
         d="m 155.694,490.259 11.8438,0 0,10.2297 -11.8438,0 0,-10.2297 z"
         style="fill:#444444;fill-opacity:1;fill-rule:nonzero;stroke:none"
         id="path93552"
         inkscape:connector-curvature="0" />
      <path
         d="m 164.844,490.274 2.05078,0 0,10.1992 -2.05078,0 0,-10.1992 z"
         style="fill:#3b3b3b;fill-opacity:1;fill-rule:nonzero;stroke:none"
         id="path93554"
         inkscape:connector-curvature="0" />
      <path
         d="m 156.338,490.274 2.05078,0 0,10.1992 -2.05078,0 0,-10.1992 z"
         style="fill:#3b3b3b;fill-opacity:1;fill-rule:nonzero;stroke:none"
         id="path93556"
         inkscape:connector-curvature="0" />
      <path
         d="m 159.222,490.274 2.05078,0 0,10.1992 -2.05078,0 0,-10.1992 z"
         style="fill:#3b3b3b;fill-opacity:1;fill-rule:nonzero;stroke:none"
         id="path93558"
         inkscape:connector-curvature="0" />
      <path
         d="m 162.073,490.274 2.05078,0 0,10.1992 -2.05078,0 0,-10.1992 z"
         style="fill:#3b3b3b;fill-opacity:1;fill-rule:nonzero;stroke:none"
         id="path93560"
         inkscape:connector-curvature="0" />
      <path
         d="m 288.751,494.972 c 0,-2.216 -1.801,-4.013 -4.023,-4.013 -2.222,0 -4.023,1.797 -4.023,4.013 0,2.217 1.801,4.016 4.023,4.016 2.222,0 4.023,-1.799 4.023,-4.016"
         style="fill:#d4aa00;fill-opacity:1;fill-rule:nonzero;stroke:none"
         id="path93562"
         inkscape:connector-curvature="0" />
      <path
         d="m 288.546,494.963 c 0,-0.315 -0.253,-0.568 -0.566,-0.568 -0.314,0 -0.569,0.253 -0.569,0.568 0,0.313 0.255,0.566 0.569,0.566 0.313,0 0.566,-0.253 0.566,-0.566"
         style="fill:#ffffff;fill-opacity:1;fill-rule:nonzero;stroke:none"
         id="path93564"
         inkscape:connector-curvature="0" />
      <path
         d="m 287.589,497.24 c 0,-0.311 -0.254,-0.566 -0.568,-0.566 -0.314,0 -0.568,0.255 -0.568,0.566 0,0.315 0.254,0.568 0.568,0.568 0.314,0 0.568,-0.253 0.568,-0.568"
         style="fill:#ffffff;fill-opacity:1;fill-rule:nonzero;stroke:none"
         id="path93566"
         inkscape:connector-curvature="0" />
      <path
         d="m 285.306,498.218 c 0,-0.314 -0.254,-0.567 -0.568,-0.567 -0.314,0 -0.568,0.253 -0.568,0.567 0,0.314 0.254,0.567 0.568,0.567 0.314,0 0.568,-0.253 0.568,-0.567"
         style="fill:#ffffff;fill-opacity:1;fill-rule:nonzero;stroke:none"
         id="path93568"
         inkscape:connector-curvature="0" />
      <path
         d="m 283.023,497.24 c 0,-0.311 -0.253,-0.566 -0.568,-0.566 -0.314,0 -0.567,0.255 -0.567,0.566 0,0.315 0.253,0.568 0.567,0.568 0.315,0 0.568,-0.253 0.568,-0.568"
         style="fill:#ffffff;fill-opacity:1;fill-rule:nonzero;stroke:none"
         id="path93570"
         inkscape:connector-curvature="0" />
      <path
         d="m 282.086,494.982 c 0,-0.312 -0.253,-0.566 -0.568,-0.566 -0.314,0 -0.568,0.254 -0.568,0.566 0,0.314 0.254,0.568 0.568,0.568 0.315,0 0.568,-0.254 0.568,-0.568"
         style="fill:#ffffff;fill-opacity:1;fill-rule:nonzero;stroke:none"
         id="path93572"
         inkscape:connector-curvature="0" />
      <path
         d="m 283.023,492.683 c 0,-0.312 -0.253,-0.567 -0.568,-0.567 -0.314,0 -0.567,0.255 -0.567,0.567 0,0.314 0.253,0.569 0.567,0.569 0.315,0 0.568,-0.255 0.568,-0.569"
         style="fill:#ffffff;fill-opacity:1;fill-rule:nonzero;stroke:none"
         id="path93574"
         inkscape:connector-curvature="0" />
      <path
         d="m 285.306,491.747 c 0,-0.312 -0.254,-0.565 -0.568,-0.565 -0.314,0 -0.568,0.253 -0.568,0.565 0,0.316 0.254,0.569 0.568,0.569 0.314,0 0.568,-0.253 0.568,-0.569"
         style="fill:#ffffff;fill-opacity:1;fill-rule:nonzero;stroke:none"
         id="path93576"
         inkscape:connector-curvature="0" />
      <path
         d="m 287.589,492.704 c 0,-0.313 -0.254,-0.568 -0.568,-0.568 -0.314,0 -0.568,0.255 -0.568,0.568 0,0.312 0.254,0.568 0.568,0.568 0.314,0 0.568,-0.256 0.568,-0.568"
         style="fill:#ffffff;fill-opacity:1;fill-rule:nonzero;stroke:none"
         id="path93578"
         inkscape:connector-curvature="0" />
      <path
         d="m 287.005,494.972 c 0,-1.256 -1.02,-2.274 -2.277,-2.274 -1.257,0 -2.277,1.018 -2.277,2.274 0,1.257 1.02,2.274 2.277,2.274 1.257,0 2.277,-1.017 2.277,-2.274"
         style="fill:#ffffff;fill-opacity:1;fill-rule:nonzero;stroke:none"
         id="path93580"
         inkscape:connector-curvature="0" />
      <path
         d="m 154.253,494.972 c 0,-2.216 -1.801,-4.013 -4.021,-4.013 -2.223,0 -4.024,1.797 -4.024,4.013 0,2.217 1.801,4.016 4.024,4.016 2.22,0 4.021,-1.799 4.021,-4.016"
         style="fill:#d4aa00;fill-opacity:1;fill-rule:nonzero;stroke:none"
         id="path93582"
         inkscape:connector-curvature="0" />
      <path
         d="m 154.05,494.963 c 0,-0.315 -0.255,-0.568 -0.569,-0.568 -0.313,0 -0.566,0.253 -0.566,0.568 0,0.313 0.253,0.566 0.566,0.566 0.314,0 0.569,-0.253 0.569,-0.566"
         style="fill:#ffffff;fill-opacity:1;fill-rule:nonzero;stroke:none"
         id="path93584"
         inkscape:connector-curvature="0" />
      <path
         d="m 153.093,497.24 c 0,-0.311 -0.255,-0.566 -0.571,-0.566 -0.313,0 -0.566,0.255 -0.566,0.566 0,0.315 0.253,0.568 0.566,0.568 0.316,0 0.571,-0.253 0.571,-0.568"
         style="fill:#ffffff;fill-opacity:1;fill-rule:nonzero;stroke:none"
         id="path93586"
         inkscape:connector-curvature="0" />
      <path
         d="m 150.81,498.218 c 0,-0.314 -0.256,-0.567 -0.569,-0.567 -0.314,0 -0.569,0.253 -0.569,0.567 0,0.314 0.255,0.567 0.569,0.567 0.313,0 0.569,-0.253 0.569,-0.567"
         style="fill:#ffffff;fill-opacity:1;fill-rule:nonzero;stroke:none"
         id="path93588"
         inkscape:connector-curvature="0" />
      <path
         d="m 148.525,497.24 c 0,-0.311 -0.253,-0.566 -0.566,-0.566 -0.316,0 -0.569,0.255 -0.569,0.566 0,0.315 0.253,0.568 0.569,0.568 0.313,0 0.566,-0.253 0.566,-0.568"
         style="fill:#ffffff;fill-opacity:1;fill-rule:nonzero;stroke:none"
         id="path93590"
         inkscape:connector-curvature="0" />
      <path
         d="m 147.588,494.982 c 0,-0.312 -0.253,-0.566 -0.567,-0.566 -0.315,0 -0.569,0.254 -0.569,0.566 0,0.314 0.254,0.568 0.569,0.568 0.314,0 0.567,-0.254 0.567,-0.568"
         style="fill:#ffffff;fill-opacity:1;fill-rule:nonzero;stroke:none"
         id="path93592"
         inkscape:connector-curvature="0" />
      <path
         d="m 148.525,492.683 c 0,-0.312 -0.253,-0.567 -0.566,-0.567 -0.316,0 -0.569,0.255 -0.569,0.567 0,0.314 0.253,0.569 0.569,0.569 0.313,0 0.566,-0.255 0.566,-0.569"
         style="fill:#ffffff;fill-opacity:1;fill-rule:nonzero;stroke:none"
         id="path93594"
         inkscape:connector-curvature="0" />
      <path
         d="m 150.81,491.747 c 0,-0.312 -0.256,-0.565 -0.569,-0.565 -0.314,0 -0.569,0.253 -0.569,0.565 0,0.316 0.255,0.569 0.569,0.569 0.313,0 0.569,-0.253 0.569,-0.569"
         style="fill:#ffffff;fill-opacity:1;fill-rule:nonzero;stroke:none"
         id="path93596"
         inkscape:connector-curvature="0" />
      <path
         d="m 153.093,492.704 c 0,-0.313 -0.255,-0.568 -0.571,-0.568 -0.313,0 -0.566,0.255 -0.566,0.568 0,0.312 0.253,0.568 0.566,0.568 0.316,0 0.571,-0.256 0.571,-0.568"
         style="fill:#ffffff;fill-opacity:1;fill-rule:nonzero;stroke:none"
         id="path93598"
         inkscape:connector-curvature="0" />
      <path
         d="m 152.508,494.972 c 0,-1.256 -1.02,-2.274 -2.276,-2.274 -1.259,0 -2.279,1.018 -2.279,2.274 0,1.257 1.02,2.274 2.279,2.274 1.256,0 2.276,-1.017 2.276,-2.274"
         style="fill:#ffffff;fill-opacity:1;fill-rule:nonzero;stroke:none"
         id="path93600"
         inkscape:connector-curvature="0" />
      <path
         d="m 233.692,497.137 -0.3,0.04 -1.069,-2.442 -1.044,2.442 -0.29,-0.04 1.305,-3.048 0.055,0 1.343,3.048 z m 2.934,-2.99 -1.419,3.042 -0.084,0 -1.457,-3.042 0.298,-0.039 0.532,1.137 1.315,0 0.535,-1.137 0.28,0.039 z m -0.947,1.36 -1.06,0 0.529,1.126 0.531,-1.126 z m 1.185,-1.364 0.83,0 c 0.196,0.003 0.364,0.032 0.504,0.097 0.138,0.064 0.247,0.146 0.326,0.249 0.079,0.098 0.128,0.211 0.147,0.333 0.02,0.122 0.011,0.241 -0.022,0.358 -0.037,0.114 -0.102,0.22 -0.192,0.313 -0.091,0.094 -0.205,0.161 -0.344,0.205 0.117,0.065 0.207,0.153 0.266,0.266 0.057,0.11 0.086,0.236 0.089,0.375 -0.003,0.155 -0.028,0.282 -0.073,0.383 -0.05,0.102 -0.116,0.181 -0.197,0.242 -0.084,0.059 -0.179,0.104 -0.288,0.13 -0.112,0.024 -0.226,0.042 -0.342,0.049 -0.12,0.009 -0.24,0.01 -0.361,0.006 -0.121,-0.003 -0.235,-0.006 -0.343,-0.006 l 0,-3 z m 1.304,2.183 -0.005,0 c -0.001,-0.149 -0.036,-0.259 -0.102,-0.331 -0.071,-0.074 -0.157,-0.125 -0.258,-0.155 -0.105,-0.031 -0.214,-0.047 -0.333,-0.047 -0.116,0 -0.225,0 -0.325,0 l 0,1.081 c 0.107,0 0.222,0 0.342,0.003 0.119,0 0.229,-0.016 0.33,-0.045 0.102,-0.03 0.184,-0.084 0.251,-0.159 0.065,-0.078 0.1,-0.192 0.1,-0.347 z m -1.023,-0.796 c 0.077,0 0.161,0 0.251,0.004 0.09,0 0.179,-10e-4 0.271,-0.005 0.089,-0.008 0.178,-0.019 0.263,-0.036 0.083,-0.019 0.157,-0.051 0.223,-0.096 0.066,-0.045 0.119,-0.104 0.158,-0.176 0.037,-0.076 0.056,-0.167 0.056,-0.278 0,-0.104 -0.021,-0.189 -0.062,-0.259 -0.042,-0.068 -0.098,-0.121 -0.165,-0.159 -0.069,-0.039 -0.146,-0.068 -0.233,-0.084 -0.087,-0.017 -0.175,-0.029 -0.268,-0.033 -0.091,-0.006 -0.181,-0.006 -0.265,-0.002 -0.087,0.002 -0.164,0.005 -0.229,0.005 l 0,1.119 z m 3.052,-0.453 0,0.236 -1.089,0 0,-0.242 1.089,0.006 z m 1.85,-0.934 0,0.243 -0.366,0 0,2.844 -0.71,-0.359 0.047,-0.269 0.38,0.211 0,-2.433 -0.397,0 0,-0.237 1.046,0 z m 2.644,1.487 c 0,0.145 -0.016,0.308 -0.047,0.49 -0.03,0.18 -0.081,0.349 -0.155,0.511 -0.073,0.158 -0.174,0.291 -0.295,0.402 -0.124,0.106 -0.277,0.162 -0.457,0.162 -0.121,0 -0.23,-0.024 -0.321,-0.075 -0.095,-0.049 -0.177,-0.116 -0.247,-0.198 -0.072,-0.086 -0.131,-0.181 -0.18,-0.285 -0.05,-0.109 -0.09,-0.22 -0.119,-0.333 -0.03,-0.114 -0.051,-0.227 -0.065,-0.343 -0.015,-0.116 -0.022,-0.221 -0.02,-0.314 -0.002,-0.149 0.013,-0.312 0.046,-0.491 0.03,-0.181 0.082,-0.352 0.156,-0.508 0.07,-0.159 0.168,-0.294 0.292,-0.4 0.122,-0.109 0.275,-0.16 0.458,-0.162 0.179,0.002 0.329,0.053 0.453,0.16 0.123,0.105 0.223,0.237 0.296,0.394 0.073,0.157 0.125,0.325 0.157,0.504 0.031,0.177 0.048,0.34 0.048,0.486 z m -0.287,0.017 c 0,-0.066 -0.006,-0.144 -0.013,-0.234 -0.01,-0.089 -0.023,-0.181 -0.045,-0.276 -0.023,-0.096 -0.051,-0.191 -0.083,-0.282 -0.036,-0.095 -0.079,-0.176 -0.127,-0.249 -0.051,-0.074 -0.107,-0.133 -0.173,-0.178 -0.065,-0.046 -0.141,-0.069 -0.226,-0.069 -0.088,0 -0.162,0.021 -0.227,0.066 -0.065,0.042 -0.122,0.101 -0.172,0.175 -0.049,0.071 -0.092,0.154 -0.125,0.246 -0.035,0.092 -0.063,0.185 -0.082,0.279 -0.022,0.093 -0.035,0.185 -0.045,0.275 -0.012,0.088 -0.016,0.165 -0.015,0.23 -0.001,0.065 0.002,0.143 0.012,0.233 0.007,0.089 0.022,0.181 0.046,0.276 0.021,0.093 0.046,0.188 0.08,0.284 0.032,0.094 0.074,0.175 0.123,0.25 0.05,0.072 0.107,0.133 0.175,0.179 0.066,0.045 0.142,0.068 0.23,0.07 0.085,-0.002 0.161,-0.025 0.226,-0.067 0.066,-0.044 0.122,-0.102 0.173,-0.175 0.048,-0.073 0.091,-0.156 0.127,-0.247 0.032,-0.094 0.06,-0.187 0.083,-0.281 0.022,-0.097 0.035,-0.188 0.045,-0.275 0.007,-0.089 0.013,-0.165 0.013,-0.23 z m 2.515,-0.017 c 0,0.145 -0.015,0.308 -0.046,0.49 -0.03,0.18 -0.082,0.349 -0.155,0.511 -0.073,0.158 -0.173,0.291 -0.296,0.402 -0.124,0.106 -0.277,0.162 -0.457,0.162 -0.121,0 -0.228,-0.024 -0.32,-0.075 -0.095,-0.049 -0.178,-0.116 -0.249,-0.198 -0.069,-0.086 -0.129,-0.181 -0.178,-0.285 -0.05,-0.109 -0.09,-0.22 -0.119,-0.333 -0.031,-0.114 -0.052,-0.227 -0.065,-0.343 -0.016,-0.116 -0.023,-0.221 -0.021,-0.314 -0.002,-0.149 0.014,-0.312 0.046,-0.491 0.03,-0.181 0.082,-0.352 0.156,-0.508 0.071,-0.159 0.168,-0.294 0.293,-0.4 0.122,-0.109 0.275,-0.16 0.457,-0.162 0.179,0.002 0.329,0.053 0.454,0.16 0.121,0.105 0.22,0.237 0.296,0.394 0.072,0.157 0.124,0.325 0.156,0.504 0.03,0.177 0.048,0.34 0.048,0.486 z m -0.287,0.017 c 0,-0.066 -0.005,-0.144 -0.013,-0.234 -0.009,-0.089 -0.024,-0.181 -0.043,-0.276 -0.024,-0.096 -0.053,-0.191 -0.085,-0.282 -0.036,-0.095 -0.078,-0.176 -0.126,-0.249 -0.052,-0.074 -0.11,-0.133 -0.174,-0.178 -0.065,-0.046 -0.142,-0.069 -0.226,-0.069 -0.087,0 -0.162,0.021 -0.227,0.066 -0.065,0.042 -0.122,0.101 -0.171,0.175 -0.049,0.071 -0.091,0.154 -0.126,0.246 -0.035,0.092 -0.064,0.185 -0.082,0.279 -0.021,0.093 -0.035,0.185 -0.044,0.275 -0.011,0.088 -0.018,0.165 -0.016,0.23 -0.002,0.065 0.003,0.143 0.012,0.233 0.007,0.089 0.023,0.181 0.046,0.276 0.02,0.093 0.048,0.188 0.08,0.284 0.033,0.094 0.075,0.175 0.124,0.25 0.05,0.072 0.107,0.133 0.176,0.179 0.065,0.045 0.141,0.068 0.228,0.07 0.084,-0.002 0.161,-0.025 0.226,-0.067 0.064,-0.044 0.122,-0.102 0.174,-0.175 0.048,-0.073 0.09,-0.156 0.126,-0.247 0.032,-0.094 0.061,-0.187 0.085,-0.281 0.019,-0.097 0.034,-0.188 0.043,-0.275 0.008,-0.089 0.013,-0.165 0.013,-0.23 z m 2.516,-0.017 c 0,0.145 -0.016,0.308 -0.047,0.49 -0.03,0.18 -0.082,0.349 -0.154,0.511 -0.074,0.158 -0.174,0.291 -0.296,0.402 -0.124,0.106 -0.278,0.162 -0.456,0.162 -0.123,0 -0.229,-0.024 -0.322,-0.075 -0.094,-0.049 -0.177,-0.116 -0.247,-0.198 -0.072,-0.086 -0.131,-0.181 -0.18,-0.285 -0.049,-0.109 -0.09,-0.22 -0.117,-0.333 -0.032,-0.114 -0.054,-0.227 -0.066,-0.343 -0.015,-0.116 -0.024,-0.221 -0.021,-0.314 -0.003,-0.149 0.013,-0.312 0.046,-0.491 0.03,-0.181 0.081,-0.352 0.157,-0.508 0.069,-0.159 0.168,-0.294 0.291,-0.4 0.123,-0.109 0.275,-0.16 0.459,-0.162 0.177,0.002 0.327,0.053 0.452,0.16 0.123,0.105 0.222,0.237 0.296,0.394 0.073,0.157 0.124,0.325 0.157,0.504 0.031,0.177 0.048,0.34 0.048,0.486 z m -0.287,0.017 c 0,-0.066 -0.005,-0.144 -0.013,-0.234 -0.01,-0.089 -0.023,-0.181 -0.045,-0.276 -0.023,-0.096 -0.05,-0.191 -0.084,-0.282 -0.036,-0.095 -0.078,-0.176 -0.126,-0.249 -0.052,-0.074 -0.108,-0.133 -0.174,-0.178 -0.064,-0.046 -0.14,-0.069 -0.224,-0.069 -0.089,0 -0.163,0.021 -0.228,0.066 -0.065,0.042 -0.121,0.101 -0.172,0.175 -0.049,0.071 -0.091,0.154 -0.126,0.246 -0.035,0.092 -0.062,0.185 -0.081,0.279 -0.022,0.093 -0.035,0.185 -0.045,0.275 -0.011,0.088 -0.016,0.165 -0.015,0.23 -0.001,0.065 0.002,0.143 0.011,0.233 0.008,0.089 0.024,0.181 0.046,0.276 0.022,0.093 0.048,0.188 0.081,0.284 0.032,0.094 0.074,0.175 0.123,0.25 0.049,0.072 0.107,0.133 0.177,0.179 0.064,0.045 0.14,0.068 0.229,0.07 0.084,-0.002 0.16,-0.025 0.224,-0.067 0.066,-0.044 0.122,-0.102 0.174,-0.175 0.048,-0.073 0.09,-0.156 0.126,-0.247 0.034,-0.094 0.061,-0.187 0.084,-0.281 0.022,-0.097 0.035,-0.188 0.045,-0.275 0.008,-0.089 0.013,-0.165 0.013,-0.23 z m 1.728,-0.57 0,0.236 -1.089,0 0,-0.242 1.089,0.006 z m 2.418,1.797 0,0.269 -2.137,0 -0.038,-0.272 0.961,0 0,-2.741 0.282,0.03 0,2.714"
         style="fill:#ffffff;fill-opacity:1;fill-rule:nonzero;stroke:none"
         id="path93602"
         inkscape:connector-curvature="0" />
      <path
         d="m 207.366,481.645 17.543,0 c 0.364,0 0.656,-0.23 0.656,-0.518 l 0,-14.742 c 0,-0.288 -0.292,-0.519 -0.656,-0.519 l -17.543,0 c -0.361,0 -0.655,0.231 -0.655,0.519 l 0,14.742 c 0,0.288 0.294,0.518 0.655,0.518"
         style="fill:#dddddd;fill-opacity:1;fill-rule:nonzero;stroke:none"
         id="path93604"
         inkscape:connector-curvature="0" />
      <path
         d="m 208.066,465.866 16.32,0 c -0.033,-0.579 -0.232,-0.995 -0.788,-1.054 l -14.745,0 c -0.636,0.111 -0.774,0.64 -0.787,1.054"
         style="fill:#e6e6e6;fill-opacity:1;fill-rule:nonzero;stroke:none"
         id="path93606"
         inkscape:connector-curvature="0" />
      <path
         d="m 206.057,464.98 c 0.419,0.349 0.793,0.711 0.662,1.252 0.222,-0.291 0.51,-0.379 0.862,-0.343 -0.187,-0.537 -0.619,-1.241 -1.352,-1.363 -0.172,-0.017 -0.318,0.212 -0.172,0.454"
         style="fill:#e6e6e6;fill-opacity:1;fill-rule:nonzero;stroke:none"
         id="path93608"
         inkscape:connector-curvature="0" />
      <path
         d="m 226.206,464.972 c -0.419,0.347 -0.793,0.71 -0.666,1.251 -0.219,-0.292 -0.508,-0.379 -0.859,-0.343 0.187,-0.535 0.619,-1.241 1.352,-1.361 0.173,-0.019 0.319,0.211 0.173,0.453"
         style="fill:#e6e6e6;fill-opacity:1;fill-rule:nonzero;stroke:none"
         id="path93610"
         inkscape:connector-curvature="0" />
      <path
         d="m 210.279,474.232 0.25,-5.418 c 0.01,-0.323 0.198,-0.424 0.39,-0.519 l 1.939,0 c 0.311,0.107 0.28,0.325 0.328,0.52 l 0.288,5.442 c 0.052,0.404 0.698,0.375 0.737,-0.025 l -0.295,-7.433 c -0.035,-0.242 -0.178,-0.411 -0.491,-0.466 l -3.064,0.026 c -0.309,0.074 -0.355,0.253 -0.443,0.414 l -0.425,7.409 c -0.039,0.357 0.652,0.428 0.786,0.05"
         style="fill:#808080;fill-opacity:1;fill-rule:nonzero;stroke:none"
         id="path93612"
         inkscape:connector-curvature="0" />
      <path
         d="m 218.783,474.232 0.252,-5.418 c 0.01,-0.323 0.197,-0.424 0.387,-0.519 l 1.941,0 c 0.309,0.107 0.281,0.325 0.326,0.52 l 0.288,5.442 c 0.053,0.404 0.7,0.375 0.737,-0.025 l -0.294,-7.433 c -0.036,-0.242 -0.177,-0.411 -0.491,-0.466 l -3.063,0.026 c -0.311,0.074 -0.354,0.253 -0.442,0.414 l -0.428,7.409 c -0.039,0.357 0.655,0.428 0.787,0.05"
         style="fill:#808080;fill-opacity:1;fill-rule:nonzero;stroke:none"
         id="path93614"
         inkscape:connector-curvature="0" />
      <path
         d="m 208.272,480.113 c 0.116,0.32 0.623,0.28 0.743,0 l 0.012,-1.811 c 0.21,-0.291 1.028,-0.299 1.256,0.006 l 0,1.805 c 0.117,0.282 0.592,0.324 0.735,0 l 0,-2.368 c -0.03,-0.15 -0.086,-0.23 -0.291,-0.242 l -2.134,0 c -0.275,0.031 -0.344,0.158 -0.321,0.322"
         style="fill:#cccccc;fill-opacity:1;fill-rule:nonzero;stroke:none"
         id="path93616"
         inkscape:connector-curvature="0" />
      <path
         d="m 221.05,480.113 c 0.114,0.32 0.622,0.28 0.743,0 l 0.01,-1.811 c 0.209,-0.291 1.029,-0.299 1.255,0.006 l 0,1.805 c 0.118,0.282 0.592,0.324 0.737,0 l 0,-2.368 c -0.03,-0.15 -0.085,-0.23 -0.291,-0.242 l -2.136,0 c -0.274,0.031 -0.341,0.158 -0.318,0.322"
         style="fill:#cccccc;fill-opacity:1;fill-rule:nonzero;stroke:none"
         id="path93618"
         inkscape:connector-curvature="0" />
      <path
         d="m 236.15,481.645 17.542,0 c 0.363,0 0.658,-0.23 0.658,-0.518 l 0,-14.742 c 0,-0.288 -0.295,-0.519 -0.658,-0.519 l -17.542,0 c -0.364,0 -0.656,0.231 -0.656,0.519 l 0,14.742 c 0,0.288 0.292,0.518 0.656,0.518"
         style="fill:#dddddd;fill-opacity:1;fill-rule:nonzero;stroke:none"
         id="path93620"
         inkscape:connector-curvature="0" />
      <path
         d="m 236.85,465.866 16.319,0 c -0.033,-0.579 -0.231,-0.995 -0.787,-1.054 l -14.746,0 c -0.636,0.111 -0.773,0.64 -0.786,1.054"
         style="fill:#e6e6e6;fill-opacity:1;fill-rule:nonzero;stroke:none"
         id="path93622"
         inkscape:connector-curvature="0" />
      <path
         d="m 234.859,464.969 c 0.419,0.347 0.796,0.709 0.665,1.25 0.22,-0.291 0.508,-0.379 0.859,-0.343 -0.185,-0.535 -0.618,-1.241 -1.352,-1.363 -0.169,-0.017 -0.318,0.212 -0.172,0.456"
         style="fill:#e6e6e6;fill-opacity:1;fill-rule:nonzero;stroke:none"
         id="path93624"
         inkscape:connector-curvature="0" />
      <path
         d="m 254.976,464.965 c -0.419,0.348 -0.793,0.71 -0.662,1.252 -0.223,-0.292 -0.51,-0.379 -0.862,-0.344 0.187,-0.535 0.618,-1.24 1.352,-1.361 0.172,-0.017 0.318,0.211 0.172,0.453"
         style="fill:#e6e6e6;fill-opacity:1;fill-rule:nonzero;stroke:none"
         id="path93626"
         inkscape:connector-curvature="0" />
      <path
         d="m 239.061,474.232 0.252,-5.418 c 0.01,-0.323 0.196,-0.424 0.387,-0.519 l 1.94,0 c 0.31,0.107 0.281,0.325 0.327,0.52 l 0.29,5.442 c 0.052,0.404 0.697,0.375 0.737,-0.025 l -0.295,-7.433 c -0.035,-0.242 -0.178,-0.411 -0.491,-0.466 l -3.065,0.026 c -0.309,0.074 -0.354,0.253 -0.441,0.414 l -0.426,7.409 c -0.038,0.357 0.653,0.428 0.785,0.05"
         style="fill:#808080;fill-opacity:1;fill-rule:nonzero;stroke:none"
         id="path93628"
         inkscape:connector-curvature="0" />
      <path
         d="m 247.566,474.232 0.251,-5.418 c 0.008,-0.323 0.198,-0.424 0.388,-0.519 l 1.941,0 c 0.309,0.107 0.279,0.325 0.326,0.52 l 0.29,5.442 c 0.052,0.404 0.698,0.375 0.736,-0.025 l -0.294,-7.433 c -0.036,-0.242 -0.18,-0.411 -0.493,-0.466 l -3.062,0.026 c -0.31,0.074 -0.356,0.253 -0.443,0.414 l -0.427,7.409 c -0.038,0.357 0.654,0.428 0.787,0.05"
         style="fill:#808080;fill-opacity:1;fill-rule:nonzero;stroke:none"
         id="path93630"
         inkscape:connector-curvature="0" />
      <path
         d="m 237.055,480.113 c 0.116,0.32 0.623,0.28 0.743,0 l 0.012,-1.811 c 0.21,-0.291 1.029,-0.299 1.254,0.006 l 0,1.805 c 0.119,0.282 0.594,0.324 0.738,0 l 0,-2.368 c -0.031,-0.15 -0.086,-0.23 -0.293,-0.242 l -2.132,0 c -0.277,0.031 -0.345,0.158 -0.322,0.322"
         style="fill:#cccccc;fill-opacity:1;fill-rule:nonzero;stroke:none"
         id="path93632"
         inkscape:connector-curvature="0" />
      <path
         d="m 249.832,480.113 c 0.115,0.32 0.621,0.28 0.741,0 l 0.012,-1.811 c 0.21,-0.291 1.03,-0.299 1.256,0.006 l 0,1.805 c 0.117,0.282 0.593,0.324 0.738,0 l 0,-2.368 c -0.033,-0.15 -0.086,-0.23 -0.292,-0.242 l -2.135,0 c -0.276,0.031 -0.345,0.158 -0.32,0.322"
         style="fill:#cccccc;fill-opacity:1;fill-rule:nonzero;stroke:none"
         id="path93634"
         inkscape:connector-curvature="0" />
      <path
         d="m 262.725,469.341 c 0.122,0.153 0.318,0.232 0.603,0.222 l 2.647,0 c 0.23,0.005 0.47,-0.044 0.591,-0.222 l 0,-1.978 c -0.333,-2.53 -3.528,-2.532 -3.841,0"
         style="fill:#2ca02c;fill-opacity:1;fill-rule:nonzero;stroke:none"
         id="path93636"
         inkscape:connector-curvature="0" />
      <path
         d="m 261.627,477.785 0.505,0 10e-4,-2.133 1.334,0 0.01,2.133 2.078,0 0.017,-2.133 1.427,0 -0.019,2.133 0.573,0 0,-8.346 -5.926,0"
         style="fill:#383838;fill-opacity:1;fill-rule:nonzero;stroke:none"
         id="path93638"
         inkscape:connector-curvature="0" />
      <path
         d="m 278.766,470.015 5.82617,0 0,2.69883 -5.82617,0 0,-2.69883 z"
         style="fill:#bababa;fill-opacity:1;fill-rule:nonzero;stroke:none"
         id="path93640"
         inkscape:connector-curvature="0" />
      <path
         d="m 276.552,472.738 10.2531,0 0,4.44141 -10.2531,0 0,-4.44141 z"
         style="fill:#464646;fill-opacity:1;fill-rule:nonzero;stroke:none"
         id="path93642"
         inkscape:connector-curvature="0" />
      <path
         d="m 277.056,481.225 0.127,0 c 0.162,0 0.292,-0.13 0.292,-0.293 l 0,-3.462 c 0,-0.161 -0.13,-0.292 -0.292,-0.292 l -0.127,0 c -0.162,0 -0.293,0.131 -0.293,0.292 l 0,3.462 c 0,0.163 0.131,0.293 0.293,0.293"
         style="fill:#d4d4d4;fill-opacity:1;fill-rule:nonzero;stroke:none"
         id="path93644"
         inkscape:connector-curvature="0" />
      <path
         d="m 286.369,481.225 0.006,0 c 0.196,0 0.354,-0.158 0.354,-0.354 l 0,-3.339 c 0,-0.197 -0.158,-0.354 -0.354,-0.354 l -0.006,0 c -0.194,0 -0.353,0.157 -0.353,0.354 l 0,3.339 c 0,0.196 0.159,0.354 0.353,0.354"
         style="fill:#d4d4d4;fill-opacity:1;fill-rule:nonzero;stroke:none"
         id="path93646"
         inkscape:connector-curvature="0" />
      <path
         d="m 278.924,477.192 5.70391,0 0,1.81055 -5.70391,0 0,-1.81055 z"
         style="fill:#404040;fill-opacity:1;fill-rule:nonzero;stroke:none"
         id="path93648"
         inkscape:connector-curvature="0" />
      <path
         d="m 276.481,475.929 10.3578,0 0,1.28477 -10.3578,0 0,-1.28477 z"
         style="fill:#373737;fill-opacity:1;fill-rule:nonzero;stroke:none"
         id="path93650"
         inkscape:connector-curvature="0" />
      <path
         d="m 276.378,470.347 10.601,0 0,-5.729 c -0.162,-0.593 -0.352,-1.171 -1.475,-1.251 -2.575,-0.146 -5.107,-0.18 -7.554,-0.001 -0.739,0.171 -1.531,0.421 -1.572,1.202"
         style="fill:#292929;fill-opacity:1;fill-rule:nonzero;stroke:none"
         id="path93652"
         inkscape:connector-curvature="0" />
      <path
         d="m 278.456,486.614 0.115,0 c 0.19,0 0.344,-0.153 0.344,-0.341 l 0,-9.509 c 0,-0.189 -0.154,-0.343 -0.344,-0.343 l -0.115,0 c -0.189,0 -0.342,0.154 -0.342,0.343 l 0,9.509 c 0,0.188 0.153,0.341 0.342,0.341"
         style="fill:#d4d4d4;fill-opacity:1;fill-rule:nonzero;stroke:none"
         id="path93654"
         inkscape:connector-curvature="0" />
      <path
         d="m 285.043,486.628 0.005,0 c 0.22,0 0.397,-0.178 0.397,-0.396 l 0,-9.4 c 0,-0.219 -0.177,-0.396 -0.397,-0.396 l -0.005,0 c -0.221,0 -0.397,0.177 -0.397,0.396 l 0,9.4 c 0,0.218 0.176,0.396 0.397,0.396"
         style="fill:#d4d4d4;fill-opacity:1;fill-rule:nonzero;stroke:none"
         id="path93656"
         inkscape:connector-curvature="0" />
      <path
         d="m 175.165,471.573 4.93633,0 0,3.43516 -4.93633,0 0,-3.43516 z"
         style="fill:#323232;fill-opacity:1;fill-rule:nonzero;stroke:none"
         id="path93658"
         inkscape:connector-curvature="0" />
      <path
         d="m 173.37,463.732 8.06406,0 0,4.02617 -8.06406,0 0,-4.02617 z"
         style="fill:#323232;fill-opacity:1;fill-rule:nonzero;stroke:none"
         id="path93660"
         inkscape:connector-curvature="0" />
      <path
         d="m 174.347,465.727 -0.017,2.047 0.331,-0.017 0,1.041 0.869,0 c 0.286,0.017 0.51,0.111 0.486,0.486 l -0.017,2.602 0.739,0.018 0,-3.106 c -0.055,-0.365 0.158,-0.521 0.41,-0.642 l 1.198,-0.017 c 0.316,0.04 0.384,0.328 0.407,0.659 l 0,3.088 0.615,0 0,-2.638 c 0.061,-0.175 0.053,-0.383 0.332,-0.45 l 1.388,0 0,-2.03 -6.149,-0.017 0,-1.024"
         style="fill:#b99b23;fill-opacity:1;fill-rule:nonzero;stroke:none"
         id="path93662"
         inkscape:connector-curvature="0" />
      <path
         d="m 171.503,484.717 11.799,0 c 0.38,0 0.688,-0.394 0.688,-0.883 l 0,-15.211 c 0,-0.49 -0.308,-0.885 -0.688,-0.885 l -2.252,0 0.014,1.06 -1.278,0 c -0.283,0 -0.393,0.25 -0.393,0.44 l 0,5.005 c 0,0.374 -0.675,0.418 -0.675,0.008 l 0,-5.453 c 0,-0.365 -0.19,-0.664 -0.475,-0.642 l -1.047,0 c -0.458,0.14 -0.458,0.416 -0.458,0.642 l 0,5.446 c 0,0.372 -0.711,0.453 -0.711,0 l 0,-5.009 c 0,-0.31 -0.222,-0.437 -0.464,-0.437 l -0.902,-0.002 0,-1.058 -3.158,0 c -0.383,0 -0.69,0.395 -0.69,0.885 l 0,15.211 c 0,0.489 0.307,0.883 0.69,0.883"
         style="fill:#e5e5e5;fill-opacity:1;fill-rule:nonzero;stroke:none"
         id="path93664"
         inkscape:connector-curvature="0" />
      <path
         d="m 172.004,483.994 10.743,0 c 0.347,0 0.626,-0.359 0.626,-0.806 l 0,-13.849 c 0,-0.445 -0.279,-1.151 -0.626,-1.151 l -1.633,0 0.013,1.312 -1.302,0 c -0.258,0 -0.359,0.228 -0.359,0.402 l 0,4.553 c 0,0.343 -0.893,0.383 -0.893,0.011 l 0,-4.966 c 0,-0.332 -0.174,-0.605 -0.43,-0.586 l -0.956,0 c -0.416,0.127 -0.416,0.38 -0.416,0.586 l 0,4.957 c 0,0.34 -0.823,0.414 -0.823,0 l 0,-4.561 c 0,-0.281 -0.201,-0.396 -0.421,-0.396 l -0.994,-0.002 0,-1.31 -2.529,0 c -0.347,0 -0.626,0.706 -0.626,1.151 l 0,13.849 c 0,0.447 0.279,0.806 0.626,0.806"
         style="fill:#dddddd;fill-opacity:1;fill-rule:nonzero;stroke:none"
         id="path93666"
         inkscape:connector-curvature="0" />
      <path
         d="m 158.015,471.573 4.93633,0 0,3.43516 -4.93633,0 0,-3.43516 z"
         style="fill:#323232;fill-opacity:1;fill-rule:nonzero;stroke:none"
         id="path93668"
         inkscape:connector-curvature="0" />
      <path
         d="m 156.22,463.732 8.06445,0 0,4.02617 -8.06445,0 0,-4.02617 z"
         style="fill:#323232;fill-opacity:1;fill-rule:nonzero;stroke:none"
         id="path93670"
         inkscape:connector-curvature="0" />
      <path
         d="m 157.199,465.727 -0.017,2.047 0.329,-0.017 0,1.041 0.87,0 c 0.287,0.017 0.508,0.111 0.486,0.486 l -0.018,2.602 0.739,0.018 0,-3.106 c -0.055,-0.365 0.157,-0.521 0.409,-0.642 l 1.199,-0.017 c 0.316,0.04 0.384,0.328 0.407,0.659 l 0,3.088 0.615,0 0,-2.638 c 0.061,-0.175 0.055,-0.383 0.334,-0.45 l 1.386,0 0,-2.03 -6.149,-0.017 0,-1.024"
         style="fill:#b99b23;fill-opacity:1;fill-rule:nonzero;stroke:none"
         id="path93672"
         inkscape:connector-curvature="0" />
      <path
         d="m 154.352,484.717 11.8,0 c 0.382,0 0.687,-0.394 0.687,-0.883 l 0,-15.211 c 0,-0.49 -0.305,-0.885 -0.687,-0.885 l -2.251,0 0.013,1.06 -1.278,0 c -0.282,0 -0.393,0.25 -0.393,0.44 l 0,5.005 c 0,0.374 -0.674,0.418 -0.674,0.008 l 0,-5.453 c 0,-0.365 -0.192,-0.664 -0.476,-0.642 l -1.047,0 c -0.458,0.14 -0.458,0.416 -0.458,0.642 l 0,5.446 c 0,0.372 -0.711,0.453 -0.711,0 l 0,-5.009 c 0,-0.31 -0.22,-0.437 -0.465,-0.437 l -0.901,-0.002 0,-1.058 -3.159,0 c -0.381,0 -0.687,0.395 -0.687,0.885 l 0,15.211 c 0,0.489 0.306,0.883 0.687,0.883"
         style="fill:#e5e5e5;fill-opacity:1;fill-rule:nonzero;stroke:none"
         id="path93674"
         inkscape:connector-curvature="0" />
      <path
         d="m 154.854,483.994 10.741,0 c 0.348,0 0.629,-0.359 0.629,-0.806 l 0,-13.849 c 0,-0.445 -0.281,-1.151 -0.629,-1.151 l -1.632,0 0.014,1.312 -1.303,0 c -0.255,0 -0.358,0.228 -0.358,0.402 l 0,4.553 c 0,0.343 -0.891,0.383 -0.891,0.011 l 0,-4.966 c 0,-0.332 -0.175,-0.605 -0.433,-0.586 l -0.953,0 c -0.419,0.127 -0.419,0.38 -0.419,0.586 l 0,4.957 c 0,0.34 -0.822,0.414 -0.822,0 l 0,-4.561 c 0,-0.281 -0.199,-0.396 -0.422,-0.396 l -0.994,-0.002 0,-1.31 -2.528,0 c -0.348,0 -0.626,0.706 -0.626,1.151 l 0,13.849 c 0,0.447 0.278,0.806 0.626,0.806"
         style="fill:#dddddd;fill-opacity:1;fill-rule:nonzero;stroke:none"
         id="path93676"
         inkscape:connector-curvature="0" />
      <path
         d="m 192.316,471.573 4.93672,0 0,3.43516 -4.93672,0 0,-3.43516 z"
         style="fill:#323232;fill-opacity:1;fill-rule:nonzero;stroke:none"
         id="path93678"
         inkscape:connector-curvature="0" />
      <path
         d="m 190.52,463.732 8.06211,0 0,4.02617 -8.06211,0 0,-4.02617 z"
         style="fill:#323232;fill-opacity:1;fill-rule:nonzero;stroke:none"
         id="path93680"
         inkscape:connector-curvature="0" />
      <path
         d="m 191.498,465.727 -0.018,2.047 0.332,-0.017 0,1.041 0.867,0 c 0.287,0.017 0.509,0.111 0.489,0.486 l -0.018,2.602 0.739,0.018 0,-3.106 c -0.055,-0.365 0.155,-0.521 0.407,-0.642 l 1.199,-0.017 c 0.315,0.04 0.386,0.328 0.409,0.659 l 0,3.088 0.614,0 0,-2.638 c 0.061,-0.175 0.054,-0.383 0.332,-0.45 l 1.389,0 0,-2.03 -6.149,-0.017 0,-1.024"
         style="fill:#b99b23;fill-opacity:1;fill-rule:nonzero;stroke:none"
         id="path93682"
         inkscape:connector-curvature="0" />
      <path
         d="m 188.653,484.717 11.797,0 c 0.382,0 0.689,-0.394 0.689,-0.883 l 0,-15.211 c 0,-0.49 -0.307,-0.885 -0.689,-0.885 l -2.251,0 0.016,1.06 -1.279,0 c -0.282,0 -0.395,0.25 -0.393,0.44 l 0,5.005 c 0,0.374 -0.674,0.418 -0.674,0.008 l 0,-5.453 c 0,-0.365 -0.193,-0.664 -0.475,-0.642 l -1.048,0 c -0.457,0.14 -0.457,0.416 -0.457,0.642 l 0,5.446 c 0,0.372 -0.714,0.453 -0.714,0 l 0,-5.009 c 0,-0.31 -0.22,-0.437 -0.462,-0.437 l -0.901,-0.002 0,-1.058 -3.159,0 c -0.383,0 -0.69,0.395 -0.69,0.885 l 0,15.211 c 0,0.489 0.307,0.883 0.69,0.883"
         style="fill:#e5e5e5;fill-opacity:1;fill-rule:nonzero;stroke:none"
         id="path93684"
         inkscape:connector-curvature="0" />
      <path
         d="m 189.154,483.994 10.742,0 c 0.348,0 0.626,-0.359 0.626,-0.806 l 0,-13.849 c 0,-0.445 -0.278,-1.151 -0.626,-1.151 l -1.632,0 0.013,1.312 -1.304,0 c -0.256,0 -0.358,0.228 -0.358,0.402 l 0,4.553 c 0,0.343 -0.89,0.383 -0.89,0.011 l 0,-4.966 c 0,-0.332 -0.174,-0.605 -0.435,-0.586 l -0.952,0 c -0.417,0.127 -0.417,0.38 -0.417,0.586 l 0,4.957 c 0,0.34 -0.823,0.414 -0.823,0 l 0,-4.561 c 0,-0.281 -0.2,-0.396 -0.421,-0.396 l -0.994,-0.002 0,-1.31 -2.529,0 c -0.346,0 -0.628,0.706 -0.628,1.151 l 0,13.849 c 0,0.447 0.282,0.806 0.628,0.806"
         style="fill:#dddddd;fill-opacity:1;fill-rule:nonzero;stroke:none"
         id="path93686"
         inkscape:connector-curvature="0" />
      <path
         d="m 269.248,469.341 c 0.121,0.153 0.318,0.232 0.602,0.222 l 2.646,0 c 0.234,0.005 0.472,-0.044 0.59,-0.222 l 0,-1.978 c -0.332,-2.53 -3.525,-2.532 -3.838,0"
         style="fill:#782121;fill-opacity:1;fill-rule:nonzero;stroke:none"
         id="path93688"
         inkscape:connector-curvature="0" />
      <path
         d="m 268.148,477.785 0.504,0 0.003,-2.133 1.336,0 0.008,2.133 2.077,0 0.018,-2.133 1.426,0 -0.018,2.133 0.572,0 0,-8.346 -5.926,0"
         style="fill:#383838;fill-opacity:1;fill-rule:nonzero;stroke:none"
         id="path93690"
         inkscape:connector-curvature="0" />
      <path
         d="m 195.826,489.99 28.7109,0 0,10.1961 -28.7109,0 0,-10.1961 z"
         style="fill:#444444;fill-opacity:1;fill-rule:nonzero;stroke:none"
         id="path93692"
         inkscape:connector-curvature="0" />
      <path
         d="m 196.276,489.988 2.05039,0 0,10.1992 -2.05039,0 0,-10.1992 z"
         style="fill:#3b3b3b;fill-opacity:1;fill-rule:nonzero;stroke:none"
         id="path93694"
         inkscape:connector-curvature="0" />
      <path
         d="m 199.505,489.988 2.05078,0 0,10.1992 -2.05078,0 0,-10.1992 z"
         style="fill:#3b3b3b;fill-opacity:1;fill-rule:nonzero;stroke:none"
         id="path93696"
         inkscape:connector-curvature="0" />
      <path
         d="m 202.736,489.988 2.05078,0 0,10.1992 -2.05078,0 0,-10.1992 z"
         style="fill:#3b3b3b;fill-opacity:1;fill-rule:nonzero;stroke:none"
         id="path93698"
         inkscape:connector-curvature="0" />
      <path
         d="m 205.967,489.988 2.05078,0 0,10.1992 -2.05078,0 0,-10.1992 z"
         style="fill:#3b3b3b;fill-opacity:1;fill-rule:nonzero;stroke:none"
         id="path93700"
         inkscape:connector-curvature="0" />
      <path
         d="m 209.198,489.988 2.05078,0 0,10.1992 -2.05078,0 0,-10.1992 z"
         style="fill:#3b3b3b;fill-opacity:1;fill-rule:nonzero;stroke:none"
         id="path93702"
         inkscape:connector-curvature="0" />
      <path
         d="m 212.43,489.988 2.05078,0 0,10.1992 -2.05078,0 0,-10.1992 z"
         style="fill:#3b3b3b;fill-opacity:1;fill-rule:nonzero;stroke:none"
         id="path93704"
         inkscape:connector-curvature="0" />
      <path
         d="m 215.661,489.988 2.04883,0 0,10.1992 -2.04883,0 0,-10.1992 z"
         style="fill:#3b3b3b;fill-opacity:1;fill-rule:nonzero;stroke:none"
         id="path93706"
         inkscape:connector-curvature="0" />
      <path
         d="m 218.889,489.988 2.05078,0 0,10.1992 -2.05078,0 0,-10.1992 z"
         style="fill:#3b3b3b;fill-opacity:1;fill-rule:nonzero;stroke:none"
         id="path93708"
         inkscape:connector-curvature="0" />
      <path
         d="m 222.12,489.988 2.05078,0 0,10.1992 -2.05078,0 0,-10.1992 z"
         style="fill:#3b3b3b;fill-opacity:1;fill-rule:nonzero;stroke:none"
         id="path93710"
         inkscape:connector-curvature="0" />
      <path
         d="m 150.643,477.244 0.006,-1.197 -0.433,-0.463 -1.195,-0.012 -0.496,0.453 0,1.221 0.503,0.459 1.172,0.01"
         style="fill:#444444;fill-opacity:1;fill-rule:nonzero;stroke:none"
         id="path93712"
         inkscape:connector-curvature="0" />
      <path
         inkscape:connector-curvature="0"
         id="path93716"
         style="fill:none;stroke:#000000;stroke-width:0.00962805;stroke-linecap:round;stroke-linejoin:round;stroke-miterlimit:4;stroke-opacity:1;stroke-dasharray:none"
         d="m 150.64246,477.24358 0.007,-1.1959 -0.4334,-0.46457 -1.1961,-0.01 -0.49545,0.45258 0,1.21887 0.50246,0.46058 1.17308,0.01 0.4424,-0.47156 z" />
      <path
         d="m 150.643,475.107 0.006,-1.197 -0.433,-0.463 -1.195,-0.012 -0.496,0.454 0,1.22 0.503,0.457 1.172,0.012"
         style="fill:#444444;fill-opacity:1;fill-rule:nonzero;stroke:none"
         id="path93718"
         inkscape:connector-curvature="0" />
      <path
         inkscape:connector-curvature="0"
         id="path93722"
         style="fill:none;stroke:#000000;stroke-width:0.00962805;stroke-linecap:round;stroke-linejoin:round;stroke-miterlimit:4;stroke-opacity:1;stroke-dasharray:none"
         d="m 150.64246,475.10755 0.007,-1.1979 -0.4334,-0.46257 -1.1961,-0.012 -0.49545,0.45458 0,1.21888 0.50246,0.45757 1.17308,0.011 0.4424,-0.46956 z" />
      <path
         d="m 150.643,472.963 0.006,-1.2 -0.433,-0.461 -1.195,-0.013 -0.496,0.454 0,1.22 0.503,0.458 1.172,0.01"
         style="fill:#444444;fill-opacity:1;fill-rule:nonzero;stroke:none"
         id="path93724"
         inkscape:connector-curvature="0" />
      <path
         inkscape:connector-curvature="0"
         id="path93728"
         style="fill:none;stroke:#000000;stroke-width:0.00962805;stroke-linecap:round;stroke-linejoin:round;stroke-miterlimit:4;stroke-opacity:1;stroke-dasharray:none"
         d="m 150.64246,472.96253 0.007,-1.1989 -0.4334,-0.46157 -1.1961,-0.013 -0.49545,0.45458 0,1.21888 0.50246,0.45957 1.17308,0.009 0.4424,-0.46856 z" />
      <path
         d="m 149.305,476.343 0.56289,0 0,0.60195 -0.56289,0 0,-0.60195 z"
         style="fill:#ffcc00;fill-opacity:1;fill-rule:nonzero;stroke:none"
         id="path93730"
         inkscape:connector-curvature="0" />
      <path
         inkscape:connector-curvature="0"
         id="path93734"
         style="fill:none;stroke:#000000;stroke-width:0.00962805;stroke-linecap:round;stroke-linejoin:round;stroke-miterlimit:4;stroke-opacity:1;stroke-dasharray:none"
         d="m 149.86775,476.94385 0,-0.60144 -0.56352,0 0,0.60144 0.56352,0 z" />
      <path
         d="m 149.305,474.205 0.56289,0 0,0.60117 -0.56289,0 0,-0.60117 z"
         style="fill:#ffcc00;fill-opacity:1;fill-rule:nonzero;stroke:none"
         id="path93736"
         inkscape:connector-curvature="0" />
      <path
         inkscape:connector-curvature="0"
         id="path93740"
         style="fill:none;stroke:#000000;stroke-width:0.00962805;stroke-linecap:round;stroke-linejoin:round;stroke-miterlimit:4;stroke-opacity:1;stroke-dasharray:none"
         d="m 149.86775,474.80583 0,-0.60045 -0.56352,0 0,0.60045 0.56352,0 z" />
      <path
         d="m 149.305,472.06 0.56289,0 0,0.60156 -0.56289,0 0,-0.60156 z"
         style="fill:#ffcc00;fill-opacity:1;fill-rule:nonzero;stroke:none"
         id="path93742"
         inkscape:connector-curvature="0" />
      <path
         inkscape:connector-curvature="0"
         id="path93746"
         style="fill:none;stroke:#000000;stroke-width:0.00962805;stroke-linecap:round;stroke-linejoin:round;stroke-miterlimit:4;stroke-opacity:1;stroke-dasharray:none"
         d="m 149.86775,472.6618 0,-0.60244 -0.56352,0 0,0.60244 0.56352,0 z" />
      <path
         d="m 260.766,475.925 0.004,-0.972 -0.352,-0.376 -0.97,-0.012 -0.403,0.37 0,0.99 0.408,0.373 0.952,0.008"
         style="fill:#444444;fill-opacity:1;fill-rule:nonzero;stroke:none"
         id="path93748"
         inkscape:connector-curvature="0" />
      <path
         inkscape:connector-curvature="0"
         id="path93752"
         style="fill:none;stroke:#000000;stroke-width:0.00781454;stroke-linecap:round;stroke-linejoin:round;stroke-miterlimit:4;stroke-opacity:1;stroke-dasharray:none"
         d="m 260.76368,475.92479 0.004,-0.9721 -0.35133,-0.37565 -0.96989,-0.011 -0.40337,0.36966 0,0.98908 0.40938,0.37466 0.95087,0.006 0.36033,-0.38065 z" />
      <path
         d="m 259.677,475.191 0.45859,0 0,0.48984 -0.45859,0 0,-0.48984 z"
         style="fill:#ffcc00;fill-opacity:1;fill-rule:nonzero;stroke:none"
         id="path93754"
         inkscape:connector-curvature="0" />
      <path
         inkscape:connector-curvature="0"
         id="path93758"
         style="fill:none;stroke:#000000;stroke-width:0.00781454;stroke-linecap:round;stroke-linejoin:round;stroke-miterlimit:4;stroke-opacity:1;stroke-dasharray:none"
         d="m 260.1351,475.68002 0,-0.48855 -0.45942,0 0,0.48855 0.45942,0 z" />
      <path
         d="m 260.766,474.191 0.004,-0.973 -0.352,-0.375 -0.97,-0.012 -0.403,0.37 0,0.99 0.408,0.373 0.952,0.007"
         style="fill:#444444;fill-opacity:1;fill-rule:nonzero;stroke:none"
         id="path93760"
         inkscape:connector-curvature="0" />
      <path
         inkscape:connector-curvature="0"
         id="path93764"
         style="fill:none;stroke:#000000;stroke-width:0.00781454;stroke-linecap:round;stroke-linejoin:round;stroke-miterlimit:4;stroke-opacity:1;stroke-dasharray:none"
         d="m 260.76368,474.19039 0.004,-0.9721 -0.35133,-0.37565 -0.96989,-0.012 -0.40337,0.37066 0,0.98908 0.40938,0.37366 0.95087,0.007 0.36033,-0.38065 z" />
      <path
         d="m 259.677,473.456 0.45859,0 0,0.48984 -0.45859,0 0,-0.48984 z"
         style="fill:#ffcc00;fill-opacity:1;fill-rule:nonzero;stroke:none"
         id="path93766"
         inkscape:connector-curvature="0" />
      <path
         inkscape:connector-curvature="0"
         id="path93770"
         style="fill:none;stroke:#000000;stroke-width:0.00781454;stroke-linecap:round;stroke-linejoin:round;stroke-miterlimit:4;stroke-opacity:1;stroke-dasharray:none"
         d="m 260.1351,473.94562 0,-0.48855 -0.45942,0 0,0.48855 0.45942,0 z" />
      <path
         d="m 260.766,472.448 0.004,-0.971 -0.352,-0.376 -0.97,-0.01 -0.403,0.368 0,0.992 0.408,0.37 0.952,0.009"
         style="fill:#444444;fill-opacity:1;fill-rule:nonzero;stroke:none"
         id="path93772"
         inkscape:connector-curvature="0" />
      <path
         inkscape:connector-curvature="0"
         id="path93776"
         style="fill:none;stroke:#000000;stroke-width:0.00781454;stroke-linecap:round;stroke-linejoin:round;stroke-miterlimit:4;stroke-opacity:1;stroke-dasharray:none"
         d="m 260.76368,472.448 0.004,-0.9721 -0.35133,-0.37466 -0.96989,-0.01 -0.40337,0.36766 0,0.99109 0.40938,0.37266 0.95087,0.007 0.36033,-0.38165 z" />
      <path
         d="m 259.677,471.716 0.45859,0 0,0.48789 -0.45859,0 0,-0.48789 z"
         style="fill:#ffcc00;fill-opacity:1;fill-rule:nonzero;stroke:none"
         id="path93778"
         inkscape:connector-curvature="0" />
      <path
         inkscape:connector-curvature="0"
         id="path93782"
         style="fill:none;stroke:#000000;stroke-width:0.00781454;stroke-linecap:round;stroke-linejoin:round;stroke-miterlimit:4;stroke-opacity:1;stroke-dasharray:none"
         d="m 260.1351,472.20323 0,-0.48755 -0.45942,0 0,0.48755 0.45942,0 z" />
      <path
         inkscape:connector-curvature="0"
         id="path93786"
         style="fill:none;stroke:#ff0000;stroke-width:0.39072743;stroke-linecap:round;stroke-linejoin:round;stroke-miterlimit:4;stroke-opacity:1;stroke-dasharray:0.78145389, 1.56290777;stroke-dashoffset:0"
         d="m 147.83789,470.81051 0,7.33523 3.67738,0 0,-7.33523 -3.67738,0 z" />
      <path
         inkscape:connector-curvature="0"
         id="path93790"
         style="fill:none;stroke:#ff0000;stroke-width:0.39072743;stroke-linecap:round;stroke-linejoin:round;stroke-miterlimit:4;stroke-opacity:1;stroke-dasharray:0.78145389, 1.56290777;stroke-dashoffset:0"
         d="m 130.89731,446.02039 17.00463,24.8121" />
      <path
         inkscape:connector-curvature="0"
         id="path93794"
         style="fill:none;stroke:#ff0000;stroke-width:0.39072743;stroke-linecap:round;stroke-linejoin:round;stroke-miterlimit:4;stroke-opacity:1;stroke-dasharray:0.78145389, 1.56290777;stroke-dashoffset:0"
         d="m 168.72108,445.85554 -17.45905,25.17177" />
      <path
         d="m 130.692,423.618 18.504,-10.663 c 5.17,-2.473 9.558,-0.71 11.402,0.34 l 8.032,4.628 -0.104,27.708 -37.589,-0.12"
         style="fill:#345380;fill-opacity:1;fill-rule:nonzero;stroke:none"
         id="path93796"
         inkscape:connector-curvature="0" />
      <path
         inkscape:connector-curvature="0"
         id="path93800"
         style="fill:none;stroke:#181818;stroke-width:0.02093537;stroke-linecap:round;stroke-linejoin:round;stroke-miterlimit:4;stroke-opacity:1;stroke-dasharray:none"
         d="m 130.69213,423.61806 18.503,-10.66415 c 5.16976,-2.47272 9.55779,-0.71035 11.40248,0.33968 l 8.03239,4.62873 -0.1061,27.70943 -37.58855,-0.11989 -0.24322,-21.8938 z" />
      <path
         d="m 130.541,420.042 18.077,-10.373 c 3.112,-1.473 8.89,-1.992 12.032,-0.103 l 8.128,4.684 -0.064,3.722 -8.103,-4.67 c -4.639,-2.428 -8.378,-1.792 -11.464,-0.334 l -18.426,10.626"
         style="fill:#354252;fill-opacity:1;fill-rule:nonzero;stroke:none"
         id="path93802"
         inkscape:connector-curvature="0" />
      <path
         inkscape:connector-curvature="0"
         id="path93806"
         style="fill:none;stroke:#181818;stroke-width:0.02093537;stroke-linecap:round;stroke-linejoin:round;stroke-miterlimit:4;stroke-opacity:1;stroke-dasharray:none"
         d="m 130.53999,420.04236 18.07761,-10.37242 c 3.11186,-1.47464 8.89017,-1.99316 12.03106,-0.10391 l 8.12747,4.68368 -0.0621,3.72256 -8.10545,-4.66969 c -4.63726,-2.42975 -8.3777,-1.79234 -11.46253,-0.33469 l -18.42694,10.6252 -0.17916,-3.55073 z" />
      <path
         d="m 168.554,434.155 -19.925,11.505 20.116,-0.089"
         style="fill:#cccccc;fill-opacity:1;fill-rule:nonzero;stroke:none"
         id="path93808"
         inkscape:connector-curvature="0" />
      <path
         inkscape:connector-curvature="0"
         id="path93812"
         style="fill:none;stroke:#181818;stroke-width:0.02093537;stroke-linecap:round;stroke-linejoin:round;stroke-miterlimit:4;stroke-opacity:1;stroke-dasharray:none"
         d="m 168.55293,434.15434 -19.92532,11.50538 20.11649,-0.0889 -0.19117,-11.41646 z" />
      <path
         d="m 168.632,434.137 -20.036,11.565 -15.469,-0.136 -0.001,-3.936 35.533,-20.603"
         style="fill:#e6e6e6;fill-opacity:1;fill-rule:nonzero;stroke:none"
         id="path93814"
         inkscape:connector-curvature="0" />
      <path
         inkscape:connector-curvature="0"
         id="path93818"
         style="fill:none;stroke:#181818;stroke-width:0.02093537;stroke-linecap:round;stroke-linejoin:round;stroke-miterlimit:4;stroke-opacity:1;stroke-dasharray:none"
         d="m 168.631,434.13736 -20.03542,11.56332 -15.46922,-0.13387 -0.002,-3.93637 35.53466,-20.60299 -0.028,13.10991 z" />
      <path
         inkscape:connector-curvature="0"
         id="path93822"
         style="fill:none;stroke:#ff0000;stroke-width:0.3516545;stroke-linecap:round;stroke-linejoin:round;stroke-miterlimit:4;stroke-opacity:1;stroke-dasharray:0.703308, 1.406608;stroke-dashoffset:0"
         d="m 130.84827,445.59578 37.86981,0.0659 0,-39.81426 -38.08301,-0.022 0.016,3.13411 0,0.82424 0.19718,35.81195 z" />
      <path
         inkscape:connector-curvature="0"
         id="path93826"
         style="fill:none;stroke:#181818;stroke-width:0.02698446;stroke-linecap:round;stroke-linejoin:round;stroke-miterlimit:4;stroke-opacity:1;stroke-dasharray:none"
         d="m 155.31376,425.77208 0,8.71196 -0.62658,0.52451 -0.45342,0.25677 -0.45942,-0.26076 -0.61356,-0.52052 0,-7.52906 -2.48028,1.43068 0,8.65701 -0.62958,0.52652 -0.45842,0.26176 -0.45742,-0.26576 -0.61757,-0.52651 0,-7.49608 -2.42423,1.39671 0,8.72894 -0.62557,0.51952 -0.45742,0.26676 -0.46843,-0.27075 -0.60756,-0.51952 0,-8.86782 -2.33515,-1.34676 0,-5.3061 2.65644,-1.53059 1.76863,0 0.19117,0.1139 -0.004,-1.16193 2.65945,-1.52959 1.77363,0 0.17215,0.0979 0,-1.16493 2.65745,-1.52958 1.76662,0 2.65244,1.52759 0,5.31909 -2.57937,1.48663 z" />
      <path
         d="m 146.002,427.014 -1.782,0 -2.669,1.538 0.001,0.907 2.668,1.539 1.782,0 2.665,-1.538 0,-0.908"
         style="fill:#444444;fill-opacity:1;fill-rule:evenodd;stroke:none"
         id="path93828"
         inkscape:connector-curvature="0" />
      <path
         inkscape:connector-curvature="0"
         id="path93832"
         style="fill:none;stroke:#181818;stroke-width:0.02698446;stroke-linecap:round;stroke-linejoin:round;stroke-miterlimit:4;stroke-opacity:1;stroke-dasharray:none"
         d="m 146.0012,427.01493 -1.78264,0 -2.66845,1.53858 0.001,0.90516 2.66745,1.53858 1.78264,0 2.66545,-1.53758 0,-0.90616 -2.66545,-1.53858 z" />
      <path
         d="m 144.22,422.571 0,4.443 -2.669,1.538 0,-4.442 2.67,-1.539"
         style="fill:#464646;fill-opacity:1;fill-rule:evenodd;stroke:none"
         id="path93834"
         inkscape:connector-curvature="0" />
      <path
         inkscape:connector-curvature="0"
         id="path93838"
         style="fill:none;stroke:#181818;stroke-width:0.02698446;stroke-linecap:round;stroke-linejoin:round;stroke-miterlimit:4;stroke-opacity:1;stroke-dasharray:none"
         d="m 144.21856,422.57203 0,4.4429 -2.66845,1.53858 0,-4.4449 2.66945,-1.53658 -0.001,0 z" />
      <path
         d="m 144.22,422.573 1.78242,0 0,4.44141 -1.78242,0 0,-4.44141 z"
         style="fill:#5b5b5b;fill-opacity:1;fill-rule:evenodd;stroke:none"
         id="path93840"
         inkscape:connector-curvature="0" />
      <path
         inkscape:connector-curvature="0"
         id="path93844"
         style="fill:none;stroke:#181818;stroke-width:0.02698446;stroke-linecap:round;stroke-linejoin:round;stroke-miterlimit:4;stroke-opacity:1;stroke-dasharray:none"
         d="m 144.21856,427.01493 1.78264,0 0,-4.4419 -1.78264,0 0,4.4419 z" />
      <path
         d="m 145.997,422.571 0.002,4.443 2.67,1.538 0,-4.442"
         style="fill:#1a1a1a;fill-opacity:1;fill-rule:evenodd;stroke:none"
         id="path93846"
         inkscape:connector-curvature="0" />
      <path
         inkscape:connector-curvature="0"
         id="path93850"
         style="fill:none;stroke:#181818;stroke-width:0.02698446;stroke-linecap:round;stroke-linejoin:round;stroke-miterlimit:4;stroke-opacity:1;stroke-dasharray:none"
         d="m 145.99619,422.57203 0.002,4.4429 2.67046,1.53858 0,-4.4449 -2.67246,-1.53658 z" />
      <path
         d="m 143.897,429.071 1.085,-0.614 0.002,10.652 -1.085,0.626"
         style="fill:#c9a100;fill-opacity:1;fill-rule:evenodd;stroke:none"
         id="path93852"
         inkscape:connector-curvature="0" />
      <path
         inkscape:connector-curvature="0"
         id="path93856"
         style="fill:none;stroke:#181818;stroke-width:0.02698446;stroke-linecap:round;stroke-linejoin:round;stroke-miterlimit:4;stroke-opacity:1;stroke-dasharray:none"
         d="m 143.89526,429.07103 1.085,-0.61343 0.002,10.65017 -1.084,0.62742 -0.003,-10.66416 z" />
      <path
         d="m 145.444,440.259 -0.465,0.266 -0.457,-0.266 0.462,-0.263"
         style="fill:#ffd83d;fill-opacity:1;fill-rule:evenodd;stroke:none"
         id="path93858"
         inkscape:connector-curvature="0" />
      <path
         inkscape:connector-curvature="0"
         id="path93862"
         style="fill:none;stroke:#181818;stroke-width:0.02698446;stroke-linecap:round;stroke-linejoin:round;stroke-miterlimit:4;stroke-opacity:1;stroke-dasharray:none"
         d="m 145.44268,440.25871 -0.46342,0.26575 -0.45842,-0.26575 0.46142,-0.26376 0.46042,0.26376 z" />
      <path
         d="m 144.982,439.997 0,-0.892 -1.085,0.63 0.625,0.525"
         style="fill:#c9a100;fill-opacity:1;fill-rule:evenodd;stroke:none"
         id="path93864"
         inkscape:connector-curvature="0" />
      <path
         inkscape:connector-curvature="0"
         id="path93868"
         style="fill:none;stroke:#181818;stroke-width:0.02698446;stroke-linecap:round;stroke-linejoin:round;stroke-miterlimit:4;stroke-opacity:1;stroke-dasharray:none"
         d="m 144.98026,439.99695 0,-0.89218 -1.085,0.63042 0.62558,0.52452 0.45942,-0.26276 z" />
      <path
         d="m 146.07,439.728 -0.626,0.532 -0.46,-0.263 -0.002,-0.89"
         style="fill:#ffcc00;fill-opacity:1;fill-rule:evenodd;stroke:none"
         id="path93870"
         inkscape:connector-curvature="0" />
      <path
         inkscape:connector-curvature="0"
         id="path93874"
         style="fill:none;stroke:#181818;stroke-width:0.02698446;stroke-linecap:round;stroke-linejoin:round;stroke-miterlimit:4;stroke-opacity:1;stroke-dasharray:none"
         d="m 146.06926,439.7282 -0.62658,0.53151 -0.46042,-0.26276 -0.002,-0.89018 1.089,0.62143 z" />
      <path
         d="m 146.069,429.067 -1.084,-0.615 -0.003,10.655 1.087,0.623"
         style="fill:#ffcc00;fill-opacity:1;fill-rule:evenodd;stroke:none"
         id="path93876"
         inkscape:connector-curvature="0" />
      <path
         inkscape:connector-curvature="0"
         id="path93880"
         style="fill:none;stroke:#181818;stroke-width:0.02698446;stroke-linecap:round;stroke-linejoin:round;stroke-miterlimit:4;stroke-opacity:1;stroke-dasharray:none"
         d="m 146.06726,429.06803 -1.082,-0.61643 -0.005,10.65517 1.087,0.62342 0,-10.66216 z" />
      <path
         d="m 150.642,419.979 0.001,4.443 2.668,1.539 0.002,-4.444"
         style="fill:#1a1a1a;fill-opacity:1;fill-rule:evenodd;stroke:none"
         id="path93882"
         inkscape:connector-curvature="0" />
      <path
         inkscape:connector-curvature="0"
         id="path93886"
         style="fill:none;stroke:#181818;stroke-width:0.02698446;stroke-linecap:round;stroke-linejoin:round;stroke-miterlimit:4;stroke-opacity:1;stroke-dasharray:none"
         d="m 150.64146,419.97842 0.001,4.4439 2.66746,1.53758 0.002,-4.4429 -2.67046,-1.53858 z" />
      <path
         d="m 150.643,424.422 -1.778,0 -2.67,1.539 0,0.907 2.67,1.538 1.778,0 2.668,-1.536 0,-0.909"
         style="fill:#444444;fill-opacity:1;fill-rule:evenodd;stroke:none"
         id="path93888"
         inkscape:connector-curvature="0" />
      <path
         inkscape:connector-curvature="0"
         id="path93892"
         style="fill:none;stroke:#181818;stroke-width:0.02698446;stroke-linecap:round;stroke-linejoin:round;stroke-miterlimit:4;stroke-opacity:1;stroke-dasharray:none"
         d="m 150.64246,424.42232 -1.77863,0 -2.67046,1.53758 0,0.90816 2.67046,1.53759 1.77863,0 2.66746,-1.53559 0,-0.91016 -2.66746,-1.53758 z" />
      <path
         d="m 148.865,419.979 0,4.443 -2.67,1.539 0,-4.444"
         style="fill:#464646;fill-opacity:1;fill-rule:evenodd;stroke:none"
         id="path93894"
         inkscape:connector-curvature="0" />
      <path
         inkscape:connector-curvature="0"
         id="path93898"
         style="fill:none;stroke:#181818;stroke-width:0.02698446;stroke-linecap:round;stroke-linejoin:round;stroke-miterlimit:4;stroke-opacity:1;stroke-dasharray:none"
         d="m 148.86383,419.97842 0,4.4439 -2.67046,1.53758 0,-4.4429 2.67046,-1.53858 z" />
      <path
         d="m 150.643,424.422 -1.778,0 0,-4.441 1.781,0.002"
         style="fill:#5b5b5b;fill-opacity:1;fill-rule:evenodd;stroke:none"
         id="path93900"
         inkscape:connector-curvature="0" />
      <path
         inkscape:connector-curvature="0"
         id="path93904"
         style="fill:none;stroke:#181818;stroke-width:0.02698446;stroke-linecap:round;stroke-linejoin:round;stroke-miterlimit:4;stroke-opacity:1;stroke-dasharray:none"
         d="m 150.64246,424.42232 -1.77863,0 0,-4.4409 1.78064,10e-4 -0.002,4.4399 z" />
      <path
         d="m 148.511,426.433 1.085,-0.615 0.001,10.651 -1.084,0.629"
         style="fill:#c9a100;fill-opacity:1;fill-rule:evenodd;stroke:none"
         id="path93906"
         inkscape:connector-curvature="0" />
      <path
         inkscape:connector-curvature="0"
         id="path93910"
         style="fill:none;stroke:#181818;stroke-width:0.02698446;stroke-linecap:round;stroke-linejoin:round;stroke-miterlimit:4;stroke-opacity:1;stroke-dasharray:none"
         d="m 148.5105,426.43347 1.084,-0.61544 0.002,10.65117 -1.085,0.62842 -0.001,-10.66415 z" />
      <path
         d="m 150.057,437.621 -0.464,0.266 -0.458,-0.266 0.461,-0.264"
         style="fill:#ffd83d;fill-opacity:1;fill-rule:evenodd;stroke:none"
         id="path93912"
         inkscape:connector-curvature="0" />
      <path
         inkscape:connector-curvature="0"
         id="path93916"
         style="fill:none;stroke:#181818;stroke-width:0.02698446;stroke-linecap:round;stroke-linejoin:round;stroke-miterlimit:4;stroke-opacity:1;stroke-dasharray:none"
         d="m 150.05693,437.61914 -0.46443,0.26776 -0.45742,-0.26776 0.45942,-0.26275 0.46243,0.26275 z" />
      <path
         d="m 149.596,437.357 0,-0.891 -1.085,0.63 0.624,0.525"
         style="fill:#c9a100;fill-opacity:1;fill-rule:evenodd;stroke:none"
         id="path93918"
         inkscape:connector-curvature="0" />
      <path
         inkscape:connector-curvature="0"
         id="path93922"
         style="fill:none;stroke:#181818;stroke-width:0.02698446;stroke-linecap:round;stroke-linejoin:round;stroke-miterlimit:4;stroke-opacity:1;stroke-dasharray:none"
         d="m 149.5945,437.35639 0,-0.88918 -1.084,0.62842 0.62458,0.52351 0.45942,-0.26275 z" />
      <path
         d="m 150.684,437.088 -0.627,0.533 -0.46,-0.264 -0.001,-0.891"
         style="fill:#ffcc00;fill-opacity:1;fill-rule:evenodd;stroke:none"
         id="path93924"
         inkscape:connector-curvature="0" />
      <path
         inkscape:connector-curvature="0"
         id="path93928"
         style="fill:none;stroke:#181818;stroke-width:0.02698446;stroke-linecap:round;stroke-linejoin:round;stroke-miterlimit:4;stroke-opacity:1;stroke-dasharray:none"
         d="m 150.6825,437.08863 -0.62557,0.53051 -0.46043,-0.26275 -0.002,-0.88918 1.088,0.62142 z" />
      <path
         d="m 150.682,426.427 -1.083,-0.613 -0.003,10.655 1.086,0.622"
         style="fill:#ffcc00;fill-opacity:1;fill-rule:evenodd;stroke:none"
         id="path93930"
         inkscape:connector-curvature="0" />
      <path
         inkscape:connector-curvature="0"
         id="path93934"
         style="fill:none;stroke:#181818;stroke-width:0.02698446;stroke-linecap:round;stroke-linejoin:round;stroke-miterlimit:4;stroke-opacity:1;stroke-dasharray:none"
         d="m 150.6805,426.42647 -1.082,-0.61243 -0.004,10.65516 1.086,0.62243 0,-10.66516 z" />
      <path
         d="m 155.277,421.811 -1.78,0 -2.67,1.538 0,0.905 2.67,1.541 1.78,0 2.667,-1.539 0,-0.907"
         style="fill:#444444;fill-opacity:1;fill-rule:evenodd;stroke:none"
         id="path93936"
         inkscape:connector-curvature="0" />
      <path
         inkscape:connector-curvature="0"
         id="path93940"
         style="fill:none;stroke:#181818;stroke-width:0.02698446;stroke-linecap:round;stroke-linejoin:round;stroke-miterlimit:4;stroke-opacity:1;stroke-dasharray:none"
         d="m 155.27572,421.81073 -1.77963,0 -2.67046,1.53858 0,0.90417 2.67046,1.54058 1.77963,0 2.66846,-1.53759 0,-0.90716 -2.66846,-1.53858 z" />
      <path
         d="m 153.497,417.368 0,4.443 -2.67,1.538 -0.001,-4.444"
         style="fill:#464646;fill-opacity:1;fill-rule:evenodd;stroke:none"
         id="path93942"
         inkscape:connector-curvature="0" />
      <path
         inkscape:connector-curvature="0"
         id="path93946"
         style="fill:none;stroke:#181818;stroke-width:0.02698446;stroke-linecap:round;stroke-linejoin:round;stroke-miterlimit:4;stroke-opacity:1;stroke-dasharray:none"
         d="m 153.49609,417.36783 0,4.4429 -2.67046,1.53858 -10e-4,-4.4439 2.67146,-1.53758 z" />
      <path
         d="m 155.277,421.811 -1.78,0 0,-4.441 1.782,0"
         style="fill:#5b5b5b;fill-opacity:1;fill-rule:evenodd;stroke:none"
         id="path93948"
         inkscape:connector-curvature="0" />
      <path
         inkscape:connector-curvature="0"
         id="path93952"
         style="fill:none;stroke:#181818;stroke-width:0.02698446;stroke-linecap:round;stroke-linejoin:round;stroke-miterlimit:4;stroke-opacity:1;stroke-dasharray:none"
         d="m 155.27572,421.81073 -1.77963,0 0,-4.4409 1.78163,0 -0.002,4.4409 z" />
      <path
         d="m 153.184,423.854 1.084,-0.615 0.002,10.651 -1.085,0.629"
         style="fill:#c9a100;fill-opacity:1;fill-rule:evenodd;stroke:none"
         id="path93954"
         inkscape:connector-curvature="0" />
      <path
         inkscape:connector-curvature="0"
         id="path93958"
         style="fill:none;stroke:#181818;stroke-width:0.02698446;stroke-linecap:round;stroke-linejoin:round;stroke-miterlimit:4;stroke-opacity:1;stroke-dasharray:none"
         d="m 153.1828,423.85385 1.08399,-0.61544 0.003,10.65117 -1.086,0.62942 -10e-4,-10.66515 z" />
      <path
         d="m 154.73,435.041 -0.464,0.266 -0.459,-0.266 0.461,-0.263"
         style="fill:#ffd83d;fill-opacity:1;fill-rule:evenodd;stroke:none"
         id="path93960"
         inkscape:connector-curvature="0" />
      <path
         inkscape:connector-curvature="0"
         id="path93964"
         style="fill:none;stroke:#181818;stroke-width:0.02698446;stroke-linecap:round;stroke-linejoin:round;stroke-miterlimit:4;stroke-opacity:1;stroke-dasharray:none"
         d="m 154.72922,435.04152 -0.46443,0.26676 -0.45742,-0.26676 0.45942,-0.26376 0.46243,0.26376 z" />
      <path
         d="m 154.268,434.778 0,-0.89 -1.086,0.628 0.624,0.525"
         style="fill:#c9a100;fill-opacity:1;fill-rule:evenodd;stroke:none"
         id="path93966"
         inkscape:connector-curvature="0" />
      <path
         inkscape:connector-curvature="0"
         id="path93970"
         style="fill:none;stroke:#181818;stroke-width:0.02698446;stroke-linecap:round;stroke-linejoin:round;stroke-miterlimit:4;stroke-opacity:1;stroke-dasharray:none"
         d="m 154.26679,434.77776 0,-0.88917 -1.08499,0.62742 0.62457,0.52551 0.46042,-0.26376 z" />
      <path
         d="m 155.355,434.509 -0.626,0.532 -0.459,-0.263 -0.002,-0.89"
         style="fill:#ffcc00;fill-opacity:1;fill-rule:evenodd;stroke:none"
         id="path93972"
         inkscape:connector-curvature="0" />
      <path
         inkscape:connector-curvature="0"
         id="path93976"
         style="fill:none;stroke:#181818;stroke-width:0.02698446;stroke-linecap:round;stroke-linejoin:round;stroke-miterlimit:4;stroke-opacity:1;stroke-dasharray:none"
         d="m 155.35379,434.50901 -0.62557,0.53251 -0.45842,-0.26376 -0.003,-0.88917 1.087,0.62042 z" />
      <path
         d="m 155.355,423.848 -1.083,-0.613 -0.004,10.655 1.087,0.624"
         style="fill:#ffcc00;fill-opacity:1;fill-rule:evenodd;stroke:none"
         id="path93978"
         inkscape:connector-curvature="0" />
      <path
         inkscape:connector-curvature="0"
         id="path93982"
         style="fill:none;stroke:#181818;stroke-width:0.02698446;stroke-linecap:round;stroke-linejoin:round;stroke-miterlimit:4;stroke-opacity:1;stroke-dasharray:none"
         d="m 155.35379,423.84885 -1.08199,-0.61343 -0.005,10.65416 1.087,0.62343 0,-10.66416 z" />
      <path
         d="m 155.275,417.368 0,4.443 2.669,1.538 0,-4.444"
         style="fill:#535353;fill-opacity:1;fill-rule:evenodd;stroke:none"
         id="path93984"
         inkscape:connector-curvature="0" />
      <path
         inkscape:connector-curvature="0"
         id="path93988"
         style="fill:none;stroke:#181818;stroke-width:0.02698446;stroke-linecap:round;stroke-linejoin:round;stroke-miterlimit:4;stroke-opacity:1;stroke-dasharray:none"
         d="m 155.27372,417.36783 0,4.4429 2.67046,1.53858 0,-4.4439 -2.67046,-1.53758 z" />
      <path
         d="m 142.362,438.884 0,0.244 -0.378,0 0,2.876 -0.726,-0.362 0.048,-0.271 0.389,0.215 0,-2.462 -0.407,0 0,-0.24"
         style="fill:#000000;fill-opacity:1;fill-rule:nonzero;stroke:none"
         id="path93990"
         inkscape:connector-curvature="0" />
    </g>
  </g>
</svg>
