<?xml version="1.0" encoding="UTF-8" standalone="no"?>
<!-- Created with Inkscape (http://www.inkscape.org/) -->

<svg
   xmlns:dc="http://purl.org/dc/elements/1.1/"
   xmlns:cc="http://creativecommons.org/ns#"
   xmlns:rdf="http://www.w3.org/1999/02/22-rdf-syntax-ns#"
   xmlns:svg="http://www.w3.org/2000/svg"
   xmlns="http://www.w3.org/2000/svg"
   xmlns:sodipodi="http://sodipodi.sourceforge.net/DTD/sodipodi-0.dtd"
   xmlns:inkscape="http://www.inkscape.org/namespaces/inkscape"
   width="659.89362"
   height="478.45264"
   id="svg8595"
   version="1.1"
   inkscape:version="0.48.5 r10040"
   sodipodi:docname="companion_dimensions.svg">
  <defs
     id="defs8597" />
  <sodipodi:namedview
     id="base"
     pagecolor="#ffffff"
     bordercolor="#666666"
     borderopacity="1.0"
     inkscape:pageopacity="0.0"
     inkscape:pageshadow="2"
     inkscape:zoom="0.35"
     inkscape:cx="-322.23896"
     inkscape:cy="234.99582"
     inkscape:document-units="px"
     inkscape:current-layer="layer1"
     showgrid="false"
     fit-margin-top="5"
     fit-margin-left="5"
     fit-margin-right="5"
     fit-margin-bottom="5"
     inkscape:window-width="1280"
     inkscape:window-height="778"
     inkscape:window-x="0"
     inkscape:window-y="0"
     inkscape:window-maximized="1" />
  <metadata
     id="metadata8600">
    <rdf:RDF>
      <cc:Work
         rdf:about="">
        <dc:format>image/svg+xml</dc:format>
        <dc:type
           rdf:resource="http://purl.org/dc/dcmitype/StillImage" />
        <dc:title></dc:title>
      </cc:Work>
    </rdf:RDF>
  </metadata>
  <g
     inkscape:label="Layer 1"
     inkscape:groupmode="layer"
     id="layer1"
     transform="translate(-90.096094,-288.90543)">
    <g
       id="g85171"
       transform="matrix(3.3971101,0,0,-3.3971101,-292.56296,1741.3573)">
      <path
         d="m 135.162,332.341 165.55,0 c 2.6,0 4.692,-2.096 4.692,-4.698 l 0,-27.204 c 0,-2.604 -2.092,-4.715 -4.692,-4.698 l -36.933,0 0,14.333 -24.578,0 -0.012,-14.333 -10.587,0 0,14.333 -24.476,0 0,-14.333 -68.964,0 c -2.598,0 -4.692,2.094 -4.692,4.698 l 0,27.204 c 0,2.602 2.094,4.698 4.692,4.698"
         style="fill:#345380;fill-opacity:1;fill-rule:nonzero;stroke:none"
         id="path82747"
         inkscape:connector-curvature="0" />
      <path
         inkscape:connector-curvature="0"
         id="path82751"
         style="fill:none;stroke:#000000;stroke-width:0.00962938;stroke-linecap:round;stroke-linejoin:round;stroke-miterlimit:4;stroke-opacity:1;stroke-dasharray:none"
         d="m 135.16218,332.33947 165.54987,0 c 2.60018,0 4.69171,-2.09546 4.69171,-4.69828 l 0,-27.20203 c 0,-2.60482 -2.09153,-4.7163 -4.69171,-4.69929 l -36.93209,0 0,14.33403 -24.57876,0 -0.013,-14.33403 -10.58557,0 0,14.33403 -24.47683,0 0,-14.33403 -68.96363,0 c -2.59817,0 -4.6917,2.09447 -4.6917,4.69929 l 0,27.20203 c 0,2.60282 2.09353,4.69828 4.6917,4.69828 z" />
      <path
         d="m 142.393,321.345 14.4922,0 0,12.5574 -14.4922,0 0,-12.5574 z"
         style="fill:#444444;fill-opacity:1;fill-rule:nonzero;stroke:none"
         id="path82753"
         inkscape:connector-curvature="0" />
      <path
         d="m 153.589,321.364 2.50898,0 0,12.5191 -2.50898,0 0,-12.5191 z"
         style="fill:#3b3b3b;fill-opacity:1;fill-rule:nonzero;stroke:none"
         id="path82755"
         inkscape:connector-curvature="0" />
      <path
         d="m 143.18,321.364 2.50898,0 0,12.5191 -2.50898,0 0,-12.5191 z"
         style="fill:#3b3b3b;fill-opacity:1;fill-rule:nonzero;stroke:none"
         id="path82757"
         inkscape:connector-curvature="0" />
      <path
         d="m 146.711,321.364 2.50859,0 0,12.5191 -2.50859,0 0,-12.5191 z"
         style="fill:#3b3b3b;fill-opacity:1;fill-rule:nonzero;stroke:none"
         id="path82759"
         inkscape:connector-curvature="0" />
      <path
         d="m 150.197,321.364 2.50898,0 0,12.5191 -2.50898,0 0,-12.5191 z"
         style="fill:#3b3b3b;fill-opacity:1;fill-rule:nonzero;stroke:none"
         id="path82761"
         inkscape:connector-curvature="0" />
      <path
         d="m 305.188,327.133 c 0,-2.724 -2.202,-4.931 -4.92,-4.931 -2.72,0 -4.923,2.207 -4.923,4.931 0,2.722 2.203,4.928 4.923,4.928 2.718,0 4.92,-2.206 4.92,-4.928"
         style="fill:#d4aa00;fill-opacity:1;fill-rule:nonzero;stroke:none"
         id="path82763"
         inkscape:connector-curvature="0" />
      <path
         d="m 304.94,327.119 c 0,-0.384 -0.313,-0.695 -0.695,-0.695 -0.383,0 -0.694,0.311 -0.694,0.695 0,0.386 0.311,0.697 0.694,0.697 0.382,0 0.695,-0.311 0.695,-0.697"
         style="fill:#ffffff;fill-opacity:1;fill-rule:nonzero;stroke:none"
         id="path82765"
         inkscape:connector-curvature="0" />
      <path
         d="m 303.767,329.917 c 0,-0.386 -0.31,-0.697 -0.696,-0.697 -0.383,0 -0.694,0.311 -0.694,0.697 0,0.384 0.311,0.695 0.694,0.695 0.386,0 0.696,-0.311 0.696,-0.695"
         style="fill:#ffffff;fill-opacity:1;fill-rule:nonzero;stroke:none"
         id="path82767"
         inkscape:connector-curvature="0" />
      <path
         d="m 300.975,331.115 c 0,-0.383 -0.312,-0.695 -0.695,-0.695 -0.383,0 -0.695,0.312 -0.695,0.695 0,0.384 0.312,0.697 0.695,0.697 0.383,0 0.695,-0.313 0.695,-0.697"
         style="fill:#ffffff;fill-opacity:1;fill-rule:nonzero;stroke:none"
         id="path82769"
         inkscape:connector-curvature="0" />
      <path
         d="m 298.181,329.917 c 0,-0.386 -0.311,-0.697 -0.694,-0.697 -0.385,0 -0.696,0.311 -0.696,0.697 0,0.384 0.311,0.695 0.696,0.695 0.383,0 0.694,-0.311 0.694,-0.695"
         style="fill:#ffffff;fill-opacity:1;fill-rule:nonzero;stroke:none"
         id="path82771"
         inkscape:connector-curvature="0" />
      <path
         d="m 297.035,327.144 c 0,-0.383 -0.311,-0.697 -0.695,-0.697 -0.385,0 -0.696,0.314 -0.696,0.697 0,0.384 0.311,0.696 0.696,0.696 0.384,0 0.695,-0.312 0.695,-0.696"
         style="fill:#ffffff;fill-opacity:1;fill-rule:nonzero;stroke:none"
         id="path82773"
         inkscape:connector-curvature="0" />
      <path
         d="m 298.181,324.323 c 0,-0.383 -0.311,-0.698 -0.694,-0.698 -0.385,0 -0.696,0.315 -0.696,0.698 0,0.384 0.311,0.695 0.696,0.695 0.383,0 0.694,-0.311 0.694,-0.695"
         style="fill:#ffffff;fill-opacity:1;fill-rule:nonzero;stroke:none"
         id="path82775"
         inkscape:connector-curvature="0" />
      <path
         d="m 300.975,323.174 c 0,-0.384 -0.312,-0.698 -0.695,-0.698 -0.383,0 -0.695,0.314 -0.695,0.698 0,0.385 0.312,0.695 0.695,0.695 0.383,0 0.695,-0.31 0.695,-0.695"
         style="fill:#ffffff;fill-opacity:1;fill-rule:nonzero;stroke:none"
         id="path82777"
         inkscape:connector-curvature="0" />
      <path
         d="m 303.767,324.348 c 0,-0.385 -0.31,-0.697 -0.696,-0.697 -0.383,0 -0.694,0.312 -0.694,0.697 0,0.384 0.311,0.696 0.694,0.696 0.386,0 0.696,-0.312 0.696,-0.696"
         style="fill:#ffffff;fill-opacity:1;fill-rule:nonzero;stroke:none"
         id="path82779"
         inkscape:connector-curvature="0" />
      <path
         d="m 303.053,327.133 c 0,-1.542 -1.248,-2.791 -2.785,-2.791 -1.54,0 -2.788,1.249 -2.788,2.791 0,1.54 1.248,2.789 2.788,2.789 1.537,0 2.785,-1.249 2.785,-2.789"
         style="fill:#ffffff;fill-opacity:1;fill-rule:nonzero;stroke:none"
         id="path82781"
         inkscape:connector-curvature="0" />
      <path
         d="m 140.629,327.133 c 0,-2.724 -2.203,-4.931 -4.92,-4.931 -2.718,0 -4.923,2.207 -4.923,4.931 0,2.722 2.205,4.928 4.923,4.928 2.717,0 4.92,-2.206 4.92,-4.928"
         style="fill:#d4aa00;fill-opacity:1;fill-rule:nonzero;stroke:none"
         id="path82783"
         inkscape:connector-curvature="0" />
      <path
         d="m 140.381,327.119 c 0,-0.384 -0.31,-0.695 -0.696,-0.695 -0.383,0 -0.694,0.311 -0.694,0.695 0,0.386 0.311,0.697 0.694,0.697 0.386,0 0.696,-0.311 0.696,-0.697"
         style="fill:#ffffff;fill-opacity:1;fill-rule:nonzero;stroke:none"
         id="path82785"
         inkscape:connector-curvature="0" />
      <path
         d="m 139.208,329.917 c 0,-0.386 -0.31,-0.697 -0.693,-0.697 -0.385,0 -0.697,0.311 -0.697,0.697 0,0.384 0.312,0.695 0.697,0.695 0.383,0 0.693,-0.311 0.693,-0.695"
         style="fill:#ffffff;fill-opacity:1;fill-rule:nonzero;stroke:none"
         id="path82787"
         inkscape:connector-curvature="0" />
      <path
         d="m 136.416,331.115 c 0,-0.383 -0.311,-0.695 -0.696,-0.695 -0.383,0 -0.693,0.312 -0.693,0.695 0,0.384 0.31,0.697 0.693,0.697 0.385,0 0.696,-0.313 0.696,-0.697"
         style="fill:#ffffff;fill-opacity:1;fill-rule:nonzero;stroke:none"
         id="path82789"
         inkscape:connector-curvature="0" />
      <path
         d="m 133.622,329.917 c 0,-0.386 -0.31,-0.697 -0.694,-0.697 -0.383,0 -0.696,0.311 -0.696,0.697 0,0.384 0.313,0.695 0.696,0.695 0.384,0 0.694,-0.311 0.694,-0.695"
         style="fill:#ffffff;fill-opacity:1;fill-rule:nonzero;stroke:none"
         id="path82791"
         inkscape:connector-curvature="0" />
      <path
         d="m 132.475,327.144 c 0,-0.383 -0.311,-0.697 -0.695,-0.697 -0.382,0 -0.696,0.314 -0.696,0.697 0,0.384 0.314,0.696 0.696,0.696 0.384,0 0.695,-0.312 0.695,-0.696"
         style="fill:#ffffff;fill-opacity:1;fill-rule:nonzero;stroke:none"
         id="path82793"
         inkscape:connector-curvature="0" />
      <path
         d="m 133.622,324.323 c 0,-0.383 -0.31,-0.698 -0.694,-0.698 -0.383,0 -0.696,0.315 -0.696,0.698 0,0.384 0.313,0.695 0.696,0.695 0.384,0 0.694,-0.311 0.694,-0.695"
         style="fill:#ffffff;fill-opacity:1;fill-rule:nonzero;stroke:none"
         id="path82795"
         inkscape:connector-curvature="0" />
      <path
         d="m 136.416,323.174 c 0,-0.384 -0.311,-0.698 -0.696,-0.698 -0.383,0 -0.693,0.314 -0.693,0.698 0,0.385 0.31,0.695 0.693,0.695 0.385,0 0.696,-0.31 0.696,-0.695"
         style="fill:#ffffff;fill-opacity:1;fill-rule:nonzero;stroke:none"
         id="path82797"
         inkscape:connector-curvature="0" />
      <path
         d="m 139.208,324.348 c 0,-0.385 -0.31,-0.697 -0.693,-0.697 -0.385,0 -0.697,0.312 -0.697,0.697 0,0.384 0.312,0.696 0.697,0.696 0.383,0 0.693,-0.312 0.693,-0.696"
         style="fill:#ffffff;fill-opacity:1;fill-rule:nonzero;stroke:none"
         id="path82799"
         inkscape:connector-curvature="0" />
      <path
         d="m 138.496,327.133 c 0,-1.542 -1.248,-2.791 -2.787,-2.791 -1.539,0 -2.788,1.249 -2.788,2.791 0,1.54 1.249,2.789 2.788,2.789 1.539,0 2.787,-1.249 2.787,-2.789"
         style="fill:#ffffff;fill-opacity:1;fill-rule:nonzero;stroke:none"
         id="path82801"
         inkscape:connector-curvature="0" />
      <path
         d="m 237.824,329.79 -0.367,0.049 -1.305,-2.999 -1.279,2.999 -0.355,-0.049 1.596,-3.74 0.068,0 1.642,3.74 z m 3.589,-3.671 -1.736,3.736 -0.103,0 -1.782,-3.736 0.363,-0.047 0.651,1.395 1.609,0 0.654,-1.395 0.344,0.047 z m -1.159,1.672 -1.297,0 0.648,1.38 0.649,-1.38 z m 1.451,-1.675 1.014,0 c 0.24,0.002 0.447,0.039 0.617,0.118 0.168,0.079 0.301,0.179 0.4,0.305 0.096,0.122 0.156,0.259 0.18,0.409 0.022,0.149 0.013,0.295 -0.029,0.44 -0.043,0.14 -0.124,0.269 -0.233,0.383 -0.111,0.116 -0.252,0.2 -0.424,0.254 0.146,0.079 0.256,0.187 0.328,0.325 0.07,0.136 0.106,0.29 0.108,0.461 -0.002,0.189 -0.034,0.346 -0.089,0.47 -0.061,0.124 -0.14,0.222 -0.241,0.297 -0.103,0.073 -0.22,0.127 -0.353,0.159 -0.135,0.03 -0.276,0.051 -0.417,0.061 -0.148,0.009 -0.296,0.011 -0.441,0.007 -0.148,-0.004 -0.289,-0.007 -0.42,-0.007 l 0,-3.682 z m 1.594,2.678 -0.005,0 c -0.002,-0.182 -0.044,-0.318 -0.126,-0.407 -0.086,-0.089 -0.192,-0.152 -0.316,-0.189 -0.125,-0.037 -0.261,-0.057 -0.406,-0.057 -0.142,0 -0.275,0 -0.398,0 l 0,1.327 c 0.131,0 0.272,0 0.419,0.003 0.144,0 0.28,-0.019 0.404,-0.054 0.124,-0.037 0.225,-0.103 0.307,-0.197 0.079,-0.096 0.121,-0.236 0.121,-0.426 z m -1.251,-0.976 c 0.094,0 0.197,0 0.307,0.005 0.11,0 0.219,-0.002 0.332,-0.007 0.109,-0.01 0.217,-0.023 0.321,-0.045 0.101,-0.023 0.192,-0.062 0.274,-0.116 0.079,-0.056 0.145,-0.13 0.192,-0.218 0.047,-0.091 0.071,-0.203 0.071,-0.342 0,-0.126 -0.027,-0.231 -0.078,-0.316 -0.052,-0.084 -0.119,-0.149 -0.202,-0.195 -0.084,-0.047 -0.18,-0.083 -0.284,-0.104 -0.107,-0.021 -0.215,-0.034 -0.327,-0.039 -0.112,-0.007 -0.223,-0.007 -0.325,-0.003 -0.108,0.003 -0.201,0.005 -0.281,0.005 l 0,1.375 z m 3.734,-0.556 0,0.29 -1.331,0 0,-0.298 1.331,0.008 z m 2.264,-1.146 0,0.297 -0.449,0 0,3.491 -0.868,-0.44 0.058,-0.33 0.465,0.259 0,-2.988 -0.486,0 0,-0.289 1.28,0 z m 3.234,1.825 c 0,0.177 -0.019,0.378 -0.055,0.6 -0.039,0.221 -0.101,0.428 -0.191,0.627 -0.09,0.195 -0.213,0.358 -0.361,0.495 -0.153,0.131 -0.34,0.198 -0.559,0.198 -0.149,0 -0.28,-0.03 -0.393,-0.091 -0.116,-0.06 -0.217,-0.143 -0.303,-0.244 -0.087,-0.105 -0.159,-0.222 -0.22,-0.351 -0.061,-0.132 -0.11,-0.268 -0.144,-0.407 -0.038,-0.139 -0.064,-0.28 -0.081,-0.42 -0.018,-0.143 -0.027,-0.273 -0.025,-0.387 -0.002,-0.182 0.016,-0.384 0.057,-0.604 0.036,-0.221 0.1,-0.43 0.191,-0.622 0.087,-0.196 0.206,-0.36 0.357,-0.491 0.15,-0.133 0.336,-0.197 0.561,-0.199 0.217,0.002 0.402,0.066 0.554,0.196 0.149,0.129 0.271,0.291 0.361,0.484 0.09,0.193 0.153,0.398 0.192,0.618 0.038,0.219 0.059,0.418 0.059,0.598 z m -0.351,0.02 c 0,-0.081 -0.007,-0.177 -0.016,-0.288 -0.011,-0.109 -0.028,-0.222 -0.054,-0.338 -0.028,-0.118 -0.063,-0.234 -0.102,-0.347 -0.044,-0.115 -0.096,-0.215 -0.154,-0.304 -0.065,-0.091 -0.134,-0.164 -0.214,-0.219 -0.078,-0.058 -0.172,-0.085 -0.275,-0.085 -0.107,0 -0.198,0.025 -0.279,0.081 -0.079,0.052 -0.149,0.125 -0.21,0.215 -0.06,0.088 -0.111,0.188 -0.154,0.303 -0.041,0.112 -0.076,0.226 -0.1,0.341 -0.025,0.116 -0.042,0.227 -0.054,0.337 -0.013,0.11 -0.021,0.204 -0.018,0.284 -0.003,0.079 0.002,0.175 0.013,0.284 0.009,0.111 0.029,0.223 0.056,0.34 0.027,0.115 0.059,0.231 0.099,0.349 0.039,0.114 0.091,0.215 0.152,0.306 0.06,0.089 0.131,0.164 0.215,0.219 0.079,0.057 0.173,0.086 0.28,0.087 0.103,-0.001 0.197,-0.03 0.275,-0.081 0.08,-0.056 0.149,-0.127 0.214,-0.215 0.058,-0.089 0.11,-0.192 0.154,-0.305 0.039,-0.114 0.074,-0.229 0.102,-0.343 0.026,-0.12 0.043,-0.232 0.054,-0.337 0.009,-0.111 0.016,-0.204 0.016,-0.284 z m 3.077,-0.02 c 0,0.177 -0.018,0.378 -0.056,0.6 -0.037,0.221 -0.101,0.428 -0.188,0.627 -0.092,0.195 -0.214,0.358 -0.363,0.495 -0.152,0.131 -0.338,0.198 -0.558,0.198 -0.15,0 -0.28,-0.03 -0.393,-0.091 -0.117,-0.06 -0.218,-0.143 -0.304,-0.244 -0.087,-0.105 -0.158,-0.222 -0.219,-0.351 -0.061,-0.132 -0.11,-0.268 -0.146,-0.407 -0.036,-0.139 -0.062,-0.28 -0.079,-0.42 -0.018,-0.143 -0.028,-0.273 -0.025,-0.387 -0.003,-0.182 0.016,-0.384 0.055,-0.604 0.038,-0.221 0.101,-0.43 0.193,-0.622 0.086,-0.196 0.206,-0.36 0.357,-0.491 0.15,-0.133 0.337,-0.197 0.561,-0.199 0.218,0.002 0.402,0.066 0.554,0.196 0.15,0.129 0.271,0.291 0.362,0.484 0.089,0.193 0.151,0.398 0.191,0.618 0.038,0.219 0.058,0.418 0.058,0.598 z m -0.35,0.02 c 0,-0.081 -0.007,-0.177 -0.017,-0.288 -0.01,-0.109 -0.027,-0.222 -0.054,-0.338 -0.028,-0.118 -0.062,-0.234 -0.102,-0.347 -0.044,-0.115 -0.096,-0.215 -0.154,-0.304 -0.063,-0.091 -0.134,-0.164 -0.213,-0.219 -0.079,-0.058 -0.173,-0.085 -0.275,-0.085 -0.108,0 -0.199,0.025 -0.278,0.081 -0.081,0.052 -0.15,0.125 -0.211,0.215 -0.061,0.088 -0.112,0.188 -0.154,0.303 -0.042,0.112 -0.077,0.226 -0.1,0.341 -0.026,0.116 -0.043,0.227 -0.053,0.337 -0.015,0.11 -0.022,0.204 -0.02,0.284 -0.002,0.079 0.003,0.175 0.014,0.284 0.01,0.111 0.028,0.223 0.057,0.34 0.025,0.115 0.058,0.231 0.097,0.349 0.04,0.114 0.091,0.215 0.153,0.306 0.059,0.089 0.129,0.164 0.215,0.219 0.078,0.057 0.172,0.086 0.28,0.087 0.102,-0.001 0.196,-0.03 0.275,-0.081 0.079,-0.056 0.15,-0.127 0.213,-0.215 0.058,-0.089 0.11,-0.192 0.154,-0.305 0.04,-0.114 0.074,-0.229 0.102,-0.343 0.027,-0.12 0.044,-0.232 0.054,-0.337 0.01,-0.111 0.017,-0.204 0.017,-0.284 z m 3.078,-0.02 c 0,0.177 -0.019,0.378 -0.056,0.6 -0.039,0.221 -0.101,0.428 -0.191,0.627 -0.09,0.195 -0.212,0.358 -0.362,0.495 -0.152,0.131 -0.338,0.198 -0.557,0.198 -0.15,0 -0.281,-0.03 -0.394,-0.091 -0.117,-0.06 -0.217,-0.143 -0.304,-0.244 -0.085,-0.105 -0.158,-0.222 -0.219,-0.351 -0.06,-0.132 -0.11,-0.268 -0.144,-0.407 -0.039,-0.139 -0.064,-0.28 -0.08,-0.42 -0.018,-0.143 -0.028,-0.273 -0.026,-0.387 -0.002,-0.182 0.017,-0.384 0.056,-0.604 0.038,-0.221 0.102,-0.43 0.191,-0.622 0.088,-0.196 0.207,-0.36 0.358,-0.491 0.15,-0.133 0.337,-0.197 0.562,-0.199 0.217,0.002 0.4,0.066 0.553,0.196 0.15,0.129 0.271,0.291 0.362,0.484 0.089,0.193 0.153,0.398 0.192,0.618 0.038,0.219 0.059,0.418 0.059,0.598 z m -0.352,0.02 c 0,-0.081 -0.007,-0.177 -0.016,-0.288 -0.011,-0.109 -0.028,-0.222 -0.054,-0.338 -0.027,-0.118 -0.063,-0.234 -0.102,-0.347 -0.045,-0.115 -0.096,-0.215 -0.154,-0.304 -0.063,-0.091 -0.135,-0.164 -0.213,-0.219 -0.08,-0.058 -0.173,-0.085 -0.275,-0.085 -0.108,0 -0.2,0.025 -0.279,0.081 -0.079,0.052 -0.15,0.125 -0.21,0.215 -0.061,0.088 -0.113,0.188 -0.155,0.303 -0.042,0.112 -0.076,0.226 -0.099,0.341 -0.027,0.116 -0.043,0.227 -0.054,0.337 -0.015,0.11 -0.022,0.204 -0.019,0.284 -0.003,0.079 0.002,0.175 0.014,0.284 0.009,0.111 0.028,0.223 0.056,0.34 0.026,0.115 0.058,0.231 0.098,0.349 0.039,0.114 0.091,0.215 0.152,0.306 0.061,0.089 0.131,0.164 0.215,0.219 0.079,0.057 0.173,0.086 0.281,0.087 0.102,-0.001 0.195,-0.03 0.275,-0.081 0.078,-0.056 0.15,-0.127 0.213,-0.215 0.058,-0.089 0.109,-0.192 0.154,-0.305 0.039,-0.114 0.075,-0.229 0.102,-0.343 0.026,-0.12 0.043,-0.232 0.054,-0.337 0.009,-0.111 0.016,-0.204 0.016,-0.284 z m 2.115,-0.699 0,0.29 -1.332,0 0,-0.298 1.332,0.008 z m 2.96,2.206 0,0.33 -2.614,0 -0.046,-0.334 1.174,0 0,-3.365 0.346,0.037 0,3.332"
         style="fill:#ffffff;fill-opacity:1;fill-rule:nonzero;stroke:none"
         id="path82803"
         inkscape:connector-curvature="0" />
      <path
         d="m 205.614,310.773 21.463,0 c 0.446,0 0.803,-0.285 0.803,-0.635 l 0,-18.099 c 0,-0.35 -0.357,-0.634 -0.803,-0.634 l -21.463,0 c -0.443,0 -0.8,0.284 -0.8,0.634 l 0,18.099 c 0,0.35 0.357,0.635 0.8,0.635"
         style="fill:#dddddd;fill-opacity:1;fill-rule:nonzero;stroke:none"
         id="path82805"
         inkscape:connector-curvature="0" />
      <path
         d="m 206.472,291.405 19.967,0 c -0.042,-0.714 -0.282,-1.223 -0.962,-1.295 l -18.045,0 c -0.775,0.138 -0.943,0.788 -0.96,1.295"
         style="fill:#e6e6e6;fill-opacity:1;fill-rule:nonzero;stroke:none"
         id="path82807"
         inkscape:connector-curvature="0" />
      <path
         d="m 204.012,290.317 c 0.511,0.426 0.97,0.874 0.812,1.536 0.269,-0.358 0.622,-0.464 1.052,-0.422 -0.23,-0.657 -0.756,-1.523 -1.654,-1.67 -0.21,-0.023 -0.39,0.26 -0.21,0.556"
         style="fill:#e6e6e6;fill-opacity:1;fill-rule:nonzero;stroke:none"
         id="path82809"
         inkscape:connector-curvature="0" />
      <path
         d="m 228.664,290.306 c -0.513,0.428 -0.97,0.873 -0.812,1.538 -0.271,-0.359 -0.623,-0.466 -1.053,-0.424 0.229,-0.657 0.757,-1.522 1.653,-1.67 0.212,-0.022 0.394,0.259 0.212,0.556"
         style="fill:#e6e6e6;fill-opacity:1;fill-rule:nonzero;stroke:none"
         id="path82811"
         inkscape:connector-curvature="0" />
      <path
         d="m 209.178,301.675 0.306,-6.654 c 0.011,-0.396 0.243,-0.517 0.477,-0.637 l 2.373,0 c 0.379,0.131 0.341,0.402 0.4,0.639 l 0.352,6.68 c 0.065,0.498 0.856,0.463 0.902,-0.028 l -0.36,-9.125 c -0.044,-0.297 -0.219,-0.504 -0.603,-0.573 l -3.747,0.03 c -0.378,0.091 -0.435,0.313 -0.542,0.512 l -0.522,9.095 c -0.046,0.437 0.8,0.523 0.964,0.061"
         style="fill:#808080;fill-opacity:1;fill-rule:nonzero;stroke:none"
         id="path82813"
         inkscape:connector-curvature="0" />
      <path
         d="m 219.583,301.671 0.307,-6.65 c 0.011,-0.396 0.24,-0.517 0.474,-0.637 l 2.376,0 c 0.376,0.131 0.341,0.402 0.4,0.639 l 0.353,6.68 c 0.062,0.498 0.855,0.463 0.901,-0.032 l -0.361,-9.121 c -0.042,-0.297 -0.217,-0.504 -0.601,-0.573 l -3.748,0.03 c -0.378,0.091 -0.434,0.313 -0.541,0.512 l -0.522,9.095 c -0.046,0.437 0.799,0.523 0.962,0.057"
         style="fill:#808080;fill-opacity:1;fill-rule:nonzero;stroke:none"
         id="path82815"
         inkscape:connector-curvature="0" />
      <path
         d="m 206.721,308.893 c 0.143,0.393 0.765,0.341 0.91,0 l 0.014,-2.226 c 0.257,-0.355 1.259,-0.365 1.538,0.01 l 0,2.216 c 0.144,0.343 0.723,0.395 0.901,0 l 0,-2.909 c -0.037,-0.182 -0.105,-0.283 -0.357,-0.297 l -2.612,0 c -0.337,0.041 -0.42,0.197 -0.394,0.396"
         style="fill:#cccccc;fill-opacity:1;fill-rule:nonzero;stroke:none"
         id="path82817"
         inkscape:connector-curvature="0" />
      <path
         d="m 222.355,308.893 c 0.142,0.393 0.761,0.341 0.91,0 l 0.013,-2.226 c 0.254,-0.355 1.259,-0.365 1.535,0.01 l 0,2.216 c 0.145,0.343 0.727,0.395 0.901,0 l 0,-2.909 c -0.037,-0.182 -0.104,-0.283 -0.357,-0.297 l -2.609,0 c -0.339,0.041 -0.421,0.197 -0.393,0.396"
         style="fill:#cccccc;fill-opacity:1;fill-rule:nonzero;stroke:none"
         id="path82819"
         inkscape:connector-curvature="0" />
      <path
         d="m 240.832,310.773 21.462,0 c 0.446,0 0.804,-0.285 0.804,-0.635 l 0,-18.099 c 0,-0.35 -0.358,-0.634 -0.804,-0.634 l -21.462,0 c -0.444,0 -0.804,0.284 -0.804,0.634 l 0,18.099 c 0,0.35 0.36,0.635 0.804,0.635"
         style="fill:#dddddd;fill-opacity:1;fill-rule:nonzero;stroke:none"
         id="path82821"
         inkscape:connector-curvature="0" />
      <path
         d="m 241.686,291.405 19.968,0 c -0.04,-0.714 -0.283,-1.223 -0.963,-1.295 l -18.041,0 c -0.779,0.138 -0.947,0.788 -0.964,1.295"
         style="fill:#e6e6e6;fill-opacity:1;fill-rule:nonzero;stroke:none"
         id="path82823"
         inkscape:connector-curvature="0" />
      <path
         d="m 239.255,290.302 c 0.511,0.426 0.969,0.872 0.81,1.534 0.271,-0.357 0.621,-0.463 1.053,-0.421 -0.229,-0.658 -0.758,-1.522 -1.653,-1.67 -0.21,-0.022 -0.393,0.259 -0.21,0.557"
         style="fill:#e6e6e6;fill-opacity:1;fill-rule:nonzero;stroke:none"
         id="path82825"
         inkscape:connector-curvature="0" />
      <path
         d="m 263.863,290.299 c -0.509,0.426 -0.968,0.872 -0.81,1.535 -0.271,-0.357 -0.621,-0.463 -1.051,-0.421 0.226,-0.658 0.757,-1.523 1.651,-1.67 0.21,-0.025 0.393,0.259 0.21,0.556"
         style="fill:#e6e6e6;fill-opacity:1;fill-rule:nonzero;stroke:none"
         id="path82827"
         inkscape:connector-curvature="0" />
      <path
         d="m 244.395,301.675 0.305,-6.654 c 0.013,-0.396 0.244,-0.517 0.477,-0.637 l 2.375,0 c 0.378,0.131 0.341,0.402 0.398,0.639 l 0.354,6.68 c 0.062,0.498 0.855,0.463 0.901,-0.028 l -0.362,-9.125 c -0.042,-0.297 -0.218,-0.504 -0.6,-0.573 l -3.748,0.03 c -0.379,0.091 -0.434,0.313 -0.542,0.512 l -0.521,9.095 c -0.047,0.437 0.799,0.523 0.963,0.061"
         style="fill:#808080;fill-opacity:1;fill-rule:nonzero;stroke:none"
         id="path82829"
         inkscape:connector-curvature="0" />
      <path
         d="m 254.798,301.671 0.309,-6.65 c 0.012,-0.396 0.24,-0.517 0.474,-0.637 l 2.374,0 c 0.379,0.131 0.344,0.402 0.4,0.639 l 0.352,6.68 c 0.066,0.498 0.856,0.463 0.902,-0.032 l -0.36,-9.121 c -0.044,-0.297 -0.217,-0.504 -0.6,-0.573 l -3.75,0.03 c -0.379,0.091 -0.432,0.313 -0.54,0.512 l -0.523,9.095 c -0.047,0.437 0.802,0.523 0.962,0.057"
         style="fill:#808080;fill-opacity:1;fill-rule:nonzero;stroke:none"
         id="path82831"
         inkscape:connector-curvature="0" />
      <path
         d="m 241.939,308.893 c 0.143,0.393 0.762,0.341 0.909,0 l 0.014,-2.226 c 0.257,-0.355 1.259,-0.365 1.537,0.01 l 0,2.216 c 0.143,0.343 0.724,0.395 0.899,0 l 0,-2.909 c -0.037,-0.182 -0.104,-0.283 -0.354,-0.297 l -2.612,0 c -0.336,0.041 -0.421,0.197 -0.393,0.396"
         style="fill:#cccccc;fill-opacity:1;fill-rule:nonzero;stroke:none"
         id="path82833"
         inkscape:connector-curvature="0" />
      <path
         d="m 257.571,308.893 c 0.141,0.393 0.763,0.341 0.909,0 l 0.012,-2.226 c 0.258,-0.355 1.259,-0.365 1.537,0.01 l 0,2.216 c 0.146,0.343 0.725,0.395 0.903,0 l 0,-2.909 c -0.037,-0.182 -0.106,-0.283 -0.358,-0.297 l -2.612,0 c -0.337,0.041 -0.418,0.197 -0.391,0.396"
         style="fill:#cccccc;fill-opacity:1;fill-rule:nonzero;stroke:none"
         id="path82835"
         inkscape:connector-curvature="0" />
      <path
         d="m 273.347,295.671 c 0.148,0.186 0.389,0.283 0.737,0.269 l 3.237,0.003 c 0.286,0.006 0.577,-0.054 0.723,-0.272 l 0,-2.431 c -0.407,-3.105 -4.313,-3.105 -4.697,0"
         style="fill:#2ca02c;fill-opacity:1;fill-rule:nonzero;stroke:none"
         id="path82837"
         inkscape:connector-curvature="0" />
      <path
         d="m 272.002,306.036 0.616,0 0.003,-2.621 1.634,0 0.011,2.621 2.541,0 0.022,-2.621 1.745,0 -0.024,2.621 0.702,0 0,-10.246 -7.25,0"
         style="fill:#383838;fill-opacity:1;fill-rule:nonzero;stroke:none"
         id="path82839"
         inkscape:connector-curvature="0" />
      <path
         d="m 292.973,296.497 7.12656,0 0,3.31055 -7.12656,0 0,-3.31055 z"
         style="fill:#bababa;fill-opacity:1;fill-rule:nonzero;stroke:none"
         id="path82841"
         inkscape:connector-curvature="0" />
      <path
         d="m 290.263,299.838 12.5441,0 0,5.45156 -12.5441,0 0,-5.45156 z"
         style="fill:#464646;fill-opacity:1;fill-rule:nonzero;stroke:none"
         id="path82843"
         inkscape:connector-curvature="0" />
      <path
         d="m 290.88,310.256 0.155,0 c 0.198,0 0.36,-0.159 0.36,-0.357 l 0,-4.252 c 0,-0.198 -0.162,-0.358 -0.36,-0.358 l -0.155,0 c -0.199,0 -0.36,0.16 -0.36,0.358 l 0,4.252 c 0,0.198 0.161,0.357 0.36,0.357"
         style="fill:#d4d4d4;fill-opacity:1;fill-rule:nonzero;stroke:none"
         id="path82845"
         inkscape:connector-curvature="0" />
      <path
         d="m 302.277,310.256 0.005,0 c 0.24,0 0.432,-0.19 0.432,-0.433 l 0,-4.1 c 0,-0.239 -0.192,-0.434 -0.432,-0.434 l -0.005,0 c -0.241,0 -0.434,0.195 -0.434,0.434 l 0,4.1 c 0,0.243 0.193,0.433 0.434,0.433"
         style="fill:#d4d4d4;fill-opacity:1;fill-rule:nonzero;stroke:none"
         id="path82847"
         inkscape:connector-curvature="0" />
      <path
         d="m 293.167,305.305 6.97891,0 0,2.22539 -6.97891,0 0,-2.22539 z"
         style="fill:#404040;fill-opacity:1;fill-rule:nonzero;stroke:none"
         id="path82849"
         inkscape:connector-curvature="0" />
      <path
         d="m 290.179,303.756 12.673,0 0,1.57461 -12.673,0 0,-1.57461 z"
         style="fill:#373737;fill-opacity:1;fill-rule:nonzero;stroke:none"
         id="path82851"
         inkscape:connector-curvature="0" />
      <path
         d="m 290.051,296.906 12.968,0 0,-7.035 c -0.196,-0.727 -0.427,-1.437 -1.802,-1.535 -3.153,-0.177 -6.251,-0.222 -9.242,0 -0.905,0.21 -1.875,0.515 -1.924,1.474"
         style="fill:#292929;fill-opacity:1;fill-rule:nonzero;stroke:none"
         id="path82853"
         inkscape:connector-curvature="0" />
      <path
         d="m 292.595,316.871 0.14,0 c 0.232,0 0.418,-0.186 0.418,-0.419 l 0,-11.671 c 0,-0.233 -0.186,-0.42 -0.418,-0.42 l -0.14,0 c -0.234,0 -0.42,0.187 -0.42,0.42 l 0,11.671 c 0,0.233 0.186,0.419 0.42,0.419"
         style="fill:#d4d4d4;fill-opacity:1;fill-rule:nonzero;stroke:none"
         id="path82855"
         inkscape:connector-curvature="0" />
      <path
         d="m 300.653,316.888 0.004,0 c 0.27,0 0.488,-0.219 0.488,-0.488 l 0,-11.536 c 0,-0.269 -0.218,-0.486 -0.488,-0.486 l -0.004,0 c -0.271,0 -0.487,0.217 -0.487,0.486 l 0,11.536 c 0,0.269 0.216,0.488 0.487,0.488"
         style="fill:#d4d4d4;fill-opacity:1;fill-rule:nonzero;stroke:none"
         id="path82857"
         inkscape:connector-curvature="0" />
      <path
         d="m 166.216,298.409 6.03984,0 0,4.21563 -6.03984,0 0,-4.21563 z"
         style="fill:#323232;fill-opacity:1;fill-rule:nonzero;stroke:none"
         id="path82859"
         inkscape:connector-curvature="0" />
      <path
         d="m 164.02,288.786 9.86641,0 0,4.93867 -9.86641,0 0,-4.93867 z"
         style="fill:#323232;fill-opacity:1;fill-rule:nonzero;stroke:none"
         id="path82861"
         inkscape:connector-curvature="0" />
      <path
         d="m 165.218,291.235 -0.021,2.511 0.403,-0.022 0,1.278 1.064,0 c 0.351,0.023 0.622,0.138 0.593,0.596 l -0.02,3.193 0.903,0.022 0,-3.811 c -0.067,-0.448 0.192,-0.636 0.501,-0.786 l 1.466,-0.021 c 0.387,0.049 0.471,0.4 0.498,0.807 l 0,3.789 0.752,0 0,-3.235 c 0.075,-0.215 0.069,-0.472 0.41,-0.554 l 1.696,0 0,-2.49 -7.524,-0.023 0,-1.254"
         style="fill:#b99b23;fill-opacity:1;fill-rule:nonzero;stroke:none"
         id="path82863"
         inkscape:connector-curvature="0" />
      <path
         d="m 161.734,314.543 14.437,0 c 0.467,0 0.841,-0.484 0.841,-1.084 l 0,-18.673 c 0,-0.601 -0.374,-1.084 -0.841,-1.084 l -2.754,0 0.015,1.3 -1.562,0 c -0.343,0 -0.482,0.309 -0.482,0.544 l 0,6.139 c 0,0.462 -0.825,0.516 -0.825,0.013 l 0,-6.696 c 0,-0.445 -0.233,-0.813 -0.581,-0.786 l -1.281,0 c -0.561,0.17 -0.561,0.51 -0.561,0.786 l 0,6.686 c 0,0.455 -0.871,0.557 -0.871,0 l 0,-6.151 c 0,-0.375 -0.269,-0.535 -0.567,-0.535 l -1.102,0 0,-1.3 -3.866,0 c -0.465,0 -0.841,0.483 -0.841,1.084 l 0,18.673 c 0,0.6 0.376,1.084 0.841,1.084"
         style="fill:#e5e5e5;fill-opacity:1;fill-rule:nonzero;stroke:none"
         id="path82865"
         inkscape:connector-curvature="0" />
      <path
         d="m 162.349,313.654 13.144,0 c 0.422,0 0.767,-0.44 0.767,-0.987 l 0,-17 c 0,-0.546 -0.345,-1.414 -0.767,-1.414 l -1.999,0 0.015,1.61 -1.592,0 c -0.315,0 -0.439,0.28 -0.438,0.494 l 0,5.592 c 0,0.419 -1.091,0.467 -1.091,0.012 l 0,-6.098 c 0,-0.405 -0.215,-0.74 -0.531,-0.716 l -1.164,0 c -0.513,0.156 -0.513,0.466 -0.513,0.716 l 0,6.088 c 0,0.414 -1.004,0.505 -1.004,0 l 0,-5.599 c 0,-0.345 -0.245,-0.489 -0.519,-0.489 l -1.215,0 0,-1.61 -3.093,0 c -0.426,0 -0.767,0.868 -0.767,1.414 l 0,17 c 0,0.547 0.341,0.987 0.767,0.987"
         style="fill:#dddddd;fill-opacity:1;fill-rule:nonzero;stroke:none"
         id="path82867"
         inkscape:connector-curvature="0" />
      <path
         d="m 145.235,298.409 6.03711,0 0,4.21563 -6.03711,0 0,-4.21563 z"
         style="fill:#323232;fill-opacity:1;fill-rule:nonzero;stroke:none"
         id="path82869"
         inkscape:connector-curvature="0" />
      <path
         d="m 143.035,288.786 9.8668,0 0,4.93867 -9.8668,0 0,-4.93867 z"
         style="fill:#323232;fill-opacity:1;fill-rule:nonzero;stroke:none"
         id="path82871"
         inkscape:connector-curvature="0" />
      <path
         d="m 144.234,291.235 -0.02,2.511 0.403,-0.022 0,1.278 1.063,0 c 0.352,0.023 0.622,0.138 0.597,0.596 l -0.021,3.193 0.901,0.022 0,-3.811 c -0.068,-0.448 0.192,-0.636 0.499,-0.786 l 1.468,-0.021 c 0.385,0.049 0.471,0.4 0.5,0.807 l 0,3.789 0.75,0 0,-3.235 c 0.075,-0.215 0.069,-0.472 0.41,-0.554 l 1.695,0 0,-2.49 -7.523,-0.023 0,-1.254"
         style="fill:#b99b23;fill-opacity:1;fill-rule:nonzero;stroke:none"
         id="path82873"
         inkscape:connector-curvature="0" />
      <path
         d="m 140.75,314.543 14.438,0 c 0.466,0 0.842,-0.484 0.842,-1.084 l 0,-18.673 c 0,-0.601 -0.376,-1.084 -0.842,-1.084 l -2.756,0 0.017,1.3 -1.563,0 c -0.343,0 -0.482,0.309 -0.482,0.544 l 0,6.139 c 0,0.462 -0.824,0.516 -0.824,0.013 l 0,-6.696 c 0,-0.445 -0.234,-0.813 -0.582,-0.786 l -1.28,0 c -0.561,0.17 -0.561,0.51 -0.561,0.786 l 0,6.686 c 0,0.455 -0.872,0.557 -0.872,0 l 0,-6.151 c 0,-0.375 -0.268,-0.535 -0.567,-0.535 l -1.101,0 0,-1.3 -3.867,0 c -0.464,0 -0.841,0.483 -0.841,1.084 l 0,18.673 c 0,0.6 0.377,1.084 0.841,1.084"
         style="fill:#e5e5e5;fill-opacity:1;fill-rule:nonzero;stroke:none"
         id="path82875"
         inkscape:connector-curvature="0" />
      <path
         d="m 141.365,313.654 13.145,0 c 0.426,0 0.767,-0.44 0.767,-0.987 l 0,-17 c 0,-0.546 -0.341,-1.414 -0.767,-1.414 l -1.997,0 0.013,1.61 -1.594,0 c -0.313,0 -0.436,0.28 -0.436,0.494 l 0,5.592 c 0,0.419 -1.091,0.467 -1.091,0.012 l 0,-6.098 c 0,-0.405 -0.215,-0.74 -0.531,-0.716 l -1.166,0 c -0.509,0.156 -0.509,0.466 -0.509,0.716 l 0,6.088 c 0,0.414 -1.006,0.505 -1.006,0 l 0,-5.599 c 0,-0.345 -0.247,-0.489 -0.518,-0.489 l -1.217,0 0,-1.61 -3.093,0 c -0.425,0 -0.766,0.868 -0.766,1.414 l 0,17 c 0,0.547 0.341,0.987 0.766,0.987"
         style="fill:#dddddd;fill-opacity:1;fill-rule:nonzero;stroke:none"
         id="path82877"
         inkscape:connector-curvature="0" />
      <path
         d="m 187.199,298.409 6.03984,0 0,4.21563 -6.03984,0 0,-4.21563 z"
         style="fill:#323232;fill-opacity:1;fill-rule:nonzero;stroke:none"
         id="path82879"
         inkscape:connector-curvature="0" />
      <path
         d="m 185.003,288.786 9.8668,0 0,4.93867 -9.8668,0 0,-4.93867 z"
         style="fill:#323232;fill-opacity:1;fill-rule:nonzero;stroke:none"
         id="path82881"
         inkscape:connector-curvature="0" />
      <path
         d="m 186.202,291.235 -0.024,2.511 0.404,-0.022 0,1.278 1.063,0 c 0.353,0.023 0.624,0.138 0.595,0.596 l -0.02,3.193 0.903,0.022 0,-3.811 c -0.067,-0.448 0.193,-0.636 0.501,-0.786 l 1.467,-0.021 c 0.386,0.049 0.47,0.4 0.498,0.807 l 0,3.789 0.752,0 0,-3.235 c 0.074,-0.215 0.068,-0.472 0.409,-0.554 l 1.697,0 0,-2.49 -7.524,-0.023 0,-1.254"
         style="fill:#b99b23;fill-opacity:1;fill-rule:nonzero;stroke:none"
         id="path82883"
         inkscape:connector-curvature="0" />
      <path
         d="m 182.718,314.543 14.436,0 c 0.466,0 0.841,-0.484 0.841,-1.084 l 0,-18.673 c 0,-0.601 -0.375,-1.084 -0.841,-1.084 l -2.754,0 0.016,1.3 -1.563,0 c -0.346,0 -0.481,0.309 -0.481,0.544 l 0,6.139 c 0,0.462 -0.826,0.516 -0.826,0.013 l 0,-6.696 c 0,-0.445 -0.232,-0.813 -0.58,-0.786 l -1.281,0 c -0.562,0.17 -0.562,0.51 -0.562,0.786 l 0,6.686 c 0,0.455 -0.871,0.557 -0.871,0 l 0,-6.151 c 0,-0.375 -0.268,-0.535 -0.567,-0.535 l -1.103,0 0,-1.3 -3.864,0 c -0.468,0 -0.841,0.483 -0.841,1.084 l 0,18.673 c 0,0.6 0.373,1.084 0.841,1.084"
         style="fill:#e5e5e5;fill-opacity:1;fill-rule:nonzero;stroke:none"
         id="path82885"
         inkscape:connector-curvature="0" />
      <path
         d="m 183.332,313.654 13.143,0 c 0.425,0 0.765,-0.44 0.765,-0.987 l 0,-17 c 0,-0.546 -0.34,-1.414 -0.765,-1.414 l -1.998,0 0.016,1.61 -1.593,0 c -0.313,0 -0.439,0.28 -0.439,0.494 l 0,5.592 c 0,0.419 -1.092,0.467 -1.092,0.012 l 0,-6.098 c 0,-0.405 -0.213,-0.74 -0.527,-0.716 l -1.169,0 c -0.51,0.156 -0.51,0.466 -0.51,0.716 l 0,6.088 c 0,0.414 -1.007,0.505 -1.007,0 l 0,-5.599 c 0,-0.345 -0.242,-0.489 -0.516,-0.489 l -1.214,0 0,-1.61 -3.094,0 c -0.426,0 -0.766,0.868 -0.766,1.414 l 0,17 c 0,0.547 0.34,0.987 0.766,0.987"
         style="fill:#dddddd;fill-opacity:1;fill-rule:nonzero;stroke:none"
         id="path82887"
         inkscape:connector-curvature="0" />
      <path
         d="m 281.327,295.671 c 0.148,0.186 0.387,0.283 0.736,0.269 l 3.237,0.003 c 0.286,0.006 0.577,-0.054 0.722,-0.272 l 0,-2.431 c -0.406,-3.105 -4.312,-3.105 -4.695,0"
         style="fill:#782121;fill-opacity:1;fill-rule:nonzero;stroke:none"
         id="path82889"
         inkscape:connector-curvature="0" />
      <path
         d="m 279.98,306.036 0.617,0 0.003,-2.621 1.635,0 0.012,2.621 2.539,0 0.021,-2.621 1.746,0 -0.023,2.621 0.701,0 0,-10.246 -7.251,0"
         style="fill:#383838;fill-opacity:1;fill-rule:nonzero;stroke:none"
         id="path82891"
         inkscape:connector-curvature="0" />
      <path
         d="m 191.493,321.014 35.1277,0 0,12.5176 -35.1277,0 0,-12.5176 z"
         style="fill:#444444;fill-opacity:1;fill-rule:nonzero;stroke:none"
         id="path82893"
         inkscape:connector-curvature="0" />
      <path
         d="m 192.045,321.012 2.50859,0 0,12.5195 -2.50859,0 0,-12.5195 z"
         style="fill:#3b3b3b;fill-opacity:1;fill-rule:nonzero;stroke:none"
         id="path82895"
         inkscape:connector-curvature="0" />
      <path
         d="m 195.998,321.012 2.50898,0 0,12.5195 -2.50898,0 0,-12.5195 z"
         style="fill:#3b3b3b;fill-opacity:1;fill-rule:nonzero;stroke:none"
         id="path82897"
         inkscape:connector-curvature="0" />
      <path
         d="m 199.951,321.012 2.50703,0 0,12.5195 -2.50703,0 0,-12.5195 z"
         style="fill:#3b3b3b;fill-opacity:1;fill-rule:nonzero;stroke:none"
         id="path82899"
         inkscape:connector-curvature="0" />
      <path
         d="m 203.902,321.012 2.50938,0 0,12.5195 -2.50938,0 0,-12.5195 z"
         style="fill:#3b3b3b;fill-opacity:1;fill-rule:nonzero;stroke:none"
         id="path82901"
         inkscape:connector-curvature="0" />
      <path
         d="m 207.855,321.012 2.50938,0 0,12.5195 -2.50938,0 0,-12.5195 z"
         style="fill:#3b3b3b;fill-opacity:1;fill-rule:nonzero;stroke:none"
         id="path82903"
         inkscape:connector-curvature="0" />
      <path
         d="m 211.808,321.012 2.50938,0 0,12.5195 -2.50938,0 0,-12.5195 z"
         style="fill:#3b3b3b;fill-opacity:1;fill-rule:nonzero;stroke:none"
         id="path82905"
         inkscape:connector-curvature="0" />
      <path
         d="m 215.763,321.012 2.50898,0 0,12.5195 -2.50898,0 0,-12.5195 z"
         style="fill:#3b3b3b;fill-opacity:1;fill-rule:nonzero;stroke:none"
         id="path82907"
         inkscape:connector-curvature="0" />
      <path
         d="m 219.715,321.012 2.50898,0 0,12.5195 -2.50898,0 0,-12.5195 z"
         style="fill:#3b3b3b;fill-opacity:1;fill-rule:nonzero;stroke:none"
         id="path82909"
         inkscape:connector-curvature="0" />
      <path
         d="m 223.666,321.012 2.50898,0 0,12.5195 -2.50898,0 0,-12.5195 z"
         style="fill:#3b3b3b;fill-opacity:1;fill-rule:nonzero;stroke:none"
         id="path82911"
         inkscape:connector-curvature="0" />
      <path
         d="m 136.216,305.371 0.004,-1.469 -0.527,-0.568 -1.463,-0.017 -0.608,0.558 0,1.496 0.615,0.564 1.434,0.012"
         style="fill:#444444;fill-opacity:1;fill-rule:nonzero;stroke:none"
         id="path82913"
         inkscape:connector-curvature="0" />
      <path
         inkscape:connector-curvature="0"
         id="path82917"
         style="fill:none;stroke:#000000;stroke-width:0.01179919;stroke-linecap:round;stroke-linejoin:round;stroke-miterlimit:4;stroke-opacity:1;stroke-dasharray:none"
         d="m 136.21645,305.37061 0.004,-1.47003 -0.52863,-0.5674 -1.46297,-0.017 -0.60657,0.55739 0,1.49705 0.61456,0.56339 1.435,0.012 0.54462,-0.5754 z" />
      <path
         d="m 136.216,302.749 0.004,-1.472 -0.527,-0.565 -1.463,-0.017 -0.608,0.557 0,1.497 0.615,0.563 1.434,0.012"
         style="fill:#444444;fill-opacity:1;fill-rule:nonzero;stroke:none"
         id="path82919"
         inkscape:connector-curvature="0" />
      <path
         inkscape:connector-curvature="0"
         id="path82923"
         style="fill:none;stroke:#000000;stroke-width:0.01179919;stroke-linecap:round;stroke-linejoin:round;stroke-miterlimit:4;stroke-opacity:1;stroke-dasharray:none"
         d="m 136.21645,302.74778 0.004,-1.47203 -0.52863,-0.5654 -1.46297,-0.017 -0.60657,0.55639 0,1.49805 0.61456,0.56339 1.435,0.012 0.54462,-0.5754 z" />
      <path
         d="m 136.216,300.114 0.004,-1.47 -0.527,-0.567 -1.463,-0.015 -0.608,0.557 0,1.497 0.615,0.562 1.434,0.015"
         style="fill:#444444;fill-opacity:1;fill-rule:nonzero;stroke:none"
         id="path82925"
         inkscape:connector-curvature="0" />
      <path
         inkscape:connector-curvature="0"
         id="path82929"
         style="fill:none;stroke:#000000;stroke-width:0.01179919;stroke-linecap:round;stroke-linejoin:round;stroke-miterlimit:4;stroke-opacity:1;stroke-dasharray:none"
         d="m 136.21645,300.11393 0.004,-1.47003 -0.52863,-0.56839 -1.46297,-0.014 -0.60657,0.55539 0,1.49804 0.61456,0.5614 1.435,0.015 0.54462,-0.57741 z" />
      <path
         d="m 134.575,304.265 0.69141,0 0,0.73711 -0.69141,0 0,-0.73711 z"
         style="fill:#ffcc00;fill-opacity:1;fill-rule:nonzero;stroke:none"
         id="path82931"
         inkscape:connector-curvature="0" />
      <path
         inkscape:connector-curvature="0"
         id="path82935"
         style="fill:none;stroke:#000000;stroke-width:0.01179919;stroke-linecap:round;stroke-linejoin:round;stroke-miterlimit:4;stroke-opacity:1;stroke-dasharray:none"
         d="m 135.26611,305.00135 0,-0.73751 -0.69051,0 0,0.73751 0.69051,0 z" />
      <path
         d="m 134.575,301.639 0.69141,0 0,0.73984 -0.69141,0 0,-0.73984 z"
         style="fill:#ffcc00;fill-opacity:1;fill-rule:nonzero;stroke:none"
         id="path82937"
         inkscape:connector-curvature="0" />
      <path
         inkscape:connector-curvature="0"
         id="path82941"
         style="fill:none;stroke:#000000;stroke-width:0.01179919;stroke-linecap:round;stroke-linejoin:round;stroke-miterlimit:4;stroke-opacity:1;stroke-dasharray:none"
         d="m 135.26611,302.37852 0,-0.73952 -0.69051,0 0,0.73952 0.69051,0 z" />
      <path
         d="m 134.575,299.007 0.69141,0 0,0.73906 -0.69141,0 0,-0.73906 z"
         style="fill:#ffcc00;fill-opacity:1;fill-rule:nonzero;stroke:none"
         id="path82943"
         inkscape:connector-curvature="0" />
      <path
         inkscape:connector-curvature="0"
         id="path82947"
         style="fill:none;stroke:#000000;stroke-width:0.01179919;stroke-linecap:round;stroke-linejoin:round;stroke-miterlimit:4;stroke-opacity:1;stroke-dasharray:none"
         d="m 135.26611,299.74467 0,-0.73851 -0.69051,0 0,0.73851 0.69051,0 z" />
      <path
         d="m 270.948,303.75 0.005,-1.193 -0.43,-0.462 -1.188,-0.011 -0.489,0.452 0,1.216 0.497,0.457 1.163,0.009"
         style="fill:#444444;fill-opacity:1;fill-rule:nonzero;stroke:none"
         id="path82949"
         inkscape:connector-curvature="0" />
      <path
         inkscape:connector-curvature="0"
         id="path82953"
         style="fill:none;stroke:#000000;stroke-width:0.0095767;stroke-linecap:round;stroke-linejoin:round;stroke-miterlimit:4;stroke-opacity:1;stroke-dasharray:none"
         d="m 270.94693,303.74848 0.005,-1.19284 -0.4297,-0.46032 -1.18717,-0.012 -0.48965,0.45132 0,1.21585 0.49765,0.45832 1.16318,0.008 0.44069,-0.46832 z" />
      <path
         d="m 269.618,302.851 0.56016,0 0,0.59922 -0.56016,0 0,-0.59922 z"
         style="fill:#ffcc00;fill-opacity:1;fill-rule:nonzero;stroke:none"
         id="path82955"
         inkscape:connector-curvature="0" />
      <path
         inkscape:connector-curvature="0"
         id="path82959"
         style="fill:none;stroke:#000000;stroke-width:0.0095767;stroke-linecap:round;stroke-linejoin:round;stroke-miterlimit:4;stroke-opacity:1;stroke-dasharray:none"
         d="m 270.17847,303.44927 0,-0.59842 -0.55961,0 0,0.59842 0.55961,0 z" />
      <path
         d="m 270.948,301.621 0.005,-1.194 -0.43,-0.461 -1.188,-0.011 -0.489,0.452 0,1.216 0.497,0.457 1.163,0.009"
         style="fill:#444444;fill-opacity:1;fill-rule:nonzero;stroke:none"
         id="path82961"
         inkscape:connector-curvature="0" />
      <path
         inkscape:connector-curvature="0"
         id="path82965"
         style="fill:none;stroke:#000000;stroke-width:0.0095767;stroke-linecap:round;stroke-linejoin:round;stroke-miterlimit:4;stroke-opacity:1;stroke-dasharray:none"
         d="m 270.94693,301.61999 0.005,-1.19284 -0.4297,-0.46232 -1.18717,-0.011 -0.48965,0.45132 0,1.21685 0.49765,0.45632 1.16318,0.009 0.44069,-0.46732 z" />
      <path
         d="m 269.618,300.722 0.56016,0 0,0.59922 -0.56016,0 0,-0.59922 z"
         style="fill:#ffcc00;fill-opacity:1;fill-rule:nonzero;stroke:none"
         id="path82967"
         inkscape:connector-curvature="0" />
      <path
         inkscape:connector-curvature="0"
         id="path82971"
         style="fill:none;stroke:#000000;stroke-width:0.0095767;stroke-linecap:round;stroke-linejoin:round;stroke-miterlimit:4;stroke-opacity:1;stroke-dasharray:none"
         d="m 270.17847,301.32078 0,-0.59942 -0.55961,0 0,0.59942 0.55961,0 z" />
      <path
         d="m 270.948,299.485 0.005,-1.192 -0.43,-0.463 -1.188,-0.014 -0.489,0.455 0,1.214 0.497,0.458 1.163,0.01"
         style="fill:#444444;fill-opacity:1;fill-rule:nonzero;stroke:none"
         id="path82973"
         inkscape:connector-curvature="0" />
      <path
         inkscape:connector-curvature="0"
         id="path82977"
         style="fill:none;stroke:#000000;stroke-width:0.0095767;stroke-linecap:round;stroke-linejoin:round;stroke-miterlimit:4;stroke-opacity:1;stroke-dasharray:none"
         d="m 270.94693,299.48449 0.005,-1.19383 -0.4297,-0.46133 -1.18717,-0.014 -0.48965,0.45432 0,1.21485 0.49765,0.45732 1.16318,0.01 0.44069,-0.46733 z" />
      <path
         d="m 269.618,298.586 0.56016,0 0,0.59922 -0.56016,0 0,-0.59922 z"
         style="fill:#ffcc00;fill-opacity:1;fill-rule:nonzero;stroke:none"
         id="path82979"
         inkscape:connector-curvature="0" />
      <path
         inkscape:connector-curvature="0"
         id="path82983"
         style="fill:none;stroke:#000000;stroke-width:0.0095767;stroke-linecap:round;stroke-linejoin:round;stroke-miterlimit:4;stroke-opacity:1;stroke-dasharray:none"
         d="m 270.17847,299.18428 0,-0.59942 -0.55961,0 0,0.59942 0.55961,0 z" />
      <path
         inkscape:connector-curvature="0"
         id="path82987"
         style="fill:none;stroke:#ff0000;stroke-width:0.47883466;stroke-linecap:round;stroke-linejoin:round;stroke-miterlimit:4;stroke-opacity:1;stroke-dasharray:0.95767029, 1.91533857;stroke-dashoffset:0"
         d="m 141.32086,335.60276 0,-15.19263 17.41279,0 0,15.19263 -17.41279,0 z" />
      <path
         inkscape:connector-curvature="0"
         id="path82991"
         style="fill:none;stroke:#ff0000;stroke-width:0.47883466;stroke-linecap:round;stroke-linejoin:round;stroke-miterlimit:4;stroke-opacity:1;stroke-dasharray:0.95767029, 1.91533857;stroke-dashoffset:0"
         d="m 158.6677,320.5142 26.91911,37.04191" />
      <path
         inkscape:connector-curvature="0"
         id="path82995"
         style="fill:none;stroke:#ff0000;stroke-width:0.47883466;stroke-linecap:round;stroke-linejoin:round;stroke-miterlimit:4;stroke-opacity:1;stroke-dasharray:0.95767029, 1.91533857;stroke-dashoffset:0"
         d="m 141.19495,320.56924 -26.66329,37.0249" />
      <path
         d="m 114.44,357.882 15.117,-0.09 56.219,32.377 -0.01,35.479 -71.534,0.15"
         style="fill:#345380;fill-opacity:1;fill-rule:nonzero;stroke:none"
         id="path82997"
         inkscape:connector-curvature="0" />
      <path
         inkscape:connector-curvature="0"
         id="path83001"
         style="fill:none;stroke:#000000;stroke-width:0.0095767;stroke-linecap:round;stroke-linejoin:round;stroke-miterlimit:3.94460011;stroke-opacity:1;stroke-dasharray:none"
         d="m 114.44072,357.88134 15.1164,-0.0901 56.21856,32.37665 -0.009,35.47982 -71.53382,0.1491 0.20785,-67.91551 z" />
      <path
         d="m 179.844,402.125 c -7.662,3.25 -9.209,9.407 -3.458,13.753 2.42,1.83 5.75,3.047 9.364,3.601 l 0.003,-18.98 c -0.062,0.009 -0.121,0.019 -0.183,0.029 -2.011,0.315 -3.955,0.847 -5.726,1.597"
         style="fill:#d4aa00;fill-opacity:1;fill-rule:nonzero;stroke:none"
         id="path83003"
         inkscape:connector-curvature="0" />
      <path
         inkscape:connector-curvature="0"
         id="path83007"
         style="fill:none;stroke:#000000;stroke-width:0.00957675;stroke-linecap:round;stroke-linejoin:round;stroke-miterlimit:3.78769994;stroke-opacity:1;stroke-dasharray:none"
         d="m 179.84379,402.12543 c -7.66173,3.2496 -9.20817,9.40457 -3.45823,13.75245 2.42047,1.82953 5.74952,3.0463 9.3637,3.60075 l 0.003,-18.97978 c -0.0602,0.009 -0.12128,0.0185 -0.18164,0.0279 -2.01193,0.31582 -3.95676,0.84674 -5.7265,1.59864 z" />
      <path
         d="m 184.611,405.729 c -4.155,1.761 -4.994,5.1 -1.877,7.456 0.836,0.633 1.871,1.128 3.019,1.483 l -0.015,-9.351 c -0.387,0.121 -0.764,0.258 -1.127,0.412"
         style="fill:#2b3642;fill-opacity:1;fill-rule:nonzero;stroke:none"
         id="path83009"
         inkscape:connector-curvature="0" />
      <path
         inkscape:connector-curvature="0"
         id="path83013"
         style="fill:none;stroke:#000000;stroke-width:0.00957675;stroke-linecap:round;stroke-linejoin:round;stroke-miterlimit:3.78769994;stroke-opacity:1;stroke-dasharray:none"
         d="m 184.6097,405.7278 c -4.15377,1.76241 -4.99246,5.10023 -1.87632,7.45646 0.8373,0.63202 1.87111,1.12772 3.01827,1.4836 l -0.0142,-9.35185 c -0.3864,0.12189 -0.76313,0.25712 -1.1278,0.41179 z" />
      <path
         d="m 175.608,408.869 c -1.095,0.465 -1.318,1.347 -0.495,1.967 0.823,0.623 2.378,0.751 3.476,0.286 1.095,-0.467 1.317,-1.346 0.493,-1.969 -0.822,-0.621 -2.378,-0.748 -3.474,-0.284"
         style="fill:#2b3642;fill-opacity:1;fill-rule:nonzero;stroke:none"
         id="path83015"
         inkscape:connector-curvature="0" />
      <path
         inkscape:connector-curvature="0"
         id="path83019"
         style="fill:none;stroke:#000000;stroke-width:0.00957675;stroke-linecap:round;stroke-linejoin:round;stroke-miterlimit:3.78769994;stroke-opacity:1;stroke-dasharray:none"
         d="m 175.60858,408.86779 c -1.09638,0.46566 -1.31824,1.34792 -0.49682,1.96794 0.82288,0.62198 2.37898,0.7508 3.47718,0.28566 1.09511,-0.46576 1.3177,-1.34575 0.49244,-1.96866 -0.8216,-0.62188 -2.37769,-0.74812 -3.4728,-0.28494 z" />
      <path
         d="m 180.287,403.085 c -1.094,0.465 -1.318,1.345 -0.492,1.968 0.822,0.622 2.378,0.749 3.474,0.284 1.095,-0.466 1.317,-1.348 0.495,-1.969 -0.821,-0.62 -2.378,-0.749 -3.477,-0.283"
         style="fill:#2b3642;fill-opacity:1;fill-rule:nonzero;stroke:none"
         id="path83021"
         inkscape:connector-curvature="0" />
      <path
         inkscape:connector-curvature="0"
         id="path83025"
         style="fill:none;stroke:#000000;stroke-width:0.00957675;stroke-linecap:round;stroke-linejoin:round;stroke-miterlimit:3.78769994;stroke-opacity:1;stroke-dasharray:none"
         d="m 180.28754,403.08394 c -1.09638,0.46565 -1.31824,1.34533 -0.49353,1.96784 0.82343,0.62239 2.37824,0.74852 3.47463,0.28545 1.09565,-0.46535 1.31696,-1.34803 0.49553,-1.97063 -0.82233,-0.61898 -2.37897,-0.74822 -3.47663,-0.28266 z" />
      <path
         d="m 180.382,414.643 c -1.097,0.466 -1.318,1.345 -0.494,1.968 0.823,0.622 2.379,0.752 3.475,0.285 1.095,-0.466 1.317,-1.346 0.495,-1.968 -0.826,-0.622 -2.379,-0.75 -3.476,-0.285"
         style="fill:#2b3642;fill-opacity:1;fill-rule:nonzero;stroke:none"
         id="path83027"
         inkscape:connector-curvature="0" />
      <path
         inkscape:connector-curvature="0"
         id="path83031"
         style="fill:none;stroke:#000000;stroke-width:0.00957675;stroke-linecap:round;stroke-linejoin:round;stroke-miterlimit:3.78769994;stroke-opacity:1;stroke-dasharray:none"
         d="m 180.38033,414.64161 c -1.09511,0.46576 -1.31697,1.34544 -0.49226,1.96794 0.8227,0.62271 2.37825,0.75111 3.47445,0.28618 1.09528,-0.46649 1.31769,-1.34575 0.49499,-1.96846 -0.82489,-0.62178 -2.37825,-0.75111 -3.47718,-0.28566 z" />
      <path
         d="m 185.679,405.234 c -0.625,0.202 -2.63,0.694 -4.108,2.731 0.881,1.364 3.043,2.368 4.13,2.626"
         style="fill:#ffffff;fill-opacity:1;fill-rule:nonzero;stroke:none"
         id="path83033"
         inkscape:connector-curvature="0" />
      <path
         inkscape:connector-curvature="0"
         id="path83037"
         style="fill:none;stroke:#000000;stroke-width:0.0095767;stroke-linecap:round;stroke-linejoin:round;stroke-miterlimit:3.76839995;stroke-opacity:1;stroke-dasharray:none"
         d="m 185.67775,405.23246 c -0.62356,0.20215 -2.62916,0.69449 -4.10712,2.73192 0.88038,1.36295 3.04386,2.36665 4.1311,2.62483 l -0.024,-5.35675 z" />
      <path
         d="m 129.496,357.757 4.369,-0.056 51.715,29.893 0.025,2.613"
         style="fill:#354252;fill-opacity:1;fill-rule:nonzero;stroke:none"
         id="path83039"
         inkscape:connector-curvature="0" />
      <path
         inkscape:connector-curvature="0"
         id="path83043"
         style="fill:none;stroke:#000000;stroke-width:0.0095767;stroke-linecap:round;stroke-linejoin:round;stroke-miterlimit:3.94460011;stroke-opacity:1;stroke-dasharray:none"
         d="m 129.49616,357.75625 4.36993,-0.057 51.71473,29.89291 0.025,2.61383 -56.10964,-32.4497 z" />
      <path
         d="m 151.327,359.56 0,4.696 1.335,0 c 0.406,-0.002 0.726,-0.102 0.965,-0.299 0.236,-0.201 0.355,-0.458 0.357,-0.777 -0.002,-0.265 -0.076,-0.498 -0.217,-0.692 -0.146,-0.199 -0.341,-0.339 -0.593,-0.42 l 0,-0.013 c 0.314,-0.039 0.568,-0.159 0.756,-0.359 0.19,-0.205 0.283,-0.466 0.286,-0.786 -0.003,-0.406 -0.146,-0.731 -0.432,-0.978 -0.288,-0.249 -0.652,-0.372 -1.09,-0.372 l -1.367,0 z m 0.55,4.199 0,-1.516 0.562,0 c 0.299,-0.003 0.536,0.07 0.711,0.217 0.17,0.144 0.257,0.347 0.259,0.613 -0.002,0.454 -0.301,0.683 -0.898,0.686 l -0.634,0 z m 0,-2.013 0,-1.689 0.747,0 c 0.321,0 0.571,0.076 0.75,0.23 0.176,0.149 0.264,0.36 0.267,0.629 -0.003,0.552 -0.379,0.829 -1.13,0.83 l -0.634,0 z m 5.822,-2.186 -2.827,0 0,0.476 1.369,1.374 c 0.348,0.347 0.595,0.638 0.745,0.872 0.148,0.232 0.222,0.481 0.225,0.747 -0.003,0.269 -0.079,0.476 -0.232,0.626 -0.156,0.149 -0.377,0.224 -0.661,0.226 -0.42,-0.002 -0.822,-0.18 -1.202,-0.539 l 0,0.564 c 0.363,0.283 0.788,0.426 1.278,0.428 0.415,-0.002 0.744,-0.117 0.987,-0.341 0.239,-0.23 0.36,-0.534 0.36,-0.913 0,-0.303 -0.084,-0.596 -0.249,-0.882 -0.167,-0.287 -0.463,-0.645 -0.892,-1.069 l -1.084,-1.072 0,-0.014 2.183,0 0,-0.483 z m 1.086,0 0,4.696 1.335,0 c 0.407,-0.002 0.726,-0.102 0.964,-0.299 0.237,-0.201 0.355,-0.458 0.358,-0.777 -0.003,-0.265 -0.074,-0.498 -0.217,-0.692 -0.145,-0.199 -0.341,-0.339 -0.594,-0.42 l 0,-0.013 c 0.315,-0.039 0.567,-0.159 0.757,-0.359 0.19,-0.205 0.283,-0.466 0.285,-0.786 -0.002,-0.406 -0.144,-0.731 -0.431,-0.978 -0.288,-0.249 -0.653,-0.372 -1.09,-0.372 l -1.367,0 z m 0.55,4.199 0,-1.516 0.563,0 c 0.298,-0.003 0.535,0.07 0.71,0.217 0.171,0.144 0.257,0.347 0.259,0.613 -0.002,0.454 -0.301,0.683 -0.9,0.686 l -0.632,0 z m 0,-2.013 0,-1.689 0.747,0 c 0.321,0 0.57,0.076 0.75,0.23 0.175,0.149 0.264,0.36 0.267,0.629 -0.003,0.552 -0.379,0.829 -1.132,0.83 l -0.632,0 z m 5.462,-3.161 -2.78,0 0,0.392 2.78,0 0,-0.392 z m 4.253,0.975 -0.608,0 -0.497,1.316 -1.99,0 -0.467,-1.316 -0.611,0 1.798,4.696 0.568,0 1.807,-4.696 z m -1.285,1.81 -0.737,2.003 c -0.025,0.063 -0.049,0.168 -0.072,0.313 l -0.012,0 c -0.024,-0.133 -0.049,-0.238 -0.077,-0.313 l -0.729,-2.003 1.627,0 z m 5.403,0.089 c -0.002,-1.32 -0.595,-1.977 -1.783,-1.98 -1.14,0.003 -1.71,0.636 -1.707,1.905 l 0,2.872 0.549,0 0,-2.838 c -0.002,-0.963 0.403,-1.445 1.217,-1.442 0.783,-0.003 1.176,0.463 1.176,1.394 l 0,2.886 0.548,0 0,-2.797 z m 1.174,-1.899 0,4.696 1.296,0 c 1.649,-0.002 2.477,-0.764 2.479,-2.289 -0.002,-0.726 -0.231,-1.308 -0.688,-1.749 -0.461,-0.439 -1.076,-0.658 -1.845,-0.658 l -1.242,0 z m 0.548,4.199 0,-3.702 0.701,0 c 0.614,0 1.092,0.164 1.434,0.494 0.342,0.33 0.515,0.798 0.515,1.401 0,1.204 -0.641,1.804 -1.915,1.807 l -0.735,0 z m 5.155,0.497 0,-0.471 -0.459,0 0,-3.753 0.459,0 0,-0.472 -1.466,0 0,0.472 0.459,0 0,3.753 -0.459,0 0,0.471 1.466,0 z m 2.663,-4.777 c -0.665,0.003 -1.198,0.221 -1.598,0.658 -0.399,0.438 -0.597,1.008 -0.597,1.715 0,0.753 0.202,1.357 0.609,1.805 0.406,0.45 0.96,0.675 1.666,0.677 0.645,-0.002 1.167,-0.219 1.564,-0.655 0.396,-0.436 0.592,-1.008 0.594,-1.712 -0.002,-0.768 -0.206,-1.374 -0.609,-1.818 -0.407,-0.444 -0.949,-0.667 -1.629,-0.67 z m 0.04,4.356 c -0.493,-10e-4 -0.895,-0.18 -1.201,-0.533 -0.309,-0.357 -0.461,-0.825 -0.461,-1.401 0,-0.58 0.15,-1.046 0.449,-1.397 0.3,-0.355 0.69,-0.531 1.173,-0.528 0.514,-0.003 0.921,0.165 1.217,0.503 0.296,0.336 0.444,0.806 0.446,1.412 -0.002,0.618 -0.144,1.098 -0.433,1.438 -0.289,0.336 -0.685,0.505 -1.19,0.506"
         style="fill:#000000;fill-opacity:1;fill-rule:nonzero;stroke:none"
         id="path83045"
         inkscape:connector-curvature="0" />
      <path
         d="m 182.064,378.555 0,0.321 -0.493,0 0,3.782 -0.954,-0.476 0.063,-0.357 0.512,0.284 0,-3.238 -0.536,0 0,-0.316"
         style="fill:#000000;fill-opacity:1;fill-rule:nonzero;stroke:none"
         id="path83047"
         inkscape:connector-curvature="0" />
      <path
         inkscape:connector-curvature="0"
         id="path83051"
         style="fill:none;stroke:#000000;stroke-width:0.57460254;stroke-linecap:round;stroke-linejoin:round;stroke-miterlimit:4;stroke-opacity:1;stroke-dasharray:none"
         d="m 116.70613,398.04844 0.003,-15.70198 28.511,-16.52256 37.18192,21.55307 0,15.52887 -28.62093,16.56258 -0.15189,-0.0891 -1.47696,0.8516 -6.2736,-3.63054 0.003,-1.7052 -1.55591,-0.89963 -1.48196,0.8506 -6.2806,-3.62754 0,-1.69719 -1.5629,-0.91664 -1.47996,0.8566 -6.26961,-3.62753 0.003,-1.7052 -1.63185,-0.92565 -1.53093,0.77455 -6.11571,-3.53147 0.004,-1.66117 -1.27311,-0.73651 z" />
      <path
         d="m 182.423,402.91 -1.643,-0.953 0,1.724 -6.277,-3.633 -0.003,-1.713 -3.032,-1.752 0,1.719 -6.288,-3.631 0.009,-1.716 -3.041,-1.761 0,1.717 -6.252,-3.598 -0.029,-1.726 -3.074,-1.779 0.029,1.73 -6.274,-3.624 0.002,-1.725 -1.322,-0.758 -0.003,-15.638 37.189,21.59"
         style="fill:#424242;fill-opacity:1;fill-rule:nonzero;stroke:none"
         id="path83053"
         inkscape:connector-curvature="0" />
      <path
         inkscape:connector-curvature="0"
         id="path83057"
         style="fill:none;stroke:#000000;stroke-width:0.0095767;stroke-linecap:round;stroke-linejoin:round;stroke-miterlimit:3.94460011;stroke-opacity:1;stroke-dasharray:none"
         d="m 182.42303,402.90784 -1.64285,-0.95267 0,1.72521 -6.27759,-3.63454 -0.002,-1.7122 -3.03287,-1.75223 0,1.71921 -6.28759,-3.63054 0.01,-1.7152 -3.04286,-1.76124 0,1.7162 -6.25162,-3.59851 -0.028,-1.72621 -3.07584,-1.77824 0.031,1.72921 -6.2766,-3.62454 0.003,-1.72421 -1.32108,-0.75753 -0.003,-15.63894 37.18891,21.59111 0.009,15.52586 z" />
      <path
         d="m 153.631,419.381 0.148,0.084 28.649,-16.563 -1.648,-0.945 -0.002,1.722 -6.273,-3.619 0.005,-1.72 -3.042,-1.757 -0.007,1.716 -6.276,-3.63 0.004,-1.715 -3.041,-1.76 0,1.717 -6.277,-3.629 0.008,-1.712 -3.086,-1.762 0,1.732 -27.112,15.698 1.569,0.89 -0.002,1.713 6.273,3.622 1.471,-0.859 1.571,0.908 0.001,1.711 6.288,3.63 1.458,-0.863 1.583,0.917 -0.016,1.695 6.28,3.626"
         style="fill:#474747;fill-opacity:1;fill-rule:nonzero;stroke:none"
         id="path83059"
         inkscape:connector-curvature="0" />
      <path
         inkscape:connector-curvature="0"
         id="path83063"
         style="fill:none;stroke:#000000;stroke-width:0.0095767;stroke-linecap:round;stroke-linejoin:round;stroke-miterlimit:3.94460011;stroke-opacity:1;stroke-dasharray:none"
         d="m 153.63123,419.37936 0.1479,0.0841 28.6489,-16.56259 -1.64785,-0.94566 -0.002,1.72221 -6.2736,-3.61954 0.005,-1.7192 -3.04186,-1.75723 -0.008,1.7172 -6.2746,-3.63054 0.005,-1.7152 -3.04286,-1.75923 0,1.7162 -6.2746,-3.62753 0.006,-1.7142 -3.08683,-1.76123 0,1.73121 -27.11098,15.69998 1.56989,0.88862 -0.002,1.7122 6.2736,3.62253 1.46896,-0.8586 1.5709,0.90764 0.001,1.71019 6.28759,3.63054 1.45798,-0.8626 1.58389,0.91664 -0.016,1.69519 6.28059,3.62553 1.47397,-0.84659 z" />
      <path
         d="m 145.879,416.599 6.278,3.629 28.621,-16.549 -6.275,-3.631"
         style="fill:#3b3b3b;fill-opacity:1;fill-rule:nonzero;stroke:none"
         id="path83065"
         inkscape:connector-curvature="0" />
      <path
         inkscape:connector-curvature="0"
         id="path83069"
         style="fill:none;stroke:#000000;stroke-width:0.0095767;stroke-linecap:round;stroke-linejoin:round;stroke-miterlimit:3.94460011;stroke-opacity:1;stroke-dasharray:none"
         d="m 145.87867,416.59741 6.27859,3.62854 28.62093,-16.54857 -6.2756,-3.63154 -28.62392,16.55157 z" />
      <path
         d="m 171.463,398.299 -6.274,-3.621 -28.618,16.539 6.275,3.627"
         style="fill:#3b3b3b;fill-opacity:1;fill-rule:nonzero;stroke:none"
         id="path83071"
         inkscape:connector-curvature="0" />
      <path
         inkscape:connector-curvature="0"
         id="path83075"
         style="fill:none;stroke:#000000;stroke-width:0.0095767;stroke-linecap:round;stroke-linejoin:round;stroke-miterlimit:3.94460011;stroke-opacity:1;stroke-dasharray:none"
         d="m 171.46272,398.29861 -6.2726,-3.62253 -28.61892,16.54057 6.27459,3.62654 28.61693,-16.54458 z" />
      <path
         d="m 174.507,398.345 -0.004,1.7 -28.624,16.554 0.003,-1.699"
         style="fill:#2f2f2f;fill-opacity:1;fill-rule:nonzero;stroke:none"
         id="path83077"
         inkscape:connector-curvature="0" />
      <path
         inkscape:connector-curvature="0"
         id="path83081"
         style="fill:none;stroke:#000000;stroke-width:0.0095767;stroke-linecap:round;stroke-linejoin:round;stroke-miterlimit:3.94460011;stroke-opacity:1;stroke-dasharray:none"
         d="m 174.50758,398.34365 -0.005,1.70018 -28.62392,16.55358 0.003,-1.69918 28.62591,-16.55458 z" />
      <path
         d="m 178.852,391.182 1.148,2.022 -4.525,-2.569 1.128,-0.73"
         style="fill:#404040;fill-opacity:1;fill-rule:nonzero;stroke:none"
         id="path83083"
         inkscape:connector-curvature="0" />
      <path
         inkscape:connector-curvature="0"
         id="path83087"
         style="fill:none;stroke:#000000;stroke-width:0.0095767;stroke-linecap:round;stroke-linejoin:round;stroke-miterlimit:3.94460011;stroke-opacity:1;stroke-dasharray:none"
         d="m 178.85054,391.18164 1.15019,2.02141 -4.52582,-2.5698 1.1282,-0.72951 2.24743,1.2779 z" />
      <path
         d="m 178.857,391.181 -2.252,-1.278 -0.002,-2.737 2.252,1.296"
         style="fill:#232323;fill-opacity:1;fill-rule:nonzero;stroke:none"
         id="path83089"
         inkscape:connector-curvature="0" />
      <path
         inkscape:connector-curvature="0"
         id="path83093"
         style="fill:none;stroke:#000000;stroke-width:0.0095767;stroke-linecap:round;stroke-linejoin:round;stroke-miterlimit:3.94460011;stroke-opacity:1;stroke-dasharray:none"
         d="m 178.85753,391.17963 -2.25142,-1.27789 -0.003,-2.73691 2.25143,1.2959 0.003,2.7189 z" />
      <path
         d="m 176.635,389.913 -1.16,0.722 -0.005,-5.489 1.135,1.972"
         style="fill:#4f4f4f;fill-opacity:1;fill-rule:nonzero;stroke:none"
         id="path83095"
         inkscape:connector-curvature="0" />
      <path
         inkscape:connector-curvature="0"
         id="path83099"
         style="fill:none;stroke:#000000;stroke-width:0.0095767;stroke-linecap:round;stroke-linejoin:round;stroke-miterlimit:3.94460011;stroke-opacity:1;stroke-dasharray:none"
         d="m 176.63609,389.91075 -1.16118,0.7225 -0.006,-5.48984 1.1372,1.97338 0.03,2.79396 z" />
      <path
         d="m 178.855,391.189 1.15,2.013 -0.022,-5.457 -1.131,0.714"
         style="fill:#404040;fill-opacity:1;fill-rule:nonzero;stroke:none"
         id="path83101"
         inkscape:connector-curvature="0" />
      <path
         inkscape:connector-curvature="0"
         id="path83105"
         style="fill:none;stroke:#000000;stroke-width:0.0095767;stroke-linecap:round;stroke-linejoin:round;stroke-miterlimit:3.94460011;stroke-opacity:1;stroke-dasharray:none"
         d="m 178.85454,391.18764 1.15019,2.01241 -0.021,-5.45582 -1.1332,0.7135 0.004,2.72991 z" />
      <path
         d="m 178.854,388.457 1.127,-0.7 -4.528,-2.604 1.174,2.016"
         style="fill:#4f4f4f;fill-opacity:1;fill-rule:nonzero;stroke:none"
         id="path83107"
         inkscape:connector-curvature="0" />
      <path
         inkscape:connector-curvature="0"
         id="path83111"
         style="fill:none;stroke:#000000;stroke-width:0.0095767;stroke-linecap:round;stroke-linejoin:round;stroke-miterlimit:3.94460011;stroke-opacity:1;stroke-dasharray:none"
         d="m 178.85354,388.45573 1.1282,-0.69949 -4.52782,-2.60382 1.17218,2.01641 2.22744,1.2869 z" />
      <path
         d="m 176.629,389.743 0.003,0.178 2.223,1.263 -0.003,-2.725"
         style="fill:#000000;fill-opacity:1;fill-rule:nonzero;stroke:none"
         id="path83113"
         inkscape:connector-curvature="0" />
      <path
         inkscape:connector-curvature="0"
         id="path83117"
         style="fill:none;stroke:#000000;stroke-width:0.0095767;stroke-linecap:round;stroke-linejoin:round;stroke-miterlimit:3.94460011;stroke-opacity:1;stroke-dasharray:none"
         d="m 176.6281,389.74163 0.003,0.17812 2.22345,1.26289 -0.004,-2.72491 -2.22244,1.2839 z" />
      <path
         d="m 178.852,398.299 1.148,2.022 -4.525,-2.569 1.128,-0.73"
         style="fill:#404040;fill-opacity:1;fill-rule:nonzero;stroke:none"
         id="path83119"
         inkscape:connector-curvature="0" />
      <path
         inkscape:connector-curvature="0"
         id="path83123"
         style="fill:none;stroke:#000000;stroke-width:0.0095767;stroke-linecap:round;stroke-linejoin:round;stroke-miterlimit:3.94460011;stroke-opacity:1;stroke-dasharray:none"
         d="m 178.85054,398.29861 1.15019,2.02142 -4.52582,-2.5688 1.1282,-0.72951 2.24743,1.27689 z" />
      <path
         d="m 178.857,398.297 -2.252,-1.277 -0.002,-2.737 2.252,1.296"
         style="fill:#232323;fill-opacity:1;fill-rule:nonzero;stroke:none"
         id="path83125"
         inkscape:connector-curvature="0" />
      <path
         inkscape:connector-curvature="0"
         id="path83129"
         style="fill:none;stroke:#000000;stroke-width:0.0095767;stroke-linecap:round;stroke-linejoin:round;stroke-miterlimit:3.94460011;stroke-opacity:1;stroke-dasharray:none"
         d="m 178.85753,398.29661 -2.25142,-1.27789 -0.003,-2.73792 2.25143,1.29691 0.003,2.7189 z" />
      <path
         d="m 176.635,397.03 -1.16,0.722 -0.005,-5.489 1.135,1.973"
         style="fill:#4f4f4f;fill-opacity:1;fill-rule:nonzero;stroke:none"
         id="path83131"
         inkscape:connector-curvature="0" />
      <path
         inkscape:connector-curvature="0"
         id="path83135"
         style="fill:none;stroke:#000000;stroke-width:0.0095767;stroke-linecap:round;stroke-linejoin:round;stroke-miterlimit:3.94460011;stroke-opacity:1;stroke-dasharray:none"
         d="m 176.63609,397.02873 -1.16118,0.7225 -0.006,-5.48884 1.1372,1.97138 0.03,2.79496 z" />
      <path
         d="m 178.855,398.306 1.15,2.013 -0.022,-5.456 -1.131,0.714"
         style="fill:#404040;fill-opacity:1;fill-rule:nonzero;stroke:none"
         id="path83137"
         inkscape:connector-curvature="0" />
      <path
         inkscape:connector-curvature="0"
         id="path83141"
         style="fill:none;stroke:#000000;stroke-width:0.0095767;stroke-linecap:round;stroke-linejoin:round;stroke-miterlimit:3.94460011;stroke-opacity:1;stroke-dasharray:none"
         d="m 178.85454,398.30462 1.15019,2.01341 -0.021,-5.45682 -1.1332,0.7145 0.004,2.72891 z" />
      <path
         d="m 178.854,395.574 1.127,-0.699 -4.528,-2.605 1.174,2.018"
         style="fill:#4f4f4f;fill-opacity:1;fill-rule:nonzero;stroke:none"
         id="path83143"
         inkscape:connector-curvature="0" />
      <path
         inkscape:connector-curvature="0"
         id="path83147"
         style="fill:none;stroke:#000000;stroke-width:0.0095767;stroke-linecap:round;stroke-linejoin:round;stroke-miterlimit:3.94460011;stroke-opacity:1;stroke-dasharray:none"
         d="m 178.85354,395.57271 1.1282,-0.69849 -4.52782,-2.60482 1.17218,2.01641 2.22744,1.2869 z" />
      <path
         d="m 176.629,396.862 0.003,0.177 2.223,1.263 -0.003,-2.725"
         style="fill:#000000;fill-opacity:1;fill-rule:nonzero;stroke:none"
         id="path83149"
         inkscape:connector-curvature="0" />
      <path
         inkscape:connector-curvature="0"
         id="path83153"
         style="fill:none;stroke:#000000;stroke-width:0.0095767;stroke-linecap:round;stroke-linejoin:round;stroke-miterlimit:3.94460011;stroke-opacity:1;stroke-dasharray:none"
         d="m 176.6281,396.86061 0.003,0.17612 2.22345,1.26389 -0.004,-2.72491 -2.22244,1.2849 z" />
      <path
         d="m 169.461,385.759 1.149,2.022 -4.523,-2.569 1.126,-0.731"
         style="fill:#404040;fill-opacity:1;fill-rule:nonzero;stroke:none"
         id="path83155"
         inkscape:connector-curvature="0" />
      <path
         inkscape:connector-curvature="0"
         id="path83159"
         style="fill:none;stroke:#000000;stroke-width:0.0095767;stroke-linecap:round;stroke-linejoin:round;stroke-miterlimit:3.94460011;stroke-opacity:1;stroke-dasharray:none"
         d="m 169.46013,385.75784 1.15019,2.02142 -4.52283,-2.5678 1.12521,-0.73151 2.24743,1.27789 z" />
      <path
         d="m 169.47,385.759 -2.255,-1.28 -0.002,-2.738 2.252,1.297"
         style="fill:#232323;fill-opacity:1;fill-rule:nonzero;stroke:none"
         id="path83161"
         inkscape:connector-curvature="0" />
      <path
         inkscape:connector-curvature="0"
         id="path83165"
         style="fill:none;stroke:#000000;stroke-width:0.0095767;stroke-linecap:round;stroke-linejoin:round;stroke-miterlimit:3.94460011;stroke-opacity:1;stroke-dasharray:none"
         d="m 169.47012,385.75784 -2.25442,-1.28089 -0.003,-2.73592 2.25242,1.29491 0.005,2.7219 z" />
      <path
         d="m 167.245,384.488 -1.16,0.724 -0.005,-5.489 1.135,1.972"
         style="fill:#4f4f4f;fill-opacity:1;fill-rule:nonzero;stroke:none"
         id="path83167"
         inkscape:connector-curvature="0" />
      <path
         inkscape:connector-curvature="0"
         id="path83171"
         style="fill:none;stroke:#000000;stroke-width:0.0095767;stroke-linecap:round;stroke-linejoin:round;stroke-miterlimit:3.94460011;stroke-opacity:1;stroke-dasharray:none"
         d="m 167.24568,384.48795 -1.16119,0.72351 -0.005,-5.48984 1.1362,1.97238 0.03,2.79395 z" />
      <path
         d="m 169.468,385.766 1.147,2.012 -0.022,-5.456 -1.13,0.713"
         style="fill:#404040;fill-opacity:1;fill-rule:nonzero;stroke:none"
         id="path83173"
         inkscape:connector-curvature="0" />
      <path
         inkscape:connector-curvature="0"
         id="path83177"
         style="fill:none;stroke:#000000;stroke-width:0.0095767;stroke-linecap:round;stroke-linejoin:round;stroke-miterlimit:3.94460011;stroke-opacity:1;stroke-dasharray:none"
         d="m 169.46712,385.76485 1.14819,2.0124 -0.022,-5.45681 -1.13121,0.7145 0.005,2.72991 z" />
      <path
         d="m 169.465,383.035 1.128,-0.702 -4.53,-2.604 1.174,2.017"
         style="fill:#4f4f4f;fill-opacity:1;fill-rule:nonzero;stroke:none"
         id="path83179"
         inkscape:connector-curvature="0" />
      <path
         inkscape:connector-curvature="0"
         id="path83183"
         style="fill:none;stroke:#000000;stroke-width:0.0095767;stroke-linecap:round;stroke-linejoin:round;stroke-miterlimit:3.94460011;stroke-opacity:1;stroke-dasharray:none"
         d="m 169.46512,383.03494 1.12821,-0.70249 -4.52882,-2.60383 1.17217,2.01641 2.22844,1.28991 z" />
      <path
         d="m 167.239,384.323 0.003,0.175 2.223,1.266 -0.004,-2.729"
         style="fill:#000000;fill-opacity:1;fill-rule:nonzero;stroke:none"
         id="path83185"
         inkscape:connector-curvature="0" />
      <path
         inkscape:connector-curvature="0"
         id="path83189"
         style="fill:none;stroke:#000000;stroke-width:0.0095767;stroke-linecap:round;stroke-linejoin:round;stroke-miterlimit:3.94460011;stroke-opacity:1;stroke-dasharray:none"
         d="m 167.23968,384.32084 0.002,0.17612 2.22344,1.26488 -0.005,-2.7269 -2.22045,1.2859 z" />
      <path
         d="m 169.461,392.877 1.149,2.021 -4.523,-2.569 1.126,-0.731"
         style="fill:#404040;fill-opacity:1;fill-rule:nonzero;stroke:none"
         id="path83191"
         inkscape:connector-curvature="0" />
      <path
         inkscape:connector-curvature="0"
         id="path83195"
         style="fill:none;stroke:#000000;stroke-width:0.0095767;stroke-linecap:round;stroke-linejoin:round;stroke-miterlimit:3.94460011;stroke-opacity:1;stroke-dasharray:none"
         d="m 169.46013,392.87582 1.15019,2.02141 -4.52283,-2.56879 1.12521,-0.73151 2.24743,1.27889 z" />
      <path
         d="m 169.47,392.877 -2.255,-1.281 -0.002,-2.736 2.252,1.296"
         style="fill:#232323;fill-opacity:1;fill-rule:nonzero;stroke:none"
         id="path83197"
         inkscape:connector-curvature="0" />
      <path
         inkscape:connector-curvature="0"
         id="path83201"
         style="fill:none;stroke:#000000;stroke-width:0.0095767;stroke-linecap:round;stroke-linejoin:round;stroke-miterlimit:3.94460011;stroke-opacity:1;stroke-dasharray:none"
         d="m 169.47012,392.87582 -2.25442,-1.2809 -0.003,-2.73691 2.25242,1.29691 0.005,2.7209 z" />
      <path
         d="m 167.245,391.607 -1.16,0.722 -0.005,-5.49 1.135,1.973"
         style="fill:#4f4f4f;fill-opacity:1;fill-rule:nonzero;stroke:none"
         id="path83203"
         inkscape:connector-curvature="0" />
      <path
         inkscape:connector-curvature="0"
         id="path83207"
         style="fill:none;stroke:#000000;stroke-width:0.0095767;stroke-linecap:round;stroke-linejoin:round;stroke-miterlimit:3.94460011;stroke-opacity:1;stroke-dasharray:none"
         d="m 167.24568,391.60593 -1.16119,0.72251 -0.005,-5.48884 1.1362,1.97138 0.03,2.79495 z" />
      <path
         d="m 169.468,392.884 1.147,2.012 -0.022,-5.457 -1.13,0.715"
         style="fill:#404040;fill-opacity:1;fill-rule:nonzero;stroke:none"
         id="path83209"
         inkscape:connector-curvature="0" />
      <path
         inkscape:connector-curvature="0"
         id="path83213"
         style="fill:none;stroke:#000000;stroke-width:0.0095767;stroke-linecap:round;stroke-linejoin:round;stroke-miterlimit:3.94460011;stroke-opacity:1;stroke-dasharray:none"
         d="m 169.46712,392.88182 1.14819,2.01241 -0.022,-5.45681 -1.13121,0.7145 0.005,2.7299 z" />
      <path
         d="m 169.465,390.154 1.128,-0.702 -4.53,-2.606 1.174,2.018"
         style="fill:#4f4f4f;fill-opacity:1;fill-rule:nonzero;stroke:none"
         id="path83215"
         inkscape:connector-curvature="0" />
      <path
         inkscape:connector-curvature="0"
         id="path83219"
         style="fill:none;stroke:#000000;stroke-width:0.0095767;stroke-linecap:round;stroke-linejoin:round;stroke-miterlimit:3.94460011;stroke-opacity:1;stroke-dasharray:none"
         d="m 169.46512,390.15192 1.12821,-0.7015 -4.52882,-2.60482 1.17217,2.01741 2.22844,1.28891 z" />
      <path
         d="m 167.239,391.44 0.003,0.175 2.223,1.266 -0.004,-2.727"
         style="fill:#000000;fill-opacity:1;fill-rule:nonzero;stroke:none"
         id="path83221"
         inkscape:connector-curvature="0" />
      <path
         inkscape:connector-curvature="0"
         id="path83225"
         style="fill:none;stroke:#000000;stroke-width:0.0095767;stroke-linecap:round;stroke-linejoin:round;stroke-miterlimit:3.94460011;stroke-opacity:1;stroke-dasharray:none"
         d="m 167.23968,391.43882 0.002,0.17512 2.22344,1.26588 -0.005,-2.7279 -2.22045,1.2869 z" />
      <path
         d="m 160.152,380.408 1.15,2.024 -4.524,-2.569 1.126,-0.73"
         style="fill:#404040;fill-opacity:1;fill-rule:nonzero;stroke:none"
         id="path83227"
         inkscape:connector-curvature="0" />
      <path
         inkscape:connector-curvature="0"
         id="path83231"
         style="fill:none;stroke:#000000;stroke-width:0.0095767;stroke-linecap:round;stroke-linejoin:round;stroke-miterlimit:3.94460011;stroke-opacity:1;stroke-dasharray:none"
         d="m 160.15265,380.4071 1.1492,2.02441 -4.52383,-2.56979 1.12721,-0.73051 2.24742,1.27589 z" />
      <path
         d="m 160.159,380.408 -2.252,-1.28 -0.003,-2.737 2.253,1.298"
         style="fill:#232323;fill-opacity:1;fill-rule:nonzero;stroke:none"
         id="path83233"
         inkscape:connector-curvature="0" />
      <path
         inkscape:connector-curvature="0"
         id="path83237"
         style="fill:none;stroke:#000000;stroke-width:0.0095767;stroke-linecap:round;stroke-linejoin:round;stroke-miterlimit:3.94460011;stroke-opacity:1;stroke-dasharray:none"
         d="m 160.15965,380.4071 -2.25242,-1.2789 -0.002,-2.73791 2.25142,1.29791 0.003,2.7189 z" />
      <path
         d="m 157.937,379.138 -1.162,0.722 -0.004,-5.485 1.136,1.971"
         style="fill:#4f4f4f;fill-opacity:1;fill-rule:nonzero;stroke:none"
         id="path83239"
         inkscape:connector-curvature="0" />
      <path
         inkscape:connector-curvature="0"
         id="path83243"
         style="fill:none;stroke:#000000;stroke-width:0.0095767;stroke-linecap:round;stroke-linejoin:round;stroke-miterlimit:3.94460011;stroke-opacity:1;stroke-dasharray:none"
         d="m 157.93721,379.13621 -1.16219,0.72251 -0.003,-5.48484 1.1352,1.97138 0.03,2.79095 z" />
      <path
         d="m 160.157,380.418 1.149,2.011 -0.021,-5.455 -1.131,0.713"
         style="fill:#404040;fill-opacity:1;fill-rule:nonzero;stroke:none"
         id="path83245"
         inkscape:connector-curvature="0" />
      <path
         inkscape:connector-curvature="0"
         id="path83249"
         style="fill:none;stroke:#000000;stroke-width:0.0095767;stroke-linecap:round;stroke-linejoin:round;stroke-miterlimit:3.94460011;stroke-opacity:1;stroke-dasharray:none"
         d="m 160.15665,380.41611 1.15019,2.0124 -0.021,-5.45581 -1.13121,0.71249 0.002,2.73092 z" />
      <path
         d="m 160.157,377.684 1.128,-0.699 -4.53,-2.604 1.174,2.017"
         style="fill:#4f4f4f;fill-opacity:1;fill-rule:nonzero;stroke:none"
         id="path83251"
         inkscape:connector-curvature="0" />
      <path
         inkscape:connector-curvature="0"
         id="path83255"
         style="fill:none;stroke:#000000;stroke-width:0.0095767;stroke-linecap:round;stroke-linejoin:round;stroke-miterlimit:3.94460011;stroke-opacity:1;stroke-dasharray:none"
         d="m 160.15665,377.68319 1.12921,-0.70049 -4.53082,-2.60382 1.17317,2.01841 2.22844,1.2859 z" />
      <path
         d="m 157.931,378.972 0.002,0.175 2.224,1.266 -0.005,-2.726"
         style="fill:#000000;fill-opacity:1;fill-rule:nonzero;stroke:none"
         id="path83257"
         inkscape:connector-curvature="0" />
      <path
         inkscape:connector-curvature="0"
         id="path83261"
         style="fill:none;stroke:#000000;stroke-width:0.0095767;stroke-linecap:round;stroke-linejoin:round;stroke-miterlimit:3.94460011;stroke-opacity:1;stroke-dasharray:none"
         d="m 157.93021,378.97009 0.003,0.17613 2.22344,1.26488 -0.004,-2.72591 -2.22244,1.2849 z" />
      <path
         d="m 160.152,387.525 1.15,2.025 -4.524,-2.571 1.126,-0.731"
         style="fill:#404040;fill-opacity:1;fill-rule:nonzero;stroke:none"
         id="path83263"
         inkscape:connector-curvature="0" />
      <path
         inkscape:connector-curvature="0"
         id="path83267"
         style="fill:none;stroke:#000000;stroke-width:0.0095767;stroke-linecap:round;stroke-linejoin:round;stroke-miterlimit:3.94460011;stroke-opacity:1;stroke-dasharray:none"
         d="m 160.15265,387.52408 1.1492,2.02441 -4.52383,-2.5718 1.12721,-0.72951 2.24742,1.2769 z" />
      <path
         d="m 160.159,387.525 -2.252,-1.28 -0.003,-2.737 2.253,1.298"
         style="fill:#232323;fill-opacity:1;fill-rule:nonzero;stroke:none"
         id="path83269"
         inkscape:connector-curvature="0" />
      <path
         inkscape:connector-curvature="0"
         id="path83273"
         style="fill:none;stroke:#000000;stroke-width:0.0095767;stroke-linecap:round;stroke-linejoin:round;stroke-miterlimit:3.94460011;stroke-opacity:1;stroke-dasharray:none"
         d="m 160.15965,387.52408 -2.25242,-1.2799 -0.002,-2.73691 2.25142,1.29791 0.003,2.7189 z" />
      <path
         d="m 157.937,386.255 -1.162,0.724 -0.004,-5.49 1.136,1.975"
         style="fill:#4f4f4f;fill-opacity:1;fill-rule:nonzero;stroke:none"
         id="path83275"
         inkscape:connector-curvature="0" />
      <path
         inkscape:connector-curvature="0"
         id="path83279"
         style="fill:none;stroke:#000000;stroke-width:0.0095767;stroke-linecap:round;stroke-linejoin:round;stroke-miterlimit:3.94460011;stroke-opacity:1;stroke-dasharray:none"
         d="m 157.93721,386.25319 -1.16219,0.7235 -0.003,-5.48984 1.1352,1.97539 0.03,2.79095 z" />
      <path
         d="m 160.157,387.535 1.149,2.013 -0.021,-5.457 -1.131,0.713"
         style="fill:#404040;fill-opacity:1;fill-rule:nonzero;stroke:none"
         id="path83281"
         inkscape:connector-curvature="0" />
      <path
         inkscape:connector-curvature="0"
         id="path83285"
         style="fill:none;stroke:#000000;stroke-width:0.0095767;stroke-linecap:round;stroke-linejoin:round;stroke-miterlimit:3.94460011;stroke-opacity:1;stroke-dasharray:none"
         d="m 160.15665,387.53408 1.15019,2.01241 -0.021,-5.45682 -1.13121,0.7135 0.002,2.73091 z" />
      <path
         d="m 160.157,384.802 1.128,-0.699 -4.53,-2.604 1.174,2.016"
         style="fill:#4f4f4f;fill-opacity:1;fill-rule:nonzero;stroke:none"
         id="path83287"
         inkscape:connector-curvature="0" />
      <path
         inkscape:connector-curvature="0"
         id="path83291"
         style="fill:none;stroke:#000000;stroke-width:0.0095767;stroke-linecap:round;stroke-linejoin:round;stroke-miterlimit:3.94460011;stroke-opacity:1;stroke-dasharray:none"
         d="m 160.15665,384.80017 1.12921,-0.69849 -4.53082,-2.60382 1.17317,2.01641 2.22844,1.2859 z" />
      <path
         d="m 157.931,386.089 0.002,0.175 2.224,1.266 -0.005,-2.726"
         style="fill:#000000;fill-opacity:1;fill-rule:nonzero;stroke:none"
         id="path83293"
         inkscape:connector-curvature="0" />
      <path
         inkscape:connector-curvature="0"
         id="path83297"
         style="fill:none;stroke:#000000;stroke-width:0.0095767;stroke-linecap:round;stroke-linejoin:round;stroke-miterlimit:3.94460011;stroke-opacity:1;stroke-dasharray:none"
         d="m 157.93021,386.08707 0.003,0.17613 2.22344,1.26488 -0.004,-2.72491 -2.22244,1.2839 z" />
      <path
         d="m 165.192,392.97 -0.005,1.701 -28.623,16.553 0.004,-1.699"
         style="fill:#2f2f2f;fill-opacity:1;fill-rule:nonzero;stroke:none"
         id="path83299"
         inkscape:connector-curvature="0" />
      <path
         inkscape:connector-curvature="0"
         id="path83303"
         style="fill:none;stroke:#000000;stroke-width:0.0095767;stroke-linecap:round;stroke-linejoin:round;stroke-miterlimit:3.94460011;stroke-opacity:1;stroke-dasharray:none"
         d="m 165.19212,392.96789 -0.005,1.70219 -28.62392,16.55257 0.005,-1.69818 28.62392,-16.55658 z" />
      <path
         d="m 162.145,392.914 -6.274,-3.625 -28.618,16.54 6.276,3.629"
         style="fill:#3b3b3b;fill-opacity:1;fill-rule:nonzero;stroke:none"
         id="path83305"
         inkscape:connector-curvature="0" />
      <path
         inkscape:connector-curvature="0"
         id="path83309"
         style="fill:none;stroke:#000000;stroke-width:0.0095767;stroke-linecap:round;stroke-linejoin:round;stroke-miterlimit:3.94460011;stroke-opacity:1;stroke-dasharray:none"
         d="m 162.14526,392.91185 -6.2726,-3.62354 -28.61893,16.53957 6.2746,3.62754 28.61693,-16.54357 z" />
      <path
         d="m 155.877,387.568 0.011,1.724 -28.633,16.54 -0.002,-1.713"
         style="fill:#2f2f2f;fill-opacity:1;fill-rule:nonzero;stroke:none"
         id="path83311"
         inkscape:connector-curvature="0" />
      <path
         inkscape:connector-curvature="0"
         id="path83315"
         style="fill:none;stroke:#000000;stroke-width:0.0095767;stroke-linecap:round;stroke-linejoin:round;stroke-miterlimit:3.94460011;stroke-opacity:1;stroke-dasharray:none"
         d="m 155.87765,387.56611 0.01,1.7242 -28.63192,16.54057 -0.002,-1.7132 28.62392,-16.55157 z" />
      <path
         d="m 145.223,365.852 0.002,15.567 -28.511,16.635 0,-15.706"
         style="fill:#363636;fill-opacity:1;fill-rule:nonzero;stroke:none"
         id="path83317"
         inkscape:connector-curvature="0" />
      <path
         inkscape:connector-curvature="0"
         id="path83321"
         style="fill:none;stroke:#000000;stroke-width:0.0095767;stroke-linecap:butt;stroke-linejoin:round;stroke-miterlimit:3.94460011;stroke-opacity:1;stroke-dasharray:none"
         d="m 145.22313,365.85092 0.002,15.56689 -28.511,16.63463 0,-15.70598 28.509,-16.49554 z" />
      <path
         d="m 150.858,375.066 1.152,2.022 -4.525,-2.569 1.128,-0.73"
         style="fill:#404040;fill-opacity:1;fill-rule:nonzero;stroke:none"
         id="path83323"
         inkscape:connector-curvature="0" />
      <path
         inkscape:connector-curvature="0"
         id="path83327"
         style="fill:none;stroke:#000000;stroke-width:0.0095767;stroke-linecap:round;stroke-linejoin:round;stroke-miterlimit:3.94460011;stroke-opacity:1;stroke-dasharray:none"
         d="m 150.85817,375.06536 1.1522,2.02142 -4.52583,-2.5688 1.12821,-0.73051 2.24542,1.27789 z" />
      <path
         d="m 150.868,375.066 -2.253,-1.279 -0.004,-2.737 2.254,1.296"
         style="fill:#232323;fill-opacity:1;fill-rule:nonzero;stroke:none"
         id="path83329"
         inkscape:connector-curvature="0" />
      <path
         inkscape:connector-curvature="0"
         id="path83333"
         style="fill:none;stroke:#000000;stroke-width:0.0095767;stroke-linecap:round;stroke-linejoin:round;stroke-miterlimit:3.94460011;stroke-opacity:1;stroke-dasharray:none"
         d="m 150.86717,375.06536 -2.25242,-1.27889 -0.004,-2.73792 2.25442,1.29591 0.002,2.7209 z" />
      <path
         d="m 148.643,373.796 -1.158,0.723 -0.007,-5.489 1.137,1.973"
         style="fill:#4f4f4f;fill-opacity:1;fill-rule:nonzero;stroke:none"
         id="path83335"
         inkscape:connector-curvature="0" />
      <path
         inkscape:connector-curvature="0"
         id="path83339"
         style="fill:none;stroke:#000000;stroke-width:0.0095767;stroke-linecap:round;stroke-linejoin:round;stroke-miterlimit:3.94460011;stroke-opacity:1;stroke-dasharray:none"
         d="m 148.64273,373.79447 -1.15819,0.72351 -0.007,-5.48984 1.1372,1.97338 0.028,2.79295 z" />
      <path
         d="m 150.865,375.073 1.148,2.013 -0.022,-5.457 -1.13,0.714"
         style="fill:#404040;fill-opacity:1;fill-rule:nonzero;stroke:none"
         id="path83341"
         inkscape:connector-curvature="0" />
      <path
         inkscape:connector-curvature="0"
         id="path83345"
         style="fill:none;stroke:#000000;stroke-width:0.0095767;stroke-linecap:round;stroke-linejoin:round;stroke-miterlimit:3.94460011;stroke-opacity:1;stroke-dasharray:none"
         d="m 150.86517,375.07237 1.14719,2.0114 -0.022,-5.45481 -1.12921,0.7125 0.004,2.73091 z" />
      <path
         d="m 150.863,372.343 1.128,-0.702 -4.528,-2.604 1.17,2.017"
         style="fill:#4f4f4f;fill-opacity:1;fill-rule:nonzero;stroke:none"
         id="path83347"
         inkscape:connector-curvature="0" />
      <path
         inkscape:connector-curvature="0"
         id="path83351"
         style="fill:none;stroke:#000000;stroke-width:0.0095767;stroke-linecap:round;stroke-linejoin:round;stroke-miterlimit:3.94460011;stroke-opacity:1;stroke-dasharray:none"
         d="m 150.86217,372.34146 1.12821,-0.70149 -4.52782,-2.60483 1.17018,2.01842 2.22943,1.2879 z" />
      <path
         d="m 148.636,373.631 0.002,0.175 2.227,1.265 -0.004,-2.728"
         style="fill:#000000;fill-opacity:1;fill-rule:nonzero;stroke:none"
         id="path83353"
         inkscape:connector-curvature="0" />
      <path
         inkscape:connector-curvature="0"
         id="path83357"
         style="fill:none;stroke:#000000;stroke-width:0.0095767;stroke-linecap:round;stroke-linejoin:round;stroke-miterlimit:3.94460011;stroke-opacity:1;stroke-dasharray:none"
         d="m 148.63573,373.62936 0.002,0.17512 2.22744,1.26589 -0.004,-2.72891 -2.22544,1.2879 z" />
      <path
         d="m 150.858,382.184 1.152,2.021 -4.525,-2.569 1.128,-0.73"
         style="fill:#404040;fill-opacity:1;fill-rule:nonzero;stroke:none"
         id="path83359"
         inkscape:connector-curvature="0" />
      <path
         inkscape:connector-curvature="0"
         id="path83363"
         style="fill:none;stroke:#000000;stroke-width:0.0095767;stroke-linecap:round;stroke-linejoin:round;stroke-miterlimit:3.94460011;stroke-opacity:1;stroke-dasharray:none"
         d="m 150.85817,382.18234 1.1522,2.02141 -4.52583,-2.56879 1.12821,-0.73051 2.24542,1.27789 z" />
      <path
         d="m 150.868,382.184 -2.253,-1.28 -0.004,-2.737 2.254,1.296"
         style="fill:#232323;fill-opacity:1;fill-rule:nonzero;stroke:none"
         id="path83365"
         inkscape:connector-curvature="0" />
      <path
         inkscape:connector-curvature="0"
         id="path83369"
         style="fill:none;stroke:#000000;stroke-width:0.0095767;stroke-linecap:round;stroke-linejoin:round;stroke-miterlimit:3.94460011;stroke-opacity:1;stroke-dasharray:none"
         d="m 150.86717,382.18234 -2.25242,-1.27989 -0.004,-2.73692 2.25442,1.29591 0.002,2.7209 z" />
      <path
         d="m 148.643,380.914 -1.158,0.722 -0.007,-5.489 1.137,1.973"
         style="fill:#4f4f4f;fill-opacity:1;fill-rule:nonzero;stroke:none"
         id="path83371"
         inkscape:connector-curvature="0" />
      <path
         inkscape:connector-curvature="0"
         id="path83375"
         style="fill:none;stroke:#000000;stroke-width:0.0095767;stroke-linecap:round;stroke-linejoin:round;stroke-miterlimit:3.94460011;stroke-opacity:1;stroke-dasharray:none"
         d="m 148.64273,380.91245 -1.15819,0.72251 -0.007,-5.48884 1.1372,1.97238 0.028,2.79395 z" />
      <path
         d="m 150.865,382.191 1.148,2.012 -0.022,-5.455 -1.13,0.713"
         style="fill:#404040;fill-opacity:1;fill-rule:nonzero;stroke:none"
         id="path83377"
         inkscape:connector-curvature="0" />
      <path
         inkscape:connector-curvature="0"
         id="path83381"
         style="fill:none;stroke:#000000;stroke-width:0.0095767;stroke-linecap:round;stroke-linejoin:round;stroke-miterlimit:3.94460011;stroke-opacity:1;stroke-dasharray:none"
         d="m 150.86517,382.19035 1.14719,2.0104 -0.022,-5.45481 -1.12921,0.7135 0.004,2.73091 z" />
      <path
         d="m 150.863,379.458 1.128,-0.7 -4.528,-2.603 1.17,2.016"
         style="fill:#4f4f4f;fill-opacity:1;fill-rule:nonzero;stroke:none"
         id="path83383"
         inkscape:connector-curvature="0" />
      <path
         inkscape:connector-curvature="0"
         id="path83387"
         style="fill:none;stroke:#000000;stroke-width:0.0095767;stroke-linecap:round;stroke-linejoin:round;stroke-miterlimit:3.94460011;stroke-opacity:1;stroke-dasharray:none"
         d="m 150.86217,379.45643 1.12821,-0.69848 -4.52782,-2.60483 1.17018,2.01741 2.22943,1.2859 z" />
      <path
         d="m 148.636,380.746 0.002,0.177 2.227,1.264 -0.004,-2.726"
         style="fill:#000000;fill-opacity:1;fill-rule:nonzero;stroke:none"
         id="path83389"
         inkscape:connector-curvature="0" />
      <path
         inkscape:connector-curvature="0"
         id="path83393"
         style="fill:none;stroke:#000000;stroke-width:0.0095767;stroke-linecap:round;stroke-linejoin:round;stroke-miterlimit:3.94460011;stroke-opacity:1;stroke-dasharray:none"
         d="m 148.63573,380.74333 0.002,0.17813 2.22744,1.26288 -0.004,-2.7249 -2.22544,1.28389 z" />
      <path
         d="m 152.844,387.53 -6.271,-3.621 -28.619,16.538 6.276,3.628"
         style="fill:#3b3b3b;fill-opacity:1;fill-rule:nonzero;stroke:none"
         id="path83395"
         inkscape:connector-curvature="0" />
      <path
         inkscape:connector-curvature="0"
         id="path83399"
         style="fill:none;stroke:#000000;stroke-width:0.0095767;stroke-linecap:round;stroke-linejoin:round;stroke-miterlimit:3.94460011;stroke-opacity:1;stroke-dasharray:none"
         d="m 152.84378,387.52808 -6.2706,-3.62053 -28.61892,16.53857 6.27459,3.62653 28.61493,-16.54457 z" />
      <path
         d="m 146.545,382.194 0.011,1.724 -28.633,16.539 -0.002,-1.712"
         style="fill:#2f2f2f;fill-opacity:1;fill-rule:nonzero;stroke:none"
         id="path83401"
         inkscape:connector-curvature="0" />
      <path
         inkscape:connector-curvature="0"
         id="path83405"
         style="fill:none;stroke:#000000;stroke-width:0.0095767;stroke-linecap:round;stroke-linejoin:round;stroke-miterlimit:3.94460011;stroke-opacity:1;stroke-dasharray:none"
         d="m 146.5452,382.19235 0.011,1.7242 -28.63291,16.53957 -0.002,-1.7132 28.62392,-16.55057 z" />
      <path
         d="m 146.536,382.191 -1.316,-0.76 -28.506,16.623 1.214,0.702"
         style="fill:#474747;fill-opacity:1;fill-rule:nonzero;stroke:none"
         id="path83407"
         inkscape:connector-curvature="0" />
      <path
         inkscape:connector-curvature="0"
         id="path83411"
         style="fill:none;stroke:#000000;stroke-width:0.0095767;stroke-linecap:round;stroke-linejoin:round;stroke-miterlimit:4;stroke-opacity:1;stroke-dasharray:none"
         d="m 146.53621,382.19035 -1.31608,-0.76054 -28.506,16.62263 1.21414,0.70349 28.60794,-16.56558 z" />
      <path
         d="m 137.185,415.523 0,10.266 -8.995,0 -13.895,-7.903 0.063,-15.559"
         style="fill:#999999;fill-opacity:1;fill-rule:nonzero;stroke:none"
         id="path83413"
         inkscape:connector-curvature="0" />
      <path
         inkscape:connector-curvature="0"
         id="path83417"
         style="fill:none;stroke:#000000;stroke-width:0.0095767;stroke-linecap:butt;stroke-linejoin:miter;stroke-miterlimit:4;stroke-opacity:1;stroke-dasharray:none"
         d="m 137.18477,415.52166 0,10.26618 -8.99469,0 -13.89526,-7.90353 0.063,-15.55888 22.82699,13.19623 z" />
      <path
         d="m 114.293,417.82 0.021,7.852 13.715,0.089"
         style="fill:#cccccc;fill-opacity:1;fill-rule:nonzero;stroke:none"
         id="path83419"
         inkscape:connector-curvature="0" />
      <path
         inkscape:connector-curvature="0"
         id="path83423"
         style="fill:none;stroke:#000000;stroke-width:0.0095767;stroke-linecap:butt;stroke-linejoin:miter;stroke-miterlimit:4;stroke-opacity:1;stroke-dasharray:none"
         d="m 114.29282,417.81827 0.021,7.85249 13.71538,0.0891 -13.73637,-7.94155 z" />
      <path
         inkscape:connector-curvature="0"
         id="path83427"
         style="fill:none;stroke:#ff0000;stroke-width:0.47883466;stroke-linecap:round;stroke-linejoin:round;stroke-miterlimit:4;stroke-opacity:1;stroke-dasharray:0.95767029, 1.91533857;stroke-dashoffset:0"
         d="m 114.35378,425.84388 71.34995,0 0,-68.22772 -71.34995,0 0,68.22772 z" />
    </g>
  </g>
</svg>
