<?xml version="1.0" encoding="UTF-8" standalone="no"?>
<!-- Created with Inkscape (http://www.inkscape.org/) -->

<svg
   xmlns:dc="http://purl.org/dc/elements/1.1/"
   xmlns:cc="http://creativecommons.org/ns#"
   xmlns:rdf="http://www.w3.org/1999/02/22-rdf-syntax-ns#"
   xmlns:svg="http://www.w3.org/2000/svg"
   xmlns="http://www.w3.org/2000/svg"
   xmlns:sodipodi="http://sodipodi.sourceforge.net/DTD/sodipodi-0.dtd"
   xmlns:inkscape="http://www.inkscape.org/namespaces/inkscape"
   width="459.65189"
   height="116.20067"
   id="svg10798"
   version="1.1"
   inkscape:version="0.48.5 r10040"
   sodipodi:docname="dc_in.svg">
  <defs
     id="defs10800" />
  <sodipodi:namedview
     id="base"
     pagecolor="#ffffff"
     bordercolor="#666666"
     borderopacity="1.0"
     inkscape:pageopacity="0.0"
     inkscape:pageshadow="2"
     inkscape:zoom="0.35"
     inkscape:cx="-565.92948"
     inkscape:cy="-29.751141"
     inkscape:document-units="px"
     inkscape:current-layer="layer1"
     showgrid="false"
     fit-margin-top="5"
     fit-margin-left="5"
     fit-margin-right="4.8"
     fit-margin-bottom="5"
     inkscape:window-width="1280"
     inkscape:window-height="778"
     inkscape:window-x="0"
     inkscape:window-y="0"
     inkscape:window-maximized="1" />
  <metadata
     id="metadata10803">
    <rdf:RDF>
      <cc:Work
         rdf:about="">
        <dc:format>image/svg+xml</dc:format>
        <dc:type
           rdf:resource="http://purl.org/dc/dcmitype/StillImage" />
        <dc:title></dc:title>
      </cc:Work>
    </rdf:RDF>
  </metadata>
  <g
     inkscape:label="Layer 1"
     inkscape:groupmode="layer"
     id="layer1"
     transform="translate(-333.78663,-386.41039)">
    <g
       id="g40455"
       transform="matrix(3.1630872,0,0,-3.1630872,-99.597487,1824.4945)">
      <path
         d="m 191.696,419.49 44.25,0 0,33.1219 -44.25,0 0,-33.1219 z"
         style="fill:#222222;fill-opacity:1;fill-rule:nonzero;stroke:none"
         id="path38983"
         inkscape:connector-curvature="0" />
      <path
         d="m 191.28,419.897 44.2496,0 0,33.1219 -44.2496,0 0,-33.1219 z"
         style="fill:#3c3c3c;fill-opacity:1;fill-rule:nonzero;stroke:none"
         id="path38985"
         inkscape:connector-curvature="0" />
      <path
         inkscape:connector-curvature="0"
         id="path38989"
         style="fill:none;stroke:#000000;stroke-width:0.01578438;stroke-linecap:round;stroke-linejoin:round;stroke-miterlimit:4;stroke-opacity:1;stroke-dasharray:none"
         d="m 191.27845,453.01551 44.25048,0 0,-33.12249 -44.25048,0 0,33.12249 z" />
      <path
         d="m 191.28,453.018 41.102,0 C 191.293,438.516 208.594,419.64 191.28,419.897"
         style="fill:#363636;fill-opacity:1;fill-rule:nonzero;stroke:none"
         id="path38991"
         inkscape:connector-curvature="0" />
      <path
         d="m 191.351,452.935 12.674,0 -11.996,-0.685 -0.678,-13.329"
         style="fill:#5e5e5e;fill-opacity:1;fill-rule:nonzero;stroke:none"
         id="path38993"
         inkscape:connector-curvature="0" />
      <path
         inkscape:connector-curvature="0"
         id="path38997"
         style="fill:none;stroke:#66ccff;stroke-width:0.31568864;stroke-linecap:round;stroke-linejoin:round;stroke-miterlimit:4;stroke-opacity:1;stroke-dasharray:none"
         d="m 201.63013,450.3018 c -7.17413,-0.33319 -4.4101,-11.95878 -8.52028,-13.68696 4.05937,-2.58424 1.88022,-13.88868 8.45054,-13.92682" />
      <path
         d="m 224.564,436.539 c 0,7.612 -6.085,13.617 -13.6,13.617 -7.354,0 -13.438,-6.005 -13.438,-13.617 0,-7.61 6.084,-13.78 13.438,-13.78 7.515,0 13.6,6.17 13.6,13.78"
         style="fill:#121212;fill-opacity:1;fill-rule:nonzero;stroke:none"
         id="path38999"
         inkscape:connector-curvature="0" />
      <path
         inkscape:connector-curvature="0"
         id="path39003"
         style="fill:none;stroke:#000000;stroke-width:0.04818624;stroke-linecap:round;stroke-linejoin:round;stroke-miterlimit:4;stroke-opacity:1;stroke-dasharray:none"
         d="m 224.56446,436.53656 c 0,7.61223 -6.08507,13.61571 -13.60097,13.61571 -7.35349,0 -13.43756,-6.00348 -13.43756,-13.61571 0,-7.60922 6.08407,-13.77929 13.43756,-13.77929 7.5159,0 13.60097,6.17007 13.60097,13.77929 z" />
      <path
         d="m 215.198,436.455 c 0,-2.302 -1.86,-4.172 -4.153,-4.172 -2.293,0 -4.153,1.87 -4.153,4.172 0,2.307 1.86,4.175 4.153,4.175 2.293,0 4.153,-1.868 4.153,-4.175"
         style="fill:#b3b3b3;fill-opacity:1;fill-rule:nonzero;stroke:none"
         id="path39005"
         inkscape:connector-curvature="0" />
      <path
         inkscape:connector-curvature="0"
         id="path39009"
         style="fill:none;stroke:#dddddd;stroke-width:0.15097488;stroke-linecap:round;stroke-linejoin:round;stroke-miterlimit:4.37568998;stroke-opacity:1;stroke-dasharray:none"
         d="m 215.19722,436.45326 c 0,-2.30324 -1.85929,-4.17092 -4.15203,-4.17092 -2.29373,0 -4.15303,1.86768 -4.15303,4.17092 0,2.30525 1.8593,4.17393 4.15303,4.17393 2.29274,0 4.15203,-1.86868 4.15203,-4.17393 z" />
      <path
         d="m 207.079,437.179 c -0.261,-1.383 0.219,-2.8 1.261,-3.734 1.043,-0.931 2.498,-1.243 3.83,-0.817 -1.315,-0.268 -2.673,0.101 -3.672,0.995 -1.001,0.896 -1.526,2.212 -1.419,3.556"
         style="fill:#cecece;fill-opacity:1;fill-rule:nonzero;stroke:none"
         id="path39011"
         inkscape:connector-curvature="0" />
      <path
         d="m 213.393,434.42 c -0.089,0.225 -0.065,0.48 0.069,0.683 0.132,0.202 0.353,0.327 0.594,0.335 0.221,0.267 0.35,0.6 0.365,0.948 0.06,-0.377 -0.028,-0.762 -0.249,-1.073 -0.165,-0.369 -0.439,-0.68 -0.779,-0.893"
         style="fill:#ededed;fill-opacity:1;fill-rule:nonzero;stroke:none"
         id="path39013"
         inkscape:connector-curvature="0" />
      <path
         d="m 210.084,439.25 c 0.667,-0.42 1.05,-1.173 0.998,-1.964 -0.051,-0.791 -0.53,-1.488 -1.245,-1.817 -0.034,-0.633 0.245,-1.242 0.746,-1.627 0.499,-0.387 1.155,-0.501 1.755,-0.304 -1.521,-0.536 -3.206,0.099 -4.001,1.511 -0.527,0.757 -0.632,1.734 -0.276,2.585 0.354,0.852 1.118,1.463 2.023,1.616"
         style="fill:#d2d2d2;fill-opacity:1;fill-rule:nonzero;stroke:none"
         id="path39015"
         inkscape:connector-curvature="0" />
      <path
         d="m 197.621,436.463 c 0,-3.378 1.197,-6.44 3.188,-8.801 -4.668,9.494 4.756,24.799 18.726,19.293 -2.314,1.919 -5.196,3.124 -8.369,3.124 -7.514,0 -13.545,-6.006 -13.545,-13.616"
         style="fill:#000000;fill-opacity:1;fill-rule:nonzero;stroke:none"
         id="path39017"
         inkscape:connector-curvature="0" />
      <path
         inkscape:connector-curvature="0"
         id="path39021"
         style="fill:none;stroke:#000000;stroke-width:0.04818624;stroke-linecap:round;stroke-linejoin:round;stroke-miterlimit:4;stroke-opacity:1;stroke-dasharray:none"
         d="m 225.14935,436.54158 c 0,7.94141 -6.34911,14.20581 -14.18885,14.20581 -7.67035,0 -14.02245,-6.2644 -14.02245,-14.20581 0,-7.94241 6.3521,-14.37844 14.02245,-14.37844 7.83974,0 14.18885,6.43603 14.18885,14.37844 z" />
      <path
         inkscape:connector-curvature="0"
         id="path39025"
         style="fill:none;stroke:#66ccff;stroke-width:0.47353148;stroke-linecap:round;stroke-linejoin:round;stroke-miterlimit:4;stroke-opacity:1;stroke-dasharray:none"
         d="m 214.56949,440.62719 c 1.76563,0 1.41191,-2.35342 2.72019,-4.0836 -1.45475,-1.49335 -0.555,-4.32146 -2.55479,-4.32146" />
      <path
         inkscape:connector-curvature="0"
         id="path39029"
         style="fill:none;stroke:#66ccff;stroke-width:0.31568864;stroke-linecap:butt;stroke-linejoin:miter;stroke-miterlimit:4;stroke-opacity:1;stroke-dasharray:none"
         d="m 217.34448,436.54359 31.62599,0" />
      <path
         inkscape:connector-curvature="0"
         id="path39033"
         style="fill:none;stroke:#66ccff;stroke-width:0.31568864;stroke-linecap:round;stroke-linejoin:round;stroke-miterlimit:4;stroke-opacity:1;stroke-dasharray:none"
         d="m 170.35388,436.61484 22.5796,0" />
      <path
         d="m 143.864,437.425 c 0,0.36 -0.069,0.697 -0.205,1.012 -0.139,0.311 -0.325,0.583 -0.557,0.816 -0.234,0.229 -0.509,0.409 -0.824,0.542 -0.315,0.13 -0.649,0.196 -1.002,0.196 -0.36,0 -0.697,-0.066 -1.009,-0.196 -0.315,-0.133 -0.588,-0.313 -0.822,-0.542 -0.234,-0.233 -0.419,-0.505 -0.553,-0.816 -0.136,-0.315 -0.203,-0.652 -0.202,-1.012 -0.001,-0.368 0.068,-0.707 0.206,-1.016 0.135,-0.311 0.321,-0.582 0.555,-0.814 0.234,-0.231 0.507,-0.414 0.822,-0.542 0.312,-0.13 0.649,-0.192 1.009,-0.194 0.353,0.002 0.686,0.064 1.001,0.194 0.312,0.128 0.585,0.311 0.819,0.542 0.232,0.232 0.418,0.503 0.557,0.818 0.136,0.31 0.205,0.648 0.205,1.012 z m -0.5,0 c -0.002,-0.291 -0.057,-0.565 -0.166,-0.82 -0.109,-0.259 -0.259,-0.482 -0.445,-0.67 -0.189,-0.192 -0.409,-0.344 -0.664,-0.454 -0.255,-0.113 -0.525,-0.169 -0.813,-0.168 -0.295,-10e-4 -0.568,0.055 -0.819,0.165 -0.252,0.109 -0.472,0.26 -0.659,0.452 -0.186,0.193 -0.334,0.416 -0.442,0.671 -0.11,0.253 -0.164,0.526 -0.162,0.824 -0.002,0.287 0.052,0.561 0.162,0.82 0.108,0.254 0.256,0.48 0.442,0.672 0.187,0.193 0.407,0.343 0.662,0.453 0.253,0.109 0.528,0.162 0.822,0.165 0.288,-0.003 0.556,-0.059 0.809,-0.169 0.253,-0.111 0.473,-0.262 0.662,-0.455 0.186,-0.192 0.336,-0.415 0.445,-0.671 0.109,-0.254 0.164,-0.528 0.166,-0.815 z m 3.243,-1.975 c 0.075,-0.101 0.165,-0.188 0.27,-0.261 0.103,-0.074 0.214,-0.136 0.333,-0.185 0.118,-0.051 0.238,-0.086 0.363,-0.111 0.125,-0.023 0.249,-0.032 0.373,-0.034 0.291,0.002 0.544,0.056 0.758,0.168 0.211,0.109 0.383,0.252 0.51,0.425 0.127,0.175 0.209,0.366 0.251,0.579 0.036,0.21 0.032,0.417 -0.013,0.619 -0.05,0.204 -0.139,0.388 -0.275,0.553 -0.136,0.166 -0.322,0.292 -0.551,0.379 0.209,0.089 0.378,0.212 0.505,0.366 0.124,0.154 0.205,0.32 0.245,0.5 0.037,0.176 0.032,0.356 -0.011,0.542 -0.047,0.181 -0.128,0.347 -0.248,0.494 -0.121,0.147 -0.278,0.267 -0.471,0.361 -0.193,0.091 -0.418,0.136 -0.678,0.139 -0.232,-0.003 -0.458,-0.048 -0.676,-0.139 -0.22,-0.094 -0.411,-0.226 -0.571,-0.395 l 0.171,-0.386 c 0.136,0.141 0.293,0.257 0.476,0.346 0.182,0.086 0.374,0.131 0.578,0.133 0.187,-0.002 0.355,-0.044 0.505,-0.127 0.149,-0.085 0.265,-0.191 0.351,-0.317 0.084,-0.131 0.13,-0.269 0.138,-0.417 0.004,-0.15 -0.035,-0.289 -0.116,-0.42 -0.086,-0.131 -0.227,-0.243 -0.422,-0.339 -0.197,-0.094 -0.456,-0.15 -0.774,-0.163 l 0,-0.42 c 0.182,0 0.358,-0.012 0.527,-0.037 0.166,-0.025 0.315,-0.074 0.442,-0.149 0.127,-0.077 0.228,-0.183 0.304,-0.317 0.074,-0.137 0.112,-0.314 0.114,-0.532 -0.002,-0.167 -0.03,-0.312 -0.085,-0.435 -0.058,-0.124 -0.136,-0.227 -0.234,-0.312 -0.099,-0.087 -0.216,-0.151 -0.35,-0.192 -0.135,-0.043 -0.282,-0.066 -0.435,-0.065 -0.21,-10e-4 -0.407,0.046 -0.592,0.138 -0.189,0.093 -0.346,0.218 -0.47,0.382 l -0.242,-0.371 z m 4.358,-0.221 c -0.002,0.084 -0.03,0.149 -0.083,0.197 -0.053,0.043 -0.116,0.066 -0.187,0.069 -0.067,-0.003 -0.127,-0.024 -0.18,-0.065 -0.057,-0.044 -0.083,-0.11 -0.081,-0.201 -0.002,-0.088 0.024,-0.154 0.081,-0.197 0.053,-0.043 0.113,-0.064 0.18,-0.066 0.071,0.002 0.134,0.023 0.187,0.064 0.053,0.042 0.081,0.108 0.083,0.199 z m 3.987,4.664 -3.15,0 -0.049,-0.443 2.549,0 -1.863,-4.492 c 0.079,0.012 0.159,0.012 0.242,0 0.076,-0.008 0.156,-0.023 0.234,-0.042 l 2.037,4.977 z m 7.407,-4.899 0,2.124 c -0.003,0.174 -0.023,0.345 -0.064,0.51 -0.043,0.163 -0.109,0.31 -0.198,0.438 -0.09,0.13 -0.205,0.23 -0.342,0.307 -0.142,0.075 -0.31,0.112 -0.506,0.113 -0.246,-10e-4 -0.46,-0.057 -0.646,-0.167 -0.185,-0.114 -0.34,-0.273 -0.465,-0.48 -0.109,0.217 -0.249,0.379 -0.422,0.486 -0.172,0.106 -0.356,0.161 -0.547,0.168 -0.19,0.004 -0.379,-0.039 -0.565,-0.136 -0.188,-0.094 -0.347,-0.235 -0.476,-0.419 l 0,0.548 c -0.148,-0.045 -0.292,-0.081 -0.431,-0.107 l 0,-3.463 0.445,0.078 0,2.252 c -0.001,0.023 0.006,0.053 0.021,0.092 0.013,0.038 0.022,0.068 0.034,0.093 0.064,0.16 0.15,0.292 0.257,0.395 0.104,0.102 0.218,0.174 0.337,0.215 0.119,0.041 0.239,0.05 0.361,0.032 0.123,-0.019 0.233,-0.067 0.329,-0.143 0.098,-0.076 0.175,-0.184 0.237,-0.321 0.06,-0.138 0.089,-0.304 0.092,-0.498 l 0,-2.195 0.44,0.078 0,2.252 c -0.002,0.023 0.006,0.053 0.021,0.089 0.014,0.036 0.026,0.065 0.037,0.09 0.07,0.16 0.156,0.292 0.263,0.395 0.104,0.102 0.221,0.174 0.341,0.217 0.12,0.042 0.238,0.054 0.362,0.036 0.119,-0.019 0.228,-0.068 0.324,-0.145 0.097,-0.08 0.175,-0.186 0.235,-0.321 0.056,-0.136 0.085,-0.302 0.088,-0.496 l 0,-2.195 0.438,0.078 z m 5.641,0 0,2.124 c -0.002,0.174 -0.023,0.345 -0.065,0.51 -0.042,0.163 -0.108,0.31 -0.197,0.438 -0.09,0.13 -0.205,0.23 -0.343,0.307 -0.141,0.075 -0.311,0.112 -0.505,0.113 -0.246,-10e-4 -0.461,-0.057 -0.645,-0.167 -0.185,-0.114 -0.341,-0.273 -0.467,-0.48 -0.11,0.217 -0.249,0.379 -0.422,0.486 -0.171,0.106 -0.355,0.161 -0.545,0.168 -0.193,0.004 -0.381,-0.039 -0.566,-0.136 -0.19,-0.094 -0.347,-0.235 -0.476,-0.419 l 0,0.548 c -0.149,-0.045 -0.293,-0.081 -0.432,-0.107 l 0,-3.463 0.446,0.078 0,2.252 c -0.002,0.023 0.006,0.053 0.021,0.092 0.012,0.038 0.021,0.068 0.034,0.093 0.064,0.16 0.15,0.292 0.257,0.395 0.105,0.102 0.218,0.174 0.337,0.215 0.119,0.041 0.238,0.05 0.362,0.032 0.121,-0.019 0.231,-0.067 0.328,-0.143 0.098,-0.076 0.176,-0.184 0.237,-0.321 0.059,-0.138 0.09,-0.304 0.092,-0.498 l 0,-2.195 0.441,0.078 0,2.252 c -0.003,0.023 0.006,0.053 0.02,0.089 0.013,0.036 0.026,0.065 0.036,0.09 0.07,0.16 0.156,0.292 0.263,0.395 0.105,0.102 0.221,0.174 0.342,0.217 0.118,0.042 0.239,0.054 0.361,0.036 0.12,-0.019 0.229,-0.068 0.325,-0.145 0.096,-0.08 0.174,-0.186 0.234,-0.321 0.058,-0.136 0.087,-0.302 0.089,-0.496 l 0,-2.195"
         style="fill:#000000;fill-opacity:1;fill-rule:nonzero;stroke:none"
         id="path39035"
         inkscape:connector-curvature="0" />
      <path
         inkscape:connector-curvature="0"
         id="path39039"
         style="fill:none;stroke:#000000;stroke-width:0.47353148;stroke-linecap:butt;stroke-linejoin:miter;stroke-miterlimit:4;stroke-opacity:1;stroke-dasharray:none"
         d="m 143.89526,440.59709 -5.11157,-6.43502" />
      <path
         d="m 256.68,436.632 c 0,0.36 -0.069,0.697 -0.205,1.013 -0.139,0.309 -0.325,0.583 -0.557,0.815 -0.234,0.23 -0.51,0.41 -0.824,0.542 -0.317,0.131 -0.649,0.197 -1.003,0.197 -0.359,0 -0.696,-0.066 -1.009,-0.197 -0.315,-0.132 -0.587,-0.312 -0.821,-0.542 -0.236,-0.232 -0.42,-0.506 -0.554,-0.815 -0.136,-0.316 -0.204,-0.653 -0.202,-1.013 -0.002,-0.368 0.069,-0.705 0.207,-1.016 0.134,-0.311 0.32,-0.581 0.554,-0.813 0.234,-0.232 0.508,-0.414 0.822,-0.542 0.312,-0.131 0.65,-0.193 1.01,-0.196 0.352,0.003 0.686,0.065 1,0.196 0.313,0.128 0.586,0.31 0.82,0.542 0.232,0.232 0.418,0.502 0.557,0.817 0.136,0.31 0.205,0.648 0.205,1.012 z m -0.501,0 c -0.003,-0.292 -0.056,-0.565 -0.165,-0.819 -0.109,-0.26 -0.259,-0.483 -0.445,-0.672 -0.19,-0.191 -0.409,-0.343 -0.664,-0.452 -0.255,-0.114 -0.526,-0.17 -0.814,-0.168 -0.295,-0.002 -0.567,0.054 -0.818,0.165 -0.253,0.109 -0.473,0.26 -0.66,0.452 -0.187,0.192 -0.334,0.415 -0.442,0.671 -0.11,0.252 -0.164,0.525 -0.161,0.823 -0.003,0.288 0.051,0.562 0.161,0.82 0.108,0.254 0.255,0.48 0.442,0.673 0.187,0.192 0.407,0.343 0.662,0.452 0.253,0.108 0.529,0.162 0.823,0.164 0.288,-0.002 0.555,-0.058 0.808,-0.168 0.254,-0.111 0.473,-0.262 0.663,-0.455 0.186,-0.193 0.336,-0.416 0.445,-0.671 0.109,-0.253 0.162,-0.527 0.165,-0.815 z m 5.578,-2.473 0,0.4 -0.607,0 0,4.689 -1.176,-0.592 0.078,-0.44 0.629,0.348 0,-4.014 -0.658,0 0,-0.391 1.734,0 z m 2.021,0.277 c -0.003,0.085 -0.029,0.149 -0.083,0.197 -0.052,0.043 -0.117,0.066 -0.187,0.068 -0.067,-0.002 -0.127,-0.022 -0.18,-0.063 -0.057,-0.045 -0.083,-0.111 -0.08,-0.202 -0.003,-0.086 0.023,-0.152 0.08,-0.197 0.053,-0.043 0.113,-0.064 0.18,-0.066 0.07,0.002 0.135,0.023 0.187,0.065 0.054,0.041 0.08,0.107 0.083,0.198 z m 0.938,0.222 c 0.075,-0.102 0.165,-0.188 0.269,-0.26 0.103,-0.075 0.215,-0.137 0.334,-0.187 0.116,-0.05 0.238,-0.086 0.363,-0.11 0.125,-0.022 0.249,-0.033 0.372,-0.036 0.292,0.003 0.545,0.056 0.759,0.168 0.211,0.111 0.383,0.253 0.508,0.428 0.129,0.172 0.211,0.366 0.252,0.577 0.037,0.211 0.033,0.417 -0.012,0.62 -0.05,0.203 -0.14,0.388 -0.275,0.552 -0.136,0.167 -0.321,0.293 -0.551,0.379 0.21,0.089 0.378,0.211 0.505,0.367 0.124,0.153 0.205,0.318 0.245,0.498 0.037,0.177 0.032,0.357 -0.011,0.543 -0.047,0.182 -0.128,0.348 -0.249,0.494 -0.121,0.147 -0.277,0.268 -0.47,0.361 -0.193,0.091 -0.42,0.137 -0.678,0.138 -0.231,-10e-4 -0.458,-0.047 -0.675,-0.138 -0.221,-0.093 -0.412,-0.227 -0.573,-0.396 l 0.172,-0.385 c 0.134,0.142 0.294,0.257 0.476,0.346 0.182,0.086 0.373,0.131 0.577,0.133 0.187,-0.002 0.356,-0.045 0.506,-0.126 0.149,-0.085 0.265,-0.191 0.351,-0.318 0.084,-0.129 0.13,-0.269 0.138,-0.418 0.005,-0.149 -0.035,-0.289 -0.117,-0.42 -0.087,-0.13 -0.226,-0.242 -0.421,-0.337 -0.197,-0.096 -0.457,-0.151 -0.775,-0.164 l 0,-0.42 c 0.183,0 0.359,-0.012 0.528,-0.036 0.166,-0.025 0.314,-0.076 0.442,-0.15 0.127,-0.077 0.228,-0.182 0.305,-0.317 0.073,-0.135 0.11,-0.314 0.111,-0.531 -0.001,-0.167 -0.027,-0.314 -0.084,-0.435 -0.057,-0.125 -0.135,-0.228 -0.234,-0.312 -0.098,-0.087 -0.216,-0.151 -0.349,-0.193 -0.135,-0.043 -0.282,-0.066 -0.435,-0.064 -0.21,-0.002 -0.407,0.046 -0.592,0.138 -0.19,0.091 -0.346,0.217 -0.471,0.381 l -0.241,-0.37 z m 10.458,-0.458 0,2.126 c -0.002,0.174 -0.022,0.343 -0.063,0.509 -0.043,0.164 -0.109,0.311 -0.198,0.439 -0.09,0.128 -0.206,0.229 -0.342,0.306 -0.143,0.074 -0.311,0.111 -0.507,0.114 -0.246,-0.003 -0.459,-0.058 -0.645,-0.168 -0.185,-0.113 -0.341,-0.274 -0.466,-0.48 -0.109,0.217 -0.248,0.379 -0.421,0.487 -0.173,0.105 -0.357,0.161 -0.547,0.167 -0.191,0.005 -0.38,-0.038 -0.565,-0.134 -0.189,-0.095 -0.347,-0.237 -0.477,-0.42 l 0,0.548 c -0.147,-0.046 -0.291,-0.08 -0.432,-0.108 l 0,-3.462 0.446,0.076 0,2.254 c -0.002,0.023 0.007,0.052 0.021,0.092 0.012,0.037 0.023,0.068 0.035,0.092 0.064,0.16 0.15,0.293 0.257,0.396 0.104,0.102 0.217,0.173 0.337,0.215 0.118,0.039 0.239,0.05 0.361,0.031 0.121,-0.018 0.233,-0.066 0.329,-0.143 0.097,-0.076 0.175,-0.183 0.236,-0.32 0.06,-0.139 0.09,-0.305 0.092,-0.499 l 0,-2.194 0.441,0.076 0,2.254 c -0.002,0.023 0.006,0.052 0.02,0.089 0.015,0.036 0.027,0.064 0.037,0.089 0.07,0.159 0.157,0.293 0.263,0.395 0.105,0.102 0.22,0.175 0.341,0.218 0.12,0.041 0.239,0.054 0.362,0.035 0.12,-0.018 0.229,-0.068 0.325,-0.144 0.097,-0.082 0.175,-0.187 0.234,-0.322 0.057,-0.136 0.086,-0.302 0.088,-0.496 l 0,-2.194 0.438,0.076 z m 5.639,0 0,2.126 c -0.002,0.174 -0.023,0.343 -0.065,0.509 -0.043,0.164 -0.108,0.311 -0.196,0.439 -0.09,0.128 -0.206,0.229 -0.343,0.306 -0.142,0.074 -0.31,0.111 -0.506,0.114 -0.247,-0.003 -0.46,-0.058 -0.646,-0.168 -0.184,-0.113 -0.34,-0.274 -0.466,-0.48 -0.108,0.217 -0.248,0.379 -0.421,0.487 -0.173,0.105 -0.354,0.161 -0.547,0.167 -0.19,0.005 -0.38,-0.038 -0.564,-0.134 -0.189,-0.095 -0.347,-0.237 -0.477,-0.42 l 0,0.548 c -0.148,-0.046 -0.293,-0.08 -0.432,-0.108 l 0,-3.462 0.445,0.076 0,2.254 c -0.001,0.023 0.007,0.052 0.022,0.092 0.012,0.037 0.021,0.068 0.035,0.092 0.063,0.16 0.15,0.293 0.257,0.396 0.104,0.102 0.218,0.173 0.337,0.215 0.118,0.039 0.238,0.05 0.361,0.031 0.122,-0.018 0.232,-0.066 0.329,-0.143 0.097,-0.076 0.175,-0.183 0.236,-0.32 0.06,-0.139 0.091,-0.305 0.092,-0.499 l 0,-2.194 0.441,0.076 0,2.254 c -0.003,0.023 0.006,0.052 0.02,0.089 0.013,0.036 0.027,0.064 0.038,0.089 0.069,0.159 0.155,0.293 0.262,0.395 0.105,0.102 0.22,0.175 0.341,0.218 0.119,0.041 0.239,0.054 0.361,0.035 0.12,-0.018 0.228,-0.068 0.325,-0.144 0.096,-0.082 0.176,-0.187 0.234,-0.322 0.058,-0.136 0.087,-0.302 0.089,-0.496 l 0,-2.194"
         style="fill:#000000;fill-opacity:1;fill-rule:nonzero;stroke:none"
         id="path39041"
         inkscape:connector-curvature="0" />
      <path
         inkscape:connector-curvature="0"
         id="path39045"
         style="fill:none;stroke:#000000;stroke-width:0.47353148;stroke-linecap:butt;stroke-linejoin:miter;stroke-miterlimit:4;stroke-opacity:1;stroke-dasharray:none"
         d="m 256.69463,439.91464 -5.11157,-6.43602" />
    </g>
  </g>
</svg>
