<?xml version="1.0" encoding="UTF-8" standalone="no"?>
<!-- Created with Inkscape (http://www.inkscape.org/) -->

<svg
   xmlns:dc="http://purl.org/dc/elements/1.1/"
   xmlns:cc="http://creativecommons.org/ns#"
   xmlns:rdf="http://www.w3.org/1999/02/22-rdf-syntax-ns#"
   xmlns:svg="http://www.w3.org/2000/svg"
   xmlns="http://www.w3.org/2000/svg"
   xmlns:sodipodi="http://sodipodi.sourceforge.net/DTD/sodipodi-0.dtd"
   xmlns:inkscape="http://www.inkscape.org/namespaces/inkscape"
   width="559.74127"
   height="223.70204"
   id="svg10798"
   version="1.1"
   inkscape:version="0.48.5 r10040"
   sodipodi:docname="hdmi.svg">
  <defs
     id="defs10800" />
  <sodipodi:namedview
     id="base"
     pagecolor="#ffffff"
     bordercolor="#666666"
     borderopacity="1.0"
     inkscape:pageopacity="0.0"
     inkscape:pageshadow="2"
     inkscape:zoom="0.35"
     inkscape:cx="-281.66413"
     inkscape:cy="30.667572"
     inkscape:document-units="px"
     inkscape:current-layer="layer1"
     showgrid="false"
     fit-margin-top="5"
     fit-margin-left="5"
     fit-margin-right="5"
     fit-margin-bottom="5"
     inkscape:window-width="1280"
     inkscape:window-height="778"
     inkscape:window-x="0"
     inkscape:window-y="0"
     inkscape:window-maximized="1" />
  <metadata
     id="metadata10803">
    <rdf:RDF>
      <cc:Work
         rdf:about="">
        <dc:format>image/svg+xml</dc:format>
        <dc:type
           rdf:resource="http://purl.org/dc/dcmitype/StillImage" />
        <dc:title></dc:title>
      </cc:Work>
    </rdf:RDF>
  </metadata>
  <g
     inkscape:label="Layer 1"
     inkscape:groupmode="layer"
     id="layer1"
     transform="translate(-49.521279,-339.32775)">
    <g
       transform="matrix(4.9631119,0,0,-4.9631119,-710.19889,2471.7796)"
       id="g43874">
      <path
         d="m 160.623,428.624 97.872,0.005 c 3.791,-0.154 6.275,-3.465 6.327,-6.146 l -0.018,-21.803 c -0.15,-2.396 -1.059,-3.516 -2.593,-4.356 -6.155,-2.144 -7.786,-2.028 -11.31,-8.443 -0.934,-1.656 -2.358,-2.207 -4.149,-2.263 l -74.901,0.028 c -1.613,0.089 -3.076,0.645 -4.06,2.617 -2.84,4.881 -3.914,5.818 -9.882,7.608 -2.339,0.691 -3.75,2.216 -3.805,4.959 l 0.013,22.011 c 0.169,3.145 3.572,5.718 6.506,5.783"
         style="fill:#e6e6e6;fill-opacity:1;fill-rule:nonzero;stroke:none"
         id="path42054"
         inkscape:connector-curvature="0" />
      <path
         inkscape:connector-curvature="0"
         id="path42058"
         style="fill:none;stroke:#000000;stroke-width:0.04787356;stroke-linecap:round;stroke-linejoin:round;stroke-miterlimit:4;stroke-opacity:1;stroke-dasharray:none"
         d="m 160.62393,428.62487 97.8707,0.004 c 3.79299,-0.1536 6.27552,-3.46583 6.32766,-6.14574 l -0.0181,-21.80331 c -0.14939,-2.39666 -1.05879,-3.5167 -2.59282,-4.35548 -6.15421,-2.14532 -7.7855,-2.02763 -11.30978,-8.44366 -0.93346,-1.65661 -2.35821,-2.20616 -4.14893,-2.26201 l -74.90222,0.0279 c -1.61124,0.0878 -3.0751,0.64329 -4.05869,2.61607 -2.84048,4.88209 -3.9143,5.81861 -9.88202,7.60987 -2.33915,0.69017 -3.74987,2.21514 -3.80501,4.95688 l 0.013,22.01276 c 0.16945,3.14368 3.5714,5.71687 6.50613,5.7827 z" />
      <path
         d="m 160.736,425.373 97.65,0 c 1.51,-0.18 2.949,-1.505 3.165,-2.964 l 0.018,-21.417 c -0.056,-0.871 -0.187,-1.39 -1.153,-1.87 -9.549,-2.871 -10.171,-6.132 -12.343,-9.61 -0.318,-0.494 -0.754,-0.597 -1.209,-0.634 l -74.901,0.019 c -0.774,0.042 -1.008,0.377 -1.206,0.82 -2.484,4.467 -4.161,6.911 -11.535,9.153 -1.509,0.472 -1.781,0.937 -1.856,2.173 l 0.023,21.366 c 0.024,1.3 1.646,2.75 3.347,2.964"
         style="fill:#191919;fill-opacity:1;fill-rule:nonzero;stroke:none"
         id="path42060"
         inkscape:connector-curvature="0" />
      <path
         inkscape:connector-curvature="0"
         id="path42064"
         style="fill:none;stroke:#000000;stroke-width:0.04787356;stroke-linecap:round;stroke-linejoin:round;stroke-miterlimit:4;stroke-opacity:1;stroke-dasharray:none"
         d="m 160.73623,425.37447 97.65011,0 c 1.50998,-0.18252 2.94877,-1.50702 3.16434,-2.96516 l 0.018,-21.41733 c -0.0561,-0.87169 -0.18649,-1.38932 -1.15303,-1.86905 -9.54814,-2.8724 -10.17078,-6.13178 -12.3415,-9.61057 -0.31784,-0.49469 -0.75599,-0.59742 -1.20918,-0.63333 l -74.90222,0.017 c -0.77404,0.0429 -1.00665,0.378 -1.20417,0.82182 -2.48455,4.46718 -4.16196,6.90972 -11.53638,9.15378 -1.50998,0.46876 -1.78069,0.93553 -1.85589,2.17225 l 0.0241,21.36547 c 0.0221,1.30056 1.64433,2.75072 3.34581,2.96516 z" />
      <path
         d="m 174.123,388.985 70.6871,0 0,1.40859 -70.6871,0 0,-1.40859 z"
         style="fill:#000000;fill-opacity:1;fill-rule:nonzero;stroke:none"
         id="path42066"
         inkscape:connector-curvature="0" />
      <path
         inkscape:connector-curvature="0"
         id="path42070"
         style="fill:none;stroke:#000000;stroke-width:0.04787356;stroke-linecap:round;stroke-linejoin:round;stroke-miterlimit:4;stroke-opacity:1;stroke-dasharray:none"
         d="m 174.12348,390.39303 70.68712,0 0,-1.40927 -70.68712,0 0,1.40927 z" />
      <path
         d="m 157.375,402.154 1.44336,0 0,20.0035 -1.44336,0 0,-20.0035 z"
         style="fill:#000000;fill-opacity:1;fill-rule:nonzero;stroke:none"
         id="path42072"
         inkscape:connector-curvature="0" />
      <path
         inkscape:connector-curvature="0"
         id="path42076"
         style="fill:none;stroke:#000000;stroke-width:0.04787356;stroke-linecap:round;stroke-linejoin:round;stroke-miterlimit:4;stroke-opacity:1;stroke-dasharray:none"
         d="m 157.37538,402.15291 0,20.00407 1.4438,0 0,-20.00407 -1.4438,0 z" />
      <path
         d="m 260.007,402.154 1.44492,0 0,20.0035 -1.44492,0 0,-20.0035 z"
         style="fill:#000000;fill-opacity:1;fill-rule:nonzero;stroke:none"
         id="path42078"
         inkscape:connector-curvature="0" />
      <path
         inkscape:connector-curvature="0"
         id="path42082"
         style="fill:none;stroke:#000000;stroke-width:0.04787356;stroke-linecap:round;stroke-linejoin:round;stroke-miterlimit:4;stroke-opacity:1;stroke-dasharray:none"
         d="m 260.00862,402.15291 0,20.00407 1.4448,0 0,-20.00407 -1.4448,0 z" />
      <path
         d="m 250.793,400.438 0,0.587 -0.91,0 0,6.91 -1.753,-0.872 0.118,-0.648 0.937,0.514 0,-5.913 -0.98,0 0,-0.578"
         style="fill:#ffffff;fill-opacity:1;fill-rule:nonzero;stroke:none"
         id="path42084"
         inkscape:connector-curvature="0" />
      <path
         d="m 165.466,400.609 0,0.588 -0.91,0 0,6.91 -1.752,-0.871 0.116,-0.648 0.937,0.513 0,-5.913 -0.978,0 0,-0.579 2.587,0 z m 3.393,-0.251 c 0.371,0.288 0.742,0.611 1.111,0.978 0.362,0.37 0.685,0.766 0.976,1.194 0.281,0.42 0.51,0.868 0.689,1.343 0.172,0.467 0.263,0.952 0.267,1.451 -0.004,0.354 -0.051,0.694 -0.146,1.026 -0.099,0.321 -0.239,0.61 -0.426,0.862 -0.187,0.247 -0.431,0.443 -0.723,0.592 -0.294,0.141 -0.632,0.215 -1.016,0.22 -0.492,-0.005 -0.9,-0.122 -1.219,-0.345 -0.327,-0.233 -0.567,-0.519 -0.726,-0.863 -0.164,-0.346 -0.248,-0.723 -0.253,-1.123 -0.01,-0.411 0.064,-0.783 0.224,-1.125 0.16,-0.346 0.399,-0.634 0.718,-0.862 0.319,-0.233 0.717,-0.345 1.2,-0.345 0.253,0 0.501,0.046 0.745,0.145 0.239,0.097 0.455,0.232 0.652,0.401 -0.123,-0.309 -0.273,-0.606 -0.455,-0.886 -0.188,-0.29 -0.389,-0.56 -0.61,-0.822 -0.224,-0.261 -0.463,-0.512 -0.708,-0.745 -0.253,-0.238 -0.502,-0.452 -0.754,-0.643 l 0.454,-0.453 z m 2.326,4.863 c -0.005,-0.242 -0.08,-0.456 -0.23,-0.634 -0.154,-0.186 -0.348,-0.326 -0.576,-0.423 -0.234,-0.103 -0.483,-0.16 -0.746,-0.165 -0.267,-0.008 -0.516,0.042 -0.74,0.155 -0.236,0.102 -0.427,0.274 -0.577,0.516 -0.155,0.234 -0.23,0.546 -0.225,0.938 -0.005,0.215 0.028,0.429 0.094,0.639 0.061,0.21 0.154,0.402 0.276,0.569 0.122,0.168 0.272,0.303 0.459,0.405 0.179,0.103 0.394,0.155 0.647,0.155 0.315,0 0.582,-0.066 0.792,-0.187 0.211,-0.126 0.376,-0.288 0.497,-0.49 0.117,-0.205 0.201,-0.434 0.253,-0.694 0.047,-0.261 0.071,-0.523 0.076,-0.784"
         style="fill:#ffffff;fill-opacity:1;fill-rule:nonzero;stroke:none"
         id="path42086"
         inkscape:connector-curvature="0" />
      <path
         d="m 171.799,415.89 75.314,0 c 0.506,0 0.904,-0.472 0.904,-1.058 l 0,-2.836 c 0,-0.592 -0.398,-1.067 -0.904,-1.067 l -75.314,0 c -0.497,0 -0.9,0.475 -0.9,1.067 l 0,2.836 c 0,0.586 0.403,1.058 0.9,1.058"
         style="fill:#2d2d2d;fill-opacity:1;fill-rule:nonzero;stroke:none"
         id="path42088"
         inkscape:connector-curvature="0" />
      <path
         inkscape:connector-curvature="0"
         id="path42092"
         style="fill:none;stroke:#000000;stroke-width:0.04787356;stroke-linecap:round;stroke-linejoin:round;stroke-miterlimit:4;stroke-opacity:1;stroke-dasharray:none"
         d="m 171.79936,415.88956 75.3133,0 c 0.50633,0 0.90538,-0.47075 0.90538,-1.0582 l 0,-2.8345 c 0,-0.59243 -0.39905,-1.06817 -0.90538,-1.06817 l -75.3133,0 c -0.49731,0 -0.90037,0.47574 -0.90037,1.06817 l 0,2.8345 c 0,0.58745 0.40306,1.0582 0.90037,1.0582 z" />
      <path
         d="m 169.141,417.55 80.644,0 -2.415,-2.07 -75.815,0"
         style="fill:#696969;fill-opacity:1;fill-rule:nonzero;stroke:none"
         id="path42094"
         inkscape:connector-curvature="0" />
      <path
         inkscape:connector-curvature="0"
         id="path42098"
         style="fill:none;stroke:#000000;stroke-width:0.04787356;stroke-linecap:round;stroke-linejoin:round;stroke-miterlimit:4;stroke-opacity:1;stroke-dasharray:none"
         d="m 169.14136,417.54917 80.64334,0 -2.41436,-2.06952 -75.81362,0 -2.41536,2.06952 z" />
      <path
         d="m 171.555,411.348 -2.414,-0.7 0,6.916 2.414,-2.075"
         style="fill:#434343;fill-opacity:1;fill-rule:nonzero;stroke:none"
         id="path42100"
         inkscape:connector-curvature="0" />
      <path
         inkscape:connector-curvature="0"
         id="path42104"
         style="fill:none;stroke:#000000;stroke-width:0.04787356;stroke-linecap:round;stroke-linejoin:round;stroke-miterlimit:4;stroke-opacity:1;stroke-dasharray:none"
         d="m 171.55672,411.34858 -2.41536,-0.70115 0,6.91571 2.41536,-2.07352 0,-4.14104 z" />
      <path
         d="m 247.356,415.489 2.419,2.075 0,-6.916 -2.419,0.7"
         style="fill:#434343;fill-opacity:1;fill-rule:nonzero;stroke:none"
         id="path42106"
         inkscape:connector-curvature="0" />
      <path
         inkscape:connector-curvature="0"
         id="path42110"
         style="fill:none;stroke:#000000;stroke-width:0.04787356;stroke-linecap:round;stroke-linejoin:round;stroke-miterlimit:4;stroke-opacity:1;stroke-dasharray:none"
         d="m 247.3573,415.48962 2.41837,2.07352 0,-6.91571 -2.41837,0.70115 0,4.14104 z" />
      <path
         d="m 169.141,410.648 2.414,0.7 75.815,0 2.415,-0.7"
         style="fill:#313131;fill-opacity:1;fill-rule:nonzero;stroke:none"
         id="path42112"
         inkscape:connector-curvature="0" />
      <path
         inkscape:connector-curvature="0"
         id="path42116"
         style="fill:none;stroke:#000000;stroke-width:0.04787356;stroke-linecap:round;stroke-linejoin:round;stroke-miterlimit:4;stroke-opacity:1;stroke-dasharray:none"
         d="m 169.14136,410.64743 2.41536,0.70115 75.81362,0 2.41436,-0.70115 -80.64334,0 z" />
      <path
         d="m 172.441,415.48 74.029,0 c 0.493,0 0.886,-0.392 0.886,-0.881 l 0,-2.37 c 0,-0.493 -0.393,-0.891 -0.886,-0.891 l -74.029,0 c -0.487,0 -0.882,0.398 -0.882,0.891 l 0,2.37 c 0,0.489 0.395,0.881 0.882,0.881"
         style="fill:#464646;fill-opacity:1;fill-rule:nonzero;stroke:none"
         id="path42118"
         inkscape:connector-curvature="0" />
      <path
         inkscape:connector-curvature="0"
         id="path42122"
         style="fill:none;stroke:#000000;stroke-width:0.04787356;stroke-linecap:round;stroke-linejoin:round;stroke-miterlimit:4;stroke-opacity:1;stroke-dasharray:none"
         d="m 172.44205,415.47965 74.02792,0 c 0.49229,0 0.88733,-0.39196 0.88733,-0.88067 l 0,-2.36973 c 0,-0.49469 -0.39504,-0.89064 -0.88733,-0.89064 l -74.02792,0 c -0.48728,0 -0.88232,0.39595 -0.88232,0.89064 l 0,2.36973 c 0,0.48871 0.39504,0.88067 0.88232,0.88067 z" />
      <path
         inkscape:connector-curvature="0"
         id="path42126"
         style="fill:none;stroke:#000000;stroke-width:0.04787336;stroke-linecap:round;stroke-linejoin:round;stroke-miterlimit:4;stroke-opacity:1;stroke-dasharray:none"
         d="m 172.44067,415.48017 74.02766,0 c 0.49341,0 0.88556,-0.39121 0.88556,-0.88576 l 0,-2.36572 c 0,-0.49363 -0.39215,-0.88484 -0.88556,-0.88484 l -74.02766,0 c -0.48803,0 -0.88341,0.39121 -0.88341,0.88484 l 0,2.36572 c 0,0.49455 0.39538,0.88576 0.88341,0.88576 z" />
      <path
         d="m 169.825,411.032 1.979,0 c 0.051,0 0.084,-0.043 0.084,-0.098 l 0,-0.63 c 0,-0.056 -0.033,-0.103 -0.084,-0.103 l -1.979,0 c -0.046,0 -0.084,0.042 -0.084,0.103 l 0,0.63 c 0,0.055 0.038,0.098 0.084,0.098"
         style="fill:#e0af10;fill-opacity:1;fill-rule:evenodd;stroke:none"
         id="path42128"
         inkscape:connector-curvature="0" />
      <path
         inkscape:connector-curvature="0"
         id="path42132"
         style="fill:none;stroke:#000000;stroke-width:0.04787341;stroke-linecap:round;stroke-linejoin:round;stroke-miterlimit:4;stroke-opacity:1;stroke-dasharray:none"
         d="m 169.8251,411.02824 1.97822,0 c 0.052,0 0.0843,-0.0398 0.0843,-0.0965 l 0,-0.62951 c 0,-0.0567 -0.0323,-0.10262 -0.0843,-0.10262 l -1.97822,0 c -0.0464,0 -0.0843,0.0429 -0.0843,0.10262 l 0,0.62951 c 0,0.0567 0.0379,0.0965 0.0843,0.0965 z" />
      <path
         d="m 174.035,411.032 1.982,0 c 0.042,0 0.085,-0.038 0.085,-0.103 l 0,-0.625 c 0,-0.052 -0.043,-0.099 -0.085,-0.099 l -1.982,0 c -0.047,0 -0.084,0.052 -0.084,0.099 l 0,0.625 c 0,0.065 0.037,0.103 0.084,0.103"
         style="fill:#e0af10;fill-opacity:1;fill-rule:evenodd;stroke:none"
         id="path42134"
         inkscape:connector-curvature="0" />
      <path
         inkscape:connector-curvature="0"
         id="path42138"
         style="fill:none;stroke:#000000;stroke-width:0.04787341;stroke-linecap:round;stroke-linejoin:round;stroke-miterlimit:4;stroke-opacity:1;stroke-dasharray:none"
         d="m 174.03443,411.02824 1.9829,0 c 0.0422,0 0.0843,-0.0368 0.0843,-0.10109 l 0,-0.62492 c 0,-0.0505 -0.0421,-0.0965 -0.0843,-0.0965 l -1.9829,0 c -0.0464,0 -0.0843,0.0505 -0.0843,0.0965 l 0,0.62492 c 0,0.0643 0.0379,0.10109 0.0843,0.10109 z" />
      <path
         d="m 178.286,411.032 1.983,0 c 0.047,0 0.085,-0.043 0.085,-0.098 l 0,-0.63 c 0,-0.056 -0.038,-0.103 -0.085,-0.103 l -1.983,0 c -0.047,0 -0.084,0.051 -0.084,0.103 l 0,0.63 c 0,0.055 0.037,0.098 0.084,0.098"
         style="fill:#e0af10;fill-opacity:1;fill-rule:evenodd;stroke:none"
         id="path42140"
         inkscape:connector-curvature="0" />
      <path
         inkscape:connector-curvature="0"
         id="path42144"
         style="fill:none;stroke:#000000;stroke-width:0.04787341;stroke-linecap:round;stroke-linejoin:round;stroke-miterlimit:4;stroke-opacity:1;stroke-dasharray:none"
         d="m 178.28638,411.02824 1.98243,0 c 0.0468,0 0.0848,-0.0398 0.0848,-0.0965 l 0,-0.62951 c 0,-0.0567 -0.0379,-0.10262 -0.0848,-0.10262 l -1.98243,0 c -0.0473,0 -0.0848,0.0521 -0.0848,0.10262 l 0,0.62951 c 0,0.0567 0.0375,0.0965 0.0848,0.0965 z" />
      <path
         d="m 182.669,411.032 1.983,0 c 0.047,0 0.084,-0.043 0.084,-0.098 l 0,-0.63 c 0,-0.056 -0.037,-0.103 -0.084,-0.103 l -1.983,0 c -0.047,0 -0.084,0.051 -0.084,0.103 l 0,0.63 c 0,0.055 0.037,0.098 0.084,0.098"
         style="fill:#e0af10;fill-opacity:1;fill-rule:evenodd;stroke:none"
         id="path42146"
         inkscape:connector-curvature="0" />
      <path
         inkscape:connector-curvature="0"
         id="path42150"
         style="fill:none;stroke:#000000;stroke-width:0.04787341;stroke-linecap:round;stroke-linejoin:round;stroke-miterlimit:4;stroke-opacity:1;stroke-dasharray:none"
         d="m 182.66899,411.02824 1.98291,0 c 0.0464,0 0.0843,-0.0398 0.0843,-0.0965 l 0,-0.62951 c 0,-0.0567 -0.0379,-0.10262 -0.0843,-0.10262 l -1.98291,0 c -0.0473,0 -0.0843,0.0521 -0.0843,0.10262 l 0,0.62951 c 0,0.0567 0.037,0.0965 0.0843,0.0965 z" />
      <path
         d="m 187.009,411.032 1.979,0 c 0.047,0 0.084,-0.038 0.084,-0.103 l 0,-0.63 c 0,-0.051 -0.037,-0.094 -0.084,-0.094 l -1.979,0 c -0.052,0 -0.089,0.043 -0.089,0.094 l 0,0.63 c 0,0.065 0.037,0.103 0.089,0.103"
         style="fill:#e0af10;fill-opacity:1;fill-rule:evenodd;stroke:none"
         id="path42152"
         inkscape:connector-curvature="0" />
      <path
         inkscape:connector-curvature="0"
         id="path42156"
         style="fill:none;stroke:#000000;stroke-width:0.04787341;stroke-linecap:round;stroke-linejoin:round;stroke-miterlimit:4;stroke-opacity:1;stroke-dasharray:none"
         d="m 187.00993,411.02824 1.97775,0 c 0.0468,0 0.0838,-0.0368 0.0838,-0.10109 l 0,-0.62952 c 0,-0.0521 -0.037,-0.0919 -0.0838,-0.0919 l -1.97775,0 c -0.052,0 -0.0894,0.0398 -0.0894,0.0919 l 0,0.62952 c 0,0.0643 0.0375,0.10109 0.0894,0.10109 z" />
      <path
         d="m 191.388,411.027 1.978,0 c 0.047,0 0.089,-0.038 0.089,-0.103 l 0,-0.617 c 0,-0.055 -0.042,-0.102 -0.089,-0.102 l -1.978,0 c -0.047,0 -0.084,0.043 -0.084,0.102 l 0,0.617 c 0,0.065 0.037,0.103 0.084,0.103"
         style="fill:#e0af10;fill-opacity:1;fill-rule:evenodd;stroke:none"
         id="path42158"
         inkscape:connector-curvature="0" />
      <path
         inkscape:connector-curvature="0"
         id="path42162"
         style="fill:none;stroke:#000000;stroke-width:0.04787341;stroke-linecap:round;stroke-linejoin:round;stroke-miterlimit:4;stroke-opacity:1;stroke-dasharray:none"
         d="m 191.38786,411.02671 1.97821,0 c 0.0468,0 0.089,-0.0383 0.089,-0.10262 l 0,-0.61574 c 0,-0.0567 -0.0421,-0.10262 -0.089,-0.10262 l -1.97821,0 c -0.0473,0 -0.0848,0.0398 -0.0848,0.10262 l 0,0.61574 c 0,0.0643 0.0375,0.10262 0.0848,0.10262 z" />
      <path
         d="m 195.696,411.032 1.983,0 c 0.046,0 0.084,-0.038 0.084,-0.103 l 0,-0.625 c 0,-0.052 -0.038,-0.099 -0.084,-0.099 l -1.983,0 c -0.047,0 -0.085,0.052 -0.085,0.099 l 0,0.625 c 0,0.065 0.038,0.103 0.085,0.103"
         style="fill:#e0af10;fill-opacity:1;fill-rule:evenodd;stroke:none"
         id="path42164"
         inkscape:connector-curvature="0" />
      <path
         inkscape:connector-curvature="0"
         id="path42168"
         style="fill:none;stroke:#000000;stroke-width:0.04787341;stroke-linecap:round;stroke-linejoin:round;stroke-miterlimit:4;stroke-opacity:1;stroke-dasharray:none"
         d="m 195.69554,411.02824 1.9829,0 c 0.0473,0 0.0843,-0.0368 0.0843,-0.10109 l 0,-0.62492 c 0,-0.0505 -0.037,-0.0965 -0.0843,-0.0965 l -1.9829,0 c -0.0464,0 -0.0843,0.0505 -0.0843,0.0965 l 0,0.62492 c 0,0.0643 0.0379,0.10109 0.0843,0.10109 z" />
      <path
         d="m 199.999,411.032 1.983,0 c 0.047,0 0.084,-0.043 0.084,-0.098 l 0,-0.63 c 0,-0.056 -0.037,-0.103 -0.084,-0.103 l -1.983,0 c -0.043,0 -0.085,0.051 -0.085,0.103 l 0,0.63 c 0,0.055 0.042,0.098 0.085,0.098"
         style="fill:#e0af10;fill-opacity:1;fill-rule:evenodd;stroke:none"
         id="path42170"
         inkscape:connector-curvature="0" />
      <path
         inkscape:connector-curvature="0"
         id="path42174"
         style="fill:none;stroke:#000000;stroke-width:0.04787341;stroke-linecap:round;stroke-linejoin:round;stroke-miterlimit:4;stroke-opacity:1;stroke-dasharray:none"
         d="m 199.99854,411.02824 1.9829,0 c 0.0473,0 0.0843,-0.0398 0.0843,-0.0965 l 0,-0.62951 c 0,-0.0567 -0.037,-0.10262 -0.0843,-0.10262 l -1.9829,0 c -0.0421,0 -0.0843,0.0521 -0.0843,0.10262 l 0,0.62951 c 0,0.0567 0.0421,0.0965 0.0843,0.0965 z" />
      <path
         d="m 204.306,411.032 1.983,0 c 0.047,0 0.084,-0.038 0.084,-0.103 l 0,-0.63 c 0,-0.051 -0.037,-0.094 -0.084,-0.094 l -1.983,0 c -0.047,0 -0.084,0.043 -0.084,0.094 l 0,0.63 c 0,0.065 0.037,0.103 0.084,0.103"
         style="fill:#e0af10;fill-opacity:1;fill-rule:evenodd;stroke:none"
         id="path42176"
         inkscape:connector-curvature="0" />
      <path
         inkscape:connector-curvature="0"
         id="path42180"
         style="fill:none;stroke:#000000;stroke-width:0.04787341;stroke-linecap:round;stroke-linejoin:round;stroke-miterlimit:4;stroke-opacity:1;stroke-dasharray:none"
         d="m 204.30622,411.02824 1.9829,0 c 0.0468,0 0.0848,-0.0368 0.0848,-0.10109 l 0,-0.62952 c 0,-0.0521 -0.0379,-0.0919 -0.0848,-0.0919 l -1.9829,0 c -0.0468,0 -0.0843,0.0398 -0.0843,0.0919 l 0,0.62952 c 0,0.0643 0.0375,0.10109 0.0843,0.10109 z" />
      <path
         d="m 208.596,411.032 1.983,0 c 0.046,0 0.084,-0.043 0.084,-0.098 l 0,-0.63 c 0,-0.056 -0.038,-0.103 -0.084,-0.103 l -1.983,0 c -0.042,0 -0.085,0.042 -0.085,0.103 l 0,0.63 c 0,0.055 0.043,0.098 0.085,0.098"
         style="fill:#e0af10;fill-opacity:1;fill-rule:evenodd;stroke:none"
         id="path42182"
         inkscape:connector-curvature="0" />
      <path
         inkscape:connector-curvature="0"
         id="path42186"
         style="fill:none;stroke:#000000;stroke-width:0.04787351;stroke-linecap:round;stroke-linejoin:round;stroke-miterlimit:4;stroke-opacity:1;stroke-dasharray:none"
         d="m 208.5955,411.03059 1.98248,0 c 0.0471,0 0.0843,-0.0415 0.0843,-0.0986 l 0,-0.62811 c 0,-0.0571 -0.0372,-0.10382 -0.0843,-0.10382 l -1.98248,0 c -0.0421,0 -0.085,0.0428 -0.085,0.10382 l 0,0.62811 c 0,0.0571 0.0428,0.0986 0.085,0.0986 z" />
      <path
         d="m 212.809,411.032 1.979,0 c 0.047,0 0.084,-0.038 0.084,-0.103 l 0,-0.625 c 0,-0.052 -0.037,-0.099 -0.084,-0.099 l -1.979,0 c -0.052,0 -0.089,0.052 -0.089,0.099 l 0,0.625 c 0,0.065 0.037,0.103 0.089,0.103"
         style="fill:#e0af10;fill-opacity:1;fill-rule:evenodd;stroke:none"
         id="path42188"
         inkscape:connector-curvature="0" />
      <path
         inkscape:connector-curvature="0"
         id="path42192"
         style="fill:none;stroke:#000000;stroke-width:0.04787351;stroke-linecap:round;stroke-linejoin:round;stroke-miterlimit:4;stroke-opacity:1;stroke-dasharray:none"
         d="m 212.80976,411.03059 1.97756,0 c 0.0471,0 0.085,-0.0376 0.085,-0.10122 l 0,-0.62551 c 0,-0.0519 -0.0379,-0.0986 -0.085,-0.0986 l -1.97756,0 c -0.052,0 -0.0899,0.0506 -0.0899,0.0986 l 0,0.62551 c 0,0.0636 0.0379,0.10122 0.0899,0.10122 z" />
      <path
         d="m 217.061,411.032 1.978,0 c 0.047,0 0.084,-0.043 0.084,-0.098 l 0,-0.63 c 0,-0.056 -0.037,-0.103 -0.084,-0.103 l -1.978,0 c -0.052,0 -0.084,0.051 -0.084,0.103 l 0,0.63 c 0,0.055 0.037,0.098 0.084,0.098"
         style="fill:#e0af10;fill-opacity:1;fill-rule:evenodd;stroke:none"
         id="path42194"
         inkscape:connector-curvature="0" />
      <path
         inkscape:connector-curvature="0"
         id="path42198"
         style="fill:none;stroke:#000000;stroke-width:0.04787351;stroke-linecap:round;stroke-linejoin:round;stroke-miterlimit:4;stroke-opacity:1;stroke-dasharray:none"
         d="m 217.06123,411.03059 1.97827,0 c 0.047,0 0.0843,-0.0415 0.0843,-0.0986 l 0,-0.62811 c 0,-0.0571 -0.0372,-0.10382 -0.0843,-0.10382 l -1.97827,0 c -0.0513,0 -0.0843,0.0519 -0.0843,0.10382 l 0,0.62811 c 0,0.0571 0.0379,0.0986 0.0843,0.0986 z" />
      <path
         d="m 221.445,411.032 1.977,0 c 0.047,0 0.084,-0.043 0.084,-0.098 l 0,-0.63 c 0,-0.056 -0.037,-0.103 -0.084,-0.103 l -1.977,0 c -0.047,0 -0.09,0.051 -0.09,0.103 l 0,0.63 c 0,0.055 0.043,0.098 0.09,0.098"
         style="fill:#e0af10;fill-opacity:1;fill-rule:evenodd;stroke:none"
         id="path42200"
         inkscape:connector-curvature="0" />
      <path
         inkscape:connector-curvature="0"
         id="path42204"
         style="fill:none;stroke:#000000;stroke-width:0.04787351;stroke-linecap:round;stroke-linejoin:round;stroke-miterlimit:4;stroke-opacity:1;stroke-dasharray:none"
         d="m 221.44403,411.03059 1.97756,0 c 0.0478,0 0.0843,-0.0415 0.0843,-0.0986 l 0,-0.62811 c 0,-0.0571 -0.0365,-0.10382 -0.0843,-0.10382 l -1.97756,0 c -0.047,0 -0.0892,0.0519 -0.0892,0.10382 l 0,0.62811 c 0,0.0571 0.0421,0.0986 0.0892,0.0986 z" />
      <path
         d="m 225.78,411.032 1.977,0 c 0.048,0 0.086,-0.038 0.086,-0.103 l 0,-0.63 c 0,-0.051 -0.038,-0.094 -0.086,-0.094 l -1.977,0 c -0.051,0 -0.089,0.043 -0.089,0.094 l 0,0.63 c 0,0.065 0.038,0.103 0.089,0.103"
         style="fill:#e0af10;fill-opacity:1;fill-rule:evenodd;stroke:none"
         id="path42206"
         inkscape:connector-curvature="0" />
      <path
         inkscape:connector-curvature="0"
         id="path42210"
         style="fill:none;stroke:#000000;stroke-width:0.04787351;stroke-linecap:round;stroke-linejoin:round;stroke-miterlimit:4;stroke-opacity:1;stroke-dasharray:none"
         d="m 225.77978,411.03059 1.97897,0 c 0.0463,0 0.0836,-0.0376 0.0836,-0.10122 l 0,-0.6307 c 0,-0.0519 -0.0372,-0.0934 -0.0836,-0.0934 l -1.97897,0 c -0.0513,0 -0.0892,0.0415 -0.0892,0.0934 l 0,0.6307 c 0,0.0636 0.0379,0.10122 0.0892,0.10122 z" />
      <path
         d="m 230.157,411.027 1.984,0 c 0.047,0 0.084,-0.038 0.084,-0.103 l 0,-0.617 c 0,-0.055 -0.037,-0.102 -0.084,-0.102 l -1.984,0 c -0.041,0 -0.084,0.043 -0.084,0.102 l 0,0.617 c 0,0.065 0.043,0.103 0.084,0.103"
         style="fill:#e0af10;fill-opacity:1;fill-rule:evenodd;stroke:none"
         id="path42212"
         inkscape:connector-curvature="0" />
      <path
         inkscape:connector-curvature="0"
         id="path42216"
         style="fill:none;stroke:#000000;stroke-width:0.04787351;stroke-linecap:round;stroke-linejoin:round;stroke-miterlimit:4;stroke-opacity:1;stroke-dasharray:none"
         d="m 230.15836,411.0267 1.98248,0 c 0.0471,0 0.0843,-0.0376 0.0843,-0.10252 l 0,-0.61643 c 0,-0.0558 -0.0372,-0.10252 -0.0843,-0.10252 l -1.98248,0 c -0.0428,0 -0.085,0.0415 -0.085,0.10252 l 0,0.61643 c 0,0.0649 0.0421,0.10252 0.085,0.10252 z" />
      <path
         d="m 234.47,411.032 1.979,0 c 0.052,0 0.084,-0.038 0.084,-0.103 l 0,-0.625 c 0,-0.052 -0.032,-0.099 -0.084,-0.099 l -1.979,0 c -0.047,0 -0.084,0.052 -0.084,0.099 l 0,0.625 c 0,0.065 0.037,0.103 0.084,0.103"
         style="fill:#e0af10;fill-opacity:1;fill-rule:evenodd;stroke:none"
         id="path42218"
         inkscape:connector-curvature="0" />
      <path
         inkscape:connector-curvature="0"
         id="path42222"
         style="fill:none;stroke:#000000;stroke-width:0.04787351;stroke-linecap:round;stroke-linejoin:round;stroke-miterlimit:4;stroke-opacity:1;stroke-dasharray:none"
         d="m 234.46953,411.03059 1.97897,0 c 0.0513,0 0.0843,-0.0376 0.0843,-0.10122 l 0,-0.62551 c 0,-0.0519 -0.033,-0.0986 -0.0843,-0.0986 l -1.97897,0 c -0.0463,0 -0.0829,0.0506 -0.0829,0.0986 l 0,0.62551 c 0,0.0636 0.0365,0.10122 0.0829,0.10122 z" />
      <path
         d="m 238.773,411.032 1.979,0 c 0.047,0 0.084,-0.043 0.084,-0.098 l 0,-0.63 c 0,-0.056 -0.037,-0.103 -0.084,-0.103 l -1.979,0 c -0.046,0 -0.084,0.051 -0.084,0.103 l 0,0.63 c 0,0.055 0.038,0.098 0.084,0.098"
         style="fill:#e0af10;fill-opacity:1;fill-rule:evenodd;stroke:none"
         id="path42224"
         inkscape:connector-curvature="0" />
      <path
         inkscape:connector-curvature="0"
         id="path42228"
         style="fill:none;stroke:#000000;stroke-width:0.04787351;stroke-linecap:round;stroke-linejoin:round;stroke-miterlimit:4;stroke-opacity:1;stroke-dasharray:none"
         d="m 238.77368,411.03059 1.97756,0 c 0.0478,0 0.0857,-0.0415 0.0857,-0.0986 l 0,-0.62811 c 0,-0.0571 -0.0379,-0.10382 -0.0857,-0.10382 l -1.97756,0 c -0.0464,0 -0.0843,0.0519 -0.0843,0.10382 l 0,0.62811 c 0,0.0571 0.0379,0.0986 0.0843,0.0986 z" />
      <path
         d="m 243.082,411.032 1.977,0 c 0.047,0 0.086,-0.038 0.086,-0.103 l 0,-0.63 c 0,-0.051 -0.039,-0.094 -0.086,-0.094 l -1.977,0 c -0.047,0 -0.084,0.043 -0.084,0.094 l 0,0.63 c 0,0.065 0.032,0.103 0.084,0.103"
         style="fill:#e0af10;fill-opacity:1;fill-rule:evenodd;stroke:none"
         id="path42230"
         inkscape:connector-curvature="0" />
      <path
         inkscape:connector-curvature="0"
         id="path42234"
         style="fill:none;stroke:#000000;stroke-width:0.04787351;stroke-linecap:round;stroke-linejoin:round;stroke-miterlimit:4;stroke-opacity:1;stroke-dasharray:none"
         d="m 243.08133,411.03059 1.97827,0 c 0.0471,0 0.085,-0.0376 0.085,-0.10122 l 0,-0.6307 c 0,-0.0519 -0.0379,-0.0934 -0.085,-0.0934 l -1.97827,0 c -0.0471,0 -0.085,0.0415 -0.085,0.0934 l 0,0.6307 c 0,0.0636 0.033,0.10122 0.085,0.10122 z" />
      <path
         d="m 247.202,411.032 1.983,0 c 0.047,0 0.084,-0.038 0.084,-0.103 l 0,-0.63 c 0,-0.051 -0.037,-0.094 -0.084,-0.094 l -1.983,0 c -0.047,0 -0.085,0.043 -0.085,0.094 l 0,0.63 c 0,0.065 0.038,0.103 0.085,0.103"
         style="fill:#e0af10;fill-opacity:1;fill-rule:evenodd;stroke:none"
         id="path42236"
         inkscape:connector-curvature="0" />
      <path
         inkscape:connector-curvature="0"
         id="path42240"
         style="fill:none;stroke:#000000;stroke-width:0.04787351;stroke-linecap:round;stroke-linejoin:round;stroke-miterlimit:4;stroke-opacity:1;stroke-dasharray:none"
         d="m 247.20149,411.03059 1.98248,0 c 0.0478,0 0.085,-0.0376 0.085,-0.10122 l 0,-0.6307 c 0,-0.0519 -0.0372,-0.0934 -0.085,-0.0934 l -1.98248,0 c -0.0464,0 -0.0843,0.0415 -0.0843,0.0934 l 0,0.6307 c 0,0.0636 0.0379,0.10122 0.0843,0.10122 z" />
      <path
         d="m 173.57,413.512 2.415,0 c 0.169,0 0.304,0.103 0.304,0.224 l 0,0.574 c 0,0.126 -0.135,0.228 -0.304,0.228 l -2.415,0 c -0.164,0 -0.295,-0.102 -0.295,-0.228 l 0,-0.574 c 0,-0.121 0.131,-0.224 0.295,-0.224"
         style="fill:#191919;fill-opacity:1;fill-rule:evenodd;stroke:none"
         id="path42242"
         inkscape:connector-curvature="0" />
      <path
         inkscape:connector-curvature="0"
         id="path42246"
         style="fill:none;stroke:#000000;stroke-width:0.04787339;stroke-linecap:round;stroke-linejoin:round;stroke-miterlimit:4;stroke-opacity:1;stroke-dasharray:none"
         d="m 173.56978,413.51255 2.4132,0 c 0.16966,0 0.30584,0.10252 0.30584,0.22361 l 0,0.57359 c 0,0.1255 -0.13618,0.22802 -0.30584,0.22802 l -2.4132,0 c -0.1652,0 -0.29468,-0.10252 -0.29468,-0.22802 l 0,-0.57359 c 0,-0.12109 0.12948,-0.22361 0.29468,-0.22361 z" />
      <path
         d="m 177.405,413.512 2.418,0 c 0.165,0 0.296,0.103 0.296,0.224 l 0,0.574 c 0,0.126 -0.131,0.228 -0.296,0.228 l -2.418,0 c -0.164,0 -0.3,-0.102 -0.3,-0.228 l 0,-0.574 c 0,-0.121 0.136,-0.224 0.3,-0.224"
         style="fill:#191919;fill-opacity:1;fill-rule:evenodd;stroke:none"
         id="path42248"
         inkscape:connector-curvature="0" />
      <path
         inkscape:connector-curvature="0"
         id="path42252"
         style="fill:none;stroke:#000000;stroke-width:0.04787339;stroke-linecap:round;stroke-linejoin:round;stroke-miterlimit:4;stroke-opacity:1;stroke-dasharray:none"
         d="m 177.40389,413.51255 2.41878,0 c 0.16408,0 0.29579,0.10252 0.29579,0.22361 l 0,0.57359 c 0,0.1255 -0.13171,0.22802 -0.29579,0.22802 l -2.41878,0 c -0.16296,0 -0.29914,-0.10252 -0.29914,-0.22802 l 0,-0.57359 c 0,-0.12109 0.13618,-0.22361 0.29914,-0.22361 z" />
      <path
         d="m 181.263,413.512 2.414,0 c 0.169,0 0.3,0.103 0.3,0.224 l 0,0.574 c 0,0.126 -0.131,0.228 -0.3,0.228 l -2.414,0 c -0.168,0 -0.3,-0.102 -0.3,-0.228 l 0,-0.574 c 0,-0.121 0.132,-0.224 0.3,-0.224"
         style="fill:#191919;fill-opacity:1;fill-rule:evenodd;stroke:none"
         id="path42254"
         inkscape:connector-curvature="0" />
      <path
         inkscape:connector-curvature="0"
         id="path42258"
         style="fill:none;stroke:#000000;stroke-width:0.04787339;stroke-linecap:round;stroke-linejoin:round;stroke-miterlimit:4;stroke-opacity:1;stroke-dasharray:none"
         d="m 181.26144,413.51255 2.41432,0 c 0.16966,0 0.29914,0.10252 0.29914,0.22361 l 0,0.57359 c 0,0.1255 -0.12948,0.22802 -0.29914,0.22802 l -2.41432,0 c -0.16854,0 -0.29914,-0.10252 -0.29914,-0.22802 l 0,-0.57359 c 0,-0.12109 0.1306,-0.22361 0.29914,-0.22361 z" />
      <path
         d="m 185.093,413.512 2.418,0 c 0.164,0 0.295,0.103 0.295,0.224 l 0,0.574 c 0,0.126 -0.131,0.228 -0.295,0.228 l -2.418,0 c -0.164,0 -0.295,-0.102 -0.295,-0.228 l 0,-0.574 c 0,-0.121 0.131,-0.224 0.295,-0.224"
         style="fill:#191919;fill-opacity:1;fill-rule:evenodd;stroke:none"
         id="path42260"
         inkscape:connector-curvature="0" />
      <path
         inkscape:connector-curvature="0"
         id="path42264"
         style="fill:none;stroke:#000000;stroke-width:0.04787339;stroke-linecap:round;stroke-linejoin:round;stroke-miterlimit:4;stroke-opacity:1;stroke-dasharray:none"
         d="m 185.09221,413.51255 2.41766,0 c 0.16408,0 0.29468,0.10252 0.29468,0.22361 l 0,0.57359 c 0,0.1255 -0.1306,0.22802 -0.29468,0.22802 l -2.41766,0 c -0.16408,0 -0.29579,-0.10252 -0.29579,-0.22802 l 0,-0.57359 c 0,-0.12109 0.13171,-0.22361 0.29579,-0.22361 z" />
      <path
         d="m 189.02,413.512 2.415,0 c 0.169,0 0.3,0.103 0.3,0.224 l 0,0.574 c 0,0.126 -0.131,0.228 -0.3,0.228 l -2.415,0 c -0.164,0 -0.295,-0.102 -0.295,-0.228 l 0,-0.574 c 0,-0.121 0.131,-0.224 0.295,-0.224"
         style="fill:#191919;fill-opacity:1;fill-rule:evenodd;stroke:none"
         id="path42266"
         inkscape:connector-curvature="0" />
      <path
         inkscape:connector-curvature="0"
         id="path42270"
         style="fill:none;stroke:#000000;stroke-width:0.04787339;stroke-linecap:round;stroke-linejoin:round;stroke-miterlimit:4;stroke-opacity:1;stroke-dasharray:none"
         d="m 189.02008,413.51255 2.4132,0 c 0.16855,0 0.30026,0.10252 0.30026,0.22361 l 0,0.57359 c 0,0.1255 -0.13171,0.22802 -0.30026,0.22802 l -2.4132,0 c -0.1652,0 -0.29579,-0.10252 -0.29579,-0.22802 l 0,-0.57359 c 0,-0.12109 0.13059,-0.22361 0.29579,-0.22361 z" />
      <path
         d="m 192.855,413.512 2.418,0 c 0.165,0 0.296,0.103 0.296,0.224 l 0,0.574 c 0,0.126 -0.131,0.228 -0.296,0.228 l -2.418,0 c -0.169,0 -0.3,-0.102 -0.3,-0.228 l 0,-0.574 c 0,-0.121 0.131,-0.224 0.3,-0.224"
         style="fill:#191919;fill-opacity:1;fill-rule:evenodd;stroke:none"
         id="path42272"
         inkscape:connector-curvature="0" />
      <path
         inkscape:connector-curvature="0"
         id="path42276"
         style="fill:none;stroke:#000000;stroke-width:0.04787339;stroke-linecap:round;stroke-linejoin:round;stroke-miterlimit:4;stroke-opacity:1;stroke-dasharray:none"
         d="m 192.85419,413.51255 2.41767,0 c 0.1652,0 0.29467,0.10252 0.29467,0.22361 l 0,0.57359 c 0,0.1255 -0.12947,0.22802 -0.29467,0.22802 l -2.41767,0 c -0.16854,0 -0.30025,-0.10252 -0.30025,-0.22802 l 0,-0.57359 c 0,-0.12109 0.13171,-0.22361 0.30025,-0.22361 z" />
      <path
         d="m 196.707,413.512 2.42,0 c 0.169,0 0.3,0.103 0.3,0.224 l 0,0.574 c 0,0.126 -0.136,0.228 -0.3,0.228 l -2.42,0 c -0.162,0 -0.294,-0.102 -0.294,-0.228 l 0,-0.574 c 0,-0.121 0.132,-0.224 0.294,-0.224"
         style="fill:#191919;fill-opacity:1;fill-rule:evenodd;stroke:none"
         id="path42278"
         inkscape:connector-curvature="0" />
      <path
         inkscape:connector-curvature="0"
         id="path42282"
         style="fill:none;stroke:#000000;stroke-width:0.04787339;stroke-linecap:round;stroke-linejoin:round;stroke-miterlimit:4;stroke-opacity:1;stroke-dasharray:none"
         d="m 196.70616,413.51255 2.4199,0 c 0.16855,0 0.30026,0.10252 0.30026,0.22361 l 0,0.57359 c 0,0.1255 -0.13618,0.22802 -0.30026,0.22802 l -2.4199,0 c -0.16296,0 -0.29579,-0.10252 -0.29579,-0.22802 l 0,-0.57359 c 0,-0.12109 0.13283,-0.22361 0.29579,-0.22361 z" />
      <path
         d="m 200.543,413.512 2.418,0 c 0.164,0 0.295,0.103 0.295,0.224 l 0,0.574 c 0,0.126 -0.131,0.228 -0.295,0.228 l -2.418,0 c -0.164,0 -0.295,-0.102 -0.295,-0.228 l 0,-0.574 c 0,-0.121 0.131,-0.224 0.295,-0.224"
         style="fill:#191919;fill-opacity:1;fill-rule:evenodd;stroke:none"
         id="path42284"
         inkscape:connector-curvature="0" />
      <path
         inkscape:connector-curvature="0"
         id="path42288"
         style="fill:none;stroke:#000000;stroke-width:0.04787339;stroke-linecap:round;stroke-linejoin:round;stroke-miterlimit:4;stroke-opacity:1;stroke-dasharray:none"
         d="m 200.54139,413.51255 2.41767,0 c 0.1652,0 0.29579,0.10252 0.29579,0.22361 l 0,0.57359 c 0,0.1255 -0.13059,0.22802 -0.29579,0.22802 l -2.41767,0 c -0.16519,0 -0.29467,-0.10252 -0.29467,-0.22802 l 0,-0.57359 c 0,-0.12109 0.12948,-0.22361 0.29467,-0.22361 z" />
      <path
         d="m 204.475,413.512 2.414,0 c 0.168,0 0.3,0.103 0.3,0.224 l 0,0.574 c 0,0.126 -0.132,0.228 -0.3,0.228 l -2.414,0 c -0.169,0 -0.3,-0.102 -0.3,-0.228 l 0,-0.574 c 0,-0.121 0.136,-0.224 0.3,-0.224"
         style="fill:#191919;fill-opacity:1;fill-rule:evenodd;stroke:none"
         id="path42290"
         inkscape:connector-curvature="0" />
      <path
         inkscape:connector-curvature="0"
         id="path42294"
         style="fill:none;stroke:#000000;stroke-width:0.04787339;stroke-linecap:round;stroke-linejoin:round;stroke-miterlimit:4;stroke-opacity:1;stroke-dasharray:none"
         d="m 204.47373,413.51255 2.4132,0 c 0.16966,0 0.30026,0.10252 0.30026,0.22361 l 0,0.57359 c 0,0.1255 -0.1306,0.22802 -0.30026,0.22802 l -2.4132,0 c -0.16854,0 -0.30026,-0.10252 -0.30026,-0.22802 l 0,-0.57359 c 0,-0.12109 0.13618,-0.22361 0.30026,-0.22361 z" />
      <path
         d="m 208.309,413.512 2.414,0 c 0.165,0 0.3,0.103 0.3,0.224 l 0,0.574 c 0,0.126 -0.135,0.228 -0.3,0.228 l -2.414,0 c -0.168,0 -0.3,-0.102 -0.3,-0.228 l 0,-0.574 c 0,-0.121 0.132,-0.224 0.3,-0.224"
         style="fill:#191919;fill-opacity:1;fill-rule:evenodd;stroke:none"
         id="path42296"
         inkscape:connector-curvature="0" />
      <path
         inkscape:connector-curvature="0"
         id="path42300"
         style="fill:none;stroke:#000000;stroke-width:0.04787339;stroke-linecap:round;stroke-linejoin:round;stroke-miterlimit:4;stroke-opacity:1;stroke-dasharray:none"
         d="m 208.30784,413.51255 2.41432,0 c 0.1652,0 0.30026,0.10252 0.30026,0.22361 l 0,0.57359 c 0,0.1255 -0.13506,0.22802 -0.30026,0.22802 l -2.41432,0 c -0.16854,0 -0.30025,-0.10252 -0.30025,-0.22802 l 0,-0.57359 c 0,-0.12109 0.13171,-0.22361 0.30025,-0.22361 z" />
      <path
         d="m 212.163,413.512 2.414,0 c 0.169,0 0.3,0.103 0.3,0.224 l 0,0.574 c 0,0.126 -0.131,0.228 -0.3,0.228 l -2.414,0 c -0.164,0 -0.296,-0.102 -0.296,-0.228 l 0,-0.574 c 0,-0.121 0.132,-0.224 0.296,-0.224"
         style="fill:#191919;fill-opacity:1;fill-rule:evenodd;stroke:none"
         id="path42302"
         inkscape:connector-curvature="0" />
      <path
         inkscape:connector-curvature="0"
         id="path42306"
         style="fill:none;stroke:#000000;stroke-width:0.04787339;stroke-linecap:round;stroke-linejoin:round;stroke-miterlimit:4;stroke-opacity:1;stroke-dasharray:none"
         d="m 212.16093,413.51255 2.41432,0 c 0.16966,0 0.30137,0.10252 0.30137,0.22361 l 0,0.57359 c 0,0.1255 -0.13171,0.22802 -0.30137,0.22802 l -2.41432,0 c -0.16296,0 -0.29467,-0.10252 -0.29467,-0.22802 l 0,-0.57359 c 0,-0.12109 0.13171,-0.22361 0.29467,-0.22361 z" />
      <path
         d="m 215.998,413.512 2.413,0 c 0.169,0 0.3,0.103 0.3,0.224 l 0,0.574 c 0,0.126 -0.131,0.228 -0.3,0.228 l -2.413,0 c -0.165,0 -0.3,-0.102 -0.3,-0.228 l 0,-0.574 c 0,-0.121 0.135,-0.224 0.3,-0.224"
         style="fill:#191919;fill-opacity:1;fill-rule:evenodd;stroke:none"
         id="path42308"
         inkscape:connector-curvature="0" />
      <path
         inkscape:connector-curvature="0"
         id="path42312"
         style="fill:none;stroke:#000000;stroke-width:0.04787339;stroke-linecap:round;stroke-linejoin:round;stroke-miterlimit:4;stroke-opacity:1;stroke-dasharray:none"
         d="m 215.99616,413.51255 2.4132,0 c 0.16855,0 0.30026,0.10252 0.30026,0.22361 l 0,0.57359 c 0,0.1255 -0.13171,0.22802 -0.30026,0.22802 l -2.4132,0 c -0.16408,0 -0.29914,-0.10252 -0.29914,-0.22802 l 0,-0.57359 c 0,-0.12109 0.13506,-0.22361 0.29914,-0.22361 z" />
      <path
         d="m 219.748,413.498 2.418,0 c 0.164,0 0.3,0.102 0.3,0.227 l 0,0.575 c 0,0.125 -0.136,0.223 -0.3,0.223 l -2.418,0 c -0.16,0 -0.296,-0.098 -0.296,-0.223 l 0,-0.575 c 0,-0.125 0.136,-0.227 0.296,-0.227"
         style="fill:#191919;fill-opacity:1;fill-rule:evenodd;stroke:none"
         id="path42314"
         inkscape:connector-curvature="0" />
      <path
         inkscape:connector-curvature="0"
         id="path42318"
         style="fill:none;stroke:#000000;stroke-width:0.04787339;stroke-linecap:round;stroke-linejoin:round;stroke-miterlimit:4;stroke-opacity:1;stroke-dasharray:none"
         d="m 219.74656,413.49841 2.41655,0 c 0.1652,0 0.30025,0.10164 0.30025,0.22891 l 0,0.5727 c 0,0.12639 -0.13505,0.22361 -0.30025,0.22361 l -2.41655,0 c -0.15962,0 -0.29468,-0.0972 -0.29468,-0.22361 l 0,-0.5727 c 0,-0.12727 0.13506,-0.22891 0.29468,-0.22891 z" />
      <path
         d="m 223.582,413.498 2.419,0 c 0.163,0 0.295,0.102 0.295,0.227 l 0,0.575 c 0,0.125 -0.132,0.223 -0.295,0.223 l -2.419,0 c -0.169,0 -0.3,-0.098 -0.3,-0.223 l 0,-0.575 c 0,-0.125 0.131,-0.227 0.3,-0.227"
         style="fill:#191919;fill-opacity:1;fill-rule:evenodd;stroke:none"
         id="path42320"
         inkscape:connector-curvature="0" />
      <path
         inkscape:connector-curvature="0"
         id="path42324"
         style="fill:none;stroke:#000000;stroke-width:0.04787339;stroke-linecap:round;stroke-linejoin:round;stroke-miterlimit:4;stroke-opacity:1;stroke-dasharray:none"
         d="m 223.58067,413.49841 2.41878,0 c 0.16297,0 0.29468,0.10164 0.29468,0.22891 l 0,0.5727 c 0,0.12639 -0.13171,0.22361 -0.29468,0.22361 l -2.41878,0 c -0.16966,0 -0.30025,-0.0972 -0.30025,-0.22361 l 0,-0.5727 c 0,-0.12727 0.13059,-0.22891 0.30025,-0.22891 z" />
      <path
         d="m 227.463,413.512 2.419,0 c 0.169,0 0.3,0.103 0.3,0.224 l 0,0.574 c 0,0.126 -0.131,0.228 -0.3,0.228 l -2.419,0 c -0.159,0 -0.296,-0.102 -0.296,-0.228 l 0,-0.574 c 0,-0.121 0.137,-0.224 0.296,-0.224"
         style="fill:#191919;fill-opacity:1;fill-rule:evenodd;stroke:none"
         id="path42326"
         inkscape:connector-curvature="0" />
      <path
         inkscape:connector-curvature="0"
         id="path42330"
         style="fill:none;stroke:#000000;stroke-width:0.04787339;stroke-linecap:round;stroke-linejoin:round;stroke-miterlimit:4;stroke-opacity:1;stroke-dasharray:none"
         d="m 227.46166,413.51255 2.41879,0 c 0.16854,0 0.30025,0.10252 0.30025,0.22361 l 0,0.57359 c 0,0.1255 -0.13171,0.22802 -0.30025,0.22802 l -2.41879,0 c -0.1585,0 -0.2969,-0.10252 -0.2969,-0.22802 l 0,-0.57359 c 0,-0.12109 0.1384,-0.22361 0.2969,-0.22361 z" />
      <path
         d="m 231.302,413.512 2.414,0 c 0.164,0 0.295,0.103 0.295,0.224 l 0,0.574 c 0,0.126 -0.126,0.228 -0.295,0.228 l -2.414,0 c -0.169,0 -0.3,-0.102 -0.3,-0.228 l 0,-0.574 c 0,-0.121 0.131,-0.224 0.3,-0.224"
         style="fill:#191919;fill-opacity:1;fill-rule:evenodd;stroke:none"
         id="path42332"
         inkscape:connector-curvature="0" />
      <path
         inkscape:connector-curvature="0"
         id="path42336"
         style="fill:none;stroke:#000000;stroke-width:0.04787339;stroke-linecap:round;stroke-linejoin:round;stroke-miterlimit:4;stroke-opacity:1;stroke-dasharray:none"
         d="m 231.30136,413.51255 2.41208,0 c 0.1652,0 0.29579,0.10252 0.29579,0.22361 l 0,0.57359 c 0,0.1255 -0.12501,0.22802 -0.29579,0.22802 l -2.41208,0 c -0.16966,0 -0.30026,-0.10252 -0.30026,-0.22802 l 0,-0.57359 c 0,-0.12109 0.1306,-0.22361 0.30026,-0.22361 z" />
      <path
         d="m 235.155,413.512 2.414,0 c 0.169,0 0.304,0.103 0.304,0.224 l 0,0.574 c 0,0.126 -0.135,0.228 -0.304,0.228 l -2.414,0 c -0.164,0 -0.296,-0.102 -0.296,-0.228 l 0,-0.574 c 0,-0.121 0.132,-0.224 0.296,-0.224"
         style="fill:#191919;fill-opacity:1;fill-rule:evenodd;stroke:none"
         id="path42338"
         inkscape:connector-curvature="0" />
      <path
         inkscape:connector-curvature="0"
         id="path42342"
         style="fill:none;stroke:#000000;stroke-width:0.04787339;stroke-linecap:round;stroke-linejoin:round;stroke-miterlimit:4;stroke-opacity:1;stroke-dasharray:none"
         d="m 235.15333,413.51255 2.41432,0 c 0.16854,0 0.30472,0.10252 0.30472,0.22361 l 0,0.57359 c 0,0.1255 -0.13618,0.22802 -0.30472,0.22802 l -2.41432,0 c -0.16297,0 -0.29579,-0.10252 -0.29579,-0.22802 l 0,-0.57359 c 0,-0.12109 0.13282,-0.22361 0.29579,-0.22361 z" />
      <path
         d="m 238.989,413.512 2.415,0 c 0.168,0 0.295,0.103 0.295,0.224 l 0,0.574 c 0,0.126 -0.127,0.228 -0.295,0.228 l -2.415,0 c -0.169,0 -0.3,-0.102 -0.3,-0.228 l 0,-0.574 c 0,-0.121 0.131,-0.224 0.3,-0.224"
         style="fill:#191919;fill-opacity:1;fill-rule:evenodd;stroke:none"
         id="path42344"
         inkscape:connector-curvature="0" />
      <path
         inkscape:connector-curvature="0"
         id="path42348"
         style="fill:none;stroke:#000000;stroke-width:0.04787339;stroke-linecap:round;stroke-linejoin:round;stroke-miterlimit:4;stroke-opacity:1;stroke-dasharray:none"
         d="m 238.98856,413.51255 2.4132,0 c 0.16854,0 0.29579,0.10252 0.29579,0.22361 l 0,0.57359 c 0,0.1255 -0.12725,0.22802 -0.29579,0.22802 l -2.4132,0 c -0.17078,0 -0.30026,-0.10252 -0.30026,-0.22802 l 0,-0.57359 c 0,-0.12109 0.12948,-0.22361 0.30026,-0.22361 z" />
      <path
         d="m 242.913,413.512 2.419,0 c 0.164,0 0.3,0.103 0.3,0.224 l 0,0.574 c 0,0.126 -0.136,0.228 -0.3,0.228 l -2.419,0 c -0.159,0 -0.296,-0.102 -0.296,-0.228 l 0,-0.574 c 0,-0.121 0.137,-0.224 0.296,-0.224"
         style="fill:#191919;fill-opacity:1;fill-rule:evenodd;stroke:none"
         id="path42350"
         inkscape:connector-curvature="0" />
      <path
         inkscape:connector-curvature="0"
         id="path42354"
         style="fill:none;stroke:#000000;stroke-width:0.04787339;stroke-linecap:round;stroke-linejoin:round;stroke-miterlimit:4;stroke-opacity:1;stroke-dasharray:none"
         d="m 242.91196,413.51255 2.41879,0 c 0.16408,0 0.29914,0.10252 0.29914,0.22361 l 0,0.57359 c 0,0.1255 -0.13506,0.22802 -0.29914,0.22802 l -2.41879,0 c -0.15961,0 -0.2969,-0.10252 -0.2969,-0.22802 l 0,-0.57359 c 0,-0.12109 0.13729,-0.22361 0.2969,-0.22361 z" />
    </g>
  </g>
</svg>
