<?xml version="1.0" encoding="UTF-8" standalone="no"?>
<!-- Created with Inkscape (http://www.inkscape.org/) -->

<svg
   xmlns:dc="http://purl.org/dc/elements/1.1/"
   xmlns:cc="http://creativecommons.org/ns#"
   xmlns:rdf="http://www.w3.org/1999/02/22-rdf-syntax-ns#"
   xmlns:svg="http://www.w3.org/2000/svg"
   xmlns="http://www.w3.org/2000/svg"
   xmlns:sodipodi="http://sodipodi.sourceforge.net/DTD/sodipodi-0.dtd"
   xmlns:inkscape="http://www.inkscape.org/namespaces/inkscape"
   width="460"
   height="387.95749"
   id="svg10798"
   version="1.1"
   inkscape:version="0.48.5 r10040"
   sodipodi:docname="lan.svg">
  <defs
     id="defs10800" />
  <sodipodi:namedview
     id="base"
     pagecolor="#ffffff"
     bordercolor="#666666"
     borderopacity="1.0"
     inkscape:pageopacity="0.0"
     inkscape:pageshadow="2"
     inkscape:zoom="0.7"
     inkscape:cx="-87.12794"
     inkscape:cy="77.87291"
     inkscape:document-units="px"
     inkscape:current-layer="layer1"
     showgrid="false"
     fit-margin-top="5"
     fit-margin-left="5"
     fit-margin-right="5"
     fit-margin-bottom="5"
     inkscape:window-width="1280"
     inkscape:window-height="778"
     inkscape:window-x="0"
     inkscape:window-y="0"
     inkscape:window-maximized="1" />
  <metadata
     id="metadata10803">
    <rdf:RDF>
      <cc:Work
         rdf:about="">
        <dc:format>image/svg+xml</dc:format>
        <dc:type
           rdf:resource="http://purl.org/dc/dcmitype/StillImage" />
        <dc:title></dc:title>
      </cc:Work>
    </rdf:RDF>
  </metadata>
  <g
     inkscape:label="Layer 1"
     inkscape:groupmode="layer"
     id="layer1"
     transform="translate(-50.992023,-277.66467)">
    <g
       transform="matrix(4.2631207,0,0,-4.2631207,-611.77691,2085.5873)"
       id="g45859">
      <path
         d="m 157.445,334.254 104.75,0 0,87.4559 -104.75,0 0,-87.4559 z"
         style="fill:#555555;fill-opacity:1;fill-rule:nonzero;stroke:none"
         id="path44460"
         inkscape:connector-curvature="0" />
      <path
         d="m 156.693,335.501 104.346,0 0,87.3699 -104.346,0 0,-87.3699 z"
         style="fill:#3a3a3a;fill-opacity:1;fill-rule:nonzero;stroke:none"
         id="path44462"
         inkscape:connector-curvature="0" />
      <path
         inkscape:connector-curvature="0"
         id="path44466"
         style="fill:none;stroke:#000000;stroke-width:0.06761269;stroke-linecap:square;stroke-linejoin:miter;stroke-miterlimit:4;stroke-opacity:1;stroke-dasharray:none"
         d="m 261.03925,335.50261 0,87.37005 -104.34593,0 0,-87.37005 104.34593,0 z" />
      <path
         d="m 166.268,400.82 21.779,0 -0.032,13.325 7.926,0.007 0,4.986 25.547,0 -0.006,-5 8.25,0 0,-13.324 21.679,0 0,-57.364 -85.135,-0.186"
         style="fill:#1a1a1a;fill-opacity:1;fill-rule:nonzero;stroke:none"
         id="path44468"
         inkscape:connector-curvature="0" />
      <path
         inkscape:connector-curvature="0"
         id="path44472"
         style="fill:none;stroke:#393939;stroke-width:0.06761269;stroke-linecap:round;stroke-linejoin:round;stroke-miterlimit:4;stroke-opacity:1;stroke-dasharray:none"
         d="m 166.26982,400.8213 21.77676,0 -0.031,13.32426 7.92427,0.007 0,4.98734 25.54799,0 -0.007,-5.00035 8.25112,0 0,-13.32526 21.6778,0 0,-57.36595 -85.13397,-0.18408 -0.006,57.55704 z" />
      <path
         d="m 185.856,343.325 2.71875,0 0,16.759 -2.71875,0 0,-16.759 z"
         style="fill:#ffac00;fill-opacity:1;fill-rule:nonzero;stroke:none"
         id="path44474"
         inkscape:connector-curvature="0" />
      <path
         inkscape:connector-curvature="0"
         id="path44478"
         style="fill:none;stroke:#000000;stroke-width:0.06761254;stroke-linecap:round;stroke-linejoin:round;stroke-miterlimit:4;stroke-opacity:1;stroke-dasharray:none"
         d="m 185.85677,360.08006 2.71989,0 0,-16.75863 -2.71989,0 0,16.75863 z" />
      <path
         d="m 191.915,343.325 2.71875,0 0,16.759 -2.71875,0 0,-16.759 z"
         style="fill:#ffac00;fill-opacity:1;fill-rule:nonzero;stroke:none"
         id="path44480"
         inkscape:connector-curvature="0" />
      <path
         inkscape:connector-curvature="0"
         id="path44484"
         style="fill:none;stroke:#000000;stroke-width:0.06761254;stroke-linecap:round;stroke-linejoin:round;stroke-miterlimit:4;stroke-opacity:1;stroke-dasharray:none"
         d="m 191.91487,360.08006 2.71898,0 0,-16.75863 -2.71898,0 0,16.75863 z" />
      <path
         d="m 198.145,343.325 2.71797,0 0,16.759 -2.71797,0 0,-16.759 z"
         style="fill:#ffac00;fill-opacity:1;fill-rule:nonzero;stroke:none"
         id="path44486"
         inkscape:connector-curvature="0" />
      <path
         inkscape:connector-curvature="0"
         id="path44490"
         style="fill:none;stroke:#000000;stroke-width:0.06761254;stroke-linecap:round;stroke-linejoin:round;stroke-miterlimit:4;stroke-opacity:1;stroke-dasharray:none"
         d="m 198.1456,360.08006 2.71897,0 0,-16.75863 -2.71897,0 0,16.75863 z" />
      <path
         d="m 204.52,343.325 2.71875,0 0,16.759 -2.71875,0 0,-16.759 z"
         style="fill:#ffac00;fill-opacity:1;fill-rule:nonzero;stroke:none"
         id="path44492"
         inkscape:connector-curvature="0" />
      <path
         inkscape:connector-curvature="0"
         id="path44496"
         style="fill:none;stroke:#000000;stroke-width:0.06761254;stroke-linecap:round;stroke-linejoin:round;stroke-miterlimit:4;stroke-opacity:1;stroke-dasharray:none"
         d="m 204.52063,360.08006 2.71897,0 0,-16.75863 -2.71897,0 0,16.75863 z" />
      <path
         d="m 210.579,343.325 2.71875,0 0,16.759 -2.71875,0 0,-16.759 z"
         style="fill:#ffac00;fill-opacity:1;fill-rule:nonzero;stroke:none"
         id="path44498"
         inkscape:connector-curvature="0" />
      <path
         inkscape:connector-curvature="0"
         id="path44502"
         style="fill:none;stroke:#000000;stroke-width:0.06761254;stroke-linecap:round;stroke-linejoin:round;stroke-miterlimit:4;stroke-opacity:1;stroke-dasharray:none"
         d="m 210.57782,360.08006 2.71989,0 0,-16.75863 -2.71989,0 0,16.75863 z" />
      <path
         d="m 216.81,343.325 2.71797,0 0,16.759 -2.71797,0 0,-16.759 z"
         style="fill:#ffac00;fill-opacity:1;fill-rule:nonzero;stroke:none"
         id="path44504"
         inkscape:connector-curvature="0" />
      <path
         inkscape:connector-curvature="0"
         id="path44508"
         style="fill:none;stroke:#000000;stroke-width:0.06761254;stroke-linecap:round;stroke-linejoin:round;stroke-miterlimit:4;stroke-opacity:1;stroke-dasharray:none"
         d="m 216.80945,360.08006 2.71898,0 0,-16.75863 -2.71898,0 0,16.75863 z" />
      <path
         d="m 223.297,343.325 2.72461,0 0,16.759 -2.72461,0 0,-16.759 z"
         style="fill:#ffac00;fill-opacity:1;fill-rule:nonzero;stroke:none"
         id="path44510"
         inkscape:connector-curvature="0" />
      <path
         inkscape:connector-curvature="0"
         id="path44514"
         style="fill:none;stroke:#000000;stroke-width:0.06761254;stroke-linecap:round;stroke-linejoin:round;stroke-miterlimit:4;stroke-opacity:1;stroke-dasharray:none"
         d="m 223.29591,360.08006 2.7272,0 0,-16.75863 -2.7272,0 0,16.75863 z" />
      <path
         d="m 229.361,343.325 2.71797,0 0,16.759 -2.71797,0 0,-16.759 z"
         style="fill:#ffac00;fill-opacity:1;fill-rule:nonzero;stroke:none"
         id="path44516"
         inkscape:connector-curvature="0" />
      <path
         inkscape:connector-curvature="0"
         id="path44520"
         style="fill:none;stroke:#000000;stroke-width:0.06761254;stroke-linecap:round;stroke-linejoin:round;stroke-miterlimit:4;stroke-opacity:1;stroke-dasharray:none"
         d="m 229.36132,360.08006 2.71898,0 0,-16.75863 -2.71898,0 0,16.75863 z" />
      <path
         d="m 233.791,412.969 18.306,0 1.63,0.905 -21.566,0"
         style="fill:#ccd94b;fill-opacity:1;fill-rule:nonzero;stroke:none"
         id="path44522"
         inkscape:connector-curvature="0" />
      <path
         inkscape:connector-curvature="0"
         id="path44526"
         style="fill:none;stroke:#000000;stroke-width:0.0676127;stroke-linecap:round;stroke-linejoin:round;stroke-miterlimit:4;stroke-opacity:1;stroke-dasharray:none"
         d="m 233.79077,412.96997 18.30718,0 1.62973,0.9051 -21.56664,0 1.62973,-0.9051 z" />
      <path
         d="m 252.118,405.287 1.629,-0.912 0,9.513 -1.629,-0.932"
         style="fill:#ccd94b;fill-opacity:1;fill-rule:nonzero;stroke:none"
         id="path44528"
         inkscape:connector-curvature="0" />
      <path
         inkscape:connector-curvature="0"
         id="path44532"
         style="fill:none;stroke:#000000;stroke-width:0.0676127;stroke-linecap:round;stroke-linejoin:round;stroke-miterlimit:4;stroke-opacity:1;stroke-dasharray:none"
         d="m 252.11637,405.28693 1.63104,-0.91125 0,9.51171 -1.63104,-0.93042 0,-7.67004 z" />
      <path
         d="m 233.791,405.287 18.306,0 1.63,-0.912 -21.566,0"
         style="fill:#585f16;fill-opacity:1;fill-rule:nonzero;stroke:none"
         id="path44534"
         inkscape:connector-curvature="0" />
      <path
         inkscape:connector-curvature="0"
         id="path44538"
         style="fill:none;stroke:#000000;stroke-width:0.0676127;stroke-linecap:round;stroke-linejoin:round;stroke-miterlimit:4;stroke-opacity:1;stroke-dasharray:none"
         d="m 233.79077,405.28693 18.30718,0 1.62973,-0.91125 -21.56664,0 1.62973,0.91125 z" />
      <path
         d="m 233.777,405.287 -1.624,-0.912 0,9.513 1.624,-0.932"
         style="fill:#89951f;fill-opacity:1;fill-rule:nonzero;stroke:none"
         id="path44540"
         inkscape:connector-curvature="0" />
      <path
         inkscape:connector-curvature="0"
         id="path44544"
         style="fill:none;stroke:#000000;stroke-width:0.0676127;stroke-linecap:round;stroke-linejoin:round;stroke-miterlimit:4;stroke-opacity:1;stroke-dasharray:none"
         d="m 233.77762,405.28693 -1.62316,-0.91125 0,9.51171 1.62316,-0.93042 0,-7.67004 z" />
      <path
         d="m 233.777,405.294 18.3398,0 0,7.67617 -18.3398,0 0,-7.67617 z"
         style="fill:#abb927;fill-opacity:1;fill-rule:nonzero;stroke:none"
         id="path44546"
         inkscape:connector-curvature="0" />
      <path
         inkscape:connector-curvature="0"
         id="path44550"
         style="fill:none;stroke:#000000;stroke-width:0.0676127;stroke-linecap:round;stroke-linejoin:round;stroke-miterlimit:4;stroke-opacity:1;stroke-dasharray:none"
         d="m 233.77762,412.96997 18.33875,0 0,-7.67551 -18.33875,0 0,7.67551 z" />
      <path
         d="m 165.47,412.969 18.315,0 1.623,0.905 -21.561,0"
         style="fill:#d0cfca;fill-opacity:1;fill-rule:nonzero;stroke:none"
         id="path44552"
         inkscape:connector-curvature="0" />
      <path
         inkscape:connector-curvature="0"
         id="path44556"
         style="fill:none;stroke:#000000;stroke-width:0.0676127;stroke-linecap:round;stroke-linejoin:round;stroke-miterlimit:4;stroke-opacity:1;stroke-dasharray:none"
         d="m 165.47097,412.96997 18.31376,0 1.62315,0.9051 -21.56138,0 1.62447,-0.9051 z" />
      <path
         d="m 183.805,405.287 1.623,-0.912 0,9.513 -1.623,-0.932"
         style="fill:#d0cfca;fill-opacity:1;fill-rule:nonzero;stroke:none"
         id="path44558"
         inkscape:connector-curvature="0" />
      <path
         inkscape:connector-curvature="0"
         id="path44562"
         style="fill:none;stroke:#000000;stroke-width:0.0676127;stroke-linecap:round;stroke-linejoin:round;stroke-miterlimit:4;stroke-opacity:1;stroke-dasharray:none"
         d="m 183.80578,405.28693 1.62183,-0.91125 0,9.51171 -1.62183,-0.93042 0,-7.67004 z" />
      <path
         d="m 165.47,405.287 18.315,0 1.623,-0.912 -21.561,0"
         style="fill:#89887a;fill-opacity:1;fill-rule:nonzero;stroke:none"
         id="path44564"
         inkscape:connector-curvature="0" />
      <path
         inkscape:connector-curvature="0"
         id="path44568"
         style="fill:none;stroke:#000000;stroke-width:0.0676127;stroke-linecap:round;stroke-linejoin:round;stroke-miterlimit:4;stroke-opacity:1;stroke-dasharray:none"
         d="m 165.47097,405.28693 18.31376,0 1.62315,-0.91125 -21.56138,0 1.62447,0.91125 z" />
      <path
         d="m 165.456,405.287 -1.624,-0.912 0,9.513 1.624,-0.932"
         style="fill:#aeada4;fill-opacity:1;fill-rule:nonzero;stroke:none"
         id="path44570"
         inkscape:connector-curvature="0" />
      <path
         inkscape:connector-curvature="0"
         id="path44574"
         style="fill:none;stroke:#000000;stroke-width:0.0676127;stroke-linecap:round;stroke-linejoin:round;stroke-miterlimit:4;stroke-opacity:1;stroke-dasharray:none"
         d="m 165.4565,405.28693 -1.62315,-0.91125 0,9.51171 1.62315,-0.93042 0,-7.67004 z" />
      <path
         d="m 165.456,405.294 18.3465,0 0,7.67617 -18.3465,0 0,-7.67617 z"
         style="fill:#b9b8b1;fill-opacity:1;fill-rule:nonzero;stroke:none"
         id="path44576"
         inkscape:connector-curvature="0" />
      <path
         inkscape:connector-curvature="0"
         id="path44580"
         style="fill:none;stroke:#000000;stroke-width:0.0676127;stroke-linecap:round;stroke-linejoin:round;stroke-miterlimit:4;stroke-opacity:1;stroke-dasharray:none"
         d="m 165.4565,412.96997 18.34664,0 0,-7.67551 -18.34664,0 0,7.67551 z" />
      <path
         d="m 191.361,414.469 0,8.409 -34.688,-0.012 0.027,-86.88 9.582,7.801 -0.006,59.73 -2.765,0.086 0,10.885"
         style="fill:#ebebeb;fill-opacity:1;fill-rule:nonzero;stroke:none"
         id="path44582"
         inkscape:connector-curvature="0" />
      <path
         inkscape:connector-curvature="0"
         id="path44586"
         style="fill:none;stroke:#000000;stroke-width:0.06761269;stroke-linecap:round;stroke-linejoin:round;stroke-miterlimit:4;stroke-opacity:1;stroke-dasharray:none"
         d="m 191.36102,414.46871 0,8.40895 -34.68869,-0.012 0.028,-86.88181 9.58049,7.80166 -0.005,59.73106 -2.7657,0.087 0,10.88512 27.85091,-0.02 z" />
      <path
         d="m 166.678,343.25 -9.51,-7.742 103.515,-0.013 -9.72,7.914"
         style="fill:#ebebeb;fill-opacity:1;fill-rule:nonzero;stroke:none"
         id="path44588"
         inkscape:connector-curvature="0" />
      <path
         inkscape:connector-curvature="0"
         id="path44592"
         style="fill:none;stroke:#000000;stroke-width:0.06761269;stroke-linecap:round;stroke-linejoin:round;stroke-miterlimit:4;stroke-opacity:1;stroke-dasharray:none"
         d="m 166.67862,343.25125 -9.51052,-7.74264 103.51532,-0.013 -9.72043,7.91372 -84.28437,-0.15808 z" />
      <path
         d="m 226.188,414.469 0,8.409 34.851,-0.012 -0.025,-86.88 -9.583,7.846 0.007,59.685 2.765,0.086 0,10.885"
         style="fill:#ebebeb;fill-opacity:1;fill-rule:nonzero;stroke:none"
         id="path44594"
         inkscape:connector-curvature="0" />
      <path
         inkscape:connector-curvature="0"
         id="path44598"
         style="fill:none;stroke:#000000;stroke-width:0.06761269;stroke-linecap:round;stroke-linejoin:round;stroke-miterlimit:4;stroke-opacity:1;stroke-dasharray:none"
         d="m 226.18864,414.46871 0,8.40895 34.85061,-0.012 -0.025,-86.88181 -9.5825,7.84768 0.006,59.68504 2.7657,0.087 0,10.88512 -28.01483,-0.02 z" />
      <path
         d="m 233.124,362.698 0,0.681 -1.043,0 0,8.012 -2.02,-1.011 0.133,-0.752 1.081,0.596 0,-6.858 -1.128,0 0,-0.668"
         style="fill:#ffffff;fill-opacity:1;fill-rule:nonzero;stroke:none"
         id="path44600"
         inkscape:connector-curvature="0" />
      <path
         inkscape:connector-curvature="0"
         id="path44604"
         style="fill:none;stroke:#000000;stroke-width:0.06761269;stroke-linecap:butt;stroke-linejoin:miter;stroke-miterlimit:4;stroke-opacity:1;stroke-dasharray:none"
         d="m 233.12338,362.69839 0,0.68032 -1.04251,0 0,8.01376 -2.02105,-1.01147 0.13394,-0.75236 1.08149,0.59428 0,-6.85622 -1.12847,0 0,-0.66831 2.9766,0 z" />
      <path
         d="m 184.907,367.224 c -0.391,-0.172 -0.694,-0.396 -0.911,-0.68 -0.225,-0.291 -0.371,-0.603 -0.43,-0.939 -0.066,-0.343 -0.051,-0.687 0.033,-1.03 0.086,-0.343 0.237,-0.662 0.456,-0.945 0.218,-0.284 0.494,-0.515 0.845,-0.694 0.343,-0.177 0.751,-0.264 1.214,-0.264 0.448,0 0.845,0.087 1.195,0.264 0.343,0.179 0.627,0.41 0.845,0.687 0.217,0.277 0.369,0.588 0.453,0.945 0.087,0.344 0.1,0.694 0.041,1.037 -0.066,0.336 -0.203,0.648 -0.415,0.946 -0.211,0.29 -0.509,0.527 -0.892,0.699 0.343,0.198 0.608,0.436 0.798,0.728 0.185,0.277 0.298,0.573 0.344,0.891 0.04,0.304 0.013,0.613 -0.079,0.924 -0.099,0.304 -0.244,0.576 -0.441,0.82 -0.206,0.237 -0.457,0.435 -0.761,0.588 -0.302,0.145 -0.651,0.218 -1.042,0.224 -0.429,-0.006 -0.799,-0.079 -1.115,-0.23 -0.318,-0.16 -0.581,-0.365 -0.792,-0.61 -0.211,-0.256 -0.364,-0.534 -0.455,-0.839 -0.093,-0.309 -0.12,-0.62 -0.066,-0.93 0.039,-0.318 0.163,-0.615 0.361,-0.893 0.193,-0.277 0.463,-0.513 0.814,-0.699 z m 2.777,1.862 c -0.005,-0.356 -0.084,-0.647 -0.23,-0.872 -0.159,-0.236 -0.35,-0.409 -0.588,-0.515 -0.238,-0.119 -0.495,-0.171 -0.765,-0.171 -0.27,0 -0.522,0.052 -0.758,0.171 -0.239,0.106 -0.436,0.279 -0.581,0.502 -0.16,0.224 -0.232,0.503 -0.232,0.838 0,0.351 0.072,0.649 0.232,0.9 0.145,0.237 0.342,0.423 0.581,0.542 0.236,0.117 0.488,0.177 0.764,0.183 0.264,0 0.521,-0.059 0.759,-0.17 0.238,-0.125 0.429,-0.305 0.588,-0.537 0.146,-0.236 0.225,-0.526 0.23,-0.871 z m 0.179,-3.943 c -0.007,-0.39 -0.093,-0.707 -0.263,-0.952 -0.173,-0.256 -0.392,-0.441 -0.647,-0.568 -0.264,-0.125 -0.548,-0.191 -0.852,-0.184 -0.311,-0.007 -0.596,0.052 -0.852,0.178 -0.263,0.12 -0.481,0.303 -0.653,0.555 -0.178,0.244 -0.264,0.555 -0.257,0.923 -0.007,0.391 0.079,0.721 0.257,0.985 0.172,0.258 0.39,0.45 0.653,0.583 0.256,0.124 0.541,0.19 0.852,0.196 0.304,-0.006 0.588,-0.072 0.852,-0.196 0.255,-0.133 0.474,-0.325 0.647,-0.577 0.17,-0.256 0.256,-0.574 0.263,-0.943"
         style="fill:#ffffff;fill-opacity:1;fill-rule:nonzero;stroke:none"
         id="path44606"
         inkscape:connector-curvature="0" />
    </g>
  </g>
</svg>
