<?xml version="1.0" encoding="UTF-8" standalone="no"?>
<!-- Created with Inkscape (http://www.inkscape.org/) -->

<svg
   xmlns:dc="http://purl.org/dc/elements/1.1/"
   xmlns:cc="http://creativecommons.org/ns#"
   xmlns:rdf="http://www.w3.org/1999/02/22-rdf-syntax-ns#"
   xmlns:svg="http://www.w3.org/2000/svg"
   xmlns="http://www.w3.org/2000/svg"
   xmlns:sodipodi="http://sodipodi.sourceforge.net/DTD/sodipodi-0.dtd"
   xmlns:inkscape="http://www.inkscape.org/namespaces/inkscape"
   width="560"
   height="443.78461"
   id="svg8595"
   version="1.1"
   inkscape:version="0.48.5 r10040"
   sodipodi:docname="lvds_layout_2.svg">
  <defs
     id="defs8597" />
  <sodipodi:namedview
     id="base"
     pagecolor="#ffffff"
     bordercolor="#666666"
     borderopacity="1.0"
     inkscape:pageopacity="0.0"
     inkscape:pageshadow="2"
     inkscape:zoom="0.35"
     inkscape:cx="-335.22124"
     inkscape:cy="374.45006"
     inkscape:document-units="px"
     inkscape:current-layer="layer1"
     showgrid="false"
     fit-margin-top="5"
     fit-margin-left="5"
     fit-margin-right="5"
     fit-margin-bottom="5"
     inkscape:window-width="1280"
     inkscape:window-height="778"
     inkscape:window-x="0"
     inkscape:window-y="0"
     inkscape:window-maximized="1" />
  <metadata
     id="metadata8600">
    <rdf:RDF>
      <cc:Work
         rdf:about="">
        <dc:format>image/svg+xml</dc:format>
        <dc:type
           rdf:resource="http://purl.org/dc/dcmitype/StillImage" />
        <dc:title></dc:title>
      </cc:Work>
    </rdf:RDF>
  </metadata>
  <g
     inkscape:label="Layer 1"
     inkscape:groupmode="layer"
     id="layer1"
     transform="translate(-103.07838,-463.02762)">
    <g
       id="g103768"
       transform="matrix(2.991618,0,0,-2.991618,-244.53765,1269.1919)">
      <path
         d="m 117.947,162.149 143.392,0 c 0.046,0 0.082,0.033 0.082,0.075 l 0,105.505 c 0,0.04 -0.036,0.074 -0.082,0.074 l -143.392,0 c -0.045,0 -0.079,-0.034 -0.079,-0.074 l 0,-105.505 c 0,-0.042 0.034,-0.075 0.079,-0.075"
         style="fill:#345380;fill-opacity:1;fill-rule:nonzero;stroke:none"
         id="path101253"
         inkscape:connector-curvature="0" />
      <path
         d="m 129.695,177.038 c 0,2.471 -2.006,4.475 -4.475,4.475 -2.471,0 -4.476,-2.004 -4.476,-4.475 0,-2.469 2.005,-4.473 4.476,-4.473 2.469,0 4.475,2.004 4.475,4.473"
         style="fill:#d4aa00;fill-opacity:1;fill-rule:nonzero;stroke:none"
         id="path101255"
         inkscape:connector-curvature="0" />
      <path
         d="m 127.751,177.038 c 0,1.398 -1.133,2.532 -2.531,2.532 -1.399,0 -2.533,-1.134 -2.533,-2.532 0,-1.399 1.134,-2.532 2.533,-2.532 1.398,0 2.531,1.133 2.531,2.532"
         style="fill:#ffffff;fill-opacity:1;fill-rule:nonzero;stroke:none"
         id="path101257"
         inkscape:connector-curvature="0" />
      <path
         d="m 256.097,261.746 c 0,2.47 -2.004,4.473 -4.475,4.473 -2.47,0 -4.472,-2.003 -4.472,-4.473 0,-2.473 2.002,-4.475 4.472,-4.475 2.471,0 4.475,2.002 4.475,4.475"
         style="fill:#d4aa00;fill-opacity:1;fill-rule:nonzero;stroke:none"
         id="path101259"
         inkscape:connector-curvature="0" />
      <path
         d="m 254.157,261.746 c 0,1.4 -1.136,2.533 -2.535,2.533 -1.398,0 -2.532,-1.133 -2.532,-2.533 0,-1.401 1.134,-2.535 2.532,-2.535 1.399,0 2.535,1.134 2.535,2.535"
         style="fill:#ffffff;fill-opacity:1;fill-rule:nonzero;stroke:none"
         id="path101261"
         inkscape:connector-curvature="0" />
      <path
         d="m 251.718,248.503 0,1.847 2.657,0 0.482,0.488 0,-2.335"
         style="fill:#fefee8;fill-opacity:1;fill-rule:nonzero;stroke:none"
         id="path101263"
         inkscape:connector-curvature="0" />
      <path
         d="m 247.929,251.996 5.75508,0 0,3.2793 -5.75508,0 0,-3.2793 z"
         style="fill:#fefee8;fill-opacity:1;fill-rule:nonzero;stroke:none"
         id="path101265"
         inkscape:connector-curvature="0" />
      <path
         d="m 247.929,210.657 5.75508,0 0,3.66523 -5.75508,0 0,-3.66523 z"
         style="fill:#fefee8;fill-opacity:1;fill-rule:nonzero;stroke:none"
         id="path101267"
         inkscape:connector-curvature="0" />
      <path
         d="m 245.782,251.991 0,-37.669 9.078,0 0,1.137 -0.485,0.486 -2.654,0.002 0,34.397 2.656,0 0.483,0.497 0,1.15"
         style="fill:#fefee8;fill-opacity:1;fill-rule:nonzero;stroke:none"
         id="path101269"
         inkscape:connector-curvature="0" />
      <path
         d="m 251.718,217.85 3.13867,0 0,30.1434 -3.13867,0 0,-30.1434 z"
         style="fill:#fefee8;fill-opacity:1;fill-rule:nonzero;stroke:none"
         id="path101271"
         inkscape:connector-curvature="0" />
      <path
         d="m 251.718,217.453 0,-1.539 2.657,0 0.482,-0.491 0,2.03"
         style="fill:#fefee8;fill-opacity:1;fill-rule:nonzero;stroke:none"
         id="path101273"
         inkscape:connector-curvature="0" />
      <path
         d="m 243.901,225.864 1.88047,0 0,0.50156 -1.88047,0 0,-0.50156 z"
         style="fill:#c9c9c9;fill-opacity:1;fill-rule:nonzero;stroke:none"
         id="path101275"
         inkscape:connector-curvature="0" />
      <path
         d="m 243.901,220.238 1.88047,0 0,0.50156 -1.88047,0 0,-0.50156 z"
         style="fill:#c9c9c9;fill-opacity:1;fill-rule:nonzero;stroke:none"
         id="path101277"
         inkscape:connector-curvature="0" />
      <path
         d="m 243.901,223.05 1.88047,0 0,0.5043 -1.88047,0 0,-0.5043 z"
         style="fill:#c9c9c9;fill-opacity:1;fill-rule:nonzero;stroke:none"
         id="path101279"
         inkscape:connector-curvature="0" />
      <path
         d="m 243.901,231.488 1.88047,0 0,0.50156 -1.88047,0 0,-0.50156 z"
         style="fill:#c9c9c9;fill-opacity:1;fill-rule:nonzero;stroke:none"
         id="path101281"
         inkscape:connector-curvature="0" />
      <path
         d="m 243.901,228.677 1.88047,0 0,0.50195 -1.88047,0 0,-0.50195 z"
         style="fill:#c9c9c9;fill-opacity:1;fill-rule:nonzero;stroke:none"
         id="path101283"
         inkscape:connector-curvature="0" />
      <path
         d="m 243.901,217.424 1.88047,0 0,0.50156 -1.88047,0 0,-0.50156 z"
         style="fill:#c9c9c9;fill-opacity:1;fill-rule:nonzero;stroke:none"
         id="path101285"
         inkscape:connector-curvature="0" />
      <path
         d="m 243.901,234.302 1.88047,0 0,0.50156 -1.88047,0 0,-0.50156 z"
         style="fill:#c9c9c9;fill-opacity:1;fill-rule:nonzero;stroke:none"
         id="path101287"
         inkscape:connector-curvature="0" />
      <path
         d="m 243.901,237.114 1.88047,0 0,0.5043 -1.88047,0 0,-0.5043 z"
         style="fill:#c9c9c9;fill-opacity:1;fill-rule:nonzero;stroke:none"
         id="path101289"
         inkscape:connector-curvature="0" />
      <path
         d="m 243.901,242.741 1.88047,0 0,0.50156 -1.88047,0 0,-0.50156 z"
         style="fill:#c9c9c9;fill-opacity:1;fill-rule:nonzero;stroke:none"
         id="path101291"
         inkscape:connector-curvature="0" />
      <path
         d="m 243.901,239.927 1.88047,0 0,0.50156 -1.88047,0 0,-0.50156 z"
         style="fill:#c9c9c9;fill-opacity:1;fill-rule:nonzero;stroke:none"
         id="path101293"
         inkscape:connector-curvature="0" />
      <path
         d="m 243.901,245.551 1.88047,0 0,0.50195 -1.88047,0 0,-0.50195 z"
         style="fill:#c9c9c9;fill-opacity:1;fill-rule:nonzero;stroke:none"
         id="path101295"
         inkscape:connector-curvature="0" />
      <path
         d="m 243.901,248.365 1.88047,0 0,0.50156 -1.88047,0 0,-0.50156 z"
         style="fill:#c9c9c9;fill-opacity:1;fill-rule:nonzero;stroke:none"
         id="path101297"
         inkscape:connector-curvature="0" />
      <path
         d="m 251.718,228.677 0.65937,0 0,0.50195 -0.65937,0 0,-0.50195 z"
         style="fill:#c9c9c9;fill-opacity:1;fill-rule:nonzero;stroke:none"
         id="path101299"
         inkscape:connector-curvature="0" />
      <path
         d="m 251.718,223.05 0.65937,0 0,0.5043 -0.65937,0 0,-0.5043 z"
         style="fill:#c9c9c9;fill-opacity:1;fill-rule:nonzero;stroke:none"
         id="path101301"
         inkscape:connector-curvature="0" />
      <path
         d="m 251.718,225.864 0.65937,0 0,0.50156 -0.65937,0 0,-0.50156 z"
         style="fill:#c9c9c9;fill-opacity:1;fill-rule:nonzero;stroke:none"
         id="path101303"
         inkscape:connector-curvature="0" />
      <path
         d="m 251.718,234.302 0.65937,0 0,0.50156 -0.65937,0 0,-0.50156 z"
         style="fill:#c9c9c9;fill-opacity:1;fill-rule:nonzero;stroke:none"
         id="path101305"
         inkscape:connector-curvature="0" />
      <path
         d="m 251.718,231.488 0.65937,0 0,0.50156 -0.65937,0 0,-0.50156 z"
         style="fill:#c9c9c9;fill-opacity:1;fill-rule:nonzero;stroke:none"
         id="path101307"
         inkscape:connector-curvature="0" />
      <path
         d="m 251.718,217.424 0.65937,0 0,0.50156 -0.65937,0 0,-0.50156 z"
         style="fill:#c9c9c9;fill-opacity:1;fill-rule:nonzero;stroke:none"
         id="path101309"
         inkscape:connector-curvature="0" />
      <path
         d="m 251.718,220.238 0.65937,0 0,0.50156 -0.65937,0 0,-0.50156 z"
         style="fill:#c9c9c9;fill-opacity:1;fill-rule:nonzero;stroke:none"
         id="path101311"
         inkscape:connector-curvature="0" />
      <path
         d="m 251.718,237.114 0.65937,0 0,0.5043 -0.65937,0 0,-0.5043 z"
         style="fill:#c9c9c9;fill-opacity:1;fill-rule:nonzero;stroke:none"
         id="path101313"
         inkscape:connector-curvature="0" />
      <path
         d="m 251.718,239.927 0.65937,0 0,0.50156 -0.65937,0 0,-0.50156 z"
         style="fill:#c9c9c9;fill-opacity:1;fill-rule:nonzero;stroke:none"
         id="path101315"
         inkscape:connector-curvature="0" />
      <path
         d="m 251.718,242.741 0.65937,0 0,0.50156 -0.65937,0 0,-0.50156 z"
         style="fill:#c9c9c9;fill-opacity:1;fill-rule:nonzero;stroke:none"
         id="path101317"
         inkscape:connector-curvature="0" />
      <path
         d="m 251.718,245.551 0.65937,0 0,0.50195 -0.65937,0 0,-0.50195 z"
         style="fill:#c9c9c9;fill-opacity:1;fill-rule:nonzero;stroke:none"
         id="path101319"
         inkscape:connector-curvature="0" />
      <path
         d="m 251.718,248.365 0.65937,0 0,0.50156 -0.65937,0 0,-0.50156 z"
         style="fill:#c9c9c9;fill-opacity:1;fill-rule:nonzero;stroke:none"
         id="path101321"
         inkscape:connector-curvature="0" />
      <path
         d="m 245.768,214.303 1.08555,0 0,1.14766 -1.08555,0 0,-1.14766 z"
         style="fill:#e8e4c9;fill-opacity:1;fill-rule:nonzero;stroke:none"
         id="path101323"
         inkscape:connector-curvature="0" />
      <path
         d="m 245.768,217.111 1.08555,0 0,1.14727 -1.08555,0 0,-1.14727 z"
         style="fill:#e8e4c9;fill-opacity:1;fill-rule:nonzero;stroke:none"
         id="path101325"
         inkscape:connector-curvature="0" />
      <path
         d="m 245.768,225.539 1.08555,0 0,1.14805 -1.08555,0 0,-1.14805 z"
         style="fill:#e8e4c9;fill-opacity:1;fill-rule:nonzero;stroke:none"
         id="path101327"
         inkscape:connector-curvature="0" />
      <path
         d="m 245.768,219.923 1.08555,0 0,1.14492 -1.08555,0 0,-1.14492 z"
         style="fill:#e8e4c9;fill-opacity:1;fill-rule:nonzero;stroke:none"
         id="path101329"
         inkscape:connector-curvature="0" />
      <path
         d="m 245.768,222.731 1.08555,0 0,1.14727 -1.08555,0 0,-1.14727 z"
         style="fill:#e8e4c9;fill-opacity:1;fill-rule:nonzero;stroke:none"
         id="path101331"
         inkscape:connector-curvature="0" />
      <path
         d="m 245.768,228.347 1.08555,0 0,1.14727 -1.08555,0 0,-1.14727 z"
         style="fill:#e8e4c9;fill-opacity:1;fill-rule:nonzero;stroke:none"
         id="path101333"
         inkscape:connector-curvature="0" />
      <path
         d="m 245.768,233.966 1.08555,0 0,1.14766 -1.08555,0 0,-1.14766 z"
         style="fill:#e8e4c9;fill-opacity:1;fill-rule:nonzero;stroke:none"
         id="path101335"
         inkscape:connector-curvature="0" />
      <path
         d="m 245.768,236.774 1.08555,0 0,1.14766 -1.08555,0 0,-1.14766 z"
         style="fill:#e8e4c9;fill-opacity:1;fill-rule:nonzero;stroke:none"
         id="path101337"
         inkscape:connector-curvature="0" />
      <path
         d="m 245.768,248.01 1.08555,0 0,1.14727 -1.08555,0 0,-1.14727 z"
         style="fill:#e8e4c9;fill-opacity:1;fill-rule:nonzero;stroke:none"
         id="path101339"
         inkscape:connector-curvature="0" />
      <path
         d="m 245.768,231.158 1.08555,0 0,1.14492 -1.08555,0 0,-1.14492 z"
         style="fill:#e8e4c9;fill-opacity:1;fill-rule:nonzero;stroke:none"
         id="path101341"
         inkscape:connector-curvature="0" />
      <path
         d="m 245.768,239.582 1.08555,0 0,1.14805 -1.08555,0 0,-1.14805 z"
         style="fill:#e8e4c9;fill-opacity:1;fill-rule:nonzero;stroke:none"
         id="path101343"
         inkscape:connector-curvature="0" />
      <path
         d="m 245.768,245.202 1.08555,0 0,1.14766 -1.08555,0 0,-1.14766 z"
         style="fill:#e8e4c9;fill-opacity:1;fill-rule:nonzero;stroke:none"
         id="path101345"
         inkscape:connector-curvature="0" />
      <path
         d="m 245.768,242.394 1.08555,0 0,1.14453 -1.08555,0 0,-1.14453 z"
         style="fill:#e8e4c9;fill-opacity:1;fill-rule:nonzero;stroke:none"
         id="path101347"
         inkscape:connector-curvature="0" />
      <path
         d="m 245.768,250.818 1.08555,0 0,1.14766 -1.08555,0 0,-1.14766 z"
         style="fill:#e8e4c9;fill-opacity:1;fill-rule:nonzero;stroke:none"
         id="path101349"
         inkscape:connector-curvature="0" />
      <path
         d="m 170.024,174.439 61.646,0 0,-9.871 -1.747,0.006 0,5.14 -58.396,0 0.008,-5.146 -1.511,0"
         style="fill:#483e37;fill-opacity:1;fill-rule:nonzero;stroke:none"
         id="path101351"
         inkscape:connector-curvature="0" />
      <path
         d="m 171.527,169.716 58.396,0 0,-0.57 -2.289,0.004 0,-0.767 -53.991,0 -0.013,0.767 -2.1,0.005"
         style="fill:#483e37;fill-opacity:1;fill-rule:nonzero;stroke:none"
         id="path101353"
         inkscape:connector-curvature="0" />
      <path
         d="m 174.558,166.386 52.4523,0 0,2.02188 -52.4523,0 0,-2.02188 z"
         style="fill:#fff5c5;fill-opacity:1;fill-rule:nonzero;stroke:none"
         id="path101355"
         inkscape:connector-curvature="0" />
      <path
         d="m 170.455,164.57 0,-1.634 1.368,0 0,0.803 1.608,0 1.695,-1.396 51.622,-0.013 1.346,1.135 1.829,0.006 0,-0.553 1.327,0.02 0,1.661 -1.327,0 0,4.551 -2.291,0 0,-0.745 -0.652,0 0,-1.976 c -17.473,-0.002 -34.948,-0.008 -52.422,-0.014 l 0,1.976 -0.936,-0.014 0,0.773 -2.095,0 0,-4.562"
         style="fill:#fff5d1;fill-opacity:1;fill-rule:nonzero;stroke:none"
         id="path101357"
         inkscape:connector-curvature="0" />
      <path
         d="m 175.945,166.432 0.48203,0 0,1.99063 -0.48203,0 0,-1.99063 z"
         style="fill:#ffd42a;fill-opacity:1;fill-rule:nonzero;stroke:none"
         id="path101359"
         inkscape:connector-curvature="0" />
      <path
         d="m 176.981,166.432 0.48242,0 0,1.99063 -0.48242,0 0,-1.99063 z"
         style="fill:#ffd42a;fill-opacity:1;fill-rule:nonzero;stroke:none"
         id="path101361"
         inkscape:connector-curvature="0" />
      <path
         d="m 178.025,166.432 0.48203,0 0,1.99063 -0.48203,0 0,-1.99063 z"
         style="fill:#ffd42a;fill-opacity:1;fill-rule:nonzero;stroke:none"
         id="path101363"
         inkscape:connector-curvature="0" />
      <path
         d="m 179.065,166.432 0.48242,0 0,1.99063 -0.48242,0 0,-1.99063 z"
         style="fill:#ffd42a;fill-opacity:1;fill-rule:nonzero;stroke:none"
         id="path101365"
         inkscape:connector-curvature="0" />
      <path
         d="m 180.085,166.432 0.48242,0 0,1.99063 -0.48242,0 0,-1.99063 z"
         style="fill:#ffd42a;fill-opacity:1;fill-rule:nonzero;stroke:none"
         id="path101367"
         inkscape:connector-curvature="0" />
      <path
         d="m 181.115,166.432 0.48242,0 0,1.99063 -0.48242,0 0,-1.99063 z"
         style="fill:#ffd42a;fill-opacity:1;fill-rule:nonzero;stroke:none"
         id="path101369"
         inkscape:connector-curvature="0" />
      <path
         d="m 182.172,166.432 0.48203,0 0,1.99063 -0.48203,0 0,-1.99063 z"
         style="fill:#ffd42a;fill-opacity:1;fill-rule:nonzero;stroke:none"
         id="path101371"
         inkscape:connector-curvature="0" />
      <path
         d="m 183.207,166.432 0.48242,0 0,1.99063 -0.48242,0 0,-1.99063 z"
         style="fill:#ffd42a;fill-opacity:1;fill-rule:nonzero;stroke:none"
         id="path101373"
         inkscape:connector-curvature="0" />
      <path
         d="m 184.253,166.432 0.48242,0 0,1.99063 -0.48242,0 0,-1.99063 z"
         style="fill:#ffd42a;fill-opacity:1;fill-rule:nonzero;stroke:none"
         id="path101375"
         inkscape:connector-curvature="0" />
      <path
         d="m 185.293,166.432 0.48164,0 0,1.99063 -0.48164,0 0,-1.99063 z"
         style="fill:#ffd42a;fill-opacity:1;fill-rule:nonzero;stroke:none"
         id="path101377"
         inkscape:connector-curvature="0" />
      <path
         d="m 186.312,166.432 0.48164,0 0,1.99063 -0.48164,0 0,-1.99063 z"
         style="fill:#ffd42a;fill-opacity:1;fill-rule:nonzero;stroke:none"
         id="path101379"
         inkscape:connector-curvature="0" />
      <path
         d="m 187.34,166.432 0.48242,0 0,1.99063 -0.48242,0 0,-1.99063 z"
         style="fill:#ffd42a;fill-opacity:1;fill-rule:nonzero;stroke:none"
         id="path101381"
         inkscape:connector-curvature="0" />
      <path
         d="m 188.389,166.432 0.48203,0 0,1.99063 -0.48203,0 0,-1.99063 z"
         style="fill:#ffd42a;fill-opacity:1;fill-rule:nonzero;stroke:none"
         id="path101383"
         inkscape:connector-curvature="0" />
      <path
         d="m 189.425,166.432 0.48242,0 0,1.99063 -0.48242,0 0,-1.99063 z"
         style="fill:#ffd42a;fill-opacity:1;fill-rule:nonzero;stroke:none"
         id="path101385"
         inkscape:connector-curvature="0" />
      <path
         d="m 190.471,166.432 0.48203,0 0,1.99063 -0.48203,0 0,-1.99063 z"
         style="fill:#ffd42a;fill-opacity:1;fill-rule:nonzero;stroke:none"
         id="path101387"
         inkscape:connector-curvature="0" />
      <path
         d="m 191.512,166.432 0.48203,0 0,1.99063 -0.48203,0 0,-1.99063 z"
         style="fill:#ffd42a;fill-opacity:1;fill-rule:nonzero;stroke:none"
         id="path101389"
         inkscape:connector-curvature="0" />
      <path
         d="m 192.529,166.432 0.48164,0 0,1.99063 -0.48164,0 0,-1.99063 z"
         style="fill:#ffd42a;fill-opacity:1;fill-rule:nonzero;stroke:none"
         id="path101391"
         inkscape:connector-curvature="0" />
      <path
         d="m 193.563,166.432 0.48242,0 0,1.99063 -0.48242,0 0,-1.99063 z"
         style="fill:#ffd42a;fill-opacity:1;fill-rule:nonzero;stroke:none"
         id="path101393"
         inkscape:connector-curvature="0" />
      <path
         d="m 194.618,166.432 0.48203,0 0,1.99063 -0.48203,0 0,-1.99063 z"
         style="fill:#ffd42a;fill-opacity:1;fill-rule:nonzero;stroke:none"
         id="path101395"
         inkscape:connector-curvature="0" />
      <path
         d="m 195.654,166.432 0.48242,0 0,1.99063 -0.48242,0 0,-1.99063 z"
         style="fill:#ffd42a;fill-opacity:1;fill-rule:nonzero;stroke:none"
         id="path101397"
         inkscape:connector-curvature="0" />
      <path
         d="m 196.697,166.432 0.48242,0 0,1.99063 -0.48242,0 0,-1.99063 z"
         style="fill:#ffd42a;fill-opacity:1;fill-rule:nonzero;stroke:none"
         id="path101399"
         inkscape:connector-curvature="0" />
      <path
         d="m 197.738,166.432 0.48242,0 0,1.99063 -0.48242,0 0,-1.99063 z"
         style="fill:#ffd42a;fill-opacity:1;fill-rule:nonzero;stroke:none"
         id="path101401"
         inkscape:connector-curvature="0" />
      <path
         d="m 198.758,166.432 0.48203,0 0,1.99063 -0.48203,0 0,-1.99063 z"
         style="fill:#ffd42a;fill-opacity:1;fill-rule:nonzero;stroke:none"
         id="path101403"
         inkscape:connector-curvature="0" />
      <path
         d="m 199.788,166.432 0.48203,0 0,1.99063 -0.48203,0 0,-1.99063 z"
         style="fill:#ffd42a;fill-opacity:1;fill-rule:nonzero;stroke:none"
         id="path101405"
         inkscape:connector-curvature="0" />
      <path
         d="m 200.822,166.432 0.48242,0 0,1.99063 -0.48242,0 0,-1.99063 z"
         style="fill:#ffd42a;fill-opacity:1;fill-rule:nonzero;stroke:none"
         id="path101407"
         inkscape:connector-curvature="0" />
      <path
         d="m 201.858,166.432 0.48242,0 0,1.99063 -0.48242,0 0,-1.99063 z"
         style="fill:#ffd42a;fill-opacity:1;fill-rule:nonzero;stroke:none"
         id="path101409"
         inkscape:connector-curvature="0" />
      <path
         d="m 202.901,166.432 0.48242,0 0,1.99063 -0.48242,0 0,-1.99063 z"
         style="fill:#ffd42a;fill-opacity:1;fill-rule:nonzero;stroke:none"
         id="path101411"
         inkscape:connector-curvature="0" />
      <path
         d="m 203.941,166.432 0.48242,0 0,1.99063 -0.48242,0 0,-1.99063 z"
         style="fill:#ffd42a;fill-opacity:1;fill-rule:nonzero;stroke:none"
         id="path101413"
         inkscape:connector-curvature="0" />
      <path
         d="m 204.963,166.432 0.48203,0 0,1.99063 -0.48203,0 0,-1.99063 z"
         style="fill:#ffd42a;fill-opacity:1;fill-rule:nonzero;stroke:none"
         id="path101415"
         inkscape:connector-curvature="0" />
      <path
         d="m 205.991,166.432 0.48242,0 0,1.99063 -0.48242,0 0,-1.99063 z"
         style="fill:#ffd42a;fill-opacity:1;fill-rule:nonzero;stroke:none"
         id="path101417"
         inkscape:connector-curvature="0" />
      <path
         d="m 207.049,166.432 0.48242,0 0,1.99063 -0.48242,0 0,-1.99063 z"
         style="fill:#ffd42a;fill-opacity:1;fill-rule:nonzero;stroke:none"
         id="path101419"
         inkscape:connector-curvature="0" />
      <path
         d="m 208.084,166.432 0.48242,0 0,1.99063 -0.48242,0 0,-1.99063 z"
         style="fill:#ffd42a;fill-opacity:1;fill-rule:nonzero;stroke:none"
         id="path101421"
         inkscape:connector-curvature="0" />
      <path
         d="m 209.128,166.432 0.48164,0 0,1.99063 -0.48164,0 0,-1.99063 z"
         style="fill:#ffd42a;fill-opacity:1;fill-rule:nonzero;stroke:none"
         id="path101423"
         inkscape:connector-curvature="0" />
      <path
         d="m 210.167,166.432 0.48242,0 0,1.99063 -0.48242,0 0,-1.99063 z"
         style="fill:#ffd42a;fill-opacity:1;fill-rule:nonzero;stroke:none"
         id="path101425"
         inkscape:connector-curvature="0" />
      <path
         d="m 211.189,166.432 0.48242,0 0,1.99063 -0.48242,0 0,-1.99063 z"
         style="fill:#ffd42a;fill-opacity:1;fill-rule:nonzero;stroke:none"
         id="path101427"
         inkscape:connector-curvature="0" />
      <path
         d="m 212.218,166.432 0.48203,0 0,1.99063 -0.48203,0 0,-1.99063 z"
         style="fill:#ffd42a;fill-opacity:1;fill-rule:nonzero;stroke:none"
         id="path101429"
         inkscape:connector-curvature="0" />
      <path
         d="m 213.266,166.432 0.48242,0 0,1.99063 -0.48242,0 0,-1.99063 z"
         style="fill:#ffd42a;fill-opacity:1;fill-rule:nonzero;stroke:none"
         id="path101431"
         inkscape:connector-curvature="0" />
      <path
         d="m 214.302,166.432 0.48203,0 0,1.99063 -0.48203,0 0,-1.99063 z"
         style="fill:#ffd42a;fill-opacity:1;fill-rule:nonzero;stroke:none"
         id="path101433"
         inkscape:connector-curvature="0" />
      <path
         d="m 215.347,166.432 0.48242,0 0,1.99063 -0.48242,0 0,-1.99063 z"
         style="fill:#ffd42a;fill-opacity:1;fill-rule:nonzero;stroke:none"
         id="path101435"
         inkscape:connector-curvature="0" />
      <path
         d="m 216.389,166.432 0.48203,0 0,1.99063 -0.48203,0 0,-1.99063 z"
         style="fill:#ffd42a;fill-opacity:1;fill-rule:nonzero;stroke:none"
         id="path101437"
         inkscape:connector-curvature="0" />
      <path
         d="m 217.406,166.432 0.48242,0 0,1.99063 -0.48242,0 0,-1.99063 z"
         style="fill:#ffd42a;fill-opacity:1;fill-rule:nonzero;stroke:none"
         id="path101439"
         inkscape:connector-curvature="0" />
      <path
         d="m 218.436,166.432 0.48242,0 0,1.99063 -0.48242,0 0,-1.99063 z"
         style="fill:#ffd42a;fill-opacity:1;fill-rule:nonzero;stroke:none"
         id="path101441"
         inkscape:connector-curvature="0" />
      <path
         d="m 219.493,166.432 0.48203,0 0,1.99063 -0.48203,0 0,-1.99063 z"
         style="fill:#ffd42a;fill-opacity:1;fill-rule:nonzero;stroke:none"
         id="path101443"
         inkscape:connector-curvature="0" />
      <path
         d="m 220.528,166.432 0.48203,0 0,1.99063 -0.48203,0 0,-1.99063 z"
         style="fill:#ffd42a;fill-opacity:1;fill-rule:nonzero;stroke:none"
         id="path101445"
         inkscape:connector-curvature="0" />
      <path
         d="m 221.574,166.432 0.48203,0 0,1.99063 -0.48203,0 0,-1.99063 z"
         style="fill:#ffd42a;fill-opacity:1;fill-rule:nonzero;stroke:none"
         id="path101447"
         inkscape:connector-curvature="0" />
      <path
         d="m 222.614,166.432 0.48242,0 0,1.99063 -0.48242,0 0,-1.99063 z"
         style="fill:#ffd42a;fill-opacity:1;fill-rule:nonzero;stroke:none"
         id="path101449"
         inkscape:connector-curvature="0" />
      <path
         d="m 223.633,166.432 0.48242,0 0,1.99063 -0.48242,0 0,-1.99063 z"
         style="fill:#ffd42a;fill-opacity:1;fill-rule:nonzero;stroke:none"
         id="path101451"
         inkscape:connector-curvature="0" />
      <path
         d="m 224.664,166.432 0.48242,0 0,1.99063 -0.48242,0 0,-1.99063 z"
         style="fill:#ffd42a;fill-opacity:1;fill-rule:nonzero;stroke:none"
         id="path101453"
         inkscape:connector-curvature="0" />
      <path
         d="m 168.721,174.36 0,0.226 -0.347,0 0,2.659 -0.67,-0.336 0.042,-0.248 0.361,0.197 0,-2.276 -0.376,0 0,-0.222"
         style="fill:#ffffff;fill-opacity:1;fill-rule:nonzero;stroke:none"
         id="path101455"
         inkscape:connector-curvature="0" />
      <path
         d="m 242.531,215.039 0,0.227 -0.347,0 0,2.657 -0.671,-0.335 0.042,-0.248 0.361,0.197 0,-2.275 -0.375,0 0,-0.223"
         style="fill:#ffffff;fill-opacity:1;fill-rule:nonzero;stroke:none"
         id="path101457"
         inkscape:connector-curvature="0" />
      <path
         inkscape:connector-curvature="0"
         id="path101461"
         style="fill:none;stroke:#66ccff;stroke-width:0.2377921;stroke-linecap:round;stroke-linejoin:round;stroke-miterlimit:4;stroke-opacity:1;stroke-dasharray:none"
         d="m 249.43146,234.38383 35.97852,-0.21099" />
      <path
         d="m 249.896,234.38 c 0,-0.261 -0.213,-0.473 -0.476,-0.473 -0.263,0.003 -0.476,0.218 -0.474,0.479 0.002,0.262 0.217,0.473 0.48,0.471 0.262,0 0.474,-0.214 0.47,-0.477"
         style="fill:#66ccff;fill-opacity:1;fill-rule:evenodd;stroke:none"
         id="path101463"
         inkscape:connector-curvature="0" />
      <path
         inkscape:connector-curvature="0"
         id="path101467"
         style="fill:none;stroke:#66ccff;stroke-width:0.11889561;stroke-linecap:butt;stroke-linejoin:miter;stroke-miterlimit:4;stroke-opacity:1;stroke-dasharray:none"
         d="m 249.89604,234.38108 c 4.5e-4,-0.26245 -0.21357,-0.47393 -0.47505,-0.47338 -0.26248,0.002 -0.47795,0.21754 -0.47442,0.47897 0.003,0.26243 0.21755,0.4739 0.48001,0.47037 0.26149,4.5e-4 0.472,-0.21353 0.46946,-0.47596 z" />
      <path
         d="m 301.715,234.384 c 0,-5.4 -4.378,-9.773 -9.774,-9.773 -5.398,0 -9.774,4.373 -9.774,9.773 0,5.396 4.376,9.771 9.774,9.771 5.396,0 9.774,-4.375 9.774,-9.771"
         style="fill:#66ccff;fill-opacity:1;fill-rule:nonzero;stroke:none"
         id="path101469"
         inkscape:connector-curvature="0" />
      <path
         d="m 292.902,239.213 c -0.473,-0.358 -0.936,-0.773 -1.389,-1.248 -0.456,-0.477 -0.861,-0.99 -1.222,-1.535 -0.36,-0.55 -0.654,-1.125 -0.874,-1.728 -0.226,-0.606 -0.336,-1.214 -0.332,-1.83 -0.004,-0.437 0.059,-0.859 0.186,-1.268 0.121,-0.409 0.303,-0.773 0.546,-1.089 0.24,-0.319 0.538,-0.572 0.9,-0.761 0.358,-0.189 0.779,-0.282 1.262,-0.285 0.614,0.003 1.13,0.147 1.55,0.44 0.416,0.291 0.733,0.657 0.941,1.099 0.209,0.441 0.312,0.917 0.318,1.43 0.003,0.511 -0.093,0.987 -0.292,1.429 -0.201,0.438 -0.506,0.804 -0.909,1.1 -0.405,0.293 -0.913,0.443 -1.528,0.443 -0.339,0 -0.659,-0.071 -0.958,-0.209 -0.305,-0.138 -0.572,-0.321 -0.804,-0.553 0.299,0.818 0.735,1.559 1.308,2.231 0.57,0.666 1.199,1.256 1.884,1.776 l -0.587,0.558 z m 1.002,-6.727 c 0,-0.473 -0.1,-0.878 -0.294,-1.21 -0.197,-0.335 -0.443,-0.586 -0.736,-0.753 -0.296,-0.171 -0.611,-0.253 -0.947,-0.248 -0.341,0.006 -0.657,0.105 -0.948,0.303 -0.296,0.19 -0.542,0.493 -0.736,0.899 -0.197,0.406 -0.297,0.925 -0.293,1.556 -0.004,0.293 0.096,0.555 0.293,0.793 0.194,0.234 0.44,0.417 0.736,0.55 0.291,0.126 0.607,0.2 0.948,0.219 0.336,0.017 0.651,-0.043 0.947,-0.181 0.293,-0.138 0.539,-0.364 0.736,-0.673 0.194,-0.316 0.294,-0.734 0.294,-1.255"
         style="fill:#ffffff;fill-opacity:1;fill-rule:nonzero;stroke:none"
         id="path101471"
         inkscape:connector-curvature="0" />
      <path
         inkscape:connector-curvature="0"
         id="path101475"
         style="fill:none;stroke:#66ccff;stroke-width:0.2377921;stroke-linecap:round;stroke-linejoin:round;stroke-miterlimit:4;stroke-opacity:1;stroke-dasharray:none"
         d="M 201.66812,170.45824 201.4571,134.48672" />
      <path
         d="m 201.666,169.993 c -0.263,0.003 -0.474,0.216 -0.474,0.479 0.004,0.262 0.217,0.473 0.479,0.472 0.263,0 0.474,-0.215 0.474,-0.478 -0.002,-0.262 -0.217,-0.473 -0.479,-0.473"
         style="fill:#66ccff;fill-opacity:1;fill-rule:evenodd;stroke:none"
         id="path101477"
         inkscape:connector-curvature="0" />
      <path
         inkscape:connector-curvature="0"
         id="path101481"
         style="fill:none;stroke:#66ccff;stroke-width:0.11889561;stroke-linecap:butt;stroke-linejoin:miter;stroke-miterlimit:4;stroke-opacity:1;stroke-dasharray:none"
         d="m 201.66652,169.99248 c -0.26247,0.003 -0.47397,0.21752 -0.47442,0.47897 0.003,0.26243 0.21755,0.4739 0.48002,0.47236 0.26248,-5.5e-4 0.47299,-0.21553 0.47244,-0.47797 -0.003,-0.26143 -0.21557,-0.47391 -0.47804,-0.47336 z" />
      <path
         d="m 211.443,132.575 c 0,-5.395 -4.377,-9.772 -9.775,-9.772 -5.397,0 -9.772,4.377 -9.772,9.772 0,5.397 4.375,9.773 9.772,9.773 5.398,0 9.775,-4.376 9.775,-9.773"
         style="fill:#66ccff;fill-opacity:1;fill-rule:nonzero;stroke:none"
         id="path101483"
         inkscape:connector-curvature="0" />
      <path
         d="m 204.7,137.089 -5.942,0 -0.095,-0.828 4.808,0 -3.511,-8.412 c 0.15,0.021 0.298,0.021 0.451,0.004 0.15,-0.017 0.296,-0.042 0.443,-0.082"
         style="fill:#ffffff;fill-opacity:1;fill-rule:nonzero;stroke:none"
         id="path101485"
         inkscape:connector-curvature="0" />
    </g>
  </g>
</svg>
