<?xml version="1.0" encoding="UTF-8" standalone="no"?>
<!-- Created with Inkscape (http://www.inkscape.org/) -->

<svg
   xmlns:dc="http://purl.org/dc/elements/1.1/"
   xmlns:cc="http://creativecommons.org/ns#"
   xmlns:rdf="http://www.w3.org/1999/02/22-rdf-syntax-ns#"
   xmlns:svg="http://www.w3.org/2000/svg"
   xmlns="http://www.w3.org/2000/svg"
   xmlns:sodipodi="http://sodipodi.sourceforge.net/DTD/sodipodi-0.dtd"
   xmlns:inkscape="http://www.inkscape.org/namespaces/inkscape"
   width="660"
   height="101.33212"
   id="svg8595"
   version="1.1"
   inkscape:version="0.48.5 r10040"
   sodipodi:docname="lvds_dimensions_1.svg">
  <defs
     id="defs8597" />
  <sodipodi:namedview
     id="base"
     pagecolor="#ffffff"
     bordercolor="#666666"
     borderopacity="1.0"
     inkscape:pageopacity="0.0"
     inkscape:pageshadow="2"
     inkscape:zoom="0.35"
     inkscape:cx="-386.64981"
     inkscape:cy="376.00641"
     inkscape:document-units="px"
     inkscape:current-layer="layer1"
     showgrid="false"
     fit-margin-top="5"
     fit-margin-left="5"
     fit-margin-right="5"
     fit-margin-bottom="5"
     inkscape:window-width="1280"
     inkscape:window-height="778"
     inkscape:window-x="0"
     inkscape:window-y="0"
     inkscape:window-maximized="1" />
  <metadata
     id="metadata8600">
    <rdf:RDF>
      <cc:Work
         rdf:about="">
        <dc:format>image/svg+xml</dc:format>
        <dc:type
           rdf:resource="http://purl.org/dc/dcmitype/StillImage" />
        <dc:title></dc:title>
      </cc:Work>
    </rdf:RDF>
  </metadata>
  <g
     inkscape:label="Layer 1"
     inkscape:groupmode="layer"
     id="layer1"
     transform="translate(-154.50694,-807.03646)">
    <g
       id="g109620"
       transform="matrix(2.8871926,0,0,-2.8871926,-121.12761,1657.1164)">
      <path
         d="m 251.068,286.219 -0.007,3.945 31.684,0 0.007,-3.978 4.523,0.005 0,-8.061 -40.696,0 0,8.065"
         style="fill:#ffffff;fill-opacity:1;fill-rule:nonzero;stroke:none"
         id="path106369"
         inkscape:connector-curvature="0" />
      <path
         inkscape:connector-curvature="0"
         id="path106373"
         style="fill:none;stroke:#000000;stroke-width:0.08471295;stroke-linecap:round;stroke-linejoin:round;stroke-miterlimit:4;stroke-opacity:1;stroke-dasharray:none"
         d="m 251.07003,286.21991 -0.008,3.94393 31.68447,0 0.008,-3.97883 4.52263,0.007 0,-8.06039 -40.69764,0 0,8.06438 4.49054,0.0239 z" />
      <path
         d="m 175.192,290.244 4.312,0 0,-4.021 64.27,-0.014 -0.02,4.035 4.403,0 0,-12.123 -72.965,0"
         style="fill:#ffffff;fill-opacity:1;fill-rule:nonzero;stroke:none"
         id="path106375"
         inkscape:connector-curvature="0" />
      <path
         inkscape:connector-curvature="0"
         id="path106379"
         style="fill:none;stroke:#000000;stroke-width:0.05796603;stroke-linecap:round;stroke-linejoin:round;stroke-miterlimit:4;stroke-opacity:1;stroke-dasharray:none"
         d="m 175.19117,290.24462 4.31404,0 0,-4.02272 64.26945,-0.012 -0.0191,4.03468 4.4043,0 0,-12.12398 -72.96874,0 0,12.12398 z" />
      <path
         d="m 118.521,274.204 173.004,0 0,3.90039 -173.004,0 0,-3.90039 z"
         style="fill:#374845;fill-opacity:1;fill-rule:nonzero;stroke:none"
         id="path106381"
         inkscape:connector-curvature="0" />
      <path
         inkscape:connector-curvature="0"
         id="path106385"
         style="fill:none;stroke:#000000;stroke-width:0.0694151;stroke-linecap:round;stroke-linejoin:round;stroke-miterlimit:3.9858501;stroke-opacity:1;stroke-dasharray:none"
         d="m 118.52193,278.10368 173.00507,0 0,-3.90005 -173.00507,0 0,3.90005 z" />
      <path
         d="m 159.754,278.202 18.7965,0 0,14.3617 -18.7965,0 0,-14.3617 z"
         style="fill:#f4f4f4;fill-opacity:1;fill-rule:nonzero;stroke:none"
         id="path106387"
         inkscape:connector-curvature="0" />
      <path
         inkscape:connector-curvature="0"
         id="path106391"
         style="fill:none;stroke:#000000;stroke-width:0.0694151;stroke-linecap:round;stroke-linejoin:round;stroke-miterlimit:3.9858501;stroke-opacity:1;stroke-dasharray:none"
         d="m 159.75507,292.56411 18.79648,0 0,-14.3617 -18.79648,0 0,14.3617 z" />
      <path
         d="m 161.518,279.551 15.2645,0 0,11.6641 -15.2645,0 0,-11.6641 z"
         style="fill:#eaeaea;fill-opacity:1;fill-rule:nonzero;stroke:none"
         id="path106393"
         inkscape:connector-curvature="0" />
      <path
         inkscape:connector-curvature="0"
         id="path106397"
         style="fill:none;stroke:#000000;stroke-width:0.0694151;stroke-linecap:round;stroke-linejoin:round;stroke-miterlimit:3.9858501;stroke-opacity:1;stroke-dasharray:none"
         d="m 161.51799,291.21489 15.26462,0 0,-11.66427 -15.26462,0 0,11.66427 z" />
      <path
         d="m 163.651,291.221 10.8871,0 0,1.33828 -10.8871,0 0,-1.33828 z"
         style="fill:#f2f2f2;fill-opacity:1;fill-rule:nonzero;stroke:none"
         id="path106399"
         inkscape:connector-curvature="0" />
      <path
         inkscape:connector-curvature="0"
         id="path106403"
         style="fill:none;stroke:#000000;stroke-width:0.0694151;stroke-linecap:round;stroke-linejoin:round;stroke-miterlimit:3.9858501;stroke-opacity:1;stroke-dasharray:none"
         d="m 163.65195,292.56012 10.8874,0 0,-1.33825 -10.8874,0 0,1.33825 z" />
      <path
         d="m 159.754,287.76 1.76406,0 0,3.45742 -1.76406,0 0,-3.45742 z"
         style="fill:#f2f2f2;fill-opacity:1;fill-rule:nonzero;stroke:none"
         id="path106405"
         inkscape:connector-curvature="0" />
      <path
         inkscape:connector-curvature="0"
         id="path106409"
         style="fill:none;stroke:#000000;stroke-width:0.0694151;stroke-linecap:round;stroke-linejoin:round;stroke-miterlimit:3.9858501;stroke-opacity:1;stroke-dasharray:none"
         d="m 159.75507,291.21789 1.76292,0 0,-3.4573 -1.76292,0 0,3.4573 z" />
      <path
         d="m 176.782,287.76 1.76719,0 0,3.45742 -1.76719,0 0,-3.45742 z"
         style="fill:#f2f2f2;fill-opacity:1;fill-rule:nonzero;stroke:none"
         id="path106411"
         inkscape:connector-curvature="0" />
      <path
         inkscape:connector-curvature="0"
         id="path106415"
         style="fill:none;stroke:#000000;stroke-width:0.0694151;stroke-linecap:round;stroke-linejoin:round;stroke-miterlimit:3.9858501;stroke-opacity:1;stroke-dasharray:none"
         d="m 176.78261,291.21789 1.76693,0 0,-3.4573 -1.76693,0 0,3.4573 z" />
      <path
         d="m 165.419,286.618 1.03047,0 0,1.03398 -1.03047,0 0,-1.03398 z"
         style="fill:#c0c0c0;fill-opacity:1;fill-rule:nonzero;stroke:none"
         id="path106417"
         inkscape:connector-curvature="0" />
      <path
         inkscape:connector-curvature="0"
         id="path106421"
         style="fill:none;stroke:#000000;stroke-width:0.0694151;stroke-linecap:round;stroke-linejoin:round;stroke-miterlimit:3.9858501;stroke-opacity:1;stroke-dasharray:none"
         d="m 165.41888,287.65289 1.03188,0 0,-1.0341 -1.03188,0 0,1.0341 z" />
      <path
         d="m 165.657,286.854 0.55469,0 0,0.55781 -0.55469,0 0,-0.55781 z"
         style="fill:#bfbfbf;fill-opacity:1;fill-rule:nonzero;stroke:none"
         id="path106423"
         inkscape:connector-curvature="0" />
      <path
         inkscape:connector-curvature="0"
         id="path106427"
         style="fill:none;stroke:#000000;stroke-width:0.0694151;stroke-linecap:round;stroke-linejoin:round;stroke-miterlimit:3.9858501;stroke-opacity:1;stroke-dasharray:none"
         d="m 165.65855,287.41157 0.55455,0 0,-0.55844 -0.55455,0 0,0.55844 z" />
      <path
         d="m 171.813,286.618 1.03008,0 0,1.03398 -1.03008,0 0,-1.03398 z"
         style="fill:#c0c0c0;fill-opacity:1;fill-rule:nonzero;stroke:none"
         id="path106429"
         inkscape:connector-curvature="0" />
      <path
         inkscape:connector-curvature="0"
         id="path106433"
         style="fill:none;stroke:#000000;stroke-width:0.0694151;stroke-linecap:round;stroke-linejoin:round;stroke-miterlimit:3.9858501;stroke-opacity:1;stroke-dasharray:none"
         d="m 171.81374,287.65289 1.02987,0 0,-1.0341 -1.02987,0 0,1.0341 z" />
      <path
         d="m 172.048,286.854 0.55781,0 0,0.55781 -0.55781,0 0,-0.55781 z"
         style="fill:#bfbfbf;fill-opacity:1;fill-rule:nonzero;stroke:none"
         id="path106435"
         inkscape:connector-curvature="0" />
      <path
         inkscape:connector-curvature="0"
         id="path106439"
         style="fill:none;stroke:#000000;stroke-width:0.0694151;stroke-linecap:round;stroke-linejoin:round;stroke-miterlimit:3.9858501;stroke-opacity:1;stroke-dasharray:none"
         d="m 172.04839,287.41157 0.55655,0 0,-0.55844 -0.55655,0 0,0.55844 z" />
      <path
         d="m 182.801,278.121 86.9227,0 0,4.58594 -86.9227,0 0,-4.58594 z"
         style="fill:#c8c4b7;fill-opacity:1;fill-rule:nonzero;stroke:none"
         id="path106441"
         inkscape:connector-curvature="0" />
      <path
         inkscape:connector-curvature="0"
         id="path106445"
         style="fill:none;stroke:#000000;stroke-width:0.0694151;stroke-linecap:round;stroke-linejoin:round;stroke-miterlimit:3.9858501;stroke-opacity:1;stroke-dasharray:none"
         d="m 182.80242,282.70776 0,-4.58712 86.9227,0 0,4.58712 -86.9227,0 z" />
      <path
         d="m 185.262,278.675 82.0016,0 0,3.47891 -82.0016,0 0,-3.47891 z"
         style="fill:#a49e88;fill-opacity:1;fill-rule:nonzero;stroke:none"
         id="path106447"
         inkscape:connector-curvature="0" />
      <path
         inkscape:connector-curvature="0"
         id="path106451"
         style="fill:none;stroke:#000000;stroke-width:0.0694151;stroke-linecap:round;stroke-linejoin:round;stroke-miterlimit:3.9858501;stroke-opacity:1;stroke-dasharray:none"
         d="m 185.26229,282.15332 0,-3.47824 82.00196,0 0,3.47824 -82.00196,0 z" />
      <path
         d="m 192.995,280.055 0.87305,0 0,0.71641 -0.87305,0 0,-0.71641 z"
         style="fill:#e6e6e6;fill-opacity:1;fill-rule:nonzero;stroke:none"
         id="path106453"
         inkscape:connector-curvature="0" />
      <path
         inkscape:connector-curvature="0"
         id="path106457"
         style="fill:none;stroke:#000000;stroke-width:0.0694148;stroke-linecap:round;stroke-linejoin:round;stroke-miterlimit:3.9858501;stroke-opacity:1;stroke-dasharray:none"
         d="m 193.86749,280.05442 0,0.71692 -0.87172,0 0,-0.71692 0.87172,0 z" />
      <path
         d="m 195.618,280.055 0.87383,0 0,0.71641 -0.87383,0 0,-0.71641 z"
         style="fill:#e6e6e6;fill-opacity:1;fill-rule:nonzero;stroke:none"
         id="path106459"
         inkscape:connector-curvature="0" />
      <path
         inkscape:connector-curvature="0"
         id="path106463"
         style="fill:none;stroke:#000000;stroke-width:0.0694148;stroke-linecap:round;stroke-linejoin:round;stroke-miterlimit:3.9858501;stroke-opacity:1;stroke-dasharray:none"
         d="m 196.49089,280.05442 0,0.71692 -0.87447,0 0,-0.71692 0.87447,0 z" />
      <path
         d="m 198.246,280.055 0.87383,0 0,0.71641 -0.87383,0 0,-0.71641 z"
         style="fill:#e6e6e6;fill-opacity:1;fill-rule:nonzero;stroke:none"
         id="path106465"
         inkscape:connector-curvature="0" />
      <path
         inkscape:connector-curvature="0"
         id="path106469"
         style="fill:none;stroke:#000000;stroke-width:0.0694148;stroke-linecap:round;stroke-linejoin:round;stroke-miterlimit:3.9858501;stroke-opacity:1;stroke-dasharray:none"
         d="m 199.11982,280.05442 0,0.71692 -0.87447,0 0,-0.71692 0.87447,0 z" />
      <path
         d="m 200.873,280.055 0.87383,0 0,0.71641 -0.87383,0 0,-0.71641 z"
         style="fill:#e6e6e6;fill-opacity:1;fill-rule:nonzero;stroke:none"
         id="path106471"
         inkscape:connector-curvature="0" />
      <path
         inkscape:connector-curvature="0"
         id="path106475"
         style="fill:none;stroke:#000000;stroke-width:0.0694148;stroke-linecap:round;stroke-linejoin:round;stroke-miterlimit:3.9858501;stroke-opacity:1;stroke-dasharray:none"
         d="m 201.74599,280.05442 0,0.71692 -0.87447,0 0,-0.71692 0.87447,0 z" />
      <path
         d="m 203.501,280.055 0.87383,0 0,0.71641 -0.87383,0 0,-0.71641 z"
         style="fill:#e6e6e6;fill-opacity:1;fill-rule:nonzero;stroke:none"
         id="path106477"
         inkscape:connector-curvature="0" />
      <path
         inkscape:connector-curvature="0"
         id="path106481"
         style="fill:none;stroke:#000000;stroke-width:0.0694148;stroke-linecap:round;stroke-linejoin:round;stroke-miterlimit:3.9858501;stroke-opacity:1;stroke-dasharray:none"
         d="m 204.37354,280.05442 0,0.71692 -0.87309,0 0,-0.71692 0.87309,0 z" />
      <path
         d="m 206.128,280.055 0.87266,0 0,0.71641 -0.87266,0 0,-0.71641 z"
         style="fill:#e6e6e6;fill-opacity:1;fill-rule:nonzero;stroke:none"
         id="path106483"
         inkscape:connector-curvature="0" />
      <path
         inkscape:connector-curvature="0"
         id="path106487"
         style="fill:none;stroke:#000000;stroke-width:0.0694148;stroke-linecap:round;stroke-linejoin:round;stroke-miterlimit:3.9858501;stroke-opacity:1;stroke-dasharray:none"
         d="m 207.00108,280.05442 0,0.71692 -0.87171,0 0,-0.71692 0.87171,0 z" />
      <path
         d="m 208.751,280.055 0.87383,0 0,0.71641 -0.87383,0 0,-0.71641 z"
         style="fill:#e6e6e6;fill-opacity:1;fill-rule:nonzero;stroke:none"
         id="path106489"
         inkscape:connector-curvature="0" />
      <path
         inkscape:connector-curvature="0"
         id="path106493"
         style="fill:none;stroke:#000000;stroke-width:0.0694148;stroke-linecap:round;stroke-linejoin:round;stroke-miterlimit:3.9858501;stroke-opacity:1;stroke-dasharray:none"
         d="m 209.62449,280.05442 0,0.71692 -0.87447,0 0,-0.71692 0.87447,0 z" />
      <path
         d="m 211.379,280.055 0.87344,0 0,0.71641 -0.87344,0 0,-0.71641 z"
         style="fill:#e6e6e6;fill-opacity:1;fill-rule:nonzero;stroke:none"
         id="path106495"
         inkscape:connector-curvature="0" />
      <path
         inkscape:connector-curvature="0"
         id="path106499"
         style="fill:none;stroke:#000000;stroke-width:0.0694148;stroke-linecap:round;stroke-linejoin:round;stroke-miterlimit:3.9858501;stroke-opacity:1;stroke-dasharray:none"
         d="m 212.25342,280.05442 0,0.71692 -0.87447,0 0,-0.71692 0.87447,0 z" />
      <path
         d="m 187.74,280.055 0.87344,0 0,0.71641 -0.87344,0 0,-0.71641 z"
         style="fill:#e6e6e6;fill-opacity:1;fill-rule:nonzero;stroke:none"
         id="path106501"
         inkscape:connector-curvature="0" />
      <path
         inkscape:connector-curvature="0"
         id="path106505"
         style="fill:none;stroke:#000000;stroke-width:0.0694148;stroke-linecap:round;stroke-linejoin:round;stroke-miterlimit:3.9858501;stroke-opacity:1;stroke-dasharray:none"
         d="m 188.61377,280.05442 0,0.71692 -0.87309,0 0,-0.71692 0.87309,0 z" />
      <path
         d="m 190.367,280.055 0.87344,0 0,0.71641 -0.87344,0 0,-0.71641 z"
         style="fill:#e6e6e6;fill-opacity:1;fill-rule:nonzero;stroke:none"
         id="path106507"
         inkscape:connector-curvature="0" />
      <path
         inkscape:connector-curvature="0"
         id="path106511"
         style="fill:none;stroke:#000000;stroke-width:0.0694148;stroke-linecap:round;stroke-linejoin:round;stroke-miterlimit:3.9858501;stroke-opacity:1;stroke-dasharray:none"
         d="m 191.23994,280.05442 0,0.71692 -0.87309,0 0,-0.71692 0.87309,0 z" />
      <path
         d="m 219.261,280.055 0.87344,0 0,0.71641 -0.87344,0 0,-0.71641 z"
         style="fill:#e6e6e6;fill-opacity:1;fill-rule:nonzero;stroke:none"
         id="path106513"
         inkscape:connector-curvature="0" />
      <path
         inkscape:connector-curvature="0"
         id="path106517"
         style="fill:none;stroke:#000000;stroke-width:0.0694148;stroke-linecap:round;stroke-linejoin:round;stroke-miterlimit:3.9858501;stroke-opacity:1;stroke-dasharray:none"
         d="m 220.13468,280.05442 0,0.71692 -0.87309,0 0,-0.71692 0.87309,0 z" />
      <path
         d="m 221.885,280.055 0.87344,0 0,0.71641 -0.87344,0 0,-0.71641 z"
         style="fill:#e6e6e6;fill-opacity:1;fill-rule:nonzero;stroke:none"
         id="path106519"
         inkscape:connector-curvature="0" />
      <path
         inkscape:connector-curvature="0"
         id="path106523"
         style="fill:none;stroke:#000000;stroke-width:0.0694148;stroke-linecap:round;stroke-linejoin:round;stroke-miterlimit:3.9858501;stroke-opacity:1;stroke-dasharray:none"
         d="m 222.75809,280.05442 0,0.71692 -0.87171,0 0,-0.71692 0.87171,0 z" />
      <path
         d="m 224.512,280.055 0.87305,0 0,0.71641 -0.87305,0 0,-0.71641 z"
         style="fill:#e6e6e6;fill-opacity:1;fill-rule:nonzero;stroke:none"
         id="path106525"
         inkscape:connector-curvature="0" />
      <path
         inkscape:connector-curvature="0"
         id="path106529"
         style="fill:none;stroke:#000000;stroke-width:0.0694148;stroke-linecap:round;stroke-linejoin:round;stroke-miterlimit:3.9858501;stroke-opacity:1;stroke-dasharray:none"
         d="m 225.38426,280.05442 0,0.71692 -0.87171,0 0,-0.71692 0.87171,0 z" />
      <path
         d="m 227.139,280.055 0.87383,0 0,0.71641 -0.87383,0 0,-0.71641 z"
         style="fill:#e6e6e6;fill-opacity:1;fill-rule:nonzero;stroke:none"
         id="path106531"
         inkscape:connector-curvature="0" />
      <path
         inkscape:connector-curvature="0"
         id="path106535"
         style="fill:none;stroke:#000000;stroke-width:0.0694148;stroke-linecap:round;stroke-linejoin:round;stroke-miterlimit:3.9858501;stroke-opacity:1;stroke-dasharray:none"
         d="m 228.01319,280.05442 0,0.71692 -0.87309,0 0,-0.71692 0.87309,0 z" />
      <path
         d="m 229.766,280.055 0.87383,0 0,0.71641 -0.87383,0 0,-0.71641 z"
         style="fill:#e6e6e6;fill-opacity:1;fill-rule:nonzero;stroke:none"
         id="path106537"
         inkscape:connector-curvature="0" />
      <path
         inkscape:connector-curvature="0"
         id="path106541"
         style="fill:none;stroke:#000000;stroke-width:0.0694148;stroke-linecap:round;stroke-linejoin:round;stroke-miterlimit:3.9858501;stroke-opacity:1;stroke-dasharray:none"
         d="m 230.63936,280.05442 0,0.71692 -0.87309,0 0,-0.71692 0.87309,0 z" />
      <path
         d="m 232.395,280.055 0.87344,0 0,0.71641 -0.87344,0 0,-0.71641 z"
         style="fill:#e6e6e6;fill-opacity:1;fill-rule:nonzero;stroke:none"
         id="path106543"
         inkscape:connector-curvature="0" />
      <path
         inkscape:connector-curvature="0"
         id="path106547"
         style="fill:none;stroke:#000000;stroke-width:0.0694148;stroke-linecap:round;stroke-linejoin:round;stroke-miterlimit:3.9858501;stroke-opacity:1;stroke-dasharray:none"
         d="m 233.26828,280.05442 0,0.71692 -0.87309,0 0,-0.71692 0.87309,0 z" />
      <path
         d="m 235.019,280.055 0.87344,0 0,0.71641 -0.87344,0 0,-0.71641 z"
         style="fill:#e6e6e6;fill-opacity:1;fill-rule:nonzero;stroke:none"
         id="path106549"
         inkscape:connector-curvature="0" />
      <path
         inkscape:connector-curvature="0"
         id="path106553"
         style="fill:none;stroke:#000000;stroke-width:0.0694148;stroke-linecap:round;stroke-linejoin:round;stroke-miterlimit:3.9858501;stroke-opacity:1;stroke-dasharray:none"
         d="m 235.89169,280.05442 0,0.71692 -0.87309,0 0,-0.71692 0.87309,0 z" />
      <path
         d="m 237.646,280.055 0.87305,0 0,0.71641 -0.87305,0 0,-0.71641 z"
         style="fill:#e6e6e6;fill-opacity:1;fill-rule:nonzero;stroke:none"
         id="path106555"
         inkscape:connector-curvature="0" />
      <path
         inkscape:connector-curvature="0"
         id="path106559"
         style="fill:none;stroke:#000000;stroke-width:0.0694148;stroke-linecap:round;stroke-linejoin:round;stroke-miterlimit:3.9858501;stroke-opacity:1;stroke-dasharray:none"
         d="m 238.51786,280.05442 0,0.71692 -0.87171,0 0,-0.71692 0.87171,0 z" />
      <path
         d="m 214.005,280.055 0.87383,0 0,0.71641 -0.87383,0 0,-0.71641 z"
         style="fill:#e6e6e6;fill-opacity:1;fill-rule:nonzero;stroke:none"
         id="path106561"
         inkscape:connector-curvature="0" />
      <path
         inkscape:connector-curvature="0"
         id="path106565"
         style="fill:none;stroke:#000000;stroke-width:0.0694148;stroke-linecap:round;stroke-linejoin:round;stroke-miterlimit:3.9858501;stroke-opacity:1;stroke-dasharray:none"
         d="m 214.87959,280.05442 0,0.71692 -0.87309,0 0,-0.71692 0.87309,0 z" />
      <path
         d="m 216.634,280.055 0.87383,0 0,0.71641 -0.87383,0 0,-0.71641 z"
         style="fill:#e6e6e6;fill-opacity:1;fill-rule:nonzero;stroke:none"
         id="path106567"
         inkscape:connector-curvature="0" />
      <path
         inkscape:connector-curvature="0"
         id="path106571"
         style="fill:none;stroke:#000000;stroke-width:0.0694148;stroke-linecap:round;stroke-linejoin:round;stroke-miterlimit:3.9858501;stroke-opacity:1;stroke-dasharray:none"
         d="m 217.50714,280.05442 0,0.71692 -0.87309,0 0,-0.71692 0.87309,0 z" />
      <path
         d="m 245.529,280.055 0.87305,0 0,0.71641 -0.87305,0 0,-0.71641 z"
         style="fill:#e6e6e6;fill-opacity:1;fill-rule:nonzero;stroke:none"
         id="path106573"
         inkscape:connector-curvature="0" />
      <path
         inkscape:connector-curvature="0"
         id="path106577"
         style="fill:none;stroke:#000000;stroke-width:0.0694148;stroke-linecap:round;stroke-linejoin:round;stroke-miterlimit:3.9858501;stroke-opacity:1;stroke-dasharray:none"
         d="m 246.40188,280.05442 0,0.71692 -0.87309,0 0,-0.71692 0.87309,0 z" />
      <path
         d="m 248.152,280.055 0.87383,0 0,0.71641 -0.87383,0 0,-0.71641 z"
         style="fill:#e6e6e6;fill-opacity:1;fill-rule:nonzero;stroke:none"
         id="path106579"
         inkscape:connector-curvature="0" />
      <path
         inkscape:connector-curvature="0"
         id="path106583"
         style="fill:none;stroke:#000000;stroke-width:0.0694148;stroke-linecap:round;stroke-linejoin:round;stroke-miterlimit:3.9858501;stroke-opacity:1;stroke-dasharray:none"
         d="m 249.02529,280.05442 0,0.71692 -0.87309,0 0,-0.71692 0.87309,0 z" />
      <path
         d="m 250.779,280.055 0.87344,0 0,0.71641 -0.87344,0 0,-0.71641 z"
         style="fill:#e6e6e6;fill-opacity:1;fill-rule:nonzero;stroke:none"
         id="path106585"
         inkscape:connector-curvature="0" />
      <path
         inkscape:connector-curvature="0"
         id="path106589"
         style="fill:none;stroke:#000000;stroke-width:0.0694148;stroke-linecap:round;stroke-linejoin:round;stroke-miterlimit:3.9858501;stroke-opacity:1;stroke-dasharray:none"
         d="m 251.65146,280.05442 0,0.71692 -0.87309,0 0,-0.71692 0.87309,0 z" />
      <path
         d="m 253.405,280.055 0.87383,0 0,0.71641 -0.87383,0 0,-0.71641 z"
         style="fill:#e6e6e6;fill-opacity:1;fill-rule:nonzero;stroke:none"
         id="path106591"
         inkscape:connector-curvature="0" />
      <path
         inkscape:connector-curvature="0"
         id="path106595"
         style="fill:none;stroke:#000000;stroke-width:0.0694148;stroke-linecap:round;stroke-linejoin:round;stroke-miterlimit:3.9858501;stroke-opacity:1;stroke-dasharray:none"
         d="m 254.27901,280.05442 0,0.71692 -0.87171,0 0,-0.71692 0.87171,0 z" />
      <path
         d="m 256.033,280.055 0.87383,0 0,0.71641 -0.87383,0 0,-0.71641 z"
         style="fill:#e6e6e6;fill-opacity:1;fill-rule:nonzero;stroke:none"
         id="path106597"
         inkscape:connector-curvature="0" />
      <path
         inkscape:connector-curvature="0"
         id="path106601"
         style="fill:none;stroke:#000000;stroke-width:0.0694148;stroke-linecap:round;stroke-linejoin:round;stroke-miterlimit:3.9858501;stroke-opacity:1;stroke-dasharray:none"
         d="m 256.90656,280.05442 0,0.71692 -0.8731,0 0,-0.71692 0.8731,0 z" />
      <path
         d="m 258.661,280.055 0.87266,0 0,0.71641 -0.87266,0 0,-0.71641 z"
         style="fill:#e6e6e6;fill-opacity:1;fill-rule:nonzero;stroke:none"
         id="path106603"
         inkscape:connector-curvature="0" />
      <path
         inkscape:connector-curvature="0"
         id="path106607"
         style="fill:none;stroke:#000000;stroke-width:0.0694148;stroke-linecap:round;stroke-linejoin:round;stroke-miterlimit:3.9858501;stroke-opacity:1;stroke-dasharray:none"
         d="m 259.5341,280.05442 0,0.71692 -0.87171,0 0,-0.71692 0.87171,0 z" />
      <path
         d="m 261.284,280.055 0.87383,0 0,0.71641 -0.87383,0 0,-0.71641 z"
         style="fill:#e6e6e6;fill-opacity:1;fill-rule:nonzero;stroke:none"
         id="path106609"
         inkscape:connector-curvature="0" />
      <path
         inkscape:connector-curvature="0"
         id="path106613"
         style="fill:none;stroke:#000000;stroke-width:0.0694148;stroke-linecap:round;stroke-linejoin:round;stroke-miterlimit:3.9858501;stroke-opacity:1;stroke-dasharray:none"
         d="m 262.15889,280.05442 0,0.71692 -0.87309,0 0,-0.71692 0.87309,0 z" />
      <path
         d="m 263.913,280.055 0.87344,0 0,0.71641 -0.87344,0 0,-0.71641 z"
         style="fill:#e6e6e6;fill-opacity:1;fill-rule:nonzero;stroke:none"
         id="path106615"
         inkscape:connector-curvature="0" />
      <path
         inkscape:connector-curvature="0"
         id="path106619"
         style="fill:none;stroke:#000000;stroke-width:0.0694148;stroke-linecap:round;stroke-linejoin:round;stroke-miterlimit:3.9858501;stroke-opacity:1;stroke-dasharray:none"
         d="m 264.78506,280.05442 0,0.71692 -0.87309,0 0,-0.71692 0.87309,0 z" />
      <path
         d="m 240.273,280.055 0.87344,0 0,0.71641 -0.87344,0 0,-0.71641 z"
         style="fill:#e6e6e6;fill-opacity:1;fill-rule:nonzero;stroke:none"
         id="path106621"
         inkscape:connector-curvature="0" />
      <path
         inkscape:connector-curvature="0"
         id="path106625"
         style="fill:none;stroke:#000000;stroke-width:0.0694148;stroke-linecap:round;stroke-linejoin:round;stroke-miterlimit:3.9858501;stroke-opacity:1;stroke-dasharray:none"
         d="m 241.14679,280.05442 0,0.71692 -0.87309,0 0,-0.71692 0.87309,0 z" />
      <path
         d="m 242.9,280.055 0.87344,0 0,0.71641 -0.87344,0 0,-0.71641 z"
         style="fill:#e6e6e6;fill-opacity:1;fill-rule:nonzero;stroke:none"
         id="path106627"
         inkscape:connector-curvature="0" />
      <path
         inkscape:connector-curvature="0"
         id="path106631"
         style="fill:none;stroke:#000000;stroke-width:0.0694148;stroke-linecap:round;stroke-linejoin:round;stroke-miterlimit:3.9858501;stroke-opacity:1;stroke-dasharray:none"
         d="m 243.77296,280.05442 0,0.71692 -0.87309,0 0,-0.71692 0.87309,0 z" />
      <path
         inkscape:connector-curvature="0"
         id="path106635"
         style="fill:none;stroke:#000000;stroke-width:0.0694151;stroke-linecap:round;stroke-linejoin:round;stroke-miterlimit:4;stroke-opacity:1;stroke-dasharray:none"
         d="m 272.28928,274.18568 11.32061,0 0,-7.2008 -5.17545,-0.008 0.003,-1.59751 -6.14817,0 0,8.80629 z" />
      <path
         inkscape:connector-curvature="0"
         id="path106639"
         style="fill:none;stroke:#000000;stroke-width:0.04650176;stroke-linecap:round;stroke-linejoin:round;stroke-miterlimit:4;stroke-opacity:1;stroke-dasharray:none"
         d="m 274.49243,274.16673 7.58117,0 0,-5.90144 -7.58117,0 0,5.90144 z" />
      <path
         inkscape:connector-curvature="0"
         id="path106643"
         style="fill:none;stroke:#000000;stroke-width:0.069253;stroke-linecap:round;stroke-linejoin:round;stroke-miterlimit:4;stroke-opacity:1;stroke-dasharray:none"
         d="m 181.72441,274.07898 73.61454,0 0,-4.32686 -73.61454,0 0,4.32686 z" />
      <path
         d="m 133.802,278.152 19.3027,0 0,12.7926 -19.3027,0 0,-12.7926 z"
         style="fill:#ffffff;fill-opacity:1;fill-rule:nonzero;stroke:none"
         id="path106645"
         inkscape:connector-curvature="0" />
      <path
         inkscape:connector-curvature="0"
         id="path106649"
         style="fill:none;stroke:#000000;stroke-width:0.05260275;stroke-linecap:round;stroke-linejoin:round;stroke-miterlimit:4;stroke-opacity:1;stroke-dasharray:none"
         d="m 133.8026,290.94366 19.3039,0 0,-12.79211 -19.3039,0 0,12.79211 z" />
      <path
         d="m 122.185,280.963 11.5594,0 0,1.1457 -11.5594,0 0,-1.1457 z"
         style="fill:#ffffff;fill-opacity:1;fill-rule:nonzero;stroke:none"
         id="path106651"
         inkscape:connector-curvature="0" />
      <path
         inkscape:connector-curvature="0"
         id="path106655"
         style="fill:none;stroke:#000000;stroke-width:0.06941466;stroke-linecap:round;stroke-linejoin:round;stroke-miterlimit:4;stroke-opacity:1;stroke-dasharray:none"
         d="m 122.18541,282.10765 11.56068,0 0,-1.14472 -11.56068,0 0,1.14472 z" />
      <path
         d="m 121.594,281.825 0.588,0.29 0,-1.155 -0.588,0.291"
         style="fill:#ffffff;fill-opacity:1;fill-rule:nonzero;stroke:none"
         id="path106657"
         inkscape:connector-curvature="0" />
      <path
         inkscape:connector-curvature="0"
         id="path106661"
         style="fill:none;stroke:#000000;stroke-width:0.06941466;stroke-linecap:round;stroke-linejoin:round;stroke-miterlimit:4;stroke-opacity:1;stroke-dasharray:none"
         d="m 121.59408,281.82312 0.58682,0.29113 0,-1.15571 -0.58682,0.29002 0,0.57456 z" />
      <path
         inkscape:connector-curvature="0"
         id="path106665"
         style="fill:none;stroke:#ff0000;stroke-width:0.0694151;stroke-linecap:round;stroke-linejoin:round;stroke-miterlimit:4;stroke-opacity:1;stroke-dasharray:none"
         d="m 159.75807,278.29315 0,-14.45544" />
      <path
         inkscape:connector-curvature="0"
         id="path106669"
         style="fill:none;stroke:#ff0000;stroke-width:0.0694151;stroke-linecap:round;stroke-linejoin:round;stroke-miterlimit:4;stroke-opacity:1;stroke-dasharray:none"
         d="m 118.52595,274.05205 0,-10.21434" />
      <path
         inkscape:connector-curvature="0"
         id="path106673"
         style="fill:none;stroke:#ff0000;stroke-width:0.0694151;stroke-linecap:round;stroke-linejoin:round;stroke-miterlimit:4;stroke-opacity:1;stroke-dasharray:none"
         d="m 291.95118,278.12762 4.70012,0" />
      <path
         inkscape:connector-curvature="0"
         id="path106677"
         style="fill:none;stroke:#ff0000;stroke-width:0.0694151;stroke-linecap:round;stroke-linejoin:round;stroke-miterlimit:4;stroke-opacity:1;stroke-dasharray:none"
         d="m 291.95118,274.12584 4.70012,0" />
      <path
         inkscape:connector-curvature="0"
         id="path106681"
         style="fill:none;stroke:#ff0000;stroke-width:0.0694151;stroke-linecap:round;stroke-linejoin:round;stroke-miterlimit:4;stroke-opacity:1;stroke-dasharray:none"
         d="m 296.33141,278.25027 0,4.79854" />
      <path
         d="m 296.165,278.615 0.165,-0.458 0.167,0.458 c -0.098,-0.076 -0.234,-0.076 -0.332,0"
         style="fill:#ff0000;fill-opacity:1;fill-rule:evenodd;stroke:none"
         id="path106683"
         inkscape:connector-curvature="0" />
      <path
         inkscape:connector-curvature="0"
         id="path106687"
         style="fill:none;stroke:#ff0000;stroke-width:0.02603063;stroke-linecap:butt;stroke-linejoin:round;stroke-miterlimit:4;stroke-opacity:1;stroke-dasharray:none"
         d="m 296.16495,278.61325 0.16646,-0.45572 0.16747,0.45572 c -0.0983,-0.0728 -0.23466,-0.0728 -0.33393,0 z" />
      <path
         inkscape:connector-curvature="0"
         id="path106691"
         style="fill:none;stroke:#ff0000;stroke-width:0.0694151;stroke-linecap:round;stroke-linejoin:round;stroke-miterlimit:4;stroke-opacity:1;stroke-dasharray:none"
         d="m 296.37553,273.93039 0,-4.80053" />
      <path
         d="m 296.545,273.568 -0.17,0.452 -0.167,-0.452 c 0.098,0.07 0.235,0.07 0.337,0"
         style="fill:#ff0000;fill-opacity:1;fill-rule:evenodd;stroke:none"
         id="path106693"
         inkscape:connector-curvature="0" />
      <path
         inkscape:connector-curvature="0"
         id="path106697"
         style="fill:none;stroke:#ff0000;stroke-width:0.02603063;stroke-linecap:butt;stroke-linejoin:round;stroke-miterlimit:4;stroke-opacity:1;stroke-dasharray:none"
         d="m 296.54701,273.56741 -0.17148,0.45373 -0.16546,-0.45373 c 0.0983,0.0708 0.23466,0.0708 0.33694,0 z" />
      <path
         d="m 301.715,273.409 0,0.426 -0.66,0 0,5.009 -1.271,-0.632 0.085,-0.469 0.679,0.371 0,-4.285 -0.709,0 0,-0.42 1.876,0 z m 2.185,0.298 c -0.004,0.089 -0.034,0.158 -0.089,0.206 -0.061,0.047 -0.125,0.071 -0.2,0.073 -0.075,-0.002 -0.142,-0.026 -0.197,-0.07 -0.061,-0.047 -0.087,-0.118 -0.087,-0.209 0,-0.095 0.026,-0.166 0.087,-0.214 0.055,-0.047 0.122,-0.067 0.197,-0.071 0.075,0.004 0.139,0.024 0.2,0.069 0.055,0.043 0.085,0.114 0.089,0.216 z m 3.131,5.161 c -0.272,-0.206 -0.538,-0.443 -0.796,-0.713 -0.262,-0.275 -0.497,-0.565 -0.699,-0.876 -0.209,-0.311 -0.375,-0.642 -0.504,-0.988 -0.129,-0.346 -0.194,-0.692 -0.19,-1.04 -0.004,-0.249 0.03,-0.493 0.106,-0.723 0.067,-0.237 0.172,-0.442 0.315,-0.622 0.136,-0.183 0.31,-0.327 0.516,-0.436 0.204,-0.107 0.446,-0.159 0.725,-0.163 0.349,0.004 0.646,0.086 0.887,0.251 0.238,0.169 0.418,0.378 0.541,0.629 0.118,0.249 0.18,0.519 0.182,0.815 0,0.29 -0.057,0.561 -0.169,0.814 -0.116,0.25 -0.289,0.46 -0.521,0.628 -0.234,0.167 -0.526,0.251 -0.876,0.253 -0.198,-0.002 -0.381,-0.04 -0.55,-0.117 -0.178,-0.081 -0.33,-0.185 -0.459,-0.315 0.17,0.466 0.42,0.889 0.748,1.271 0.326,0.378 0.686,0.716 1.08,1.01 l -0.336,0.322 z m 0.574,-3.836 c -0.003,-0.274 -0.062,-0.504 -0.17,-0.693 -0.116,-0.189 -0.255,-0.335 -0.421,-0.429 -0.17,-0.099 -0.351,-0.143 -0.545,-0.14 -0.193,0 -0.376,0.055 -0.544,0.171 -0.169,0.107 -0.309,0.279 -0.421,0.512 -0.111,0.231 -0.166,0.528 -0.166,0.89 0,0.165 0.055,0.314 0.166,0.452 0.112,0.133 0.252,0.237 0.421,0.312 0.168,0.071 0.351,0.11 0.544,0.125 0.194,0.006 0.375,-0.028 0.545,-0.101 0.166,-0.082 0.305,-0.21 0.421,-0.385 0.108,-0.183 0.167,-0.421 0.17,-0.714 z m 8.626,-1.58 0,2.272 c -0.003,0.182 -0.027,0.366 -0.07,0.541 -0.048,0.175 -0.12,0.331 -0.215,0.471 -0.099,0.134 -0.221,0.242 -0.37,0.327 -0.154,0.078 -0.337,0.118 -0.548,0.123 -0.268,-0.005 -0.499,-0.063 -0.696,-0.181 -0.201,-0.122 -0.368,-0.293 -0.504,-0.513 -0.119,0.233 -0.273,0.406 -0.459,0.52 -0.186,0.111 -0.384,0.174 -0.588,0.179 -0.208,0.003 -0.411,-0.044 -0.611,-0.142 -0.205,-0.104 -0.377,-0.253 -0.517,-0.449 l 0,0.586 c -0.163,-0.048 -0.319,-0.086 -0.469,-0.117 l 0,-3.701 0.482,0.084 0,2.408 c 0,0.024 0.007,0.054 0.024,0.098 0.014,0.037 0.027,0.071 0.038,0.101 0.072,0.169 0.163,0.311 0.278,0.419 0.113,0.108 0.235,0.182 0.364,0.23 0.129,0.041 0.259,0.054 0.391,0.033 0.133,-0.019 0.251,-0.07 0.356,-0.152 0.103,-0.082 0.187,-0.194 0.256,-0.341 0.065,-0.148 0.098,-0.327 0.102,-0.534 l 0,-2.346 0.475,0.084 0,2.408 c 0,0.024 0.007,0.054 0.021,0.094 0.014,0.037 0.027,0.067 0.042,0.095 0.074,0.168 0.169,0.311 0.284,0.422 0.116,0.109 0.239,0.186 0.367,0.233 0.13,0.045 0.259,0.058 0.391,0.037 0.13,-0.019 0.249,-0.074 0.353,-0.155 0.102,-0.087 0.183,-0.198 0.252,-0.341 0.062,-0.145 0.096,-0.324 0.096,-0.531 l 0,-2.346 0.475,0.084 z m 6.101,0 0,2.272 c -0.003,0.182 -0.027,0.366 -0.072,0.541 -0.047,0.175 -0.117,0.331 -0.214,0.471 -0.098,0.134 -0.221,0.242 -0.371,0.327 -0.152,0.078 -0.336,0.118 -0.546,0.123 -0.268,-0.005 -0.5,-0.063 -0.697,-0.181 -0.2,-0.122 -0.367,-0.293 -0.502,-0.513 -0.119,0.233 -0.273,0.406 -0.46,0.52 -0.187,0.111 -0.384,0.174 -0.588,0.179 -0.207,0.003 -0.411,-0.044 -0.612,-0.142 -0.204,-0.104 -0.377,-0.253 -0.516,-0.449 l 0,0.586 c -0.163,-0.048 -0.319,-0.086 -0.469,-0.117 l 0,-3.701 0.482,0.084 0,2.408 c 0,0.024 0.007,0.054 0.026,0.098 0.012,0.037 0.026,0.071 0.037,0.101 0.07,0.169 0.161,0.311 0.278,0.419 0.112,0.108 0.234,0.182 0.363,0.23 0.129,0.041 0.259,0.054 0.391,0.033 0.133,-0.019 0.252,-0.07 0.357,-0.152 0.101,-0.082 0.186,-0.194 0.254,-0.341 0.065,-0.148 0.099,-0.327 0.102,-0.534 l 0,-2.346 0.476,0.084 0,2.408 c 0,0.024 0.007,0.054 0.021,0.094 0.014,0.037 0.027,0.067 0.041,0.095 0.075,0.168 0.169,0.311 0.286,0.422 0.115,0.109 0.237,0.186 0.367,0.233 0.129,0.045 0.258,0.058 0.39,0.037 0.13,-0.019 0.248,-0.074 0.354,-0.155 0.102,-0.087 0.184,-0.198 0.251,-0.341 0.061,-0.145 0.094,-0.324 0.094,-0.531 l 0,-2.346"
         style="fill:#000000;fill-opacity:1;fill-rule:nonzero;stroke:none"
         id="path106699"
         inkscape:connector-curvature="0" />
      <path
         inkscape:connector-curvature="0"
         id="path106703"
         style="fill:none;stroke:#ff0000;stroke-width:0.0694151;stroke-linecap:round;stroke-linejoin:round;stroke-miterlimit:4;stroke-opacity:1;stroke-dasharray:none"
         d="m 110.7382,292.66483 48.64182,0" />
      <path
         inkscape:connector-curvature="0"
         id="path106707"
         style="fill:none;stroke:#ff0000;stroke-width:0.0694151;stroke-linecap:round;stroke-linejoin:round;stroke-miterlimit:4;stroke-opacity:1;stroke-dasharray:none"
         d="m 110.7382,278.12064 7.4839,0" />
      <path
         inkscape:connector-curvature="0"
         id="path106711"
         style="fill:none;stroke:#ff0000;stroke-width:0.0694151;stroke-linecap:round;stroke-linejoin:round;stroke-miterlimit:4;stroke-opacity:1;stroke-dasharray:none"
         d="m 111.1674,278.32406 0,3.23493" />
      <path
         d="m 111.332,278.686 -0.166,-0.453 -0.167,0.453 c 0.099,-0.071 0.235,-0.071 0.333,0"
         style="fill:#ff0000;fill-opacity:1;fill-rule:evenodd;stroke:none"
         id="path106713"
         inkscape:connector-curvature="0" />
      <path
         inkscape:connector-curvature="0"
         id="path106717"
         style="fill:none;stroke:#ff0000;stroke-width:0.02603063;stroke-linecap:butt;stroke-linejoin:round;stroke-miterlimit:4;stroke-opacity:1;stroke-dasharray:none"
         d="m 111.33286,278.68505 -0.16546,-0.45273 -0.16747,0.45273 c 0.0993,-0.0718 0.23466,-0.0718 0.33293,0 z" />
      <path
         d="m 99.3891,288.629 c -0.2723,-0.207 -0.5375,-0.443 -0.795,-0.713 -0.2621,-0.273 -0.4968,-0.564 -0.7007,-0.876 -0.2067,-0.311 -0.3743,-0.642 -0.5028,-0.986 -0.1297,-0.349 -0.1937,-0.693 -0.1906,-1.041 -0.0031,-0.25 0.0305,-0.494 0.1055,-0.724 0.0675,-0.236 0.173,-0.442 0.3156,-0.622 0.1367,-0.181 0.3098,-0.328 0.5168,-0.436 0.2047,-0.108 0.4453,-0.16 0.7238,-0.162 0.3508,0.002 0.6457,0.084 0.8879,0.251 0.2375,0.168 0.4174,0.378 0.5404,0.628 0.119,0.25 0.18,0.52 0.183,0.815 0,0.29 -0.058,0.561 -0.17,0.814 -0.115,0.25 -0.289,0.46 -0.5198,0.628 -0.2348,0.166 -0.5273,0.25 -0.8769,0.254 -0.1973,-0.004 -0.3813,-0.041 -0.5508,-0.118 -0.1766,-0.081 -0.3297,-0.186 -0.4582,-0.315 0.1695,0.467 0.4207,0.889 0.7468,1.271 0.3262,0.379 0.6868,0.716 1.0809,1.012 l -0.3359,0.32 z m 0.5742,-3.835 c -0.0031,-0.275 -0.0613,-0.505 -0.1703,-0.694 -0.1149,-0.189 -0.2539,-0.335 -0.4211,-0.429 -0.1699,-0.099 -0.3496,-0.142 -0.5442,-0.139 -0.1937,0 -0.3765,0.054 -0.5433,0.17 -0.1699,0.108 -0.309,0.279 -0.4215,0.513 -0.1121,0.23 -0.1668,0.527 -0.1668,0.888 0,0.166 0.0547,0.315 0.1668,0.454 0.1125,0.132 0.2516,0.236 0.4215,0.311 0.1668,0.07 0.3496,0.111 0.5433,0.125 0.1946,0.007 0.3743,-0.027 0.5442,-0.102 0.1672,-0.081 0.3062,-0.209 0.4211,-0.385 0.109,-0.182 0.1672,-0.42 0.1703,-0.712 z m 8.6267,-1.58 0,2.271 c -0.004,0.183 -0.027,0.366 -0.072,0.541 -0.047,0.176 -0.119,0.331 -0.214,0.469 -0.099,0.137 -0.22,0.245 -0.37,0.329 -0.154,0.078 -0.337,0.119 -0.548,0.121 -0.268,-0.002 -0.499,-0.06 -0.697,-0.179 -0.2,-0.121 -0.367,-0.294 -0.503,-0.513 -0.118,0.234 -0.271,0.406 -0.458,0.52 -0.187,0.112 -0.384,0.172 -0.588,0.179 -0.208,0.004 -0.412,-0.043 -0.612,-0.141 -0.203,-0.105 -0.377,-0.254 -0.517,-0.45 l 0,0.584 c -0.162,-0.047 -0.319,-0.084 -0.469,-0.114 l 0,-3.701 0.483,0.084 0,2.407 c 0,0.024 0.007,0.054 0.024,0.098 0.014,0.037 0.027,0.07 0.037,0.102 0.071,0.168 0.164,0.311 0.278,0.418 0.113,0.109 0.236,0.183 0.364,0.23 0.13,0.041 0.259,0.055 0.392,0.033 0.132,-0.019 0.251,-0.07 0.357,-0.152 0.102,-0.079 0.187,-0.195 0.254,-0.341 0.065,-0.147 0.099,-0.327 0.103,-0.534 l 0,-2.345 0.475,0.084 0,2.407 c 0,0.024 0.007,0.054 0.02,0.094 0.014,0.037 0.027,0.067 0.041,0.095 0.075,0.169 0.17,0.311 0.285,0.422 0.116,0.109 0.239,0.186 0.368,0.233 0.13,0.045 0.258,0.059 0.391,0.037 0.129,-0.019 0.248,-0.074 0.354,-0.154 0.101,-0.088 0.182,-0.2 0.251,-0.341 0.061,-0.145 0.095,-0.325 0.095,-0.532 l 0,-2.345 0.476,0.084 z m 6.104,0 0,2.271 c -0.003,0.183 -0.028,0.366 -0.071,0.541 -0.048,0.176 -0.119,0.331 -0.215,0.469 -0.098,0.137 -0.221,0.245 -0.37,0.329 -0.153,0.078 -0.336,0.119 -0.547,0.121 -0.269,-0.002 -0.5,-0.06 -0.696,-0.179 -0.202,-0.121 -0.368,-0.294 -0.504,-0.513 -0.119,0.234 -0.272,0.406 -0.459,0.52 -0.187,0.112 -0.384,0.172 -0.587,0.179 -0.208,0.004 -0.412,-0.043 -0.612,-0.141 -0.204,-0.105 -0.378,-0.254 -0.517,-0.45 l 0,0.584 c -0.164,-0.047 -0.319,-0.084 -0.469,-0.114 l 0,-3.701 0.482,0.084 0,2.407 c 0,0.024 0.007,0.054 0.025,0.098 0.012,0.037 0.026,0.07 0.037,0.102 0.071,0.168 0.163,0.311 0.279,0.418 0.111,0.109 0.234,0.183 0.363,0.23 0.129,0.041 0.258,0.055 0.39,0.033 0.134,-0.019 0.252,-0.07 0.357,-0.152 0.103,-0.079 0.188,-0.195 0.255,-0.341 0.065,-0.147 0.1,-0.327 0.103,-0.534 l 0,-2.345 0.475,0.084 0,2.407 c 0,0.024 0.007,0.054 0.021,0.094 0.013,0.037 0.027,0.067 0.041,0.095 0.075,0.169 0.17,0.311 0.285,0.422 0.116,0.109 0.238,0.186 0.368,0.233 0.128,0.045 0.258,0.059 0.39,0.037 0.129,-0.019 0.248,-0.074 0.353,-0.154 0.102,-0.088 0.184,-0.2 0.252,-0.341 0.062,-0.145 0.095,-0.325 0.095,-0.532 l 0,-2.345"
         style="fill:#000000;fill-opacity:1;fill-rule:nonzero;stroke:none"
         id="path106719"
         inkscape:connector-curvature="0" />
      <path
         inkscape:connector-curvature="0"
         id="path106723"
         style="fill:none;stroke:#ff0000;stroke-width:0.0694151;stroke-linecap:round;stroke-linejoin:round;stroke-miterlimit:4;stroke-opacity:1;stroke-dasharray:none"
         d="m 111.1674,292.52921 0,-3.23393" />
      <path
         d="m 110.999,292.168 0.167,0.453 0.166,-0.453 c -0.098,0.07 -0.234,0.07 -0.333,0"
         style="fill:#ff0000;fill-opacity:1;fill-rule:evenodd;stroke:none"
         id="path106725"
         inkscape:connector-curvature="0" />
      <path
         inkscape:connector-curvature="0"
         id="path106729"
         style="fill:none;stroke:#ff0000;stroke-width:0.02603063;stroke-linecap:butt;stroke-linejoin:round;stroke-miterlimit:4;stroke-opacity:1;stroke-dasharray:none"
         d="m 110.99993,292.16822 0.16747,0.45373 0.16546,-0.45373 c -0.0983,0.0718 -0.23365,0.0718 -0.33293,0 z" />
      <path
         inkscape:connector-curvature="0"
         id="path106733"
         style="fill:none;stroke:#ff0000;stroke-width:0.0694151;stroke-linecap:round;stroke-linejoin:round;stroke-miterlimit:4;stroke-opacity:1;stroke-dasharray:none"
         d="m 118.62723,264.13189 8.47266,0" />
      <path
         d="m 118.99,263.962 -0.455,0.17 0.455,0.164 c -0.075,-0.097 -0.071,-0.231 0,-0.334"
         style="fill:#ff0000;fill-opacity:1;fill-rule:evenodd;stroke:none"
         id="path106735"
         inkscape:connector-curvature="0" />
      <path
         inkscape:connector-curvature="0"
         id="path106739"
         style="fill:none;stroke:#ff0000;stroke-width:0.02603063;stroke-linecap:butt;stroke-linejoin:round;stroke-miterlimit:4;stroke-opacity:1;stroke-dasharray:none"
         d="m 118.99125,263.96336 -0.45528,0.16853 0.45528,0.16453 c -0.0752,-0.0977 -0.0712,-0.23234 0,-0.33306 z" />
      <path
         d="m 130.666,261.107 0,0.425 -0.661,0 0,5.009 -1.27,-0.632 0.085,-0.47 0.679,0.372 0,-4.286 -0.709,0 0,-0.418 1.876,0 z m 4.761,5.275 -3.406,0 -0.053,-0.473 2.756,0 -2.012,-4.796 c 0.085,0.009 0.17,0.009 0.258,0 0.085,-0.01 0.17,-0.024 0.254,-0.047 l 2.203,5.316 z m 8.019,-5.232 0,2.271 c -0.004,0.183 -0.028,0.365 -0.073,0.541 -0.046,0.176 -0.118,0.332 -0.213,0.47 -0.098,0.136 -0.222,0.243 -0.371,0.328 -0.152,0.078 -0.336,0.119 -0.547,0.122 -0.269,-0.003 -0.5,-0.061 -0.696,-0.179 -0.201,-0.122 -0.368,-0.295 -0.503,-0.515 -0.12,0.234 -0.272,0.406 -0.459,0.521 -0.188,0.112 -0.384,0.173 -0.588,0.18 -0.208,0.002 -0.412,-0.044 -0.612,-0.143 -0.204,-0.104 -0.377,-0.253 -0.516,-0.45 l 0,0.586 c -0.165,-0.048 -0.32,-0.085 -0.47,-0.115 l 0,-3.701 0.483,0.084 0,2.407 c 0,0.023 0.006,0.053 0.024,0.097 0.013,0.037 0.026,0.071 0.037,0.101 0.072,0.169 0.163,0.312 0.278,0.42 0.113,0.108 0.235,0.182 0.364,0.23 0.129,0.04 0.259,0.055 0.391,0.034 0.133,-0.02 0.251,-0.072 0.357,-0.152 0.103,-0.082 0.187,-0.196 0.254,-0.341 0.066,-0.15 0.1,-0.329 0.102,-0.534 l 0,-2.346 0.476,0.084 0,2.407 c 0,0.023 0.007,0.053 0.021,0.094 0.013,0.037 0.028,0.068 0.041,0.095 0.075,0.169 0.17,0.311 0.285,0.423 0.117,0.108 0.238,0.186 0.368,0.232 0.128,0.044 0.259,0.059 0.391,0.038 0.128,-0.02 0.247,-0.074 0.352,-0.156 0.102,-0.087 0.184,-0.199 0.252,-0.34 0.062,-0.147 0.095,-0.326 0.095,-0.531 l 0,-2.346 0.477,0.084 z m 6.1,0 0,2.271 c -0.003,0.183 -0.027,0.365 -0.07,0.541 -0.049,0.176 -0.121,0.332 -0.215,0.47 -0.098,0.136 -0.221,0.243 -0.371,0.328 -0.154,0.078 -0.336,0.119 -0.547,0.122 -0.268,-0.003 -0.499,-0.061 -0.696,-0.179 -0.202,-0.122 -0.367,-0.295 -0.504,-0.515 -0.119,0.234 -0.272,0.406 -0.459,0.521 -0.187,0.112 -0.384,0.173 -0.588,0.18 -0.207,0.002 -0.41,-0.044 -0.612,-0.143 -0.204,-0.104 -0.377,-0.253 -0.517,-0.45 l 0,0.586 c -0.162,-0.048 -0.319,-0.085 -0.468,-0.115 l 0,-3.701 0.483,0.084 0,2.407 c 0,0.023 0.007,0.053 0.023,0.097 0.014,0.037 0.028,0.071 0.038,0.101 0.071,0.169 0.163,0.312 0.279,0.42 0.112,0.108 0.233,0.182 0.364,0.23 0.128,0.04 0.258,0.055 0.39,0.034 0.132,-0.02 0.252,-0.072 0.356,-0.152 0.102,-0.082 0.188,-0.196 0.256,-0.341 0.064,-0.15 0.098,-0.329 0.102,-0.534 l 0,-2.346 0.475,0.084 0,2.407 c 0,0.023 0.007,0.053 0.022,0.094 0.013,0.037 0.026,0.068 0.04,0.095 0.074,0.169 0.17,0.311 0.286,0.423 0.114,0.108 0.238,0.186 0.366,0.232 0.13,0.044 0.258,0.059 0.391,0.038 0.13,-0.02 0.249,-0.074 0.354,-0.156 0.101,-0.087 0.183,-0.199 0.251,-0.34 0.061,-0.147 0.095,-0.326 0.095,-0.531 l 0,-2.346"
         style="fill:#000000;fill-opacity:1;fill-rule:nonzero;stroke:none"
         id="path106741"
         inkscape:connector-curvature="0" />
      <path
         inkscape:connector-curvature="0"
         id="path106745"
         style="fill:none;stroke:#ff0000;stroke-width:0.0694151;stroke-linecap:round;stroke-linejoin:round;stroke-miterlimit:4;stroke-opacity:1;stroke-dasharray:none"
         d="m 159.55049,264.13189 -8.47466,0" />
      <path
         d="m 159.185,264.296 0.456,-0.164 -0.456,-0.17 c 0.076,0.103 0.072,0.234 0,0.334"
         style="fill:#ff0000;fill-opacity:1;fill-rule:evenodd;stroke:none"
         id="path106747"
         inkscape:connector-curvature="0" />
      <path
         inkscape:connector-curvature="0"
         id="path106751"
         style="fill:none;stroke:#ff0000;stroke-width:0.02603063;stroke-linecap:butt;stroke-linejoin:round;stroke-miterlimit:4;stroke-opacity:1;stroke-dasharray:none"
         d="m 159.18547,264.29642 0.45628,-0.16453 -0.45628,-0.16853 c 0.0762,0.10072 0.0722,0.23235 0,0.33306 z" />
    </g>
  </g>
</svg>
