<?xml version="1.0" encoding="UTF-8" standalone="no"?>
<!-- Created with Inkscape (http://www.inkscape.org/) -->

<svg
   xmlns:dc="http://purl.org/dc/elements/1.1/"
   xmlns:cc="http://creativecommons.org/ns#"
   xmlns:rdf="http://www.w3.org/1999/02/22-rdf-syntax-ns#"
   xmlns:svg="http://www.w3.org/2000/svg"
   xmlns="http://www.w3.org/2000/svg"
   xmlns:sodipodi="http://sodipodi.sourceforge.net/DTD/sodipodi-0.dtd"
   xmlns:inkscape="http://www.inkscape.org/namespaces/inkscape"
   width="559.74628"
   height="92.483368"
   id="svg10798"
   version="1.1"
   inkscape:version="0.48.5 r10040"
   sodipodi:docname="sd_card.svg">
  <defs
     id="defs10800" />
  <sodipodi:namedview
     id="base"
     pagecolor="#ffffff"
     bordercolor="#666666"
     borderopacity="1.0"
     inkscape:pageopacity="0.0"
     inkscape:pageshadow="2"
     inkscape:zoom="0.35"
     inkscape:cx="-440.16277"
     inkscape:cy="2.2081014"
     inkscape:document-units="px"
     inkscape:current-layer="layer1"
     showgrid="false"
     fit-margin-top="5"
     fit-margin-left="5"
     fit-margin-right="4.7"
     fit-margin-bottom="5"
     inkscape:window-width="1280"
     inkscape:window-height="778"
     inkscape:window-x="0"
     inkscape:window-y="0"
     inkscape:window-maximized="1" />
  <metadata
     id="metadata10803">
    <rdf:RDF>
      <cc:Work
         rdf:about="">
        <dc:format>image/svg+xml</dc:format>
        <dc:type
           rdf:resource="http://purl.org/dc/dcmitype/StillImage" />
        <dc:title></dc:title>
      </cc:Work>
    </rdf:RDF>
  </metadata>
  <g
     inkscape:label="Layer 1"
     inkscape:groupmode="layer"
     id="layer1"
     transform="translate(-208.01992,-442.08693)">
    <g
       id="g40479"
       transform="matrix(4.6051132,0,0,-4.6051132,-475.43297,1531.3148)">
      <path
         d="m 149.557,234.042 4.223,0.006 0.005,1.351 111.08,0 0,-1.351 4.025,-0.031 0,-16.447 -119.333,0"
         style="fill:#e6e6e6;fill-opacity:1;fill-rule:nonzero;stroke:none"
         id="path39301"
         inkscape:connector-curvature="0" />
      <path
         inkscape:connector-curvature="0"
         id="path39305"
         style="fill:none;stroke:#000000;stroke-width:0.05741904;stroke-linecap:round;stroke-linejoin:round;stroke-miterlimit:4;stroke-opacity:1;stroke-dasharray:none"
         d="m 149.55892,234.04215 4.22151,0.005 0.006,1.35208 111.08083,0 0,-1.35208 4.02408,-0.0308 0,-16.44543 -119.33246,0 0,16.47124 z" />
      <path
         d="m 152.156,233.324 2.278,-0.01 0,1.13 108.03,-0.053 0.027,-2.341 3.822,0 0,-12.505 -114.161,0"
         style="fill:#0b0b0b;fill-opacity:1;fill-rule:nonzero;stroke:none"
         id="path39307"
         inkscape:connector-curvature="0" />
      <path
         inkscape:connector-curvature="0"
         id="path39311"
         style="fill:none;stroke:#000000;stroke-width:0.05741904;stroke-linecap:round;stroke-linejoin:round;stroke-miterlimit:4;stroke-opacity:1;stroke-dasharray:none"
         d="m 152.1577,233.32442 2.27646,-0.0109 0,1.12971 108.03078,-0.0526 0.0282,-2.33885 3.82061,0 0,-12.50532 -114.16108,0 0.005,13.77799 z" />
      <path
         d="m 150.35,233.663 3.544,0 0,-13.574 7.077,0 0,-2.118 -10.621,0"
         style="fill:#343434;fill-opacity:1;fill-rule:nonzero;stroke:none"
         id="path39313"
         inkscape:connector-curvature="0" />
      <path
         inkscape:connector-curvature="0"
         id="path39317"
         style="fill:none;stroke:#000000;stroke-width:0.05741904;stroke-linecap:round;stroke-linejoin:round;stroke-miterlimit:4;stroke-opacity:1;stroke-dasharray:none"
         d="m 150.35165,233.66095 3.5426,0 0,-13.5715 7.07816,0 0,-2.11947 -10.62076,0 0,15.69097 z" />
      <path
         d="m 267.507,233.54 -3.216,0.053 0,1.342 -11.129,0.026 -0.016,-14.935 -6.255,0.011 0,-1.955 20.616,-0.006"
         style="fill:#343434;fill-opacity:1;fill-rule:nonzero;stroke:none"
         id="path39319"
         inkscape:connector-curvature="0" />
      <path
         inkscape:connector-curvature="0"
         id="path39323"
         style="fill:none;stroke:#000000;stroke-width:0.05741904;stroke-linecap:round;stroke-linejoin:round;stroke-miterlimit:4;stroke-opacity:1;stroke-dasharray:none"
         d="m 267.50839,233.54083 -3.21524,0.0526 0,1.34018 -11.13045,0.0278 -0.0151,-14.9355 -6.25421,0.0109 0,-1.95368 20.615,-0.006 0,15.46363 z" />
      <path
         d="m 169.122,217.622 17.4156,0 0,1.86445 -17.4156,0 0,-1.86445 z"
         style="fill:#c3c3c3;fill-opacity:1;fill-rule:nonzero;stroke:none"
         id="path39325"
         inkscape:connector-curvature="0" />
      <path
         inkscape:connector-curvature="0"
         id="path39329"
         style="fill:none;stroke:#000000;stroke-width:0.03412589;stroke-linecap:butt;stroke-linejoin:miter;stroke-miterlimit:4;stroke-opacity:1;stroke-dasharray:none"
         d="m 169.12083,219.48745 17.41591,0 0,-1.86382 -17.41591,0 0,1.86382 z" />
      <path
         d="m 223.159,217.622 17.4367,0 0,1.88086 -17.4367,0 0,-1.88086 z"
         style="fill:#c3c3c3;fill-opacity:1;fill-rule:nonzero;stroke:none"
         id="path39331"
         inkscape:connector-curvature="0" />
      <path
         inkscape:connector-curvature="0"
         id="path39335"
         style="fill:none;stroke:#000000;stroke-width:0.03412589;stroke-linecap:butt;stroke-linejoin:miter;stroke-miterlimit:4;stroke-opacity:1;stroke-dasharray:none"
         d="m 223.15866,219.5028 17.43672,0 0,-1.88012 -17.43672,0 0,1.88012 z" />
      <path
         d="m 158.072,234.516 95.1109,0 0,0.86172 -95.1109,0 0,-0.86172 z"
         style="fill:#c3c3c3;fill-opacity:1;fill-rule:nonzero;stroke:none"
         id="path39337"
         inkscape:connector-curvature="0" />
      <path
         inkscape:connector-curvature="0"
         id="path39341"
         style="fill:none;stroke:#000000;stroke-width:0.03412603;stroke-linecap:butt;stroke-linejoin:miter;stroke-miterlimit:4;stroke-opacity:1;stroke-dasharray:none"
         d="m 158.07245,235.37836 95.11241,0 0,-0.86169 -95.11241,0 0,0.86169 z" />
      <path
         d="m 165.397,219.616 3.6707,0 0,0.59609 -3.6707,0 0,-0.59609 z"
         style="fill:#ffcc00;fill-opacity:1;fill-rule:nonzero;stroke:none"
         id="path39343"
         inkscape:connector-curvature="0" />
      <path
         inkscape:connector-curvature="0"
         id="path39347"
         style="fill:none;stroke:#000000;stroke-width:0.03576109;stroke-linecap:butt;stroke-linejoin:miter;stroke-miterlimit:4;stroke-opacity:1;stroke-dasharray:none"
         d="m 165.3984,220.21056 3.67153,0 0,-0.59564 -3.67153,0 0,0.59564 z" />
      <path
         d="m 171.93,219.616 3.6707,0 0,0.59609 -3.6707,0 0,-0.59609 z"
         style="fill:#ffcc00;fill-opacity:1;fill-rule:nonzero;stroke:none"
         id="path39349"
         inkscape:connector-curvature="0" />
      <path
         inkscape:connector-curvature="0"
         id="path39353"
         style="fill:none;stroke:#000000;stroke-width:0.03576109;stroke-linecap:butt;stroke-linejoin:miter;stroke-miterlimit:4;stroke-opacity:1;stroke-dasharray:none"
         d="m 171.93061,220.21056 3.67153,0 0,-0.59564 -3.67153,0 0,0.59564 z" />
      <path
         d="m 178.528,219.616 3.6707,0 0,0.59609 -3.6707,0 0,-0.59609 z"
         style="fill:#ffcc00;fill-opacity:1;fill-rule:nonzero;stroke:none"
         id="path39355"
         inkscape:connector-curvature="0" />
      <path
         inkscape:connector-curvature="0"
         id="path39359"
         style="fill:none;stroke:#000000;stroke-width:0.03576109;stroke-linecap:butt;stroke-linejoin:miter;stroke-miterlimit:4;stroke-opacity:1;stroke-dasharray:none"
         d="m 178.52829,220.21056 3.67053,0 0,-0.59564 -3.67053,0 0,0.59564 z" />
      <path
         d="m 185.139,219.616 3.67109,0 0,0.59609 -3.67109,0 0,-0.59609 z"
         style="fill:#ffcc00;fill-opacity:1;fill-rule:nonzero;stroke:none"
         id="path39361"
         inkscape:connector-curvature="0" />
      <path
         inkscape:connector-curvature="0"
         id="path39365"
         style="fill:none;stroke:#000000;stroke-width:0.03576109;stroke-linecap:butt;stroke-linejoin:miter;stroke-miterlimit:4;stroke-opacity:1;stroke-dasharray:none"
         d="m 185.14008,220.21056 3.67053,0 0,-0.59564 -3.67053,0 0,0.59564 z" />
      <path
         d="m 191.827,219.616 3.67617,0 0,0.59609 -3.67617,0 0,-0.59609 z"
         style="fill:#ffcc00;fill-opacity:1;fill-rule:nonzero;stroke:none"
         id="path39367"
         inkscape:connector-curvature="0" />
      <path
         inkscape:connector-curvature="0"
         id="path39371"
         style="fill:none;stroke:#000000;stroke-width:0.03576109;stroke-linecap:butt;stroke-linejoin:miter;stroke-miterlimit:4;stroke-opacity:1;stroke-dasharray:none"
         d="m 191.82842,220.21056 3.67657,0 0,-0.59564 -3.67657,0 0,0.59564 z" />
      <path
         d="m 198.36,219.616 3.67617,0 0,0.59609 -3.67617,0 0,-0.59609 z"
         style="fill:#ffcc00;fill-opacity:1;fill-rule:nonzero;stroke:none"
         id="path39373"
         inkscape:connector-curvature="0" />
      <path
         inkscape:connector-curvature="0"
         id="path39377"
         style="fill:none;stroke:#000000;stroke-width:0.03576109;stroke-linecap:butt;stroke-linejoin:miter;stroke-miterlimit:4;stroke-opacity:1;stroke-dasharray:none"
         d="m 198.36164,220.21056 3.67556,0 0,-0.59564 -3.67556,0 0,0.59564 z" />
      <path
         d="m 204.96,219.616 3.67109,0 0,0.59609 -3.67109,0 0,-0.59609 z"
         style="fill:#ffcc00;fill-opacity:1;fill-rule:nonzero;stroke:none"
         id="path39379"
         inkscape:connector-curvature="0" />
      <path
         inkscape:connector-curvature="0"
         id="path39383"
         style="fill:none;stroke:#000000;stroke-width:0.03576109;stroke-linecap:butt;stroke-linejoin:miter;stroke-miterlimit:4;stroke-opacity:1;stroke-dasharray:none"
         d="m 204.96234,220.21056 3.67053,0 0,-0.59564 -3.67053,0 0,0.59564 z" />
      <path
         d="m 211.664,219.616 3.67695,0 0,0.59609 -3.67695,0 0,-0.59609 z"
         style="fill:#ffcc00;fill-opacity:1;fill-rule:nonzero;stroke:none"
         id="path39385"
         inkscape:connector-curvature="0" />
      <path
         inkscape:connector-curvature="0"
         id="path39389"
         style="fill:none;stroke:#000000;stroke-width:0.03576109;stroke-linecap:butt;stroke-linejoin:miter;stroke-miterlimit:4;stroke-opacity:1;stroke-dasharray:none"
         d="m 211.66579,220.21056 3.67657,0 0,-0.59564 -3.67657,0 0,0.59564 z" />
      <path
         d="m 218.33,219.616 3.67695,0 0,0.59609 -3.67695,0 0,-0.59609 z"
         style="fill:#ffcc00;fill-opacity:1;fill-rule:nonzero;stroke:none"
         id="path39391"
         inkscape:connector-curvature="0" />
      <path
         inkscape:connector-curvature="0"
         id="path39395"
         style="fill:none;stroke:#000000;stroke-width:0.03576109;stroke-linecap:butt;stroke-linejoin:miter;stroke-miterlimit:4;stroke-opacity:1;stroke-dasharray:none"
         d="m 218.33197,220.21056 3.67556,0 0,-0.59564 -3.67556,0 0,0.59564 z" />
      <path
         d="m 221.16,222.998 0,0.424 -0.643,0 0,4.98 -1.242,-0.629 0.084,-0.464 0.666,0.37 0,-4.262 -0.697,0 0,-0.419"
         style="fill:#f9f9f9;fill-opacity:1;fill-rule:nonzero;stroke:none"
         id="path39397"
         inkscape:connector-curvature="0" />
      <path
         d="m 166.4,222.936 c 0.262,0.207 0.52,0.438 0.782,0.708 0.257,0.264 0.487,0.554 0.692,0.859 0.197,0.308 0.365,0.63 0.492,0.972 0.123,0.334 0.188,0.682 0.188,1.048 0,0.252 -0.037,0.495 -0.102,0.733 -0.075,0.232 -0.176,0.444 -0.306,0.623 -0.138,0.178 -0.306,0.323 -0.508,0.428 -0.209,0.106 -0.45,0.159 -0.723,0.159 -0.343,0 -0.633,-0.084 -0.858,-0.253 -0.236,-0.17 -0.408,-0.376 -0.519,-0.618 -0.118,-0.249 -0.178,-0.519 -0.178,-0.809 -0.005,-0.297 0.048,-0.57 0.161,-0.814 0.107,-0.253 0.274,-0.459 0.504,-0.623 0.224,-0.169 0.509,-0.253 0.852,-0.248 0.17,-0.005 0.348,0.032 0.524,0.105 0.172,0.07 0.327,0.165 0.462,0.291 -0.086,-0.227 -0.194,-0.437 -0.321,-0.639 -0.129,-0.205 -0.273,-0.402 -0.43,-0.591 -0.16,-0.191 -0.326,-0.371 -0.503,-0.539 -0.177,-0.169 -0.354,-0.328 -0.531,-0.465 l 0.322,-0.327 z m 1.646,3.507 c -0.007,-0.175 -0.06,-0.327 -0.161,-0.455 -0.113,-0.137 -0.247,-0.238 -0.408,-0.306 -0.166,-0.08 -0.342,-0.12 -0.531,-0.12 -0.188,-0.011 -0.363,0.025 -0.525,0.11 -0.166,0.073 -0.299,0.2 -0.407,0.374 -0.108,0.17 -0.161,0.397 -0.161,0.677 0,0.157 0.022,0.311 0.064,0.465 0.043,0.147 0.108,0.285 0.199,0.407 0.085,0.115 0.192,0.21 0.327,0.289 0.129,0.069 0.284,0.106 0.455,0.111 0.225,-0.005 0.413,-0.048 0.562,-0.132 0.151,-0.09 0.264,-0.21 0.349,-0.354 0.08,-0.147 0.145,-0.311 0.183,-0.495 0.031,-0.191 0.047,-0.381 0.054,-0.571"
         style="fill:#f9f9f9;fill-opacity:1;fill-rule:nonzero;stroke:none"
         id="path39399"
         inkscape:connector-curvature="0" />
    </g>
  </g>
</svg>
